<svg version="1.1" viewBox="0.0 0.0 377.3595800524934 329.748031496063" fill="none" stroke="none" stroke-linecap="square" stroke-miterlimit="10" xmlns:xlink="http://www.w3.org/1999/xlink" xmlns="http://www.w3.org/2000/svg"><clipPath id="p.0"><path d="m0 0l377.3596 0l0 329.74802l-377.3596 0l0 -329.74802z" clip-rule="nonzero"/></clipPath><g clip-path="url(#p.0)"><path fill="#000000" fill-opacity="0.0" d="m0 0l377.3596 0l0 329.74802l-377.3596 0z" fill-rule="evenodd"/><path fill="#072430" d="m0.005249344 28.648361l0 0c0 -15.822053 12.826308 -28.648361 28.648361 -28.648361l319.86865 0c7.5980225 0 14.884827 3.0183008 20.257446 8.39091c5.3726196 5.37261 8.3909 12.659432 8.3909 20.25745l0 271.80566c0 15.822052 -12.826294 28.648346 -28.648346 28.648346l-319.86865 0c-15.822053 0 -28.648361 -12.826294 -28.648361 -28.648346z" fill-rule="evenodd"/><path fill="#0e4b68" d="m15.589085 -1.4173228E-5l345.98718 0c4.134491 0 8.09964 1.6424167 11.023163 4.5659375c2.923523 2.92352 4.565918 6.8886647 4.565918 11.023148l0 31.277058c0 0.0017356873 -0.0014038086 0.0031433105 -0.0031433105 0.0031433105l-377.1622 -0.0031433105l5.4140403E-19 0c-0.0017358556 0 -0.0031430447 -0.0014076233 -0.0031430447 -0.0031433105l0.0031430447 -31.273914l0 0c0 -8.609613 6.9794707 -15.589085 15.589085 -15.589085z" fill-rule="evenodd"/><path fill="#ff605c" d="m12.742013 15.921679l0 0c0 -2.9223251 2.3690128 -5.291338 5.291339 -5.291338l0 0c1.4033489 0 2.7492218 0.55747795 3.741541 1.549797c0.9923191 0.99231815 1.549797 2.338191 1.549797 3.741541l0 0c0 2.9223251 -2.3690128 5.291338 -5.291338 5.291338l0 0c-2.922326 0 -5.291339 -2.3690128 -5.291339 -5.291338z" fill-rule="evenodd"/><path fill="#ffbd44" d="m30.129261 15.921679l0 0c0 -2.9223251 2.3690147 -5.291338 5.29134 -5.291338l0 0c1.403347 0 2.7492218 0.55747795 3.741539 1.549797c0.992321 0.99231815 1.549797 2.338191 1.549797 3.741541l0 0c0 2.9223251 -2.369011 5.291338 -5.291336 5.291338l0 0c-2.9223251 0 -5.29134 -2.3690128 -5.29134 -5.291338z" fill-rule="evenodd"/><path fill="#00ca4e" d="m47.514603 15.921679l0 0c0 -2.9223251 2.3690147 -5.291338 5.29134 -5.291338l0 0c1.4033508 0 2.7492218 0.55747795 3.741539 1.549797c0.992321 0.99231815 1.5498009 2.338191 1.5498009 3.741541l0 0c0 2.9223251 -2.3690147 5.291338 -5.29134 5.291338l0 0c-2.9223251 0 -5.29134 -2.3690128 -5.29134 -5.291338z" fill-rule="evenodd"/><path fill="#000000" fill-opacity="0.0" d="m72.59294 0.96587926l259.4961 0l0 46.047245l-259.4961 0z" fill-rule="evenodd"/><path fill="#ffffff" d="m102.36978 16.726503l-6.609375 0l0 5.234375l5.625 0l0 1.734375l-5.625 0l0 7.390625l-2.171875 0l0 -16.0l8.5625 0l0.21875 1.640625zm4.4648438 14.359375l-2.125 0l0 -11.78125l2.125 0l0 11.78125zm0 -16.34375l0 1.859375l-2.125 0l0 -1.859375l2.125 0zm5.602539 16.34375l-2.125 0l0 -15.96875l2.125 -0.171875l0 16.140625zm8.017578 -1.5l-0.046875 1.515625q-0.90625 0.140625 -1.640625 0.140625q-0.78125 0 -1.296875 -0.171875q-0.5 -0.171875 -0.765625 -0.546875q-0.25 -0.375 -0.359375 -0.828125q-0.09375 -0.453125 -0.09375 -1.171875l0 -8.015625l-1.59375 0l0 -1.203125l1.59375 0l0 -3.359375l2.109375 -0.171875l0 3.53125l2.171875 0l0 1.203125l-2.171875 0l0 7.296875q0 1.171875 0.109375 1.515625q0.125 0.34375 0.625 0.34375q0.5 0 1.359375 -0.078125zm11.990234 -4.5625q-1.28125 0.125 -1.59375 0.15625l-5.859375 0q0.015625 1.5625 0.09375 3.40625q0.046875 0.734375 0.609375 0.96875q0.5625 0.21875 2.203125 0.21875q0.609375 0 1.046875 -0.046875q0.4375 -0.046875 0.703125 -0.171875q0.28125 -0.125 0.4375 -0.234375q0.15625 -0.109375 0.234375 -0.34375q0.078125 -0.25 0.09375 -0.421875q0.03125 -0.171875 0.046875 -0.5q0.015625 -0.34375 0.046875 -0.5625l1.65625 0.3125q-0.03125 0.75 -0.125 1.265625q-0.078125 0.515625 -0.28125 0.921875q-0.203125 0.390625 -0.484375 0.625q-0.28125 0.234375 -0.75 0.390625q-0.46875 0.140625 -1.046875 0.1875q-0.5625 0.046875 -1.40625 0.046875q-1.0625 0 -1.859375 -0.125q-0.796875 -0.125 -1.359375 -0.296875q-0.5625 -0.1875 -0.9375 -0.59375q-0.359375 -0.421875 -0.578125 -0.796875q-0.203125 -0.375 -0.296875 -1.09375q-0.09375 -0.734375 -0.125 -1.328125q-0.03125 -0.609375 -0.03125 -1.65625q0 -1.484375 0.03125 -2.3125q0.046875 -0.828125 0.21875 -1.65625q0.171875 -0.828125 0.453125 -1.203125q0.296875 -0.390625 0.859375 -0.703125q0.578125 -0.328125 1.34375 -0.421875q0.78125 -0.09375 1.96875 -0.09375q0.828125 0 1.421875 0.0625q0.609375 0.046875 1.109375 0.203125q0.515625 0.140625 0.84375 0.34375q0.328125 0.1875 0.578125 0.5625q0.25 0.375 0.375 0.78125q0.140625 0.390625 0.21875 1.0625q0.09375 0.671875 0.109375 1.359375q0.03125 0.671875 0.03125 1.6875zm-7.4375 -0.96875l5.328125 0q-0.03125 -1.375 -0.109375 -2.515625q-0.046875 -0.65625 -0.578125 -0.875q-0.515625 -0.21875 -1.890625 -0.21875q-1.546875 0 -1.953125 0.171875q-0.171875 0.046875 -0.3125 0.1875q-0.140625 0.125 -0.234375 0.375q-0.078125 0.25 -0.125 0.46875q-0.046875 0.203125 -0.078125 0.59375q-0.015625 0.375 -0.03125 0.59375q-0.015625 0.203125 -0.015625 0.640625q0 0.421875 0 0.578125zm15.55957 -5.015625l-0.078125 1.78125q-0.421875 -0.046875 -0.78125 -0.046875q-0.765625 0 -1.234375 0.15625q-0.46875 0.140625 -0.71875 0.515625q-0.234375 0.359375 -0.3125 0.828125q-0.078125 0.46875 -0.078125 1.25q0 0.4375 0.03125 1.296875q0.03125 0.84375 0.03125 1.203125l0 5.0625l-2.109375 0l0 -11.78125l1.921875 0l0.21875 1.3125q0.328125 -0.765625 1.0 -1.1875q0.6875 -0.421875 1.625 -0.421875q0.234375 0 0.484375 0.03125zm11.493164 5.984375q-1.28125 0.125 -1.59375 0.15625l-5.859375 0q0.015625 1.5625 0.09375 3.40625q0.046875 0.734375 0.609375 0.96875q0.5625 0.21875 2.203125 0.21875q0.609375 0 1.046875 -0.046875q0.4375 -0.046875 0.703125 -0.171875q0.28125 -0.125 0.4375 -0.234375q0.15625 -0.109375 0.234375 -0.34375q0.078125 -0.25 0.09375 -0.421875q0.03125 -0.171875 0.046875 -0.5q0.015625 -0.34375 0.046875 -0.5625l1.65625 0.3125q-0.03125 0.75 -0.125 1.265625q-0.078125 0.515625 -0.28125 0.921875q-0.203125 0.390625 -0.484375 0.625q-0.28125 0.234375 -0.75 0.390625q-0.46875 0.140625 -1.046875 0.1875q-0.5625 0.046875 -1.40625 0.046875q-1.0625 0 -1.859375 -0.125q-0.796875 -0.125 -1.359375 -0.296875q-0.5625 -0.1875 -0.9375 -0.59375q-0.359375 -0.421875 -0.578125 -0.796875q-0.203125 -0.375 -0.296875 -1.09375q-0.09375 -0.734375 -0.125 -1.328125q-0.03125 -0.609375 -0.03125 -1.65625q0 -1.484375 0.03125 -2.3125q0.046875 -0.828125 0.21875 -1.65625q0.171875 -0.828125 0.453125 -1.203125q0.296875 -0.390625 0.859375 -0.703125q0.578125 -0.328125 1.34375 -0.421875q0.78125 -0.09375 1.96875 -0.09375q0.828125 0 1.421875 0.0625q0.609375 0.046875 1.109375 0.203125q0.515625 0.140625 0.84375 0.34375q0.328125 0.1875 0.578125 0.5625q0.25 0.375 0.375 0.78125q0.140625 0.390625 0.21875 1.0625q0.09375 0.671875 0.109375 1.359375q0.03125 0.671875 0.03125 1.6875zm-7.4375 -0.96875l5.328125 0q-0.03125 -1.375 -0.109375 -2.515625q-0.046875 -0.65625 -0.578125 -0.875q-0.515625 -0.21875 -1.890625 -0.21875q-1.546875 0 -1.953125 0.171875q-0.171875 0.046875 -0.3125 0.1875q-0.140625 0.125 -0.234375 0.375q-0.078125 0.25 -0.125 0.46875q-0.046875 0.203125 -0.078125 0.59375q-0.015625 0.375 -0.03125 0.59375q-0.015625 0.203125 -0.015625 0.640625q0 0.421875 0 0.578125zm19.668945 7.03125l-1.9375 0l-0.203125 -1.484375q-0.65625 1.640625 -3.421875 1.640625q-0.75 0 -1.34375 -0.09375q-0.578125 -0.09375 -1.0 -0.328125q-0.421875 -0.234375 -0.734375 -0.484375q-0.296875 -0.265625 -0.5 -0.734375q-0.1875 -0.484375 -0.296875 -0.875q-0.109375 -0.390625 -0.171875 -1.078125q-0.046875 -0.703125 -0.0625 -1.21875q-0.015625 -0.53125 -0.015625 -1.421875q0 -0.875 0.03125 -1.5q0.03125 -0.640625 0.109375 -1.265625q0.078125 -0.625 0.203125 -1.046875q0.140625 -0.421875 0.359375 -0.8125q0.234375 -0.40625 0.546875 -0.640625q0.328125 -0.25 0.765625 -0.4375q0.4375 -0.1875 1.0 -0.265625q0.578125 -0.078125 1.296875 -0.078125q1.390625 0 2.15625 0.375q0.765625 0.375 1.09375 1.171875l0 -5.734375l2.125 -0.171875l0 16.484375zm-2.125 -2.734375l0 -6.265625q0 -0.9375 -0.578125 -1.28125q-0.578125 -0.359375 -2.171875 -0.359375q-1.25 0 -1.859375 0.1875q-0.484375 0.15625 -0.65625 0.890625q-0.171875 0.734375 -0.171875 1.984375q0 1.8125 0.0625 5.078125q0.046875 0.703125 0.5625 0.953125q0.53125 0.234375 2.0625 0.234375q1.5 0 2.09375 -0.296875q0.59375 -0.296875 0.65625 -1.125zm20.66504 -8.046875q0 0.96875 -0.109375 1.734375q-0.109375 0.765625 -0.296875 1.3125q-0.171875 0.53125 -0.484375 0.921875q-0.296875 0.390625 -0.640625 0.625q-0.328125 0.234375 -0.8125 0.375q-0.46875 0.125 -0.9375 0.171875q-0.46875 0.046875 -1.09375 0.046875l-4.265625 0l0 5.59375l-2.171875 0l0 -16.0l5.796875 0q1.0 0 1.6875 0.078125q0.703125 0.078125 1.296875 0.296875q0.59375 0.203125 0.9375 0.578125q0.359375 0.359375 0.609375 0.953125q0.265625 0.59375 0.359375 1.390625q0.109375 0.796875 0.125 1.921875zm-2.171875 -0.125q-0.015625 -0.765625 -0.046875 -1.25q-0.03125 -0.484375 -0.125 -0.90625q-0.09375 -0.4375 -0.234375 -0.65625q-0.140625 -0.234375 -0.390625 -0.390625q-0.25 -0.171875 -0.59375 -0.21875q-0.34375 -0.0625 -0.84375 -0.0625l-4.234375 0l0 7.171875l3.796875 0q0.828125 0 1.359375 -0.140625q0.53125 -0.140625 0.828125 -0.46875q0.296875 -0.328125 0.390625 -0.765625q0.109375 -0.4375 0.109375 -1.140625q0 -0.171875 -0.015625 -0.546875q0 -0.390625 0 -0.625zm10.073242 -1.140625l-0.078125 1.78125q-0.421875 -0.046875 -0.78125 -0.046875q-0.765625 0 -1.234375 0.15625q-0.46875 0.140625 -0.71875 0.515625q-0.234375 0.359375 -0.3125 0.828125q-0.078125 0.46875 -0.078125 1.25q0 0.4375 0.03125 1.296875q0.03125 0.84375 0.03125 1.203125l0 5.0625l-2.109375 0l0 -11.78125l1.921875 0l0.21875 1.3125q0.328125 -0.765625 1.0 -1.1875q0.6875 -0.421875 1.625 -0.421875q0.234375 0 0.484375 0.03125zm11.493164 5.984375q-1.28125 0.125 -1.59375 0.15625l-5.859375 0q0.015625 1.5625 0.09375 3.40625q0.046875 0.734375 0.609375 0.96875q0.5625 0.21875 2.203125 0.21875q0.609375 0 1.046875 -0.046875q0.4375 -0.046875 0.703125 -0.171875q0.28125 -0.125 0.4375 -0.234375q0.15625 -0.109375 0.234375 -0.34375q0.078125 -0.25 0.09375 -0.421875q0.03125 -0.171875 0.046875 -0.5q0.015625 -0.34375 0.046875 -0.5625l1.65625 0.3125q-0.03125 0.75 -0.125 1.265625q-0.078125 0.515625 -0.28125 0.921875q-0.203125 0.390625 -0.484375 0.625q-0.28125 0.234375 -0.75 0.390625q-0.46875 0.140625 -1.046875 0.1875q-0.5625 0.046875 -1.40625 0.046875q-1.0625 0 -1.859375 -0.125q-0.796875 -0.125 -1.359375 -0.296875q-0.5625 -0.1875 -0.9375 -0.59375q-0.359375 -0.421875 -0.578125 -0.796875q-0.203125 -0.375 -0.296875 -1.09375q-0.09375 -0.734375 -0.125 -1.328125q-0.03125 -0.609375 -0.03125 -1.65625q0 -1.484375 0.03125 -2.3125q0.046875 -0.828125 0.21875 -1.65625q0.171875 -0.828125 0.453125 -1.203125q0.296875 -0.390625 0.859375 -0.703125q0.578125 -0.328125 1.34375 -0.421875q0.78125 -0.09375 1.96875 -0.09375q0.828125 0 1.421875 0.0625q0.609375 0.046875 1.109375 0.203125q0.515625 0.140625 0.84375 0.34375q0.328125 0.1875 0.578125 0.5625q0.25 0.375 0.375 0.78125q0.140625 0.390625 0.21875 1.0625q0.09375 0.671875 0.109375 1.359375q0.03125 0.671875 0.03125 1.6875zm-7.4375 -0.96875l5.328125 0q-0.03125 -1.375 -0.109375 -2.515625q-0.046875 -0.65625 -0.578125 -0.875q-0.515625 -0.21875 -1.890625 -0.21875q-1.546875 0 -1.953125 0.171875q-0.171875 0.046875 -0.3125 0.1875q-0.140625 0.125 -0.234375 0.375q-0.078125 0.25 -0.125 0.46875q-0.046875 0.203125 -0.078125 0.59375q-0.015625 0.375 -0.03125 0.59375q-0.015625 0.203125 -0.015625 0.640625q0 0.421875 0 0.578125zm19.96582 1.21875q0 0.984375 -0.046875 1.671875q-0.03125 0.6875 -0.140625 1.375q-0.09375 0.671875 -0.296875 1.109375q-0.1875 0.421875 -0.515625 0.8125q-0.3125 0.375 -0.78125 0.578125q-0.453125 0.203125 -1.078125 0.3125q-0.625 0.109375 -1.453125 0.109375q-2.828125 0 -3.234375 -1.265625l0 5.109373l-2.125 0.15625l0 -15.937498l1.921875 0l0.203125 1.296875q0.65625 -1.640625 3.4375 -1.640625q0.578125 0 1.046875 0.0625q0.46875 0.046875 0.84375 0.171875q0.375 0.125 0.671875 0.28125q0.296875 0.140625 0.53125 0.40625q0.234375 0.265625 0.390625 0.53125q0.15625 0.265625 0.265625 0.6875q0.125 0.40625 0.1875 0.8125q0.078125 0.390625 0.109375 0.96875q0.046875 0.578125 0.046875 1.109375q0.015625 0.53125 0.015625 1.28125zm-2.109375 -0.703125q-0.03125 -2.15625 -0.078125 -2.859375q-0.03125 -0.75 -0.5625 -1.0q-0.515625 -0.265625 -2.046875 -0.265625q-1.953125 0 -2.5 0.625q-0.296875 0.4375 -0.296875 2.578125q0 0.421875 0.015625 1.28125q0.015625 0.84375 0.015625 1.21875q0 0.375 -0.03125 0.96875q-0.015625 0.578125 -0.015625 0.8125q0 0.65625 0.203125 1.03125q0.203125 0.375 0.828125 0.59375q0.640625 0.21875 1.78125 0.21875q1.5625 0 2.109375 -0.25q0.59375 -0.28125 0.59375 -2.890625q0 -0.40625 -0.015625 -1.09375q0 -0.703125 0 -0.96875zm10.34668 -5.53125l-0.078125 1.78125q-0.421875 -0.046875 -0.78125 -0.046875q-0.765625 0 -1.234375 0.15625q-0.46875 0.140625 -0.71875 0.515625q-0.234375 0.359375 -0.3125 0.828125q-0.078125 0.46875 -0.078125 1.25q0 0.4375 0.03125 1.296875q0.03125 0.84375 0.03125 1.203125l0 5.0625l-2.109375 0l0 -11.78125l1.921875 0l0.21875 1.3125q0.328125 -0.765625 1.0 -1.1875q0.6875 -0.421875 1.625 -0.421875q0.234375 0 0.484375 0.03125zm6.915039 10.71875q1.515625 -0.03125 2.109375 -0.21875q0.609375 -0.1875 0.609375 -0.765625q0.109375 -1.53125 0.109375 -3.546875q0 -0.671875 -0.0625 -1.90625q-0.046875 -1.25 -0.046875 -1.84375q0 -0.1875 -0.0625 -0.328125q-0.046875 -0.15625 -0.1875 -0.25q-0.140625 -0.109375 -0.28125 -0.1875q-0.125 -0.078125 -0.375 -0.109375q-0.234375 -0.046875 -0.40625 -0.078125q-0.15625 -0.046875 -0.46875 -0.046875q-0.296875 -0.015625 -0.46875 -0.015625q-0.15625 0 -0.484375 0q-0.328125 0 -0.5 0q-0.15625 0 -0.46875 0.015625q-0.296875 0 -0.46875 0.046875q-0.171875 0.03125 -0.40625 0.078125q-0.234375 0.03125 -0.375 0.109375q-0.140625 0.078125 -0.28125 0.1875q-0.125 0.09375 -0.1875 0.25q-0.046875 0.140625 -0.046875 0.328125q0 0.59375 -0.0625 1.84375q-0.046875 1.234375 -0.046875 1.90625q0 2.015625 0.109375 3.546875q0 0.578125 0.625 0.78125q0.640625 0.203125 2.125 0.203125zm-0.03125 1.484375q-1.1875 0 -1.984375 -0.09375q-0.796875 -0.09375 -1.375 -0.421875q-0.5625 -0.328125 -0.875 -0.6875q-0.296875 -0.375 -0.46875 -1.171875q-0.171875 -0.8125 -0.21875 -1.59375q-0.03125 -0.78125 -0.03125 -2.1875q0 -1.03125 0.03125 -1.734375q0.03125 -0.703125 0.125 -1.375q0.09375 -0.671875 0.234375 -1.078125q0.15625 -0.421875 0.421875 -0.78125q0.28125 -0.375 0.625 -0.5625q0.34375 -0.203125 0.875 -0.34375q0.53125 -0.140625 1.15625 -0.1875q0.625 -0.0625 1.5 -0.0625q0.875 0 1.5 0.0625q0.625 0.046875 1.15625 0.1875q0.53125 0.140625 0.875 0.34375q0.34375 0.1875 0.609375 0.5625q0.28125 0.359375 0.421875 0.78125q0.15625 0.40625 0.25 1.078125q0.09375 0.671875 0.125 1.375q0.03125 0.703125 0.03125 1.734375q0 1.40625 -0.046875 2.1875q-0.03125 0.78125 -0.203125 1.59375q-0.171875 0.796875 -0.484375 1.171875q-0.296875 0.375 -0.875 0.703125q-0.578125 0.3125 -1.375 0.40625q-0.796875 0.09375 -2.0 0.09375zm16.886719 -8.546875l-1.734375 0.296875l-0.234375 -1.5q-0.078125 -0.515625 -0.203125 -0.65625q-0.28125 -0.328125 -1.546875 -0.359375q-0.296875 -0.015625 -0.65625 -0.015625q-1.46875 0 -1.921875 0.15625q-0.484375 0.09375 -0.71875 0.984375q-0.21875 0.890625 -0.21875 2.171875l0.015625 1.859375q0 0.390625 0 1.0625q0 0.890625 0 1.25q0 0.359375 0.09375 0.8125q0.09375 0.453125 0.21875 0.578125q0.125 0.109375 0.46875 0.265625q0.34375 0.140625 0.734375 0.15625q0.390625 0 1.125 0q0.578125 0 1.0 -0.03125q0.4375 -0.046875 0.734375 -0.109375q0.296875 -0.0625 0.484375 -0.203125q0.1875 -0.140625 0.28125 -0.25q0.109375 -0.125 0.15625 -0.375q0.0625 -0.265625 0.078125 -0.4375q0.015625 -0.1875 0.03125 -0.546875q0.015625 -0.375 0.046875 -0.640625l1.765625 0.296875q-0.0625 0.84375 -0.140625 1.359375q-0.078125 0.5 -0.265625 0.96875q-0.1875 0.46875 -0.484375 0.71875q-0.28125 0.234375 -0.78125 0.4375q-0.5 0.1875 -1.15625 0.234375q-0.65625 0.0625 -1.640625 0.0625q-0.71875 0 -1.28125 -0.046875q-0.5625 -0.03125 -1.03125 -0.15625q-0.453125 -0.140625 -0.796875 -0.265625q-0.34375 -0.125 -0.609375 -0.4375q-0.265625 -0.3125 -0.453125 -0.53125q-0.171875 -0.234375 -0.296875 -0.734375q-0.109375 -0.515625 -0.171875 -0.859375q-0.0625 -0.359375 -0.09375 -1.078125q-0.03125 -0.734375 -0.046875 -1.234375q0 -0.5 0 -1.46875q0 -0.859375 0.03125 -1.484375q0.03125 -0.625 0.125 -1.203125q0.109375 -0.578125 0.265625 -0.953125q0.15625 -0.375 0.40625 -0.703125q0.265625 -0.34375 0.609375 -0.53125q0.34375 -0.203125 0.84375 -0.34375q0.5 -0.140625 1.09375 -0.1875q0.59375 -0.0625 1.390625 -0.0625q1.015625 0 1.703125 0.109375q0.703125 0.109375 1.234375 0.34375q0.546875 0.234375 0.84375 0.671875q0.3125 0.421875 0.484375 1.0625q0.171875 0.625 0.21875 1.546875zm11.871094 2.328125q-1.28125 0.125 -1.59375 0.15625l-5.859375 0q0.015625 1.5625 0.09375 3.40625q0.046875 0.734375 0.609375 0.96875q0.5625 0.21875 2.203125 0.21875q0.609375 0 1.046875 -0.046875q0.4375 -0.046875 0.703125 -0.171875q0.28125 -0.125 0.4375 -0.234375q0.15625 -0.109375 0.234375 -0.34375q0.078125 -0.25 0.09375 -0.421875q0.03125 -0.171875 0.046875 -0.5q0.015625 -0.34375 0.046875 -0.5625l1.65625 0.3125q-0.03125 0.75 -0.125 1.265625q-0.078125 0.515625 -0.28125 0.921875q-0.203125 0.390625 -0.484375 0.625q-0.28125 0.234375 -0.75 0.390625q-0.46875 0.140625 -1.046875 0.1875q-0.5625 0.046875 -1.40625 0.046875q-1.0625 0 -1.859375 -0.125q-0.796875 -0.125 -1.359375 -0.296875q-0.5625 -0.1875 -0.9375 -0.59375q-0.359375 -0.421875 -0.578125 -0.796875q-0.203125 -0.375 -0.296875 -1.09375q-0.09375 -0.734375 -0.125 -1.328125q-0.03125 -0.609375 -0.03125 -1.65625q0 -1.484375 0.03125 -2.3125q0.046875 -0.828125 0.21875 -1.65625q0.171875 -0.828125 0.453125 -1.203125q0.296875 -0.390625 0.859375 -0.703125q0.578125 -0.328125 1.34375 -0.421875q0.78125 -0.09375 1.96875 -0.09375q0.828125 0 1.421875 0.0625q0.609375 0.046875 1.109375 0.203125q0.515625 0.140625 0.84375 0.34375q0.328125 0.1875 0.578125 0.5625q0.25 0.375 0.375 0.78125q0.140625 0.390625 0.21875 1.0625q0.09375 0.671875 0.109375 1.359375q0.03125 0.671875 0.03125 1.6875zm-7.4375 -0.96875l5.328125 0q-0.03125 -1.375 -0.109375 -2.515625q-0.046875 -0.65625 -0.578125 -0.875q-0.515625 -0.21875 -1.890625 -0.21875q-1.546875 0 -1.953125 0.171875q-0.171875 0.046875 -0.3125 0.1875q-0.140625 0.125 -0.234375 0.375q-0.078125 0.25 -0.125 0.46875q-0.046875 0.203125 -0.078125 0.59375q-0.015625 0.375 -0.03125 0.59375q-0.015625 0.203125 -0.015625 0.640625q0 0.421875 0 0.578125zm18.825195 3.765625q0 1.03125 -0.234375 1.703125q-0.21875 0.65625 -0.734375 1.046875q-0.515625 0.375 -1.265625 0.515625q-0.75 0.15625 -1.890625 0.15625q-0.671875 0 -1.078125 -0.015625q-0.390625 0 -0.921875 -0.046875q-0.515625 -0.046875 -0.828125 -0.125q-0.3125 -0.09375 -0.671875 -0.25q-0.359375 -0.15625 -0.578125 -0.390625q-0.203125 -0.25 -0.390625 -0.578125q-0.171875 -0.34375 -0.25 -0.796875q-0.078125 -0.453125 -0.078125 -1.03125l1.671875 -0.4375q0.09375 1.234375 0.21875 1.546875q0.203125 0.4375 0.8125 0.5625q0.46875 0.09375 1.9375 0.09375q0.90625 0 1.328125 -0.078125q0.4375 -0.078125 0.59375 -0.3125q0.421875 -0.34375 0.421875 -2.40625q0 -0.3125 -0.125 -0.53125q-0.125 -0.21875 -0.3125 -0.328125q-0.1875 -0.125 -0.515625 -0.203125q-0.3125 -0.078125 -0.578125 -0.109375q-0.265625 -0.03125 -0.703125 -0.0625q-0.421875 -0.046875 -0.6875 -0.078125q-0.78125 -0.09375 -1.28125 -0.171875q-0.484375 -0.078125 -1.0 -0.234375q-0.5 -0.171875 -0.78125 -0.40625q-0.28125 -0.234375 -0.515625 -0.609375q-0.234375 -0.375 -0.34375 -0.890625q-0.09375 -0.53125 -0.09375 -1.265625q0 -0.78125 0.15625 -1.3125q0.171875 -0.53125 0.484375 -0.890625q0.3125 -0.359375 0.84375 -0.546875q0.546875 -0.203125 1.21875 -0.28125q0.6875 -0.09375 1.65625 -0.09375q0.625 0 1.015625 0.03125q0.390625 0.015625 0.859375 0.078125q0.46875 0.046875 0.75 0.15625q0.296875 0.109375 0.578125 0.3125q0.296875 0.1875 0.453125 0.46875q0.171875 0.28125 0.265625 0.6875q0.109375 0.40625 0.109375 0.9375l-1.4375 0.4375q-0.046875 -0.421875 -0.09375 -0.65625q-0.03125 -0.25 -0.15625 -0.453125q-0.125 -0.203125 -0.265625 -0.28125q-0.140625 -0.09375 -0.484375 -0.15625q-0.328125 -0.0625 -0.671875 -0.0625q-0.34375 -0.015625 -0.984375 -0.015625q-1.375 0 -1.875 0.28125q-0.484375 0.265625 -0.484375 0.890625l0 1.09375q0 0.703125 0.421875 0.890625q0.421875 0.1875 2.28125 0.421875q0.1875 0.03125 0.28125 0.046875q0.75 0.09375 1.171875 0.171875q0.4375 0.0625 0.921875 0.1875q0.484375 0.125 0.734375 0.296875q0.25 0.15625 0.5 0.421875q0.265625 0.25 0.375 0.625q0.109375 0.375 0.171875 0.875q0.078125 0.5 0.078125 1.171875zm11.171875 0q0 1.03125 -0.234375 1.703125q-0.21875 0.65625 -0.734375 1.046875q-0.515625 0.375 -1.265625 0.515625q-0.75 0.15625 -1.890625 0.15625q-0.671875 0 -1.078125 -0.015625q-0.390625 0 -0.921875 -0.046875q-0.515625 -0.046875 -0.828125 -0.125q-0.3125 -0.09375 -0.671875 -0.25q-0.359375 -0.15625 -0.578125 -0.390625q-0.203125 -0.25 -0.390625 -0.578125q-0.171875 -0.34375 -0.25 -0.796875q-0.078125 -0.453125 -0.078125 -1.03125l1.671875 -0.4375q0.09375 1.234375 0.21875 1.546875q0.203125 0.4375 0.8125 0.5625q0.46875 0.09375 1.9375 0.09375q0.90625 0 1.328125 -0.078125q0.4375 -0.078125 0.59375 -0.3125q0.421875 -0.34375 0.421875 -2.40625q0 -0.3125 -0.125 -0.53125q-0.125 -0.21875 -0.3125 -0.328125q-0.1875 -0.125 -0.515625 -0.203125q-0.3125 -0.078125 -0.578125 -0.109375q-0.265625 -0.03125 -0.703125 -0.0625q-0.421875 -0.046875 -0.6875 -0.078125q-0.78125 -0.09375 -1.28125 -0.171875q-0.484375 -0.078125 -1.0 -0.234375q-0.5 -0.171875 -0.78125 -0.40625q-0.28125 -0.234375 -0.515625 -0.609375q-0.234375 -0.375 -0.34375 -0.890625q-0.09375 -0.53125 -0.09375 -1.265625q0 -0.78125 0.15625 -1.3125q0.171875 -0.53125 0.484375 -0.890625q0.3125 -0.359375 0.84375 -0.546875q0.546875 -0.203125 1.21875 -0.28125q0.6875 -0.09375 1.65625 -0.09375q0.625 0 1.015625 0.03125q0.390625 0.015625 0.859375 0.078125q0.46875 0.046875 0.75 0.15625q0.296875 0.109375 0.578125 0.3125q0.296875 0.1875 0.453125 0.46875q0.171875 0.28125 0.265625 0.6875q0.109375 0.40625 0.109375 0.9375l-1.4375 0.4375q-0.046875 -0.421875 -0.09375 -0.65625q-0.03125 -0.25 -0.15625 -0.453125q-0.125 -0.203125 -0.265625 -0.28125q-0.140625 -0.09375 -0.484375 -0.15625q-0.328125 -0.0625 -0.671875 -0.0625q-0.34375 -0.015625 -0.984375 -0.015625q-1.375 0 -1.875 0.28125q-0.484375 0.265625 -0.484375 0.890625l0 1.09375q0 0.703125 0.421875 0.890625q0.421875 0.1875 2.28125 0.421875q0.1875 0.03125 0.28125 0.046875q0.75 0.09375 1.171875 0.171875q0.4375 0.0625 0.921875 0.1875q0.484375 0.125 0.734375 0.296875q0.25 0.15625 0.5 0.421875q0.265625 0.25 0.375 0.625q0.109375 0.375 0.171875 0.875q0.078125 0.5 0.078125 1.171875zm4.875 3.265625l-2.125 0l0 -11.78125l2.125 0l0 11.78125zm0 -16.34375l0 1.859375l-2.125 0l0 -1.859375l2.125 0zm12.711914 16.34375l-2.109375 0l0 -7.140625q0 -0.6875 -0.015625 -1.09375q0 -0.40625 -0.046875 -0.828125q-0.03125 -0.421875 -0.078125 -0.625q-0.03125 -0.21875 -0.15625 -0.421875q-0.109375 -0.21875 -0.234375 -0.28125q-0.109375 -0.078125 -0.34375 -0.140625q-0.21875 -0.078125 -0.453125 -0.09375q-0.21875 -0.015625 -0.59375 -0.015625q-0.8125 0 -1.390625 0.09375q-0.578125 0.09375 -0.9375 0.265625q-0.359375 0.15625 -0.5625 0.453125q-0.203125 0.28125 -0.28125 0.625q-0.0625 0.328125 -0.0625 0.828125q0 0.28125 0.03125 0.96875q0.03125 0.6875 0.03125 1.125l0 6.28125l-2.125 0l0 -11.78125l1.9375 0l0.203125 1.3125q0.28125 -0.875 1.234375 -1.265625q0.953125 -0.390625 2.28125 -0.390625q0.625 0 1.109375 0.078125q0.484375 0.078125 0.859375 0.265625q0.375 0.171875 0.640625 0.40625q0.28125 0.21875 0.46875 0.59375q0.1875 0.359375 0.296875 0.75q0.125 0.390625 0.1875 0.96875q0.0625 0.578125 0.078125 1.15625q0.03125 0.5625 0.03125 1.359375l0 6.546875zm12.547852 -11.78125l0 10.28125q0 1.0625 -0.078125 1.796875q-0.0625 0.7343731 -0.25 1.3593731q-0.1875 0.640625 -0.515625 1.015625q-0.3125 0.390625 -0.84375 0.671875q-0.53125 0.28125 -1.265625 0.375q-0.71875 0.109375 -1.71875 0.109375q-2.109375 0 -3.359375 -0.4375l0.140625 -1.453125q1.203125 0.328125 2.859375 0.328125q0.78125 0 1.328125 -0.09375q0.546875 -0.078125 0.84375 -0.203125q0.3125 -0.125 0.46875 -0.375q0.171875 -0.234375 0.21875 -0.484375q0.046875 -0.2343731 0.046875 -0.5937481l0 -1.921875q-0.296875 0.75 -1.015625 1.09375q-0.703125 0.34375 -1.984375 0.34375q-0.921875 0 -1.609375 -0.125q-0.6875 -0.125 -1.171875 -0.3125q-0.484375 -0.203125 -0.8125 -0.609375q-0.3125 -0.421875 -0.5 -0.796875q-0.171875 -0.375 -0.265625 -1.0625q-0.078125 -0.6875 -0.109375 -1.234375q-0.015625 -0.5625 -0.015625 -1.515625q0 -1.21875 0.015625 -1.90625q0.03125 -0.6875 0.109375 -1.484375q0.078125 -0.796875 0.25 -1.203125q0.171875 -0.421875 0.4375 -0.84375q0.28125 -0.421875 0.71875 -0.59375q0.4375 -0.1875 1.03125 -0.296875q0.59375 -0.125 1.421875 -0.125q1.40625 0 2.25 0.375q0.859375 0.375 1.25 1.234375l0.203125 -1.3125l1.921875 0zm-2.125 9.390625l0 -6.5625q0 -0.890625 -0.59375 -1.28125q-0.59375 -0.40625 -2.125 -0.40625q-1.5 0 -2.0625 0.28125q-0.609375 0.28125 -0.609375 2.34375q0 3.109375 0.09375 5.421875q0.03125 0.5 0.25 0.734375q0.234375 0.234375 0.796875 0.328125q0.5625 0.09375 1.75 0.09375q2.40625 0 2.5 -0.953125z" fill-rule="nonzero"/><path fill="#000000" fill-opacity="0.0" d="m35.892056 62.730774l338.86615 0l0 239.24411l-338.86615 0z" fill-rule="evenodd"/><path fill="#f3f3f3" d="m45.78268 83.8864q0 -1.203125 0.34375 -2.09375q0.34375 -0.890625 0.90625 -1.46875q0.578125 -0.59375 1.3125 -0.890625q0.75 -0.296875 1.53125 -0.296875q1.828125 0 2.796875 1.140625q0.96875 1.125 0.96875 3.453125q0 0.09375 0 0.265625q0 0.171875 -0.015625 0.296875l-6.171875 0q0.109375 1.40625 0.8125 2.140625q0.71875 0.71875 2.21875 0.71875q0.859375 0 1.4375 -0.140625q0.578125 -0.140625 0.875 -0.28125l0.21875 1.34375q-0.296875 0.15625 -1.03125 0.328125q-0.734375 0.171875 -1.671875 0.171875q-1.171875 0 -2.03125 -0.34375q-0.859375 -0.359375 -1.421875 -0.984375q-0.546875 -0.625 -0.8125 -1.484375q-0.265625 -0.859375 -0.265625 -1.875zm6.171875 -0.890625q0.03125 -1.09375 -0.546875 -1.78125q-0.5625 -0.703125 -1.546875 -0.703125q-0.546875 0 -0.984375 0.21875q-0.421875 0.203125 -0.71875 0.5625q-0.28125 0.34375 -0.453125 0.796875q-0.15625 0.4375 -0.21875 0.90625l4.46875 0zm4.014496 -3.375q0.546875 -0.140625 1.46875 -0.296875q0.921875 -0.15625 2.109375 -0.15625q1.078125 0 1.78125 0.3125q0.71875 0.296875 1.140625 0.84375q0.421875 0.546875 0.59375 1.3125q0.171875 0.75 0.171875 1.671875l0 5.0625l-1.609375 0l0 -4.71875q0 -0.828125 -0.109375 -1.40625q-0.109375 -0.59375 -0.375 -0.953125q-0.25 -0.375 -0.6875 -0.53125q-0.4375 -0.171875 -1.078125 -0.171875q-0.25 0 -0.53125 0.015625q-0.28125 0.015625 -0.53125 0.046875q-0.25 0.03125 -0.453125 0.0625q-0.203125 0.03125 -0.28125 0.046875l0 7.609375l-1.609375 0l0 -8.75zm13.852543 8.953125q-1.09375 0 -1.921875 -0.34375q-0.8125 -0.34375 -1.375 -0.96875q-0.5625 -0.625 -0.84375 -1.484375q-0.265625 -0.859375 -0.265625 -1.890625q0 -1.046875 0.296875 -1.90625q0.296875 -0.875 0.84375 -1.5q0.5625 -0.640625 1.359375 -0.984375q0.8125 -0.359375 1.8125 -0.359375q0.609375 0 1.203125 0.109375q0.609375 0.09375 1.171875 0.328125l-0.375 1.359375q-0.359375 -0.171875 -0.84375 -0.265625q-0.46875 -0.109375 -1.0 -0.109375q-1.359375 0 -2.078125 0.859375q-0.71875 0.84375 -0.71875 2.46875q0 0.71875 0.15625 1.328125q0.171875 0.609375 0.53125 1.046875q0.359375 0.421875 0.90625 0.65625q0.5625 0.234375 1.359375 0.234375q0.640625 0 1.15625 -0.109375q0.515625 -0.125 0.8125 -0.265625l0.234375 1.34375q-0.140625 0.09375 -0.40625 0.171875q-0.265625 0.078125 -0.59375 0.140625q-0.328125 0.0625 -0.703125 0.09375q-0.359375 0.046875 -0.71875 0.046875zm11.879074 -4.703125q0 1.0625 -0.3125 1.9375q-0.3125 0.859375 -0.875 1.484375q-0.5625 0.625 -1.34375 0.96875q-0.78125 0.328125 -1.703125 0.328125q-0.921875 0 -1.703125 -0.328125q-0.765625 -0.34375 -1.34375 -0.96875q-0.5625 -0.625 -0.875 -1.484375q-0.296875 -0.875 -0.296875 -1.9375q0 -1.0625 0.296875 -1.9375q0.3125 -0.875 0.875 -1.5q0.578125 -0.625 1.34375 -0.953125q0.78125 -0.34375 1.703125 -0.34375q0.921875 0 1.703125 0.34375q0.78125 0.328125 1.34375 0.953125q0.5625 0.625 0.875 1.5q0.3125 0.875 0.3125 1.9375zm-1.6875 0q0 -1.53125 -0.6875 -2.421875q-0.671875 -0.890625 -1.859375 -0.890625q-1.171875 0 -1.859375 0.890625q-0.6875 0.890625 -0.6875 2.421875q0 1.515625 0.6875 2.40625q0.6875 0.890625 1.859375 0.890625q1.1875 0 1.859375 -0.890625q0.6875 -0.890625 0.6875 -2.40625zm9.770416 -2.609375q-0.296875 -0.234375 -0.84375 -0.453125q-0.546875 -0.234375 -1.21875 -0.234375q-0.6875 0 -1.1875 0.25q-0.484375 0.25 -0.796875 0.703125q-0.3125 0.4375 -0.453125 1.046875q-0.140625 0.59375 -0.140625 1.296875q0 1.578125 0.78125 2.4375q0.78125 0.84375 2.078125 0.84375q0.65625 0 1.09375 -0.046875q0.453125 -0.0625 0.6875 -0.140625l0 -5.703125zm0 -6.0625l1.609375 -0.28125l0 13.1875q-0.546875 0.15625 -1.421875 0.3125q-0.859375 0.15625 -1.984375 0.15625q-1.046875 0 -1.875 -0.328125q-0.828125 -0.328125 -1.421875 -0.921875q-0.578125 -0.609375 -0.90625 -1.484375q-0.3125 -0.875 -0.3125 -1.96875q0 -1.046875 0.265625 -1.90625q0.265625 -0.875 0.78125 -1.5q0.515625 -0.625 1.265625 -0.96875q0.765625 -0.34375 1.734375 -0.34375q0.78125 0 1.375 0.21875q0.59375 0.203125 0.890625 0.390625l0 -4.5625zm3.8937073 8.6875q0 -1.203125 0.34375 -2.09375q0.34375 -0.890625 0.90625 -1.46875q0.578125 -0.59375 1.3125 -0.890625q0.75 -0.296875 1.53125 -0.296875q1.828125 0 2.796875 1.140625q0.96875 1.125 0.96875 3.453125q0 0.09375 0 0.265625q0 0.171875 -0.015625 0.296875l-6.171875 0q0.109375 1.40625 0.8125 2.140625q0.71875 0.71875 2.21875 0.71875q0.859375 0 1.4375 -0.140625q0.578125 -0.140625 0.875 -0.28125l0.21875 1.34375q-0.296875 0.15625 -1.03125 0.328125q-0.734375 0.171875 -1.671875 0.171875q-1.171875 0 -2.03125 -0.34375q-0.859375 -0.359375 -1.421875 -0.984375q-0.546875 -0.625 -0.8125 -1.484375q-0.265625 -0.859375 -0.265625 -1.875zm6.171875 -0.890625q0.03125 -1.09375 -0.546875 -1.78125q-0.5625 -0.703125 -1.546875 -0.703125q-0.546875 0 -0.984375 0.21875q-0.421875 0.203125 -0.71875 0.5625q-0.28125 0.34375 -0.453125 0.796875q-0.15625 0.4375 -0.21875 0.90625l4.46875 0zm7.342621 -3.828125q0.203125 0 0.46875 0.03125q0.265625 0.015625 0.53125 0.0625q0.265625 0.046875 0.46875 0.09375q0.21875 0.046875 0.328125 0.078125l-0.28125 1.40625q-0.1875 -0.078125 -0.640625 -0.171875q-0.4375 -0.09375 -1.125 -0.09375q-0.453125 0 -0.890625 0.09375q-0.4375 0.09375 -0.578125 0.125l0 7.578125l-1.609375 0l0 -8.625q0.5625 -0.21875 1.40625 -0.390625q0.859375 -0.1875 1.921875 -0.1875zm5.454239 8.046875q0.984375 0 1.453125 -0.265625q0.484375 -0.265625 0.484375 -0.828125q0 -0.59375 -0.46875 -0.9375q-0.46875 -0.34375 -1.546875 -0.78125q-0.515625 -0.203125 -1.0 -0.421875q-0.46875 -0.21875 -0.8125 -0.515625q-0.34375 -0.296875 -0.5625 -0.703125q-0.203125 -0.421875 -0.203125 -1.03125q0 -1.1875 0.875 -1.890625q0.890625 -0.703125 2.421875 -0.703125q0.375 0 0.75 0.046875q0.390625 0.03125 0.71875 0.09375q0.328125 0.0625 0.578125 0.140625q0.25 0.0625 0.390625 0.109375l-0.296875 1.390625q-0.25 -0.140625 -0.8125 -0.28125q-0.546875 -0.15625 -1.328125 -0.15625q-0.671875 0 -1.1875 0.28125q-0.5 0.265625 -0.5 0.828125q0 0.296875 0.109375 0.53125q0.125 0.21875 0.359375 0.40625q0.234375 0.171875 0.578125 0.328125q0.34375 0.15625 0.828125 0.328125q0.640625 0.25 1.140625 0.484375q0.5 0.234375 0.859375 0.546875q0.359375 0.3125 0.546875 0.75q0.1875 0.4375 0.1875 1.078125q0 1.25 -0.921875 1.890625q-0.921875 0.640625 -2.640625 0.640625q-1.203125 0 -1.875 -0.203125q-0.671875 -0.1875 -0.921875 -0.296875l0.296875 -1.390625q0.28125 0.109375 0.890625 0.328125q0.609375 0.203125 1.609375 0.203125z" fill-rule="nonzero"/><path fill="#ff605c" d="m121.814606 84.35515l7.9375 0l0 1.359375l-7.9375 0l0 -1.359375zm0 -3.703125l7.9375 0l0 1.375l-7.9375 0l0 -1.375z" fill-rule="nonzero"/><path fill="#f3f3f3" d="m136.32477 74.80827l3.90625 0l0 1.265625l-2.390625 0l0 14.234375l2.390625 0l0 1.265625l-3.90625 0l0 -16.765625z" fill-rule="nonzero"/><path fill="#ffd966" d="m63.739834 100.648895l1.8125038 0l0 12.921875l-1.8125038 0l0 -12.921875zm4.9091682 3.5q0.59375 -0.15625 1.578125 -0.3125q0.984375 -0.171875 2.28125 -0.171875q1.15625 0 1.921875 0.328125q0.765625 0.328125 1.21875 0.921875q0.453125 0.578125 0.640625 1.40625q0.1875 0.8125 0.1875 1.796875l0 5.453125l-1.734375 0l0 -5.078125q0 -0.890625 -0.125 -1.515625q-0.125 -0.640625 -0.40625 -1.03125q-0.265625 -0.390625 -0.734375 -0.5625q-0.46875 -0.1875 -1.15625 -0.1875q-0.28125 0 -0.578125 0.015625q-0.296875 0.015625 -0.578125 0.046875q-0.265625 0.03125 -0.484375 0.078125q-0.203125 0.03125 -0.296875 0.046875l0 8.1875l-1.734375 0l0 -9.421875zm17.44307 4.59375q0 -1.703125 -0.84375 -2.609375q-0.84375 -0.921875 -2.234375 -0.921875q-0.796875 0 -1.234375 0.0625q-0.4375 0.046875 -0.6875 0.125l0 6.125q0.3125 0.25 0.90625 0.5q0.59375 0.234375 1.3125 0.234375q0.734375 0 1.265625 -0.265625q0.53125 -0.265625 0.859375 -0.734375q0.34375 -0.484375 0.5 -1.125q0.15625 -0.640625 0.15625 -1.390625zm1.796875 0q0 1.09375 -0.296875 2.03125q-0.28125 0.9375 -0.84375 1.609375q-0.546875 0.671875 -1.359375 1.046875q-0.8125 0.359375 -1.859375 0.359375q-0.84375 0 -1.484375 -0.21875q-0.640625 -0.21875 -0.953125 -0.421875l0 3.875l-1.734375 0l0 -12.859375q0.609375 -0.140625 1.53125 -0.3125q0.921875 -0.1875 2.140625 -0.1875q1.109375 0 2.0 0.359375q0.90625 0.34375 1.53125 1.0q0.640625 0.65625 0.984375 1.609375q0.34375 0.9375 0.34375 2.109375zm10.176041 4.546875q-0.59375 0.15625 -1.578125 0.3125q-0.984375 0.171875 -2.265625 0.171875q-1.125 0 -1.890625 -0.328125q-0.765625 -0.328125 -1.234375 -0.921875q-0.453125 -0.59375 -0.671875 -1.40625q-0.203125 -0.8125 -0.203125 -1.796875l0 -5.453125l1.734375 0l0 5.078125q0 1.765625 0.5625 2.53125q0.5625 0.765625 1.890625 0.765625q0.28125 0 0.578125 -0.015625q0.296875 -0.015625 0.546875 -0.046875q0.265625 -0.03125 0.484375 -0.046875q0.21875 -0.03125 0.3125 -0.078125l0 -8.1875l1.734375 0l0 9.421875zm4.5993195 -9.421875l3.6875 0l0 1.453125l-3.6875 0l0 4.484375q0 0.71875 0.109375 1.203125q0.125 0.46875 0.34375 0.75q0.21875 0.265625 0.546875 0.375q0.34375 0.109375 0.796875 0.109375q0.78125 0 1.25 -0.171875q0.484375 -0.171875 0.671875 -0.25l0.328125 1.4375q-0.25 0.125 -0.90625 0.3125q-0.65625 0.203125 -1.5 0.203125q-0.984375 0 -1.625 -0.25q-0.640625 -0.25 -1.03125 -0.75q-0.390625 -0.515625 -0.5625 -1.25q-0.15625 -0.734375 -0.15625 -1.703125l0 -8.65625l1.734375 -0.296875l0 3.0z" fill-rule="nonzero"/><path fill="#ffffff" d="m110.60162 112.57077q0 0.5 -0.34375 0.875q-0.328125 0.375 -0.90625 0.375q-0.578125 0 -0.921875 -0.375q-0.328125 -0.375 -0.328125 -0.875q0 -0.515625 0.328125 -0.875q0.34375 -0.375 0.921875 -0.375q0.578125 0 0.90625 0.375q0.34375 0.359375 0.34375 0.875z" fill-rule="nonzero"/><path fill="#80ebd4" d="m113.253555 113.57077l0 -12.921875l7.890625 0l0 1.546875l-6.078125 0l0 3.84375l5.40625 0l0 1.5l-5.40625 0l0 4.484375l6.546875 0l0 1.546875l-8.359375 0zm10.54335 -9.421875q0.59375 -0.15625 1.578125 -0.3125q0.984375 -0.171875 2.28125 -0.171875q1.15625 0 1.921875 0.328125q0.765625 0.328125 1.21875 0.921875q0.453125 0.578125 0.640625 1.40625q0.1875 0.8125 0.1875 1.796875l0 5.453125l-1.734375 0l0 -5.078125q0 -0.890625 -0.125 -1.515625q-0.125 -0.640625 -0.40625 -1.03125q-0.265625 -0.390625 -0.734375 -0.5625q-0.46875 -0.1875 -1.15625 -0.1875q-0.28125 0 -0.578125 0.015625q-0.296875 0.015625 -0.578125 0.046875q-0.265625 0.03125 -0.484375 0.078125q-0.203125 0.03125 -0.296875 0.046875l0 8.1875l-1.734375 0l0 -9.421875zm14.911819 9.640625q-1.171875 0 -2.0625 -0.359375q-0.875 -0.375 -1.484375 -1.046875q-0.609375 -0.671875 -0.90625 -1.59375q-0.296875 -0.9375 -0.296875 -2.046875q0 -1.125 0.328125 -2.046875q0.328125 -0.9375 0.921875 -1.609375q0.59375 -0.6875 1.453125 -1.0625q0.875 -0.390625 1.9375 -0.390625q0.65625 0 1.3125 0.109375q0.65625 0.109375 1.25 0.34375l-0.390625 1.484375q-0.390625 -0.1875 -0.90625 -0.296875q-0.515625 -0.109375 -1.09375 -0.109375q-1.453125 0 -2.234375 0.921875q-0.765625 0.90625 -0.765625 2.65625q0 0.78125 0.171875 1.4375q0.171875 0.640625 0.546875 1.109375q0.390625 0.46875 0.984375 0.71875q0.609375 0.25 1.46875 0.25q0.6875 0 1.25 -0.125q0.5625 -0.125 0.875 -0.28125l0.234375 1.453125q-0.140625 0.09375 -0.421875 0.1875q-0.28125 0.078125 -0.640625 0.140625q-0.34375 0.0625 -0.75 0.109375q-0.40625 0.046875 -0.78125 0.046875zm12.79187 -5.0625q0 1.15625 -0.34375 2.09375q-0.328125 0.921875 -0.9375 1.59375q-0.609375 0.671875 -1.453125 1.046875q-0.828125 0.359375 -1.828125 0.359375q-0.984375 0 -1.828125 -0.359375q-0.84375 -0.375 -1.453125 -1.046875q-0.59375 -0.671875 -0.9375 -1.59375q-0.328125 -0.9375 -0.328125 -2.09375q0 -1.140625 0.328125 -2.078125q0.34375 -0.953125 0.9375 -1.625q0.609375 -0.671875 1.453125 -1.03125q0.84375 -0.359375 1.828125 -0.359375q1.0 0 1.828125 0.359375q0.84375 0.359375 1.453125 1.03125q0.609375 0.671875 0.9375 1.625q0.34375 0.9375 0.34375 2.078125zm-1.8125 0q0 -1.65625 -0.75 -2.609375q-0.734375 -0.953125 -2.0 -0.953125q-1.265625 0 -2.0 0.953125q-0.734375 0.953125 -0.734375 2.609375q0 1.640625 0.734375 2.609375q0.734375 0.953125 2.0 0.953125q1.265625 0 2.0 -0.953125q0.75 -0.96875 0.75 -2.609375zm10.522812 -2.8125q-0.328125 -0.25 -0.921875 -0.484375q-0.59375 -0.25 -1.296875 -0.25q-0.75 0 -1.28125 0.265625q-0.53125 0.265625 -0.875 0.75q-0.328125 0.46875 -0.484375 1.125q-0.140625 0.65625 -0.140625 1.40625q0 1.6875 0.828125 2.609375q0.84375 0.921875 2.25 0.921875q0.703125 0 1.171875 -0.0625q0.484375 -0.0625 0.75 -0.140625l0 -6.140625zm0 -6.515625l1.734375 -0.3125l0 14.203125q-0.59375 0.171875 -1.53125 0.328125q-0.9375 0.171875 -2.140625 0.171875q-1.125 0 -2.03125 -0.34375q-0.890625 -0.359375 -1.53125 -1.015625q-0.625 -0.65625 -0.96875 -1.59375q-0.34375 -0.9375 -0.34375 -2.109375q0 -1.125 0.28125 -2.046875q0.296875 -0.9375 0.859375 -1.609375q0.5625 -0.671875 1.359375 -1.046875q0.8125 -0.375 1.859375 -0.375q0.84375 0 1.484375 0.21875q0.640625 0.21875 0.96875 0.4375l0 -4.90625zm4.1760406 9.34375q0 -1.296875 0.375 -2.25q0.375 -0.96875 0.984375 -1.59375q0.609375 -0.640625 1.40625 -0.953125q0.8125 -0.3125 1.65625 -0.3125q1.953125 0 3.0 1.21875q1.046875 1.21875 1.046875 3.71875q0 0.109375 0 0.296875q0 0.171875 -0.015625 0.3125l-6.640625 0q0.109375 1.515625 0.875 2.296875q0.765625 0.78125 2.390625 0.78125q0.90625 0 1.53125 -0.15625q0.625 -0.15625 0.9375 -0.296875l0.25 1.453125q-0.3125 0.15625 -1.109375 0.34375q-0.796875 0.1875 -1.796875 0.1875q-1.265625 0 -2.203125 -0.375q-0.921875 -0.390625 -1.515625 -1.0625q-0.59375 -0.671875 -0.890625 -1.59375q-0.28125 -0.921875 -0.28125 -2.015625zm6.65625 -0.953125q0.015625 -1.171875 -0.59375 -1.921875q-0.59375 -0.765625 -1.65625 -0.765625q-0.609375 0 -1.0625 0.234375q-0.453125 0.234375 -0.78125 0.609375q-0.3125 0.375 -0.484375 0.859375q-0.171875 0.484375 -0.234375 0.984375l4.8125 0zm7.8975983 -4.125q0.21875 0 0.5 0.03125q0.296875 0.03125 0.578125 0.078125q0.28125 0.046875 0.515625 0.09375q0.234375 0.046875 0.34375 0.078125l-0.296875 1.515625q-0.203125 -0.078125 -0.6875 -0.171875q-0.46875 -0.109375 -1.21875 -0.109375q-0.484375 0 -0.96875 0.109375q-0.46875 0.09375 -0.609375 0.125l0 8.15625l-1.734375 0l0 -9.296875q0.609375 -0.21875 1.515625 -0.40625q0.921875 -0.203125 2.0625 -0.203125z" fill-rule="nonzero"/><path fill="#f3f3f3" d="m184.03273 108.38327q0 2.21875 0.640625 4.109375q0.640625 1.890625 1.890625 3.5l-1.15625 0.78125q-1.34375 -1.640625 -2.171875 -3.78125q-0.8125 -2.140625 -0.8125 -4.609375q0 -2.453125 0.8125 -4.59375q0.828125 -2.140625 2.171875 -3.78125l1.15625 0.78125q-1.25 1.609375 -1.890625 3.5q-0.640625 1.875 -0.640625 4.09375z" fill-rule="nonzero"/><path fill="#ffffff" d="m81.195526 136.84764q2.625 0 2.625 -1.796875q0 -0.546875 -0.234375 -0.9375q-0.21875 -0.390625 -0.625 -0.671875q-0.390625 -0.296875 -0.90625 -0.5q-0.515625 -0.203125 -1.078125 -0.421875q-0.671875 -0.21875 -1.265625 -0.5q-0.578125 -0.296875 -1.015625 -0.6875q-0.421875 -0.390625 -0.6875 -0.921875q-0.25 -0.53125 -0.25 -1.296875q0 -1.578125 1.078125 -2.453125q1.078125 -0.890625 2.96875 -0.890625q1.09375 0 1.984375 0.234375q0.890625 0.234375 1.296875 0.5l-0.53125 1.375q-0.359375 -0.21875 -1.078125 -0.4375q-0.71875 -0.21875 -1.671875 -0.21875q-0.484375 0 -0.90625 0.109375q-0.421875 0.09375 -0.734375 0.3125q-0.296875 0.203125 -0.484375 0.53125q-0.1875 0.3125 -0.1875 0.75q0 0.484375 0.1875 0.8125q0.203125 0.328125 0.546875 0.578125q0.34375 0.25 0.796875 0.46875q0.46875 0.203125 1.015625 0.40625q0.78125 0.3125 1.421875 0.625q0.65625 0.3125 1.125 0.75q0.484375 0.421875 0.75 1.03125q0.265625 0.59375 0.265625 1.4375q0 1.578125 -1.15625 2.4375q-1.15625 0.84375 -3.25 0.84375q-0.71875 0 -1.3125 -0.109375q-0.59375 -0.09375 -1.0625 -0.21875q-0.46875 -0.125 -0.8125 -0.265625q-0.328125 -0.15625 -0.515625 -0.265625l0.5 -1.375q0.390625 0.21875 1.203125 0.5q0.828125 0.265625 2.0 0.265625zm7.827881 -7.8125l3.421875 0l0 1.359375l-3.421875 0l0 4.15625q0 0.671875 0.109375 1.125q0.109375 0.4375 0.3125 0.6875q0.203125 0.25 0.515625 0.359375q0.3125 0.09375 0.734375 0.09375q0.71875 0 1.15625 -0.15625q0.453125 -0.171875 0.625 -0.234375l0.3125 1.328125q-0.25 0.125 -0.859375 0.296875q-0.59375 0.1875 -1.375 0.1875q-0.921875 0 -1.53125 -0.234375q-0.59375 -0.234375 -0.953125 -0.703125q-0.359375 -0.46875 -0.515625 -1.140625q-0.140625 -0.6875 -0.140625 -1.59375l0 -8.03125l1.609375 -0.28125l0 2.78125zm8.512741 7.859375q0.5625 0 1.0 -0.03125q0.453125 -0.03125 0.75 -0.09375l0 -2.6875q-0.171875 -0.09375 -0.5625 -0.140625q-0.390625 -0.0625 -0.953125 -0.0625q-0.359375 0 -0.765625 0.046875q-0.40625 0.046875 -0.75 0.21875q-0.328125 0.15625 -0.5625 0.453125q-0.21875 0.28125 -0.21875 0.75q0 0.859375 0.546875 1.203125q0.5625 0.34375 1.515625 0.34375zm-0.140625 -8.078125q0.96875 0 1.640625 0.25q0.671875 0.25 1.078125 0.71875q0.40625 0.453125 0.578125 1.09375q0.171875 0.625 0.171875 1.390625l0 5.625q-0.203125 0.03125 -0.578125 0.09375q-0.375 0.0625 -0.84375 0.109375q-0.46875 0.0625 -1.015625 0.09375q-0.546875 0.046875 -1.078125 0.046875q-0.765625 0 -1.40625 -0.15625q-0.640625 -0.15625 -1.109375 -0.484375q-0.46875 -0.34375 -0.734375 -0.890625q-0.25 -0.5625 -0.25 -1.34375q0 -0.75 0.296875 -1.28125q0.3125 -0.53125 0.828125 -0.859375q0.515625 -0.328125 1.203125 -0.484375q0.703125 -0.15625 1.46875 -0.15625q0.234375 0 0.484375 0.03125q0.265625 0.015625 0.5 0.0625q0.234375 0.03125 0.40625 0.078125q0.171875 0.03125 0.25 0.046875l0 -0.453125q0 -0.390625 -0.09375 -0.78125q-0.078125 -0.390625 -0.3125 -0.6875q-0.21875 -0.3125 -0.609375 -0.484375q-0.390625 -0.1875 -1.015625 -0.1875q-0.796875 0 -1.390625 0.109375q-0.59375 0.109375 -0.890625 0.234375l-0.1875 -1.34375q0.3125 -0.125 1.03125 -0.25q0.734375 -0.140625 1.578125 -0.140625zm6.138977 0.484375q0.546875 -0.140625 1.46875 -0.296875q0.921875 -0.15625 2.109375 -0.15625q1.078125 0 1.78125 0.3125q0.71875 0.296875 1.140625 0.84375q0.421875 0.546875 0.59375 1.3125q0.171875 0.75 0.171875 1.671875l0 5.0625l-1.609375 0l0 -4.71875q0 -0.828125 -0.109375 -1.40625q-0.109375 -0.59375 -0.375 -0.953125q-0.25 -0.375 -0.6875 -0.53125q-0.4375 -0.171875 -1.078125 -0.171875q-0.25 0 -0.53125 0.015625q-0.28125 0.015625 -0.53125 0.046875q-0.25 0.03125 -0.453125 0.0625q-0.203125 0.03125 -0.28125 0.046875l0 7.609375l-1.609375 0l0 -8.75zm15.758789 1.640625q-0.296875 -0.234375 -0.84375 -0.453125q-0.546875 -0.234375 -1.21875 -0.234375q-0.6875 0 -1.1875 0.25q-0.484375 0.25 -0.796875 0.703125q-0.3125 0.4375 -0.453125 1.046875q-0.140625 0.59375 -0.140625 1.296875q0 1.578125 0.78125 2.4375q0.78125 0.84375 2.078125 0.84375q0.65625 0 1.09375 -0.046875q0.453125 -0.0625 0.6875 -0.140625l0 -5.703125zm0 -6.0625l1.609375 -0.28125l0 13.1875q-0.546875 0.15625 -1.421875 0.3125q-0.859375 0.15625 -1.984375 0.15625q-1.046875 0 -1.875 -0.328125q-0.828125 -0.328125 -1.421875 -0.921875q-0.578125 -0.609375 -0.90625 -1.484375q-0.3125 -0.875 -0.3125 -1.96875q0 -1.046875 0.265625 -1.90625q0.265625 -0.875 0.78125 -1.5q0.515625 -0.625 1.265625 -0.96875q0.765625 -0.34375 1.734375 -0.34375q0.78125 0 1.375 0.21875q0.59375 0.203125 0.890625 0.390625l0 -4.5625zm7.4405823 12.015625q0.5625 0 1.0 -0.03125q0.453125 -0.03125 0.75 -0.09375l0 -2.6875q-0.171875 -0.09375 -0.5625 -0.140625q-0.390625 -0.0625 -0.953125 -0.0625q-0.359375 0 -0.765625 0.046875q-0.40625 0.046875 -0.75 0.21875q-0.328125 0.15625 -0.5625 0.453125q-0.21875 0.28125 -0.21875 0.75q0 0.859375 0.546875 1.203125q0.5625 0.34375 1.515625 0.34375zm-0.140625 -8.078125q0.96875 0 1.640625 0.25q0.671875 0.25 1.078125 0.71875q0.40625 0.453125 0.578125 1.09375q0.171875 0.625 0.171875 1.390625l0 5.625q-0.203125 0.03125 -0.578125 0.09375q-0.375 0.0625 -0.84375 0.109375q-0.46875 0.0625 -1.015625 0.09375q-0.546875 0.046875 -1.078125 0.046875q-0.765625 0 -1.40625 -0.15625q-0.640625 -0.15625 -1.109375 -0.484375q-0.46875 -0.34375 -0.734375 -0.890625q-0.25 -0.5625 -0.25 -1.34375q0 -0.75 0.296875 -1.28125q0.3125 -0.53125 0.828125 -0.859375q0.515625 -0.328125 1.203125 -0.484375q0.703125 -0.15625 1.46875 -0.15625q0.234375 0 0.484375 0.03125q0.265625 0.015625 0.5 0.0625q0.234375 0.03125 0.40625 0.078125q0.171875 0.03125 0.25 0.046875l0 -0.453125q0 -0.390625 -0.09375 -0.78125q-0.078125 -0.390625 -0.3125 -0.6875q-0.21875 -0.3125 -0.609375 -0.484375q-0.390625 -0.1875 -1.015625 -0.1875q-0.796875 0 -1.390625 0.109375q-0.59375 0.109375 -0.890625 0.234375l-0.1875 -1.34375q0.3125 -0.125 1.03125 -0.25q0.734375 -0.140625 1.578125 -0.140625zm9.467102 0.03125q0.203125 0 0.46875 0.03125q0.265625 0.015625 0.53125 0.0625q0.265625 0.046875 0.46875 0.09375q0.21875 0.046875 0.328125 0.078125l-0.28125 1.40625q-0.1875 -0.078125 -0.640625 -0.171875q-0.4375 -0.09375 -1.125 -0.09375q-0.453125 0 -0.890625 0.09375q-0.4375 0.09375 -0.578125 0.125l0 7.578125l-1.609375 0l0 -8.625q0.5625 -0.21875 1.40625 -0.390625q0.859375 -0.1875 1.921875 -0.1875zm9.172989 2.09375q-0.296875 -0.234375 -0.84375 -0.453125q-0.546875 -0.234375 -1.21875 -0.234375q-0.6875 0 -1.1875 0.25q-0.484375 0.25 -0.796875 0.703125q-0.3125 0.4375 -0.453125 1.046875q-0.140625 0.59375 -0.140625 1.296875q0 1.578125 0.78125 2.4375q0.78125 0.84375 2.078125 0.84375q0.65625 0 1.09375 -0.046875q0.453125 -0.0625 0.6875 -0.140625l0 -5.703125zm0 -6.0625l1.609375 -0.28125l0 13.1875q-0.546875 0.15625 -1.421875 0.3125q-0.859375 0.15625 -1.984375 0.15625q-1.046875 0 -1.875 -0.328125q-0.828125 -0.328125 -1.421875 -0.921875q-0.578125 -0.609375 -0.90625 -1.484375q-0.3125 -0.875 -0.3125 -1.96875q0 -1.046875 0.265625 -1.90625q0.265625 -0.875 0.78125 -1.5q0.515625 -0.625 1.265625 -0.96875q0.765625 -0.34375 1.734375 -0.34375q0.78125 0 1.375 0.21875q0.59375 0.203125 0.890625 0.390625l0 -4.5625zm7.2843323 11.96875q2.625 0 2.625 -1.796875q0 -0.546875 -0.234375 -0.9375q-0.21875 -0.390625 -0.625 -0.671875q-0.390625 -0.296875 -0.90625 -0.5q-0.515625 -0.203125 -1.078125 -0.421875q-0.671875 -0.21875 -1.265625 -0.5q-0.578125 -0.296875 -1.015625 -0.6875q-0.421875 -0.390625 -0.6875 -0.921875q-0.25 -0.53125 -0.25 -1.296875q0 -1.578125 1.078125 -2.453125q1.078125 -0.890625 2.96875 -0.890625q1.09375 0 1.984375 0.234375q0.890625 0.234375 1.296875 0.5l-0.53125 1.375q-0.359375 -0.21875 -1.078125 -0.4375q-0.71875 -0.21875 -1.671875 -0.21875q-0.484375 0 -0.90625 0.109375q-0.421875 0.09375 -0.734375 0.3125q-0.296875 0.203125 -0.484375 0.53125q-0.1875 0.3125 -0.1875 0.75q0 0.484375 0.1875 0.8125q0.203125 0.328125 0.546875 0.578125q0.34375 0.25 0.796875 0.46875q0.46875 0.203125 1.015625 0.40625q0.78125 0.3125 1.421875 0.625q0.65625 0.3125 1.125 0.75q0.484375 0.421875 0.75 1.03125q0.265625 0.59375 0.265625 1.4375q0 1.578125 -1.15625 2.4375q-1.15625 0.84375 -3.25 0.84375q-0.71875 0 -1.3125 -0.109375q-0.59375 -0.09375 -1.0625 -0.21875q-0.46875 -0.125 -0.8125 -0.265625q-0.328125 -0.15625 -0.515625 -0.265625l0.5 -1.375q0.390625 0.21875 1.203125 0.5q0.828125 0.265625 2.0 0.265625zm10.234131 1.40625q-1.09375 0 -1.921875 -0.34375q-0.8125 -0.34375 -1.375 -0.96875q-0.5625 -0.625 -0.84375 -1.484375q-0.265625 -0.859375 -0.265625 -1.890625q0 -1.046875 0.296875 -1.90625q0.296875 -0.875 0.84375 -1.5q0.5625 -0.640625 1.359375 -0.984375q0.8125 -0.359375 1.8125 -0.359375q0.609375 0 1.203125 0.109375q0.609375 0.09375 1.171875 0.328125l-0.375 1.359375q-0.359375 -0.171875 -0.84375 -0.265625q-0.46875 -0.109375 -1.0 -0.109375q-1.359375 0 -2.078125 0.859375q-0.71875 0.84375 -0.71875 2.46875q0 0.71875 0.15625 1.328125q0.171875 0.609375 0.53125 1.046875q0.359375 0.421875 0.90625 0.65625q0.5625 0.234375 1.359375 0.234375q0.640625 0 1.15625 -0.109375q0.515625 -0.125 0.8125 -0.265625l0.234375 1.34375q-0.140625 0.09375 -0.40625 0.171875q-0.265625 0.078125 -0.59375 0.140625q-0.328125 0.0625 -0.703125 0.09375q-0.359375 0.046875 -0.71875 0.046875zm7.1981506 -1.359375q0.5625 0 1.0 -0.03125q0.453125 -0.03125 0.75 -0.09375l0 -2.6875q-0.171875 -0.09375 -0.5625 -0.140625q-0.390625 -0.0625 -0.953125 -0.0625q-0.359375 0 -0.765625 0.046875q-0.40625 0.046875 -0.75 0.21875q-0.328125 0.15625 -0.5625 0.453125q-0.21875 0.28125 -0.21875 0.75q0 0.859375 0.546875 1.203125q0.5625 0.34375 1.515625 0.34375zm-0.140625 -8.078125q0.96875 0 1.640625 0.25q0.671875 0.25 1.078125 0.71875q0.40625 0.453125 0.578125 1.09375q0.171875 0.625 0.171875 1.390625l0 5.625q-0.203125 0.03125 -0.578125 0.09375q-0.375 0.0625 -0.84375 0.109375q-0.46875 0.0625 -1.015625 0.09375q-0.546875 0.046875 -1.078125 0.046875q-0.765625 0 -1.40625 -0.15625q-0.640625 -0.15625 -1.109375 -0.484375q-0.46875 -0.34375 -0.734375 -0.890625q-0.25 -0.5625 -0.25 -1.34375q0 -0.75 0.296875 -1.28125q0.3125 -0.53125 0.828125 -0.859375q0.515625 -0.328125 1.203125 -0.484375q0.703125 -0.15625 1.46875 -0.15625q0.234375 0 0.484375 0.03125q0.265625 0.015625 0.5 0.0625q0.234375 0.03125 0.40625 0.078125q0.171875 0.03125 0.25 0.046875l0 -0.453125q0 -0.390625 -0.09375 -0.78125q-0.078125 -0.390625 -0.3125 -0.6875q-0.21875 -0.3125 -0.609375 -0.484375q-0.390625 -0.1875 -1.015625 -0.1875q-0.796875 0 -1.390625 0.109375q-0.59375 0.109375 -0.890625 0.234375l-0.1875 -1.34375q0.3125 -0.125 1.03125 -0.25q0.734375 -0.140625 1.578125 -0.140625zm8.842102 9.40625q-1.5 -0.03125 -2.125 -0.640625q-0.609375 -0.609375 -0.609375 -1.890625l0 -10.8125l1.609375 -0.28125l0 10.84375q0 0.390625 0.0625 0.65625q0.078125 0.25 0.21875 0.40625q0.15625 0.15625 0.421875 0.234375q0.265625 0.078125 0.640625 0.140625l-0.21875 1.34375zm1.52742 -4.65625q0 -1.203125 0.34375 -2.09375q0.34375 -0.890625 0.90625 -1.46875q0.578125 -0.59375 1.3125 -0.890625q0.75 -0.296875 1.53125 -0.296875q1.828125 0 2.796875 1.140625q0.96875 1.125 0.96875 3.453125q0 0.09375 0 0.265625q0 0.171875 -0.015625 0.296875l-6.171875 0q0.109375 1.40625 0.8125 2.140625q0.71875 0.71875 2.21875 0.71875q0.859375 0 1.4375 -0.140625q0.578125 -0.140625 0.875 -0.28125l0.21875 1.34375q-0.296875 0.15625 -1.03125 0.328125q-0.734375 0.171875 -1.671875 0.171875q-1.171875 0 -2.03125 -0.34375q-0.859375 -0.359375 -1.421875 -0.984375q-0.546875 -0.625 -0.8125 -1.484375q-0.265625 -0.859375 -0.265625 -1.875zm6.171875 -0.890625q0.03125 -1.09375 -0.546875 -1.78125q-0.5625 -0.703125 -1.546875 -0.703125q-0.546875 0 -0.984375 0.21875q-0.421875 0.203125 -0.71875 0.5625q-0.28125 0.34375 -0.453125 0.796875q-0.15625 0.4375 -0.21875 0.90625l4.46875 0zm7.342621 -3.828125q0.203125 0 0.46875 0.03125q0.265625 0.015625 0.53125 0.0625q0.265625 0.046875 0.46875 0.09375q0.21875 0.046875 0.328125 0.078125l-0.28125 1.40625q-0.1875 -0.078125 -0.640625 -0.171875q-0.4375 -0.09375 -1.125 -0.09375q-0.453125 0 -0.890625 0.09375q-0.4375 0.09375 -0.578125 0.125l0 7.578125l-1.609375 0l0 -8.625q0.5625 -0.21875 1.40625 -0.390625q0.859375 -0.1875 1.921875 -0.1875z" fill-rule="nonzero"/><path fill="#f3f3f3" d="m198.63196 132.86327q0 2.21875 0.640625 4.109375q0.640625 1.890625 1.890625 3.5l-1.15625 0.78125q-1.34375 -1.640625 -2.171875 -3.78125q-0.8125 -2.140625 -0.8125 -4.609375q0 -2.453125 0.8125 -4.59375q0.828125 -2.140625 2.171875 -3.78125l1.15625 0.78125q-1.25 1.609375 -1.890625 3.5q-0.640625 1.875 -0.640625 4.09375zm6.688446 0q0 -2.21875 -0.640625 -4.09375q-0.640625 -1.890625 -1.890625 -3.5l1.140625 -0.78125q1.34375 1.640625 2.171875 3.78125q0.828125 2.140625 0.828125 4.59375q0 2.46875 -0.828125 4.609375q-0.828125 2.140625 -2.171875 3.78125l-1.140625 -0.78125q1.25 -1.609375 1.890625 -3.5q0.640625 -1.890625 0.640625 -4.109375zm6.036148 3.21875q0.03125 0.125 0.03125 0.265625q0 0.125 0 0.265625q0 1.09375 -0.328125 2.15625q-0.328125 1.0625 -0.875 2.03125l-1.25 -0.390625q0.4375 -0.890625 0.578125 -1.796875q0.140625 -0.90625 0.140625 -1.703125q0 -0.234375 -0.015625 -0.4375q0 -0.203125 -0.03125 -0.390625l1.75 0z" fill-rule="nonzero"/><path fill="#f3f3f3" d="m84.1174 154.86139q-0.296875 -0.234375 -0.84375 -0.453125q-0.546875 -0.234375 -1.21875 -0.234375q-0.6875 0 -1.1875 0.25q-0.484375 0.25 -0.796875 0.703125q-0.3125 0.4375 -0.453125 1.046875q-0.140625 0.59375 -0.140625 1.296875q0 1.578125 0.78125 2.4375q0.78125 0.84375 2.078125 0.84375q0.65625 0 1.09375 -0.046875q0.453125 -0.0625 0.6875 -0.140625l0 -5.703125zm0 -6.0625l1.609375 -0.28125l0 13.1875q-0.546875 0.15625 -1.421875 0.3125q-0.859375 0.15625 -1.984375 0.15625q-1.046875 0 -1.875 -0.328125q-0.828125 -0.328125 -1.421875 -0.921875q-0.578125 -0.609375 -0.90625 -1.484375q-0.3125 -0.875 -0.3125 -1.96875q0 -1.046875 0.265625 -1.90625q0.265625 -0.875 0.78125 -1.5q0.515625 -0.625 1.265625 -0.96875q0.765625 -0.34375 1.734375 -0.34375q0.78125 0 1.375 0.21875q0.59375 0.203125 0.890625 0.390625l0 -4.5625zm5.8937073 4.15625l3.421875 0l0 1.359375l-3.421875 0l0 4.15625q0 0.671875 0.109375 1.125q0.109375 0.4375 0.3125 0.6875q0.203125 0.25 0.515625 0.359375q0.3125 0.09375 0.734375 0.09375q0.71875 0 1.15625 -0.15625q0.453125 -0.171875 0.625 -0.234375l0.3125 1.328125q-0.25 0.125 -0.859375 0.296875q-0.59375 0.1875 -1.375 0.1875q-0.921875 0 -1.53125 -0.234375q-0.59375 -0.234375 -0.953125 -0.703125q-0.359375 -0.46875 -0.515625 -1.140625q-0.140625 -0.6875 -0.140625 -1.59375l0 -8.03125l1.609375 -0.28125l0 2.78125zm4.403366 10.703125q0.1875 0.078125 0.484375 0.15625q0.3125 0.078125 0.609375 0.078125q0.953125 0 1.484375 -0.421875q0.546875 -0.421875 0.96875 -1.375q-1.078125 -2.078125 -2.03125 -4.40625q-0.9375 -2.34375 -1.5625 -4.734375l1.734375 0q0.1875 0.78125 0.453125 1.6875q0.265625 0.90625 0.59375 1.859375q0.328125 0.953125 0.703125 1.90625q0.390625 0.953125 0.8125 1.828125q0.65625 -1.8125 1.140625 -3.59375q0.484375 -1.796875 0.921875 -3.6875l1.65625 0q-0.625 2.546875 -1.390625 4.90625q-0.75 2.34375 -1.640625 4.390625q-0.34375 0.78125 -0.71875 1.34375q-0.375 0.5625 -0.828125 0.921875q-0.4375 0.359375 -1.0 0.53125q-0.5625 0.171875 -1.28125 0.171875q-0.1875 0 -0.40625 -0.03125q-0.203125 -0.015625 -0.40625 -0.0625q-0.1875 -0.03125 -0.359375 -0.09375q-0.15625 -0.046875 -0.234375 -0.078125l0.296875 -1.296875zm15.92453 -6.171875q0 -1.578125 -0.78125 -2.421875q-0.78125 -0.859375 -2.078125 -0.859375q-0.71875 0 -1.140625 0.0625q-0.40625 0.046875 -0.640625 0.109375l0 5.6875q0.296875 0.25 0.84375 0.46875q0.5625 0.21875 1.21875 0.21875q0.6875 0 1.171875 -0.25q0.5 -0.25 0.8125 -0.6875q0.3125 -0.4375 0.453125 -1.03125q0.140625 -0.609375 0.140625 -1.296875zm1.6875 0q0 1.015625 -0.28125 1.890625q-0.265625 0.859375 -0.78125 1.484375q-0.515625 0.625 -1.28125 0.96875q-0.75 0.34375 -1.71875 0.34375q-0.78125 0 -1.375 -0.203125q-0.59375 -0.203125 -0.890625 -0.40625l0 3.609375l-1.609375 0l0 -11.9375q0.5625 -0.140625 1.421875 -0.296875q0.859375 -0.171875 1.984375 -0.171875q1.046875 0 1.875 0.328125q0.828125 0.328125 1.421875 0.9375q0.59375 0.609375 0.90625 1.484375q0.328125 0.875 0.328125 1.96875zm1.7687073 0q0 -1.203125 0.34375 -2.09375q0.34375 -0.890625 0.90625 -1.46875q0.578125 -0.59375 1.3125 -0.890625q0.75 -0.296875 1.53125 -0.296875q1.828125 0 2.796875 1.140625q0.96875 1.125 0.96875 3.453125q0 0.09375 0 0.265625q0 0.171875 -0.015625 0.296875l-6.171875 0q0.109375 1.40625 0.8125 2.140625q0.71875 0.71875 2.21875 0.71875q0.859375 0 1.4375 -0.140625q0.578125 -0.140625 0.875 -0.28125l0.21875 1.34375q-0.296875 0.15625 -1.03125 0.328125q-0.734375 0.171875 -1.671875 0.171875q-1.171875 0 -2.03125 -0.34375q-0.859375 -0.359375 -1.421875 -0.984375q-0.546875 -0.625 -0.8125 -1.484375q-0.265625 -0.859375 -0.265625 -1.875zm6.171875 -0.890625q0.03125 -1.09375 -0.546875 -1.78125q-0.5625 -0.703125 -1.546875 -0.703125q-0.546875 0 -0.984375 0.21875q-0.421875 0.203125 -0.71875 0.5625q-0.28125 0.34375 -0.453125 0.796875q-0.15625 0.4375 -0.21875 0.90625l4.46875 0zm6.108246 4.21875q0.984375 0 1.453125 -0.265625q0.484375 -0.265625 0.484375 -0.828125q0 -0.59375 -0.46875 -0.9375q-0.46875 -0.34375 -1.546875 -0.78125q-0.515625 -0.203125 -1.0 -0.421875q-0.46875 -0.21875 -0.8125 -0.515625q-0.34375 -0.296875 -0.5625 -0.703125q-0.203125 -0.421875 -0.203125 -1.03125q0 -1.1875 0.875 -1.890625q0.890625 -0.703125 2.421875 -0.703125q0.375 0 0.75 0.046875q0.390625 0.03125 0.71875 0.09375q0.328125 0.0625 0.578125 0.140625q0.25 0.0625 0.390625 0.109375l-0.296875 1.390625q-0.25 -0.140625 -0.8125 -0.28125q-0.546875 -0.15625 -1.328125 -0.15625q-0.671875 0 -1.1875 0.28125q-0.5 0.265625 -0.5 0.828125q0 0.296875 0.109375 0.53125q0.125 0.21875 0.359375 0.40625q0.234375 0.171875 0.578125 0.328125q0.34375 0.15625 0.828125 0.328125q0.640625 0.25 1.140625 0.484375q0.5 0.234375 0.859375 0.546875q0.359375 0.3125 0.546875 0.75q0.1875 0.4375 0.1875 1.078125q0 1.25 -0.921875 1.890625q-0.921875 0.640625 -2.640625 0.640625q-1.203125 0 -1.875 -0.203125q-0.671875 -0.1875 -0.921875 -0.296875l0.296875 -1.390625q0.28125 0.109375 0.890625 0.328125q0.609375 0.203125 1.609375 0.203125z" fill-rule="nonzero"/><path fill="#ff605c" d="m135.24391 157.95514l7.9375 0l0 1.359375l-7.9375 0l0 -1.359375zm0 -3.703125l7.9375 0l0 1.375l-7.9375 0l0 -1.375z" fill-rule="nonzero"/><path fill="#ffffff" d="m149.75407 148.40826l3.90625 0l0 1.265625l-2.390625 0l0 14.234375l2.390625 0l0 1.265625l-3.90625 0l0 -16.765625z" fill-rule="nonzero"/><path fill="#97e574" d="m154.84561 152.95514q0 -0.1875 0 -0.359375q0 -0.1875 0.015625 -0.359375q0.0625 -0.90625 0.390625 -1.78125q0.328125 -0.890625 0.796875 -1.65625l1.25 0.40625q-0.359375 0.75 -0.546875 1.53125q-0.1875 0.78125 -0.1875 1.46875q0 0.171875 0.015625 0.375q0.015625 0.1875 0.03125 0.375l-1.765625 0zm7.9314575 -4.4375q0.609375 0 1.03125 0.078125q0.4375 0.078125 0.625 0.15625l-0.21875 1.390625q-0.1875 -0.078125 -0.515625 -0.15625q-0.328125 -0.078125 -0.796875 -0.078125q-1.125 0 -1.578125 0.625q-0.453125 0.609375 -0.453125 1.640625l0 0.78125l3.46875 0l0 1.359375l-3.46875 0l0 7.65625l-1.609375 0l0 -9.828125q0 -1.734375 0.84375 -2.671875q0.84375 -0.953125 2.671875 -0.953125zm5.9375 13.625q-1.484375 -0.03125 -2.109375 -0.640625q-0.625 -0.609375 -0.625 -1.890625l0 -10.8125l1.609375 -0.28125l0 10.84375q0 0.390625 0.0625 0.65625q0.078125 0.25 0.234375 0.40625q0.15625 0.15625 0.40625 0.234375q0.265625 0.078125 0.65625 0.140625l-0.234375 1.34375zm9.98848 -4.671875q0 1.0625 -0.3125 1.9375q-0.3125 0.859375 -0.875 1.484375q-0.5625 0.625 -1.34375 0.96875q-0.78125 0.328125 -1.703125 0.328125q-0.921875 0 -1.703125 -0.328125q-0.765625 -0.34375 -1.34375 -0.96875q-0.5625 -0.625 -0.875 -1.484375q-0.296875 -0.875 -0.296875 -1.9375q0 -1.0625 0.296875 -1.9375q0.3125 -0.875 0.875 -1.5q0.578125 -0.625 1.34375 -0.953125q0.78125 -0.34375 1.703125 -0.34375q0.921875 0 1.703125 0.34375q0.78125 0.328125 1.34375 0.953125q0.5625 0.625 0.875 1.5q0.3125 0.875 0.3125 1.9375zm-1.6875 0q0 -1.53125 -0.6875 -2.421875q-0.671875 -0.890625 -1.859375 -0.890625q-1.171875 0 -1.859375 0.890625q-0.6875 0.890625 -0.6875 2.421875q0 1.515625 0.6875 2.40625q0.6875 0.890625 1.859375 0.890625q1.1875 0 1.859375 -0.890625q0.6875 -0.890625 0.6875 -2.40625zm7.0047913 3.34375q0.5625 0 1.0 -0.03125q0.453125 -0.03125 0.75 -0.09375l0 -2.6875q-0.171875 -0.09375 -0.5625 -0.140625q-0.390625 -0.0625 -0.953125 -0.0625q-0.359375 0 -0.765625 0.046875q-0.40625 0.046875 -0.75 0.21875q-0.328125 0.15625 -0.5625 0.453125q-0.21875 0.28125 -0.21875 0.75q0 0.859375 0.546875 1.203125q0.5625 0.34375 1.515625 0.34375zm-0.140625 -8.078125q0.96875 0 1.640625 0.25q0.671875 0.25 1.078125 0.71875q0.40625 0.453125 0.578125 1.09375q0.171875 0.625 0.171875 1.390625l0 5.625q-0.203125 0.03125 -0.578125 0.09375q-0.375 0.0625 -0.84375 0.109375q-0.46875 0.0625 -1.015625 0.09375q-0.546875 0.046875 -1.078125 0.046875q-0.765625 0 -1.40625 -0.15625q-0.640625 -0.15625 -1.109375 -0.484375q-0.46875 -0.34375 -0.734375 -0.890625q-0.25 -0.5625 -0.25 -1.34375q0 -0.75 0.296875 -1.28125q0.3125 -0.53125 0.828125 -0.859375q0.515625 -0.328125 1.203125 -0.484375q0.703125 -0.15625 1.46875 -0.15625q0.234375 0 0.484375 0.03125q0.265625 0.015625 0.5 0.0625q0.234375 0.03125 0.40625 0.078125q0.171875 0.03125 0.25 0.046875l0 -0.453125q0 -0.390625 -0.09375 -0.78125q-0.078125 -0.390625 -0.3125 -0.6875q-0.21875 -0.3125 -0.609375 -0.484375q-0.390625 -0.1875 -1.015625 -0.1875q-0.796875 0 -1.390625 0.109375q-0.59375 0.109375 -0.890625 0.234375l-0.1875 -1.34375q0.3125 -0.125 1.03125 -0.25q0.734375 -0.140625 1.578125 -0.140625zm7.638977 0.21875l3.421875 0l0 1.359375l-3.421875 0l0 4.15625q0 0.671875 0.109375 1.125q0.109375 0.4375 0.3125 0.6875q0.203125 0.25 0.515625 0.359375q0.3125 0.09375 0.734375 0.09375q0.71875 0 1.15625 -0.15625q0.453125 -0.171875 0.625 -0.234375l0.3125 1.328125q-0.25 0.125 -0.859375 0.296875q-0.59375 0.1875 -1.375 0.1875q-0.921875 0 -1.53125 -0.234375q-0.59375 -0.234375 -0.953125 -0.703125q-0.359375 -0.46875 -0.515625 -1.140625q-0.140625 -0.6875 -0.140625 -1.59375l0 -8.03125l1.609375 -0.28125l0 2.78125zm7.106491 -3.984375q0 0.1875 0 0.375q0 0.1875 -0.015625 0.359375q-0.0625 0.90625 -0.40625 1.78125q-0.328125 0.875 -0.796875 1.640625l-1.234375 -0.390625q0.359375 -0.78125 0.53125 -1.546875q0.1875 -0.78125 0.1875 -1.453125q0 -0.171875 -0.015625 -0.375q0 -0.203125 -0.015625 -0.390625l1.765625 0z" fill-rule="nonzero"/><path fill="#ffffff" d="m203.69727 165.17389l-3.890625 0l0 -1.265625l2.390625 0l0 -14.234375l-2.390625 0l0 -1.265625l3.890625 0l0 16.765625zm4.3259125 -8.390625q0 -2.21875 -0.640625 -4.09375q-0.640625 -1.890625 -1.890625 -3.5l1.140625 -0.78125q1.34375 1.640625 2.171875 3.78125q0.828125 2.140625 0.828125 4.59375q0 2.46875 -0.828125 4.609375q-0.828125 2.140625 -2.171875 3.78125l-1.140625 -0.78125q1.25 -1.609375 1.890625 -3.5q0.640625 -1.890625 0.640625 -4.109375zm6.036148 3.21875q0.03125 0.125 0.03125 0.265625q0 0.125 0 0.265625q0 1.09375 -0.328125 2.15625q-0.328125 1.0625 -0.875 2.03125l-1.25 -0.390625q0.4375 -0.890625 0.578125 -1.796875q0.140625 -0.90625 0.140625 -1.703125q0 -0.234375 -0.015625 -0.4375q0 -0.203125 -0.03125 -0.390625l1.75 0z" fill-rule="nonzero"/><path fill="#ffd966" d="m63.739834 200.00888l1.8125038 0l0 12.921875l-1.8125038 0l0 -12.921875zm4.9091682 3.5q0.59375 -0.15625 1.578125 -0.3125q0.984375 -0.171875 2.28125 -0.171875q1.15625 0 1.921875 0.328125q0.765625 0.328125 1.21875 0.921875q0.453125 0.578125 0.640625 1.40625q0.1875 0.8125 0.1875 1.796875l0 5.453125l-1.734375 0l0 -5.078125q0 -0.890625 -0.125 -1.515625q-0.125 -0.640625 -0.40625 -1.03125q-0.265625 -0.390625 -0.734375 -0.5625q-0.46875 -0.1875 -1.15625 -0.1875q-0.28125 0 -0.578125 0.015625q-0.296875 0.015625 -0.578125 0.046875q-0.265625 0.03125 -0.484375 0.078125q-0.203125 0.03125 -0.296875 0.046875l0 8.1875l-1.734375 0l0 -9.421875zm17.44307 4.59375q0 -1.703125 -0.84375 -2.609375q-0.84375 -0.921875 -2.234375 -0.921875q-0.796875 0 -1.234375 0.0625q-0.4375 0.046875 -0.6875 0.125l0 6.125q0.3125 0.25 0.90625 0.5q0.59375 0.234375 1.3125 0.234375q0.734375 0 1.265625 -0.265625q0.53125 -0.265625 0.859375 -0.734375q0.34375 -0.484375 0.5 -1.125q0.15625 -0.640625 0.15625 -1.390625zm1.796875 0q0 1.09375 -0.296875 2.03125q-0.28125 0.9375 -0.84375 1.609375q-0.546875 0.671875 -1.359375 1.046875q-0.8125 0.359375 -1.859375 0.359375q-0.84375 0 -1.484375 -0.21875q-0.640625 -0.21875 -0.953125 -0.421875l0 3.875l-1.734375 0l0 -12.859375q0.609375 -0.140625 1.53125 -0.3125q0.921875 -0.1875 2.140625 -0.1875q1.109375 0 2.0 0.359375q0.90625 0.34375 1.53125 1.0q0.640625 0.65625 0.984375 1.609375q0.34375 0.9375 0.34375 2.109375zm10.176041 4.546875q-0.59375 0.15625 -1.578125 0.3125q-0.984375 0.171875 -2.265625 0.171875q-1.125 0 -1.890625 -0.328125q-0.765625 -0.328125 -1.234375 -0.921875q-0.453125 -0.59375 -0.671875 -1.40625q-0.203125 -0.8125 -0.203125 -1.796875l0 -5.453125l1.734375 0l0 5.078125q0 1.765625 0.5625 2.53125q0.5625 0.765625 1.890625 0.765625q0.28125 0 0.578125 -0.015625q0.296875 -0.015625 0.546875 -0.046875q0.265625 -0.03125 0.484375 -0.046875q0.21875 -0.03125 0.3125 -0.078125l0 -8.1875l1.734375 0l0 9.421875zm4.5993195 -9.421875l3.6875 0l0 1.453125l-3.6875 0l0 4.484375q0 0.71875 0.109375 1.203125q0.125 0.46875 0.34375 0.75q0.21875 0.265625 0.546875 0.375q0.34375 0.109375 0.796875 0.109375q0.78125 0 1.25 -0.171875q0.484375 -0.171875 0.671875 -0.25l0.328125 1.4375q-0.25 0.125 -0.90625 0.3125q-0.65625 0.203125 -1.5 0.203125q-0.984375 0 -1.625 -0.25q-0.640625 -0.25 -1.03125 -0.75q-0.390625 -0.515625 -0.5625 -1.25q-0.15625 -0.734375 -0.15625 -1.703125l0 -8.65625l1.734375 -0.296875l0 3.0z" fill-rule="nonzero"/><path fill="#ffffff" d="m110.60162 211.93076q0 0.5 -0.34375 0.875q-0.328125 0.375 -0.90625 0.375q-0.578125 0 -0.921875 -0.375q-0.328125 -0.375 -0.328125 -0.875q0 -0.515625 0.328125 -0.875q0.34375 -0.375 0.921875 -0.375q0.578125 0 0.90625 0.375q0.34375 0.359375 0.34375 0.875z" fill-rule="nonzero"/><path fill="#80ebd4" d="m113.253555 212.93076l0 -12.921875l7.890625 0l0 1.546875l-6.078125 0l0 3.84375l5.40625 0l0 1.5l-5.40625 0l0 4.484375l6.546875 0l0 1.546875l-8.359375 0zm10.54335 -9.421875q0.59375 -0.15625 1.578125 -0.3125q0.984375 -0.171875 2.28125 -0.171875q1.15625 0 1.921875 0.328125q0.765625 0.328125 1.21875 0.921875q0.453125 0.578125 0.640625 1.40625q0.1875 0.8125 0.1875 1.796875l0 5.453125l-1.734375 0l0 -5.078125q0 -0.890625 -0.125 -1.515625q-0.125 -0.640625 -0.40625 -1.03125q-0.265625 -0.390625 -0.734375 -0.5625q-0.46875 -0.1875 -1.15625 -0.1875q-0.28125 0 -0.578125 0.015625q-0.296875 0.015625 -0.578125 0.046875q-0.265625 0.03125 -0.484375 0.078125q-0.203125 0.03125 -0.296875 0.046875l0 8.1875l-1.734375 0l0 -9.421875zm14.911819 9.640625q-1.171875 0 -2.0625 -0.359375q-0.875 -0.375 -1.484375 -1.046875q-0.609375 -0.671875 -0.90625 -1.59375q-0.296875 -0.9375 -0.296875 -2.046875q0 -1.125 0.328125 -2.046875q0.328125 -0.9375 0.921875 -1.609375q0.59375 -0.6875 1.453125 -1.0625q0.875 -0.390625 1.9375 -0.390625q0.65625 0 1.3125 0.109375q0.65625 0.109375 1.25 0.34375l-0.390625 1.484375q-0.390625 -0.1875 -0.90625 -0.296875q-0.515625 -0.109375 -1.09375 -0.109375q-1.453125 0 -2.234375 0.921875q-0.765625 0.90625 -0.765625 2.65625q0 0.78125 0.171875 1.4375q0.171875 0.640625 0.546875 1.109375q0.390625 0.46875 0.984375 0.71875q0.609375 0.25 1.46875 0.25q0.6875 0 1.25 -0.125q0.5625 -0.125 0.875 -0.28125l0.234375 1.453125q-0.140625 0.09375 -0.421875 0.1875q-0.28125 0.078125 -0.640625 0.140625q-0.34375 0.0625 -0.75 0.109375q-0.40625 0.046875 -0.78125 0.046875zm12.79187 -5.0625q0 1.15625 -0.34375 2.09375q-0.328125 0.921875 -0.9375 1.59375q-0.609375 0.671875 -1.453125 1.046875q-0.828125 0.359375 -1.828125 0.359375q-0.984375 0 -1.828125 -0.359375q-0.84375 -0.375 -1.453125 -1.046875q-0.59375 -0.671875 -0.9375 -1.59375q-0.328125 -0.9375 -0.328125 -2.09375q0 -1.140625 0.328125 -2.078125q0.34375 -0.953125 0.9375 -1.625q0.609375 -0.671875 1.453125 -1.03125q0.84375 -0.359375 1.828125 -0.359375q1.0 0 1.828125 0.359375q0.84375 0.359375 1.453125 1.03125q0.609375 0.671875 0.9375 1.625q0.34375 0.9375 0.34375 2.078125zm-1.8125 0q0 -1.65625 -0.75 -2.609375q-0.734375 -0.953125 -2.0 -0.953125q-1.265625 0 -2.0 0.953125q-0.734375 0.953125 -0.734375 2.609375q0 1.640625 0.734375 2.609375q0.734375 0.953125 2.0 0.953125q1.265625 0 2.0 -0.953125q0.75 -0.96875 0.75 -2.609375zm10.522812 -2.8125q-0.328125 -0.25 -0.921875 -0.484375q-0.59375 -0.25 -1.296875 -0.25q-0.75 0 -1.28125 0.265625q-0.53125 0.265625 -0.875 0.75q-0.328125 0.46875 -0.484375 1.125q-0.140625 0.65625 -0.140625 1.40625q0 1.6875 0.828125 2.609375q0.84375 0.921875 2.25 0.921875q0.703125 0 1.171875 -0.0625q0.484375 -0.0625 0.75 -0.140625l0 -6.140625zm0 -6.515625l1.734375 -0.3125l0 14.203125q-0.59375 0.171875 -1.53125 0.328125q-0.9375 0.171875 -2.140625 0.171875q-1.125 0 -2.03125 -0.34375q-0.890625 -0.359375 -1.53125 -1.015625q-0.625 -0.65625 -0.96875 -1.59375q-0.34375 -0.9375 -0.34375 -2.109375q0 -1.125 0.28125 -2.046875q0.296875 -0.9375 0.859375 -1.609375q0.5625 -0.671875 1.359375 -1.046875q0.8125 -0.375 1.859375 -0.375q0.84375 0 1.484375 0.21875q0.640625 0.21875 0.96875 0.4375l0 -4.90625zm4.1760406 9.34375q0 -1.296875 0.375 -2.25q0.375 -0.96875 0.984375 -1.59375q0.609375 -0.640625 1.40625 -0.953125q0.8125 -0.3125 1.65625 -0.3125q1.953125 0 3.0 1.21875q1.046875 1.21875 1.046875 3.71875q0 0.109375 0 0.296875q0 0.171875 -0.015625 0.3125l-6.640625 0q0.109375 1.515625 0.875 2.296875q0.765625 0.78125 2.390625 0.78125q0.90625 0 1.53125 -0.15625q0.625 -0.15625 0.9375 -0.296875l0.25 1.453125q-0.3125 0.15625 -1.109375 0.34375q-0.796875 0.1875 -1.796875 0.1875q-1.265625 0 -2.203125 -0.375q-0.921875 -0.390625 -1.515625 -1.0625q-0.59375 -0.671875 -0.890625 -1.59375q-0.28125 -0.921875 -0.28125 -2.015625zm6.65625 -0.953125q0.015625 -1.171875 -0.59375 -1.921875q-0.59375 -0.765625 -1.65625 -0.765625q-0.609375 0 -1.0625 0.234375q-0.453125 0.234375 -0.78125 0.609375q-0.3125 0.375 -0.484375 0.859375q-0.171875 0.484375 -0.234375 0.984375l4.8125 0zm7.8975983 -4.125q0.21875 0 0.5 0.03125q0.296875 0.03125 0.578125 0.078125q0.28125 0.046875 0.515625 0.09375q0.234375 0.046875 0.34375 0.078125l-0.296875 1.515625q-0.203125 -0.078125 -0.6875 -0.171875q-0.46875 -0.109375 -1.21875 -0.109375q-0.484375 0 -0.96875 0.109375q-0.46875 0.09375 -0.609375 0.125l0 8.15625l-1.734375 0l0 -9.296875q0.609375 -0.21875 1.515625 -0.40625q0.921875 -0.203125 2.0625 -0.203125z" fill-rule="nonzero"/><path fill="#f3f3f3" d="m184.03273 207.74326q0 2.21875 0.640625 4.109375q0.640625 1.890625 1.890625 3.5l-1.15625 0.78125q-1.34375 -1.640625 -2.171875 -3.78125q-0.8125 -2.140625 -0.8125 -4.609375q0 -2.453125 0.8125 -4.59375q0.828125 -2.140625 2.171875 -3.78125l1.15625 0.78125q-1.25 1.609375 -1.890625 3.5q-0.640625 1.875 -0.640625 4.09375z" fill-rule="nonzero"/><path fill="#ffffff" d="m77.914276 231.39513q0 -1.546875 0.453125 -2.71875q0.46875 -1.171875 1.25 -1.953125q0.796875 -0.796875 1.84375 -1.1875q1.046875 -0.40625 2.234375 -0.40625q1.15625 0 2.1875 0.40625q1.03125 0.390625 1.8125 1.1875q0.78125 0.78125 1.234375 1.953125q0.453125 1.171875 0.453125 2.71875q0 1.546875 -0.453125 2.734375q-0.453125 1.171875 -1.234375 1.96875q-0.78125 0.78125 -1.8125 1.1875q-1.03125 0.390625 -2.1875 0.390625q-1.1875 0 -2.234375 -0.390625q-1.046875 -0.40625 -1.84375 -1.1875q-0.78125 -0.796875 -1.25 -1.96875q-0.453125 -1.1875 -0.453125 -2.734375zm1.765625 0q0 1.09375 0.28125 1.984375q0.28125 0.890625 0.78125 1.515625q0.515625 0.625 1.25 0.96875q0.75 0.328125 1.65625 0.328125q0.921875 0 1.640625 -0.328125q0.734375 -0.34375 1.25 -0.96875q0.515625 -0.625 0.78125 -1.515625q0.28125 -0.890625 0.28125 -1.984375q0 -1.09375 -0.28125 -1.984375q-0.265625 -0.890625 -0.78125 -1.515625q-0.515625 -0.625 -1.25 -0.953125q-0.71875 -0.34375 -1.640625 -0.34375q-0.90625 0 -1.65625 0.34375q-0.734375 0.328125 -1.25 0.953125q-0.5 0.625 -0.78125 1.515625q-0.28125 0.890625 -0.28125 1.984375zm12.106201 -2.734375q0.546875 -0.140625 1.46875 -0.296875q0.921875 -0.15625 2.109375 -0.15625q1.078125 0 1.78125 0.3125q0.71875 0.296875 1.140625 0.84375q0.421875 0.546875 0.59375 1.3125q0.171875 0.75 0.171875 1.671875l0 5.0625l-1.609375 0l0 -4.71875q0 -0.828125 -0.109375 -1.40625q-0.109375 -0.59375 -0.375 -0.953125q-0.25 -0.375 -0.6875 -0.53125q-0.4375 -0.171875 -1.078125 -0.171875q-0.25 0 -0.53125 0.015625q-0.28125 0.015625 -0.53125 0.046875q-0.25 0.03125 -0.453125 0.0625q-0.203125 0.03125 -0.28125 0.046875l0 7.609375l-1.609375 0l0 -8.75zm9.446289 4.265625q0 -1.203125 0.34375 -2.09375q0.34375 -0.890625 0.90625 -1.46875q0.578125 -0.59375 1.3125 -0.890625q0.75 -0.296875 1.53125 -0.296875q1.828125 0 2.796875 1.140625q0.96875 1.125 0.96875 3.453125q0 0.09375 0 0.265625q0 0.171875 -0.015625 0.296875l-6.171875 0q0.109375 1.40625 0.8125 2.140625q0.71875 0.71875 2.21875 0.71875q0.859375 0 1.4375 -0.140625q0.578125 -0.140625 0.875 -0.28125l0.21875 1.34375q-0.296875 0.15625 -1.03125 0.328125q-0.734375 0.171875 -1.671875 0.171875q-1.171875 0 -2.03125 -0.34375q-0.859375 -0.359375 -1.421875 -0.984375q-0.546875 -0.625 -0.8125 -1.484375q-0.265625 -0.859375 -0.265625 -1.875zm6.171875 -0.890625q0.03125 -1.09375 -0.546875 -1.78125q-0.5625 -0.703125 -1.546875 -0.703125q-0.546875 0 -0.984375 0.21875q-0.421875 0.203125 -0.71875 0.5625q-0.28125 0.34375 -0.453125 0.796875q-0.15625 0.4375 -0.21875 0.90625l4.46875 0zm11.670746 -6.640625l1.671875 0l0 12.015625l-1.671875 0l0 -5.546875l-5.875 0l0 5.546875l-1.6875 0l0 -12.015625l1.6875 0l0 5.015625l5.875 0l0 -5.015625zm12.513138 7.515625q0 1.0625 -0.3125 1.9375q-0.3125 0.859375 -0.875 1.484375q-0.5625 0.625 -1.34375 0.96875q-0.78125 0.328125 -1.703125 0.328125q-0.921875 0 -1.703125 -0.328125q-0.765625 -0.34375 -1.34375 -0.96875q-0.5625 -0.625 -0.875 -1.484375q-0.296875 -0.875 -0.296875 -1.9375q0 -1.0625 0.296875 -1.9375q0.3125 -0.875 0.875 -1.5q0.578125 -0.625 1.34375 -0.953125q0.78125 -0.34375 1.703125 -0.34375q0.921875 0 1.703125 0.34375q0.78125 0.328125 1.34375 0.953125q0.5625 0.625 0.875 1.5q0.3125 0.875 0.3125 1.9375zm-1.6875 0q0 -1.53125 -0.6875 -2.421875q-0.671875 -0.890625 -1.859375 -0.890625q-1.171875 0 -1.859375 0.890625q-0.6875 0.890625 -0.6875 2.421875q0 1.515625 0.6875 2.40625q0.6875 0.890625 1.859375 0.890625q1.1875 0 1.859375 -0.890625q0.6875 -0.890625 0.6875 -2.40625zm5.4579163 -4.515625l3.421875 0l0 1.359375l-3.421875 0l0 4.15625q0 0.671875 0.109375 1.125q0.109375 0.4375 0.3125 0.6875q0.203125 0.25 0.515625 0.359375q0.3125 0.09375 0.734375 0.09375q0.71875 0 1.15625 -0.15625q0.453125 -0.171875 0.625 -0.234375l0.3125 1.328125q-0.25 0.125 -0.859375 0.296875q-0.59375 0.1875 -1.375 0.1875q-0.921875 0 -1.53125 -0.234375q-0.59375 -0.234375 -0.953125 -0.703125q-0.359375 -0.46875 -0.515625 -1.140625q-0.140625 -0.6875 -0.140625 -1.59375l0 -8.03125l1.609375 -0.28125l0 2.78125zm5.559616 9.015625l0 -12.015625l7.328125 0l0 1.453125l-5.640625 0l0 3.5625l5.03125 0l0 1.40625l-5.03125 0l0 4.15625l6.078125 0l0 1.4375l-7.765625 0zm9.800552 -8.75q0.546875 -0.140625 1.46875 -0.296875q0.921875 -0.15625 2.109375 -0.15625q1.078125 0 1.78125 0.3125q0.71875 0.296875 1.140625 0.84375q0.421875 0.546875 0.59375 1.3125q0.171875 0.75 0.171875 1.671875l0 5.0625l-1.609375 0l0 -4.71875q0 -0.828125 -0.109375 -1.40625q-0.109375 -0.59375 -0.375 -0.953125q-0.25 -0.375 -0.6875 -0.53125q-0.4375 -0.171875 -1.078125 -0.171875q-0.25 0 -0.53125 0.015625q-0.28125 0.015625 -0.53125 0.046875q-0.25 0.03125 -0.453125 0.0625q-0.203125 0.03125 -0.28125 0.046875l0 7.609375l-1.609375 0l0 -8.75zm13.852539 8.953125q-1.09375 0 -1.921875 -0.34375q-0.8125 -0.34375 -1.375 -0.96875q-0.5625 -0.625 -0.84375 -1.484375q-0.265625 -0.859375 -0.265625 -1.890625q0 -1.046875 0.296875 -1.90625q0.296875 -0.875 0.84375 -1.5q0.5625 -0.640625 1.359375 -0.984375q0.8125 -0.359375 1.8125 -0.359375q0.609375 0 1.203125 0.109375q0.609375 0.09375 1.171875 0.328125l-0.375 1.359375q-0.359375 -0.171875 -0.84375 -0.265625q-0.46875 -0.109375 -1.0 -0.109375q-1.359375 0 -2.078125 0.859375q-0.71875 0.84375 -0.71875 2.46875q0 0.71875 0.15625 1.328125q0.171875 0.609375 0.53125 1.046875q0.359375 0.421875 0.90625 0.65625q0.5625 0.234375 1.359375 0.234375q0.640625 0 1.15625 -0.109375q0.515625 -0.125 0.8125 -0.265625l0.234375 1.34375q-0.140625 0.09375 -0.40625 0.171875q-0.265625 0.078125 -0.59375 0.140625q-0.328125 0.0625 -0.703125 0.09375q-0.359375 0.046875 -0.71875 0.046875zm11.879074 -4.703125q0 1.0625 -0.3125 1.9375q-0.3125 0.859375 -0.875 1.484375q-0.5625 0.625 -1.34375 0.96875q-0.78125 0.328125 -1.703125 0.328125q-0.921875 0 -1.703125 -0.328125q-0.765625 -0.34375 -1.34375 -0.96875q-0.5625 -0.625 -0.875 -1.484375q-0.296875 -0.875 -0.296875 -1.9375q0 -1.0625 0.296875 -1.9375q0.3125 -0.875 0.875 -1.5q0.578125 -0.625 1.34375 -0.953125q0.78125 -0.34375 1.703125 -0.34375q0.921875 0 1.703125 0.34375q0.78125 0.328125 1.34375 0.953125q0.5625 0.625 0.875 1.5q0.3125 0.875 0.3125 1.9375zm-1.6875 0q0 -1.53125 -0.6875 -2.421875q-0.671875 -0.890625 -1.859375 -0.890625q-1.171875 0 -1.859375 0.890625q-0.6875 0.890625 -0.6875 2.421875q0 1.515625 0.6875 2.40625q0.6875 0.890625 1.859375 0.890625q1.1875 0 1.859375 -0.890625q0.6875 -0.890625 0.6875 -2.40625zm9.770416 -2.609375q-0.296875 -0.234375 -0.84375 -0.453125q-0.546875 -0.234375 -1.21875 -0.234375q-0.6875 0 -1.1875 0.25q-0.484375 0.25 -0.796875 0.703125q-0.3125 0.4375 -0.453125 1.046875q-0.140625 0.59375 -0.140625 1.296875q0 1.578125 0.78125 2.4375q0.78125 0.84375 2.078125 0.84375q0.65625 0 1.09375 -0.046875q0.453125 -0.0625 0.6875 -0.140625l0 -5.703125zm0 -6.0625l1.609375 -0.28125l0 13.1875q-0.546875 0.15625 -1.421875 0.3125q-0.859375 0.15625 -1.984375 0.15625q-1.046875 0 -1.875 -0.328125q-0.828125 -0.328125 -1.421875 -0.921875q-0.578125 -0.609375 -0.90625 -1.484375q-0.3125 -0.875 -0.3125 -1.96875q0 -1.046875 0.265625 -1.90625q0.265625 -0.875 0.78125 -1.5q0.515625 -0.625 1.265625 -0.96875q0.765625 -0.34375 1.734375 -0.34375q0.78125 0 1.375 0.21875q0.59375 0.203125 0.890625 0.390625l0 -4.5625zm3.8937073 8.6875q0 -1.203125 0.34375 -2.09375q0.34375 -0.890625 0.90625 -1.46875q0.578125 -0.59375 1.3125 -0.890625q0.75 -0.296875 1.53125 -0.296875q1.828125 0 2.796875 1.140625q0.96875 1.125 0.96875 3.453125q0 0.09375 0 0.265625q0 0.171875 -0.015625 0.296875l-6.171875 0q0.109375 1.40625 0.8125 2.140625q0.71875 0.71875 2.21875 0.71875q0.859375 0 1.4375 -0.140625q0.578125 -0.140625 0.875 -0.28125l0.21875 1.34375q-0.296875 0.15625 -1.03125 0.328125q-0.734375 0.171875 -1.671875 0.171875q-1.171875 0 -2.03125 -0.34375q-0.859375 -0.359375 -1.421875 -0.984375q-0.546875 -0.625 -0.8125 -1.484375q-0.265625 -0.859375 -0.265625 -1.875zm6.171875 -0.890625q0.03125 -1.09375 -0.546875 -1.78125q-0.5625 -0.703125 -1.546875 -0.703125q-0.546875 0 -0.984375 0.21875q-0.421875 0.203125 -0.71875 0.5625q-0.28125 0.34375 -0.453125 0.796875q-0.15625 0.4375 -0.21875 0.90625l4.46875 0zm7.342621 -3.828125q0.203125 0 0.46875 0.03125q0.265625 0.015625 0.53125 0.0625q0.265625 0.046875 0.46875 0.09375q0.21875 0.046875 0.328125 0.078125l-0.28125 1.40625q-0.1875 -0.078125 -0.640625 -0.171875q-0.4375 -0.09375 -1.125 -0.09375q-0.453125 0 -0.890625 0.09375q-0.4375 0.09375 -0.578125 0.125l0 7.578125l-1.609375 0l0 -8.625q0.5625 -0.21875 1.40625 -0.390625q0.859375 -0.1875 1.921875 -0.1875z" fill-rule="nonzero"/><path fill="#f3f3f3" d="m206.88008 232.22325q0 2.21875 0.640625 4.109375q0.640625 1.890625 1.890625 3.5l-1.15625 0.78125q-1.34375 -1.640625 -2.171875 -3.78125q-0.8125 -2.140625 -0.8125 -4.609375q0 -2.453125 0.8125 -4.59375q0.828125 -2.140625 2.171875 -3.78125l1.15625 0.78125q-1.25 1.609375 -1.890625 3.5q-0.640625 1.875 -0.640625 4.09375zm6.688446 0q0 -2.21875 -0.640625 -4.09375q-0.640625 -1.890625 -1.890625 -3.5l1.140625 -0.78125q1.34375 1.640625 2.171875 3.78125q0.828125 2.140625 0.828125 4.59375q0 2.46875 -0.828125 4.609375q-0.828125 2.140625 -2.171875 3.78125l-1.140625 -0.78125q1.25 -1.609375 1.890625 -3.5q0.640625 -1.890625 0.640625 -4.109375zm6.036148 3.21875q0.03125 0.125 0.03125 0.265625q0 0.125 0 0.265625q0 1.09375 -0.328125 2.15625q-0.328125 1.0625 -0.875 2.03125l-1.25 -0.390625q0.4375 -0.890625 0.578125 -1.796875q0.140625 -0.90625 0.140625 -1.703125q0 -0.234375 -0.015625 -0.4375q0 -0.203125 -0.03125 -0.390625l1.75 0z" fill-rule="nonzero"/><path fill="#f3f3f3" d="m82.21115 261.53387q-1.09375 0 -1.921875 -0.34375q-0.8125 -0.34375 -1.375 -0.96875q-0.5625 -0.625 -0.84375 -1.484375q-0.265625 -0.859375 -0.265625 -1.890625q0 -1.046875 0.296875 -1.90625q0.296875 -0.875 0.84375 -1.5q0.5625 -0.640625 1.359375 -0.984375q0.8125 -0.359375 1.8125 -0.359375q0.609375 0 1.203125 0.109375q0.609375 0.09375 1.171875 0.328125l-0.375 1.359375q-0.359375 -0.171875 -0.84375 -0.265625q-0.46875 -0.109375 -1.0 -0.109375q-1.359375 0 -2.078125 0.859375q-0.71875 0.84375 -0.71875 2.46875q0 0.71875 0.15625 1.328125q0.171875 0.609375 0.53125 1.046875q0.359375 0.421875 0.90625 0.65625q0.5625 0.234375 1.359375 0.234375q0.640625 0 1.15625 -0.109375q0.515625 -0.125 0.8125 -0.265625l0.234375 1.34375q-0.140625 0.09375 -0.40625 0.171875q-0.265625 0.078125 -0.59375 0.140625q-0.328125 0.0625 -0.703125 0.09375q-0.359375 0.046875 -0.71875 0.046875zm11.879074 -4.703125q0 1.0625 -0.3125 1.9375q-0.3125 0.859375 -0.875 1.484375q-0.5625 0.625 -1.34375 0.96875q-0.78125 0.328125 -1.703125 0.328125q-0.921875 0 -1.703125 -0.328125q-0.765625 -0.34375 -1.34375 -0.96875q-0.5625 -0.625 -0.875 -1.484375q-0.296875 -0.875 -0.296875 -1.9375q0 -1.0625 0.296875 -1.9375q0.3125 -0.875 0.875 -1.5q0.578125 -0.625 1.34375 -0.953125q0.78125 -0.34375 1.703125 -0.34375q0.921875 0 1.703125 0.34375q0.78125 0.328125 1.34375 0.953125q0.5625 0.625 0.875 1.5q0.3125 0.875 0.3125 1.9375zm-1.6875 0q0 -1.53125 -0.6875 -2.421875q-0.671875 -0.890625 -1.859375 -0.890625q-1.171875 0 -1.859375 0.890625q-0.6875 0.890625 -0.6875 2.421875q0 1.515625 0.6875 2.40625q0.6875 0.890625 1.859375 0.890625q1.1875 0 1.859375 -0.890625q0.6875 -0.890625 0.6875 -2.40625zm6.6610413 4.671875q-1.5 -0.03125 -2.125 -0.640625q-0.609375 -0.609375 -0.609375 -1.890625l0 -10.8125l1.609375 -0.28125l0 10.84375q0 0.390625 0.0625 0.65625q0.078125 0.25 0.21875 0.40625q0.15625 0.15625 0.421875 0.234375q0.265625 0.078125 0.640625 0.140625l-0.21875 1.34375zm9.199295 -0.4375q-0.5625 0.140625 -1.46875 0.296875q-0.90625 0.15625 -2.109375 0.15625q-1.03125 0 -1.75 -0.296875q-0.703125 -0.3125 -1.140625 -0.859375q-0.4375 -0.5625 -0.625 -1.3125q-0.1875 -0.75 -0.1875 -1.671875l0 -5.0625l1.609375 0l0 4.71875q0 1.640625 0.515625 2.359375q0.53125 0.703125 1.75 0.703125q0.265625 0 0.546875 -0.015625q0.28125 -0.015625 0.515625 -0.03125q0.25 -0.03125 0.4375 -0.0625q0.203125 -0.03125 0.296875 -0.0625l0 -7.609375l1.609375 0l0 8.75zm2.774414 -8.484375q0.546875 -0.140625 1.453125 -0.296875q0.921875 -0.15625 2.109375 -0.15625q0.875 0 1.453125 0.234375q0.59375 0.234375 1.0 0.6875q0.109375 -0.09375 0.375 -0.25q0.265625 -0.15625 0.640625 -0.296875q0.375 -0.140625 0.84375 -0.25q0.46875 -0.125 1.015625 -0.125q1.03125 0 1.6875 0.3125q0.65625 0.296875 1.03125 0.859375q0.375 0.546875 0.5 1.3125q0.140625 0.765625 0.140625 1.65625l0 5.0625l-1.609375 0l0 -4.71875q0 -0.796875 -0.078125 -1.359375q-0.078125 -0.578125 -0.296875 -0.953125q-0.21875 -0.390625 -0.59375 -0.5625q-0.375 -0.1875 -0.953125 -0.1875q-0.828125 0 -1.359375 0.21875q-0.515625 0.21875 -0.703125 0.390625q0.125 0.453125 0.1875 0.984375q0.078125 0.53125 0.078125 1.125l0 5.0625l-1.609375 0l0 -4.71875q0 -0.796875 -0.09375 -1.359375q-0.078125 -0.578125 -0.296875 -0.953125q-0.21875 -0.390625 -0.59375 -0.5625q-0.359375 -0.1875 -0.9375 -0.1875q-0.234375 0 -0.515625 0.015625q-0.28125 0.015625 -0.53125 0.046875q-0.25 0.03125 -0.46875 0.0625q-0.203125 0.03125 -0.265625 0.046875l0 7.609375l-1.609375 0l0 -8.75zm14.919434 0q0.546875 -0.140625 1.46875 -0.296875q0.921875 -0.15625 2.109375 -0.15625q1.078125 0 1.78125 0.3125q0.71875 0.296875 1.140625 0.84375q0.421875 0.546875 0.59375 1.3125q0.171875 0.75 0.171875 1.671875l0 5.0625l-1.609375 0l0 -4.71875q0 -0.828125 -0.109375 -1.40625q-0.109375 -0.59375 -0.375 -0.953125q-0.25 -0.375 -0.6875 -0.53125q-0.4375 -0.171875 -1.078125 -0.171875q-0.25 0 -0.53125 0.015625q-0.28125 0.015625 -0.53125 0.046875q-0.25 0.03125 -0.453125 0.0625q-0.203125 0.03125 -0.28125 0.046875l0 7.609375l-1.609375 0l0 -8.75zm12.040039 7.59375q0.984375 0 1.453125 -0.265625q0.484375 -0.265625 0.484375 -0.828125q0 -0.59375 -0.46875 -0.9375q-0.46875 -0.34375 -1.546875 -0.78125q-0.515625 -0.203125 -1.0 -0.421875q-0.46875 -0.21875 -0.8125 -0.515625q-0.34375 -0.296875 -0.5625 -0.703125q-0.203125 -0.421875 -0.203125 -1.03125q0 -1.1875 0.875 -1.890625q0.890625 -0.703125 2.421875 -0.703125q0.375 0 0.75 0.046875q0.390625 0.03125 0.71875 0.09375q0.328125 0.0625 0.578125 0.140625q0.25 0.0625 0.390625 0.109375l-0.296875 1.390625q-0.25 -0.140625 -0.8125 -0.28125q-0.546875 -0.15625 -1.328125 -0.15625q-0.671875 0 -1.1875 0.28125q-0.5 0.265625 -0.5 0.828125q0 0.296875 0.109375 0.53125q0.125 0.21875 0.359375 0.40625q0.234375 0.171875 0.578125 0.328125q0.34375 0.15625 0.828125 0.328125q0.640625 0.25 1.140625 0.484375q0.5 0.234375 0.859375 0.546875q0.359375 0.3125 0.546875 0.75q0.1875 0.4375 0.1875 1.078125q0 1.25 -0.921875 1.890625q-0.921875 0.640625 -2.640625 0.640625q-1.203125 0 -1.875 -0.203125q-0.671875 -0.1875 -0.921875 -0.296875l0.296875 -1.390625q0.28125 0.109375 0.890625 0.328125q0.609375 0.203125 1.609375 0.203125z" fill-rule="nonzero"/><path fill="#ff605c" d="m147.16553 257.31512l7.9375 0l0 1.359375l-7.9375 0l0 -1.359375zm0 -3.703125l7.9375 0l0 1.375l-7.9375 0l0 -1.375z" fill-rule="nonzero"/><path fill="#ffffff" d="m161.67569 247.76825l3.90625 0l0 1.265625l-2.390625 0l0 14.234375l2.390625 0l0 1.265625l-3.90625 0l0 -16.765625z" fill-rule="nonzero"/><path fill="#97e574" d="m166.76723 252.31512q0 -0.1875 0 -0.359375q0 -0.1875 0.015625 -0.359375q0.0625 -0.90625 0.390625 -1.78125q0.328125 -0.890625 0.796875 -1.65625l1.25 0.40625q-0.359375 0.75 -0.546875 1.53125q-0.1875 0.78125 -0.1875 1.46875q0 0.171875 0.015625 0.375q0.015625 0.1875 0.03125 0.375l-1.765625 0zm11.4470825 0q-0.671875 2.53125 -1.59375 4.859375q-0.90625 2.3125 -1.75 4.15625l-1.453125 0q-0.859375 -1.84375 -1.765625 -4.15625q-0.90625 -2.328125 -1.578125 -4.859375l1.734375 0q0.203125 0.859375 0.484375 1.828125q0.296875 0.953125 0.609375 1.90625q0.328125 0.9375 0.65625 1.828125q0.328125 0.875 0.625 1.5625q0.28125 -0.6875 0.609375 -1.5625q0.34375 -0.890625 0.65625 -1.828125q0.328125 -0.953125 0.609375 -1.90625q0.28125 -0.96875 0.5 -1.828125l1.65625 0zm3.2767944 9.015625l-1.609375 0l0 -9.015625l1.609375 0l0 9.015625zm-0.8125 -10.640625q-0.4375 0 -0.75 -0.28125q-0.296875 -0.296875 -0.296875 -0.78125q0 -0.484375 0.296875 -0.765625q0.3125 -0.28125 0.75 -0.28125q0.421875 0 0.71875 0.28125q0.3125 0.28125 0.3125 0.765625q0 0.484375 -0.3125 0.78125q-0.296875 0.28125 -0.71875 0.28125zm5.0871124 1.625l3.421875 0l0 1.359375l-3.421875 0l0 4.15625q0 0.671875 0.109375 1.125q0.109375 0.4375 0.3125 0.6875q0.203125 0.25 0.515625 0.359375q0.3125 0.09375 0.734375 0.09375q0.71875 0 1.15625 -0.15625q0.453125 -0.171875 0.625 -0.234375l0.3125 1.328125q-0.25 0.125 -0.859375 0.296875q-0.59375 0.1875 -1.375 0.1875q-0.921875 0 -1.53125 -0.234375q-0.59375 -0.234375 -0.953125 -0.703125q-0.359375 -0.46875 -0.515625 -1.140625q-0.140625 -0.6875 -0.140625 -1.59375l0 -8.03125l1.609375 -0.28125l0 2.78125zm8.512741 7.859375q0.5625 0 1.0 -0.03125q0.453125 -0.03125 0.75 -0.09375l0 -2.6875q-0.171875 -0.09375 -0.5625 -0.140625q-0.390625 -0.0625 -0.953125 -0.0625q-0.359375 0 -0.765625 0.046875q-0.40625 0.046875 -0.75 0.21875q-0.328125 0.15625 -0.5625 0.453125q-0.21875 0.28125 -0.21875 0.75q0 0.859375 0.546875 1.203125q0.5625 0.34375 1.515625 0.34375zm-0.140625 -8.078125q0.96875 0 1.640625 0.25q0.671875 0.25 1.078125 0.71875q0.40625 0.453125 0.578125 1.09375q0.171875 0.625 0.171875 1.390625l0 5.625q-0.203125 0.03125 -0.578125 0.09375q-0.375 0.0625 -0.84375 0.109375q-0.46875 0.0625 -1.015625 0.09375q-0.546875 0.046875 -1.078125 0.046875q-0.765625 0 -1.40625 -0.15625q-0.640625 -0.15625 -1.109375 -0.484375q-0.46875 -0.34375 -0.734375 -0.890625q-0.25 -0.5625 -0.25 -1.34375q0 -0.75 0.296875 -1.28125q0.3125 -0.53125 0.828125 -0.859375q0.515625 -0.328125 1.203125 -0.484375q0.703125 -0.15625 1.46875 -0.15625q0.234375 0 0.484375 0.03125q0.265625 0.015625 0.5 0.0625q0.234375 0.03125 0.40625 0.078125q0.171875 0.03125 0.25 0.046875l0 -0.453125q0 -0.390625 -0.09375 -0.78125q-0.078125 -0.390625 -0.3125 -0.6875q-0.21875 -0.3125 -0.609375 -0.484375q-0.390625 -0.1875 -1.015625 -0.1875q-0.796875 0 -1.390625 0.109375q-0.59375 0.109375 -0.890625 0.234375l-0.1875 -1.34375q0.3125 -0.125 1.03125 -0.25q0.734375 -0.140625 1.578125 -0.140625zm8.842102 9.40625q-1.5 -0.03125 -2.125 -0.640625q-0.609375 -0.609375 -0.609375 -1.890625l0 -10.8125l1.609375 -0.28125l0 10.84375q0 0.390625 0.0625 0.65625q0.078125 0.25 0.21875 0.40625q0.15625 0.15625 0.421875 0.234375q0.265625 0.078125 0.640625 0.140625l-0.21875 1.34375zm0.57429504 1.671875l8.65625 0l0 1.359375l-8.65625 0l0 -1.359375zm12.072266 -3.0q0.984375 0 1.453125 -0.265625q0.484375 -0.265625 0.484375 -0.828125q0 -0.59375 -0.46875 -0.9375q-0.46875 -0.34375 -1.546875 -0.78125q-0.515625 -0.203125 -1.0 -0.421875q-0.46875 -0.21875 -0.8125 -0.515625q-0.34375 -0.296875 -0.5625 -0.703125q-0.203125 -0.421875 -0.203125 -1.03125q0 -1.1875 0.875 -1.890625q0.890625 -0.703125 2.421875 -0.703125q0.375 0 0.75 0.046875q0.390625 0.03125 0.71875 0.09375q0.328125 0.0625 0.578125 0.140625q0.25 0.0625 0.390625 0.109375l-0.296875 1.390625q-0.25 -0.140625 -0.8125 -0.28125q-0.546875 -0.15625 -1.328125 -0.15625q-0.671875 0 -1.1875 0.28125q-0.5 0.265625 -0.5 0.828125q0 0.296875 0.109375 0.53125q0.125 0.21875 0.359375 0.40625q0.234375 0.171875 0.578125 0.328125q0.34375 0.15625 0.828125 0.328125q0.640625 0.25 1.140625 0.484375q0.5 0.234375 0.859375 0.546875q0.359375 0.3125 0.546875 0.75q0.1875 0.4375 0.1875 1.078125q0 1.25 -0.921875 1.890625q-0.921875 0.640625 -2.640625 0.640625q-1.203125 0 -1.875 -0.203125q-0.671875 -0.1875 -0.921875 -0.296875l0.296875 -1.390625q0.28125 0.109375 0.890625 0.328125q0.609375 0.203125 1.609375 0.203125zm7.134552 -7.859375l3.421875 0l0 1.359375l-3.421875 0l0 4.15625q0 0.671875 0.109375 1.125q0.109375 0.4375 0.3125 0.6875q0.203125 0.25 0.515625 0.359375q0.3125 0.09375 0.734375 0.09375q0.71875 0 1.15625 -0.15625q0.453125 -0.171875 0.625 -0.234375l0.3125 1.328125q-0.25 0.125 -0.859375 0.296875q-0.59375 0.1875 -1.375 0.1875q-0.921875 0 -1.53125 -0.234375q-0.59375 -0.234375 -0.953125 -0.703125q-0.359375 -0.46875 -0.515625 -1.140625q-0.140625 -0.6875 -0.140625 -1.59375l0 -8.03125l1.609375 -0.28125l0 2.78125zm8.512741 7.859375q0.5625 0 1.0 -0.03125q0.453125 -0.03125 0.75 -0.09375l0 -2.6875q-0.171875 -0.09375 -0.5625 -0.140625q-0.390625 -0.0625 -0.953125 -0.0625q-0.359375 0 -0.765625 0.046875q-0.40625 0.046875 -0.75 0.21875q-0.328125 0.15625 -0.5625 0.453125q-0.21875 0.28125 -0.21875 0.75q0 0.859375 0.546875 1.203125q0.5625 0.34375 1.515625 0.34375zm-0.140625 -8.078125q0.96875 0 1.640625 0.25q0.671875 0.25 1.078125 0.71875q0.40625 0.453125 0.578125 1.09375q0.171875 0.625 0.171875 1.390625l0 5.625q-0.203125 0.03125 -0.578125 0.09375q-0.375 0.0625 -0.84375 0.109375q-0.46875 0.0625 -1.015625 0.09375q-0.546875 0.046875 -1.078125 0.046875q-0.765625 0 -1.40625 -0.15625q-0.640625 -0.15625 -1.109375 -0.484375q-0.46875 -0.34375 -0.734375 -0.890625q-0.25 -0.5625 -0.25 -1.34375q0 -0.75 0.296875 -1.28125q0.3125 -0.53125 0.828125 -0.859375q0.515625 -0.328125 1.203125 -0.484375q0.703125 -0.15625 1.46875 -0.15625q0.234375 0 0.484375 0.03125q0.265625 0.015625 0.5 0.0625q0.234375 0.03125 0.40625 0.078125q0.171875 0.03125 0.25 0.046875l0 -0.453125q0 -0.390625 -0.09375 -0.78125q-0.078125 -0.390625 -0.3125 -0.6875q-0.21875 -0.3125 -0.609375 -0.484375q-0.390625 -0.1875 -1.015625 -0.1875q-0.796875 0 -1.390625 0.109375q-0.59375 0.109375 -0.890625 0.234375l-0.1875 -1.34375q0.3125 -0.125 1.03125 -0.25q0.734375 -0.140625 1.578125 -0.140625zm7.638977 0.21875l3.421875 0l0 1.359375l-3.421875 0l0 4.15625q0 0.671875 0.109375 1.125q0.109375 0.4375 0.3125 0.6875q0.203125 0.25 0.515625 0.359375q0.3125 0.09375 0.734375 0.09375q0.71875 0 1.15625 -0.15625q0.453125 -0.171875 0.625 -0.234375l0.3125 1.328125q-0.25 0.125 -0.859375 0.296875q-0.59375 0.1875 -1.375 0.1875q-0.921875 0 -1.53125 -0.234375q-0.59375 -0.234375 -0.953125 -0.703125q-0.359375 -0.46875 -0.515625 -1.140625q-0.140625 -0.6875 -0.140625 -1.59375l0 -8.03125l1.609375 -0.28125l0 2.78125zm12.637741 8.75q-0.5625 0.140625 -1.46875 0.296875q-0.90625 0.15625 -2.109375 0.15625q-1.03125 0 -1.75 -0.296875q-0.703125 -0.3125 -1.140625 -0.859375q-0.4375 -0.5625 -0.625 -1.3125q-0.1875 -0.75 -0.1875 -1.671875l0 -5.0625l1.609375 0l0 4.71875q0 1.640625 0.515625 2.359375q0.53125 0.703125 1.75 0.703125q0.265625 0 0.546875 -0.015625q0.28125 -0.015625 0.515625 -0.03125q0.25 -0.03125 0.4375 -0.0625q0.203125 -0.03125 0.296875 -0.0625l0 -7.609375l1.609375 0l0 8.75zm4.868164 -0.890625q0.984375 0 1.453125 -0.265625q0.484375 -0.265625 0.484375 -0.828125q0 -0.59375 -0.46875 -0.9375q-0.46875 -0.34375 -1.546875 -0.78125q-0.515625 -0.203125 -1.0 -0.421875q-0.46875 -0.21875 -0.8125 -0.515625q-0.34375 -0.296875 -0.5625 -0.703125q-0.203125 -0.421875 -0.203125 -1.03125q0 -1.1875 0.875 -1.890625q0.890625 -0.703125 2.421875 -0.703125q0.375 0 0.75 0.046875q0.390625 0.03125 0.71875 0.09375q0.328125 0.0625 0.578125 0.140625q0.25 0.0625 0.390625 0.109375l-0.296875 1.390625q-0.25 -0.140625 -0.8125 -0.28125q-0.546875 -0.15625 -1.328125 -0.15625q-0.671875 0 -1.1875 0.28125q-0.5 0.265625 -0.5 0.828125q0 0.296875 0.109375 0.53125q0.125 0.21875 0.359375 0.40625q0.234375 0.171875 0.578125 0.328125q0.34375 0.15625 0.828125 0.328125q0.640625 0.25 1.140625 0.484375q0.5 0.234375 0.859375 0.546875q0.359375 0.3125 0.546875 0.75q0.1875 0.4375 0.1875 1.078125q0 1.25 -0.921875 1.890625q-0.921875 0.640625 -2.640625 0.640625q-1.203125 0 -1.875 -0.203125q-0.671875 -0.1875 -0.921875 -0.296875l0.296875 -1.390625q0.28125 0.109375 0.890625 0.328125q0.609375 0.203125 1.609375 0.203125zm7.275177 -11.84375q0 0.1875 0 0.375q0 0.1875 -0.015625 0.359375q-0.0625 0.90625 -0.40625 1.78125q-0.328125 0.875 -0.796875 1.640625l-1.234375 -0.390625q0.359375 -0.78125 0.53125 -1.546875q0.1875 -0.78125 0.1875 -1.453125q0 -0.171875 -0.015625 -0.375q0 -0.203125 -0.015625 -0.390625l1.765625 0z" fill-rule="nonzero"/><path fill="#ffffff" d="m267.67218 259.362q0.03125 0.125 0.03125 0.265625q0 0.125 0 0.265625q0 1.09375 -0.328125 2.15625q-0.328125 1.0625 -0.875 2.03125l-1.25 -0.390625q0.4375 -0.890625 0.578125 -1.796875q0.140625 -0.90625 0.140625 -1.703125q0 -0.234375 -0.015625 -0.4375q0 -0.203125 -0.03125 -0.390625l1.75 0z" fill-rule="nonzero"/><path fill="#97e574" d="m271.888 248.33075q0 0.1875 0 0.375q0 0.1875 -0.015625 0.359375q-0.0625 0.90625 -0.40625 1.78125q-0.328125 0.875 -0.796875 1.640625l-1.234375 -0.390625q0.359375 -0.78125 0.53125 -1.546875q0.1875 -0.78125 0.1875 -1.453125q0 -0.171875 -0.015625 -0.375q0 -0.203125 -0.015625 -0.390625l1.765625 0zm4.5252075 11.84375q0.984375 0 1.453125 -0.265625q0.484375 -0.265625 0.484375 -0.828125q0 -0.59375 -0.46875 -0.9375q-0.46875 -0.34375 -1.546875 -0.78125q-0.515625 -0.203125 -1.0 -0.421875q-0.46875 -0.21875 -0.8125 -0.515625q-0.34375 -0.296875 -0.5625 -0.703125q-0.203125 -0.421875 -0.203125 -1.03125q0 -1.1875 0.875 -1.890625q0.890625 -0.703125 2.421875 -0.703125q0.375 0 0.75 0.046875q0.390625 0.03125 0.71875 0.09375q0.328125 0.0625 0.578125 0.140625q0.25 0.0625 0.390625 0.109375l-0.296875 1.390625q-0.25 -0.140625 -0.8125 -0.28125q-0.546875 -0.15625 -1.328125 -0.15625q-0.671875 0 -1.1875 0.28125q-0.5 0.265625 -0.5 0.828125q0 0.296875 0.109375 0.53125q0.125 0.21875 0.359375 0.40625q0.234375 0.171875 0.578125 0.328125q0.34375 0.15625 0.828125 0.328125q0.640625 0.25 1.140625 0.484375q0.5 0.234375 0.859375 0.546875q0.359375 0.3125 0.546875 0.75q0.1875 0.4375 0.1875 1.078125q0 1.25 -0.921875 1.890625q-0.921875 0.640625 -2.640625 0.640625q-1.203125 0 -1.875 -0.203125q-0.671875 -0.1875 -0.921875 -0.296875l0.296875 -1.390625q0.28125 0.109375 0.890625 0.328125q0.609375 0.203125 1.609375 0.203125zm7.134552 -7.859375l3.421875 0l0 1.359375l-3.421875 0l0 4.15625q0 0.671875 0.109375 1.125q0.109375 0.4375 0.3125 0.6875q0.203125 0.25 0.515625 0.359375q0.3125 0.09375 0.734375 0.09375q0.71875 0 1.15625 -0.15625q0.453125 -0.171875 0.625 -0.234375l0.3125 1.328125q-0.25 0.125 -0.859375 0.296875q-0.59375 0.1875 -1.375 0.1875q-0.921875 0 -1.53125 -0.234375q-0.59375 -0.234375 -0.953125 -0.703125q-0.359375 -0.46875 -0.515625 -1.140625q-0.140625 -0.6875 -0.140625 -1.59375l0 -8.03125l1.609375 -0.28125l0 2.78125zm8.512756 7.859375q0.5625 0 1.0 -0.03125q0.453125 -0.03125 0.75 -0.09375l0 -2.6875q-0.171875 -0.09375 -0.5625 -0.140625q-0.390625 -0.0625 -0.953125 -0.0625q-0.359375 0 -0.7656555 0.046875q-0.40625 0.046875 -0.75 0.21875q-0.328125 0.15625 -0.5625 0.453125q-0.21875 0.28125 -0.21875 0.75q0 0.859375 0.546875 1.203125q0.5625 0.34375 1.5156555 0.34375zm-0.140625 -8.078125q0.96875 0 1.640625 0.25q0.671875 0.25 1.078125 0.71875q0.40625 0.453125 0.578125 1.09375q0.171875 0.625 0.171875 1.390625l0 5.625q-0.203125 0.03125 -0.578125 0.09375q-0.375 0.0625 -0.84375 0.109375q-0.46875 0.0625 -1.015625 0.09375q-0.546875 0.046875 -1.0781555 0.046875q-0.765625 0 -1.40625 -0.15625q-0.640625 -0.15625 -1.109375 -0.484375q-0.46875 -0.34375 -0.734375 -0.890625q-0.25 -0.5625 -0.25 -1.34375q0 -0.75 0.296875 -1.28125q0.3125 -0.53125 0.828125 -0.859375q0.515625 -0.328125 1.203125 -0.484375q0.703125 -0.15625 1.4687805 -0.15625q0.234375 0 0.484375 0.03125q0.265625 0.015625 0.5 0.0625q0.234375 0.03125 0.40625 0.078125q0.171875 0.03125 0.25 0.046875l0 -0.453125q0 -0.390625 -0.09375 -0.78125q-0.078125 -0.390625 -0.3125 -0.6875q-0.21875 -0.3125 -0.609375 -0.484375q-0.390625 -0.1875 -1.0156555 -0.1875q-0.796875 0 -1.390625 0.109375q-0.59375 0.109375 -0.890625 0.234375l-0.1875 -1.34375q0.3125 -0.125 1.03125 -0.25q0.734375 -0.140625 1.5781555 -0.140625zm11.779602 8.328125q-0.203125 0.140625 -0.8125 0.359375q-0.59375 0.21875 -1.390625 0.21875q-0.8125 0 -1.53125 -0.25q-0.71875 -0.265625 -1.265625 -0.8125q-0.53125 -0.546875 -0.84375 -1.359375q-0.296875 -0.8125 -0.296875 -1.953125q0 -0.984375 0.28125 -1.796875q0.296875 -0.828125 0.859375 -1.421875q0.5625 -0.609375 1.375 -0.9375q0.828125 -0.34375 1.84375 -0.34375q1.125 0 1.96875 0.171875q0.84375 0.15625 1.40625 0.296875l0 8.046875q0 2.078125 -1.078125 3.0q-1.0625 0.9375 -3.25 0.9375q-0.84375 0 -1.609375 -0.140625q-0.75 -0.125 -1.296875 -0.3125l0.296875 -1.40625q0.484375 0.1875 1.171875 0.328125q0.703125 0.15625 1.46875 0.15625q1.4375 0 2.0625 -0.578125q0.640625 -0.5625 0.640625 -1.8125l0 -0.390625zm-0.015625 -6.6875q-0.234375 -0.0625 -0.65625 -0.125q-0.40625 -0.0625 -1.09375 -0.0625q-1.296875 0 -2.0 0.859375q-0.703125 0.84375 -0.703125 2.25q0 0.765625 0.203125 1.328125q0.203125 0.546875 0.53125 0.921875q0.34375 0.359375 0.78125 0.53125q0.4375 0.171875 0.90625 0.171875q0.640625 0 1.171875 -0.171875q0.546875 -0.1875 0.859375 -0.4375l0 -5.265625zm3.890564 3.109375q0 -1.203125 0.34375 -2.09375q0.34375 -0.890625 0.90625 -1.46875q0.578125 -0.59375 1.3125 -0.890625q0.75 -0.296875 1.53125 -0.296875q1.828125 0 2.796875 1.140625q0.96875 1.125 0.96875 3.453125q0 0.09375 0 0.265625q0 0.171875 -0.015625 0.296875l-6.171875 0q0.109375 1.40625 0.8125 2.140625q0.71875 0.71875 2.21875 0.71875q0.859375 0 1.4375 -0.140625q0.578125 -0.140625 0.875 -0.28125l0.21875 1.34375q-0.296875 0.15625 -1.03125 0.328125q-0.734375 0.171875 -1.671875 0.171875q-1.171875 0 -2.03125 -0.34375q-0.859375 -0.359375 -1.421875 -0.984375q-0.546875 -0.625 -0.8125 -1.484375q-0.265625 -0.859375 -0.265625 -1.875zm6.171875 -0.890625q0.03125 -1.09375 -0.546875 -1.78125q-0.5625 -0.703125 -1.546875 -0.703125q-0.546875 0 -0.984375 0.21875q-0.421875 0.203125 -0.71875 0.5625q-0.28125 0.34375 -0.453125 0.796875q-0.15625 0.4375 -0.21875 0.90625l4.46875 0zm5.6551514 -7.625q0 0.1875 0 0.375q0 0.1875 -0.015625 0.359375q-0.0625 0.90625 -0.40625 1.78125q-0.328125 0.875 -0.796875 1.640625l-1.234375 -0.390625q0.359375 -0.78125 0.53125 -1.546875q0.1875 -0.78125 0.1875 -1.453125q0 -0.171875 -0.015625 -0.375q0 -0.203125 -0.015625 -0.390625l1.765625 0z" fill-rule="nonzero"/><path fill="#ffffff" d="m324.47354 264.53387l-3.890625 0l0 -1.265625l2.390625 0l0 -14.234375l-2.390625 0l0 -1.265625l3.890625 0l0 16.765625zm4.3259277 -8.390625q0 -2.21875 -0.640625 -4.09375q-0.640625 -1.890625 -1.890625 -3.5l1.140625 -0.78125q1.34375 1.640625 2.171875 3.78125q0.828125 2.140625 0.828125 4.59375q0 2.46875 -0.828125 4.609375q-0.828125 2.140625 -2.171875 3.78125l-1.140625 -0.78125q1.25 -1.609375 1.890625 -3.5q0.640625 -1.890625 0.640625 -4.109375z" fill-rule="nonzero"/><path fill="#f3f3f3" d="m48.923306 288.4539l-3.890625 0l0 -1.265625l2.390625 0l0 -14.234375l-2.390625 0l0 -1.265625l3.890625 0l0 16.765625z" fill-rule="nonzero"/></g></svg>