<svg version="1.1" viewBox="0.0 0.0 377.3595800524934 329.748031496063" fill="none" stroke="none" stroke-linecap="square" stroke-miterlimit="10" xmlns:xlink="http://www.w3.org/1999/xlink" xmlns="http://www.w3.org/2000/svg"><clipPath id="p.0"><path d="m0 0l377.3596 0l0 329.74802l-377.3596 0l0 -329.74802z" clip-rule="nonzero"/></clipPath><g clip-path="url(#p.0)"><path fill="#000000" fill-opacity="0.0" d="m0 0l377.3596 0l0 329.74802l-377.3596 0z" fill-rule="evenodd"/><path fill="#072430" d="m0.005249344 28.648361l0 0c0 -15.822053 12.826308 -28.648361 28.648361 -28.648361l319.86865 0c7.5980225 0 14.884827 3.0183008 20.257446 8.39091c5.3726196 5.37261 8.3909 12.659432 8.3909 20.25745l0 271.80566c0 15.822052 -12.826294 28.648346 -28.648346 28.648346l-319.86865 0c-15.822053 0 -28.648361 -12.826294 -28.648361 -28.648346z" fill-rule="evenodd"/><path fill="#0e4b68" d="m15.589085 -1.4173228E-5l345.98718 0c4.134491 0 8.09964 1.6424167 11.023163 4.5659375c2.923523 2.92352 4.565918 6.8886647 4.565918 11.023148l0 31.277058c0 0.0017356873 -0.0014038086 0.0031433105 -0.0031433105 0.0031433105l-377.1622 -0.0031433105l5.4140403E-19 0c-0.0017358556 0 -0.0031430447 -0.0014076233 -0.0031430447 -0.0031433105l0.0031430447 -31.273914l0 0c0 -8.609613 6.9794707 -15.589085 15.589085 -15.589085z" fill-rule="evenodd"/><path fill="#ff605c" d="m12.742013 15.921679l0 0c0 -2.9223251 2.3690128 -5.291338 5.291339 -5.291338l0 0c1.4033489 0 2.7492218 0.55747795 3.741541 1.549797c0.9923191 0.99231815 1.549797 2.338191 1.549797 3.741541l0 0c0 2.9223251 -2.3690128 5.291338 -5.291338 5.291338l0 0c-2.922326 0 -5.291339 -2.3690128 -5.291339 -5.291338z" fill-rule="evenodd"/><path fill="#ffbd44" d="m30.129261 15.921679l0 0c0 -2.9223251 2.3690147 -5.291338 5.29134 -5.291338l0 0c1.403347 0 2.7492218 0.55747795 3.741539 1.549797c0.992321 0.99231815 1.549797 2.338191 1.549797 3.741541l0 0c0 2.9223251 -2.369011 5.291338 -5.291336 5.291338l0 0c-2.9223251 0 -5.29134 -2.3690128 -5.29134 -5.291338z" fill-rule="evenodd"/><path fill="#00ca4e" d="m47.514603 15.921679l0 0c0 -2.9223251 2.3690147 -5.291338 5.29134 -5.291338l0 0c1.4033508 0 2.7492218 0.55747795 3.741539 1.549797c0.992321 0.99231815 1.5498009 2.338191 1.5498009 3.741541l0 0c0 2.9223251 -2.3690147 5.291338 -5.29134 5.291338l0 0c-2.9223251 0 -5.29134 -2.3690128 -5.29134 -5.291338z" fill-rule="evenodd"/><path fill="#000000" fill-opacity="0.0" d="m72.59294 0.96587926l259.4961 0l0 46.047245l-259.4961 0z" fill-rule="evenodd"/><path fill="#ffffff" d="m113.01822 31.085878l-2.203125 0l-1.21875 -4.09375l-5.921875 0l-1.171875 4.09375l-2.09375 0l4.921875 -16.0l2.90625 0l4.78125 16.0zm-3.875 -5.640625l-1.34375 -4.796875l-1.125 -3.9375q-0.625 2.21875 -1.09375 3.828125l-1.4375 4.90625l5.0 0zm14.558594 2.375q0 1.03125 -0.234375 1.703125q-0.21875 0.65625 -0.734375 1.046875q-0.515625 0.375 -1.265625 0.515625q-0.75 0.15625 -1.890625 0.15625q-0.671875 0 -1.078125 -0.015625q-0.390625 0 -0.921875 -0.046875q-0.515625 -0.046875 -0.828125 -0.125q-0.3125 -0.09375 -0.671875 -0.25q-0.359375 -0.15625 -0.578125 -0.390625q-0.203125 -0.25 -0.390625 -0.578125q-0.171875 -0.34375 -0.25 -0.796875q-0.078125 -0.453125 -0.078125 -1.03125l1.671875 -0.4375q0.09375 1.234375 0.21875 1.546875q0.203125 0.4375 0.8125 0.5625q0.46875 0.09375 1.9375 0.09375q0.90625 0 1.328125 -0.078125q0.4375 -0.078125 0.59375 -0.3125q0.421875 -0.34375 0.421875 -2.40625q0 -0.3125 -0.125 -0.53125q-0.125 -0.21875 -0.3125 -0.328125q-0.1875 -0.125 -0.515625 -0.203125q-0.3125 -0.078125 -0.578125 -0.109375q-0.265625 -0.03125 -0.703125 -0.0625q-0.421875 -0.046875 -0.6875 -0.078125q-0.78125 -0.09375 -1.28125 -0.171875q-0.484375 -0.078125 -1.0 -0.234375q-0.5 -0.171875 -0.78125 -0.40625q-0.28125 -0.234375 -0.515625 -0.609375q-0.234375 -0.375 -0.34375 -0.890625q-0.09375 -0.53125 -0.09375 -1.265625q0 -0.78125 0.15625 -1.3125q0.171875 -0.53125 0.484375 -0.890625q0.3125 -0.359375 0.84375 -0.546875q0.546875 -0.203125 1.21875 -0.28125q0.6875 -0.09375 1.65625 -0.09375q0.625 0 1.015625 0.03125q0.390625 0.015625 0.859375 0.078125q0.46875 0.046875 0.75 0.15625q0.296875 0.109375 0.578125 0.3125q0.296875 0.1875 0.453125 0.46875q0.171875 0.28125 0.265625 0.6875q0.109375 0.40625 0.109375 0.9375l-1.4375 0.4375q-0.046875 -0.421875 -0.09375 -0.65625q-0.03125 -0.25 -0.15625 -0.453125q-0.125 -0.203125 -0.265625 -0.28125q-0.140625 -0.09375 -0.484375 -0.15625q-0.328125 -0.0625 -0.671875 -0.0625q-0.34375 -0.015625 -0.984375 -0.015625q-1.375 0 -1.875 0.28125q-0.484375 0.265625 -0.484375 0.890625l0 1.09375q0 0.703125 0.421875 0.890625q0.421875 0.1875 2.28125 0.421875q0.1875 0.03125 0.28125 0.046875q0.75 0.09375 1.171875 0.171875q0.4375 0.0625 0.921875 0.1875q0.484375 0.125 0.734375 0.296875q0.25 0.15625 0.5 0.421875q0.265625 0.25 0.375 0.625q0.109375 0.375 0.171875 0.875q0.078125 0.5 0.078125 1.171875zm11.171875 0q0 1.03125 -0.234375 1.703125q-0.21875 0.65625 -0.734375 1.046875q-0.515625 0.375 -1.265625 0.515625q-0.75 0.15625 -1.890625 0.15625q-0.671875 0 -1.078125 -0.015625q-0.390625 0 -0.921875 -0.046875q-0.515625 -0.046875 -0.828125 -0.125q-0.3125 -0.09375 -0.671875 -0.25q-0.359375 -0.15625 -0.578125 -0.390625q-0.203125 -0.25 -0.390625 -0.578125q-0.171875 -0.34375 -0.25 -0.796875q-0.078125 -0.453125 -0.078125 -1.03125l1.671875 -0.4375q0.09375 1.234375 0.21875 1.546875q0.203125 0.4375 0.8125 0.5625q0.46875 0.09375 1.9375 0.09375q0.90625 0 1.328125 -0.078125q0.4375 -0.078125 0.59375 -0.3125q0.421875 -0.34375 0.421875 -2.40625q0 -0.3125 -0.125 -0.53125q-0.125 -0.21875 -0.3125 -0.328125q-0.1875 -0.125 -0.515625 -0.203125q-0.3125 -0.078125 -0.578125 -0.109375q-0.265625 -0.03125 -0.703125 -0.0625q-0.421875 -0.046875 -0.6875 -0.078125q-0.78125 -0.09375 -1.28125 -0.171875q-0.484375 -0.078125 -1.0 -0.234375q-0.5 -0.171875 -0.78125 -0.40625q-0.28125 -0.234375 -0.515625 -0.609375q-0.234375 -0.375 -0.34375 -0.890625q-0.09375 -0.53125 -0.09375 -1.265625q0 -0.78125 0.15625 -1.3125q0.171875 -0.53125 0.484375 -0.890625q0.3125 -0.359375 0.84375 -0.546875q0.546875 -0.203125 1.21875 -0.28125q0.6875 -0.09375 1.65625 -0.09375q0.625 0 1.015625 0.03125q0.390625 0.015625 0.859375 0.078125q0.46875 0.046875 0.75 0.15625q0.296875 0.109375 0.578125 0.3125q0.296875 0.1875 0.453125 0.46875q0.171875 0.28125 0.265625 0.6875q0.109375 0.40625 0.109375 0.9375l-1.4375 0.4375q-0.046875 -0.421875 -0.09375 -0.65625q-0.03125 -0.25 -0.15625 -0.453125q-0.125 -0.203125 -0.265625 -0.28125q-0.140625 -0.09375 -0.484375 -0.15625q-0.328125 -0.0625 -0.671875 -0.0625q-0.34375 -0.015625 -0.984375 -0.015625q-1.375 0 -1.875 0.28125q-0.484375 0.265625 -0.484375 0.890625l0 1.09375q0 0.703125 0.421875 0.890625q0.421875 0.1875 2.28125 0.421875q0.1875 0.03125 0.28125 0.046875q0.75 0.09375 1.171875 0.171875q0.4375 0.0625 0.921875 0.1875q0.484375 0.125 0.734375 0.296875q0.25 0.15625 0.5 0.421875q0.265625 0.25 0.375 0.625q0.109375 0.375 0.171875 0.875q0.078125 0.5 0.078125 1.171875zm11.890625 -2.796875q-1.28125 0.125 -1.59375 0.15625l-5.859375 0q0.015625 1.5625 0.09375 3.40625q0.046875 0.734375 0.609375 0.96875q0.5625 0.21875 2.203125 0.21875q0.609375 0 1.046875 -0.046875q0.4375 -0.046875 0.703125 -0.171875q0.28125 -0.125 0.4375 -0.234375q0.15625 -0.109375 0.234375 -0.34375q0.078125 -0.25 0.09375 -0.421875q0.03125 -0.171875 0.046875 -0.5q0.015625 -0.34375 0.046875 -0.5625l1.65625 0.3125q-0.03125 0.75 -0.125 1.265625q-0.078125 0.515625 -0.28125 0.921875q-0.203125 0.390625 -0.484375 0.625q-0.28125 0.234375 -0.75 0.390625q-0.46875 0.140625 -1.046875 0.1875q-0.5625 0.046875 -1.40625 0.046875q-1.0625 0 -1.859375 -0.125q-0.796875 -0.125 -1.359375 -0.296875q-0.5625 -0.1875 -0.9375 -0.59375q-0.359375 -0.421875 -0.578125 -0.796875q-0.203125 -0.375 -0.296875 -1.09375q-0.09375 -0.734375 -0.125 -1.328125q-0.03125 -0.609375 -0.03125 -1.65625q0 -1.484375 0.03125 -2.3125q0.046875 -0.828125 0.21875 -1.65625q0.171875 -0.828125 0.453125 -1.203125q0.296875 -0.390625 0.859375 -0.703125q0.578125 -0.328125 1.34375 -0.421875q0.78125 -0.09375 1.96875 -0.09375q0.828125 0 1.421875 0.0625q0.609375 0.046875 1.109375 0.203125q0.515625 0.140625 0.84375 0.34375q0.328125 0.1875 0.578125 0.5625q0.25 0.375 0.375 0.78125q0.140625 0.390625 0.21875 1.0625q0.09375 0.671875 0.109375 1.359375q0.03125 0.671875 0.03125 1.6875zm-7.4375 -0.96875l5.328125 0q-0.03125 -1.375 -0.109375 -2.515625q-0.046875 -0.65625 -0.578125 -0.875q-0.515625 -0.21875 -1.890625 -0.21875q-1.546875 0 -1.953125 0.171875q-0.171875 0.046875 -0.3125 0.1875q-0.140625 0.125 -0.234375 0.375q-0.078125 0.25 -0.125 0.46875q-0.046875 0.203125 -0.078125 0.59375q-0.015625 0.375 -0.03125 0.59375q-0.015625 0.203125 -0.015625 0.640625q0 0.421875 0 0.578125zm25.93457 7.03125l-2.109375 0l0 -7.15625q0 -1.21875 0.03125 -1.84375q0 -0.390625 -0.0625 -0.625q-0.046875 -0.25 -0.234375 -0.5q-0.171875 -0.265625 -0.59375 -0.390625q-0.421875 -0.125 -1.078125 -0.125q-0.71875 0 -1.21875 0.09375q-0.484375 0.09375 -0.78125 0.25q-0.28125 0.15625 -0.453125 0.453125q-0.15625 0.28125 -0.203125 0.609375q-0.046875 0.3125 -0.046875 0.8125q0 0.234375 0.015625 0.84375q0.015625 0.609375 0.015625 0.984375l0 6.59375l-2.125 0l0 -7.546875q0 -0.046875 0 -0.140625q0 -0.734375 -0.015625 -1.046875q0 -0.328125 -0.078125 -0.75q-0.0625 -0.421875 -0.203125 -0.5625q-0.125 -0.15625 -0.40625 -0.328125q-0.28125 -0.171875 -0.6875 -0.21875q-0.390625 -0.046875 -1.0 -0.046875q-0.390625 0 -0.734375 0.0625q-0.34375 0.046875 -0.671875 0.15625q-0.328125 0.09375 -0.53125 0.296875q-0.203125 0.203125 -0.203125 0.484375q-0.140625 1.4375 -0.140625 3.140625l0 6.5l-2.125 0l0 -11.78125l1.9375 0l0.203125 1.28125q0.4375 -0.859375 1.234375 -1.21875q0.8125 -0.375 2.046875 -0.375q1.203125 0 1.921875 0.390625q0.734375 0.375 1.0625 1.265625q0.859375 -1.6875 3.390625 -1.6875q0.828125 0 1.40625 0.09375q0.59375 0.09375 1.03125 0.34375q0.4375 0.25 0.703125 0.59375q0.265625 0.34375 0.421875 0.921875q0.171875 0.5625 0.21875 1.25q0.0625 0.6875 0.0625 1.6875l0 7.234375zm12.973633 -6.5625q0 0.8125 -0.015625 1.359375q-0.015625 0.53125 -0.046875 1.171875q-0.03125 0.625 -0.09375 1.03125q-0.0625 0.40625 -0.171875 0.859375q-0.109375 0.453125 -0.265625 0.734375q-0.15625 0.28125 -0.390625 0.578125q-0.21875 0.28125 -0.53125 0.453125q-0.296875 0.15625 -0.6875 0.296875q-0.375 0.125 -0.859375 0.171875q-0.484375 0.0625 -1.078125 0.0625q-2.8125 0 -3.421875 -1.640625l-0.203125 1.484375l-1.921875 0l0 -16.3125l2.109375 -0.171875l0 6.0q0.359375 -0.84375 1.140625 -1.234375q0.78125 -0.40625 2.125 -0.40625q0.734375 0 1.3125 0.09375q0.59375 0.09375 1.015625 0.296875q0.4375 0.203125 0.765625 0.46875q0.328125 0.25 0.53125 0.640625q0.21875 0.390625 0.34375 0.796875q0.140625 0.390625 0.21875 0.953125q0.078125 0.5625 0.09375 1.078125q0.03125 0.515625 0.03125 1.234375zm-2.125 -1.609375q0 -0.46875 0 -0.6875q0 -0.234375 -0.046875 -0.546875q-0.03125 -0.3125 -0.09375 -0.4375q-0.0625 -0.140625 -0.203125 -0.3125q-0.140625 -0.171875 -0.328125 -0.234375q-0.1875 -0.078125 -0.484375 -0.140625q-0.296875 -0.078125 -0.65625 -0.09375q-0.359375 -0.015625 -0.875 -0.015625q-1.09375 0 -1.703125 0.15625q-0.59375 0.15625 -0.875 0.53125q-0.1875 0.359375 -0.1875 1.65625l0 5.40625q0 0.875 0.625 1.234375q0.625 0.34375 2.140625 0.34375q1.515625 0 2.09375 -0.265625q0.609375 -0.21875 0.609375 -2.171875l-0.015625 -4.421875zm7.3115234 8.171875l-2.125 0l0 -15.96875l2.125 -0.171875l0 16.140625zm12.595703 -6.0625q-1.28125 0.125 -1.59375 0.15625l-5.859375 0q0.015625 1.5625 0.09375 3.40625q0.046875 0.734375 0.609375 0.96875q0.5625 0.21875 2.203125 0.21875q0.609375 0 1.046875 -0.046875q0.4375 -0.046875 0.703125 -0.171875q0.28125 -0.125 0.4375 -0.234375q0.15625 -0.109375 0.234375 -0.34375q0.078125 -0.25 0.09375 -0.421875q0.03125 -0.171875 0.046875 -0.5q0.015625 -0.34375 0.046875 -0.5625l1.65625 0.3125q-0.03125 0.75 -0.125 1.265625q-0.078125 0.515625 -0.28125 0.921875q-0.203125 0.390625 -0.484375 0.625q-0.28125 0.234375 -0.75 0.390625q-0.46875 0.140625 -1.046875 0.1875q-0.5625 0.046875 -1.40625 0.046875q-1.0625 0 -1.859375 -0.125q-0.796875 -0.125 -1.359375 -0.296875q-0.5625 -0.1875 -0.9375 -0.59375q-0.359375 -0.421875 -0.578125 -0.796875q-0.203125 -0.375 -0.296875 -1.09375q-0.09375 -0.734375 -0.125 -1.328125q-0.03125 -0.609375 -0.03125 -1.65625q0 -1.484375 0.03125 -2.3125q0.046875 -0.828125 0.21875 -1.65625q0.171875 -0.828125 0.453125 -1.203125q0.296875 -0.390625 0.859375 -0.703125q0.578125 -0.328125 1.34375 -0.421875q0.78125 -0.09375 1.96875 -0.09375q0.828125 0 1.421875 0.0625q0.609375 0.046875 1.109375 0.203125q0.515625 0.140625 0.84375 0.34375q0.328125 0.1875 0.578125 0.5625q0.25 0.375 0.375 0.78125q0.140625 0.390625 0.21875 1.0625q0.09375 0.671875 0.109375 1.359375q0.03125 0.671875 0.03125 1.6875zm-7.4375 -0.96875l5.328125 0q-0.03125 -1.375 -0.109375 -2.515625q-0.046875 -0.65625 -0.578125 -0.875q-0.515625 -0.21875 -1.890625 -0.21875q-1.546875 0 -1.953125 0.171875q-0.171875 0.046875 -0.3125 0.1875q-0.140625 0.125 -0.234375 0.375q-0.078125 0.25 -0.125 0.46875q-0.046875 0.203125 -0.078125 0.59375q-0.015625 0.375 -0.03125 0.59375q-0.015625 0.203125 -0.015625 0.640625q0 0.421875 0 0.578125zm31.080078 -8.96875l-3.40625 16.0l-2.328125 0l-3.046875 -12.59375l-3.03125 12.59375l-2.328125 0l-3.515625 -16.0l2.296875 0l2.515625 13.0l3.0625 -13.0l2.15625 0l3.15625 13.0l2.4375 -13.0l2.03125 0zm6.573242 14.671875q1.515625 -0.03125 2.109375 -0.21875q0.609375 -0.1875 0.609375 -0.765625q0.109375 -1.53125 0.109375 -3.546875q0 -0.671875 -0.0625 -1.90625q-0.046875 -1.25 -0.046875 -1.84375q0 -0.1875 -0.0625 -0.328125q-0.046875 -0.15625 -0.1875 -0.25q-0.140625 -0.109375 -0.28125 -0.1875q-0.125 -0.078125 -0.375 -0.109375q-0.234375 -0.046875 -0.40625 -0.078125q-0.15625 -0.046875 -0.46875 -0.046875q-0.296875 -0.015625 -0.46875 -0.015625q-0.15625 0 -0.484375 0q-0.328125 0 -0.5 0q-0.15625 0 -0.46875 0.015625q-0.296875 0 -0.46875 0.046875q-0.171875 0.03125 -0.40625 0.078125q-0.234375 0.03125 -0.375 0.109375q-0.140625 0.078125 -0.28125 0.1875q-0.125 0.09375 -0.1875 0.25q-0.046875 0.140625 -0.046875 0.328125q0 0.59375 -0.0625 1.84375q-0.046875 1.234375 -0.046875 1.90625q0 2.015625 0.109375 3.546875q0 0.578125 0.625 0.78125q0.640625 0.203125 2.125 0.203125zm-0.03125 1.484375q-1.1875 0 -1.984375 -0.09375q-0.796875 -0.09375 -1.375 -0.421875q-0.5625 -0.328125 -0.875 -0.6875q-0.296875 -0.375 -0.46875 -1.171875q-0.171875 -0.8125 -0.21875 -1.59375q-0.03125 -0.78125 -0.03125 -2.1875q0 -1.03125 0.03125 -1.734375q0.03125 -0.703125 0.125 -1.375q0.09375 -0.671875 0.234375 -1.078125q0.15625 -0.421875 0.421875 -0.78125q0.28125 -0.375 0.625 -0.5625q0.34375 -0.203125 0.875 -0.34375q0.53125 -0.140625 1.15625 -0.1875q0.625 -0.0625 1.5 -0.0625q0.875 0 1.5 0.0625q0.625 0.046875 1.15625 0.1875q0.53125 0.140625 0.875 0.34375q0.34375 0.1875 0.609375 0.5625q0.28125 0.359375 0.421875 0.78125q0.15625 0.40625 0.25 1.078125q0.09375 0.671875 0.125 1.375q0.03125 0.703125 0.03125 1.734375q0 1.40625 -0.046875 2.1875q-0.03125 0.78125 -0.203125 1.59375q-0.171875 0.796875 -0.484375 1.171875q-0.296875 0.375 -0.875 0.703125q-0.578125 0.3125 -1.375 0.40625q-0.796875 0.09375 -2.0 0.09375zm13.214844 -12.203125l-0.078125 1.78125q-0.421875 -0.046875 -0.78125 -0.046875q-0.765625 0 -1.234375 0.15625q-0.46875 0.140625 -0.71875 0.515625q-0.234375 0.359375 -0.3125 0.828125q-0.078125 0.46875 -0.078125 1.25q0 0.4375 0.03125 1.296875q0.03125 0.84375 0.03125 1.203125l0 5.0625l-2.109375 0l0 -11.78125l1.921875 0l0.21875 1.3125q0.328125 -0.765625 1.0 -1.1875q0.6875 -0.421875 1.625 -0.421875q0.234375 0 0.484375 0.03125zm12.025391 12.046875l-2.328125 0l-4.109375 -6.140625l-0.984375 1.109375l0 5.03125l-2.125 0l0 -15.96875l2.125 -0.171875l0 7.734375q0 0.28125 -0.015625 0.859375q0 0.578125 0 0.828125q0.34375 -0.359375 0.984375 -1.0625q0.640625 -0.71875 0.859375 -0.9375l2.796875 -3.0625l2.40625 0l-4.4375 4.71875l4.828125 7.0625zm11.308594 0l-2.109375 0l0 -14.734375q-2.171875 -0.234375 -3.359375 -0.234375q-0.625 0 -0.921875 0.375q-0.296875 0.375 -0.296875 1.328125q0 0.15625 0 0.65625q0 0.484375 0 0.828125l2.125 0l0 1.203125l-2.125 0l0 10.578125l-2.109375 0l0 -10.578125l-1.390625 0l0 -1.203125l1.390625 0q0 -0.875 0.015625 -1.34375q0.015625 -0.46875 0.078125 -1.046875q0.0625 -0.578125 0.1875 -0.859375q0.140625 -0.28125 0.359375 -0.59375q0.234375 -0.3125 0.578125 -0.421875q0.359375 -0.125 0.84375 -0.203125q0.5 -0.09375 1.171875 -0.09375q1.9375 0 5.5625 0.421875l0 15.921875zm8.116211 -1.328125q1.515625 -0.03125 2.109375 -0.21875q0.609375 -0.1875 0.609375 -0.765625q0.109375 -1.53125 0.109375 -3.546875q0 -0.671875 -0.0625 -1.90625q-0.046875 -1.25 -0.046875 -1.84375q0 -0.1875 -0.0625 -0.328125q-0.046875 -0.15625 -0.1875 -0.25q-0.140625 -0.109375 -0.28125 -0.1875q-0.125 -0.078125 -0.375 -0.109375q-0.234375 -0.046875 -0.40625 -0.078125q-0.15625 -0.046875 -0.46875 -0.046875q-0.296875 -0.015625 -0.46875 -0.015625q-0.15625 0 -0.484375 0q-0.328125 0 -0.5 0q-0.15625 0 -0.46875 0.015625q-0.296875 0 -0.46875 0.046875q-0.171875 0.03125 -0.40625 0.078125q-0.234375 0.03125 -0.375 0.109375q-0.140625 0.078125 -0.28125 0.1875q-0.125 0.09375 -0.1875 0.25q-0.046875 0.140625 -0.046875 0.328125q0 0.59375 -0.0625 1.84375q-0.046875 1.234375 -0.046875 1.90625q0 2.015625 0.109375 3.546875q0 0.578125 0.625 0.78125q0.640625 0.203125 2.125 0.203125zm-0.03125 1.484375q-1.1875 0 -1.984375 -0.09375q-0.796875 -0.09375 -1.375 -0.421875q-0.5625 -0.328125 -0.875 -0.6875q-0.296875 -0.375 -0.46875 -1.171875q-0.171875 -0.8125 -0.21875 -1.59375q-0.03125 -0.78125 -0.03125 -2.1875q0 -1.03125 0.03125 -1.734375q0.03125 -0.703125 0.125 -1.375q0.09375 -0.671875 0.234375 -1.078125q0.15625 -0.421875 0.421875 -0.78125q0.28125 -0.375 0.625 -0.5625q0.34375 -0.203125 0.875 -0.34375q0.53125 -0.140625 1.15625 -0.1875q0.625 -0.0625 1.5 -0.0625q0.875 0 1.5 0.0625q0.625 0.046875 1.15625 0.1875q0.53125 0.140625 0.875 0.34375q0.34375 0.1875 0.609375 0.5625q0.28125 0.359375 0.421875 0.78125q0.15625 0.40625 0.25 1.078125q0.09375 0.671875 0.125 1.375q0.03125 0.703125 0.03125 1.734375q0 1.40625 -0.046875 2.1875q-0.03125 0.78125 -0.203125 1.59375q-0.171875 0.796875 -0.484375 1.171875q-0.296875 0.375 -0.875 0.703125q-0.578125 0.3125 -1.375 0.40625q-0.796875 0.09375 -2.0 0.09375zm22.083984 -11.9375l-3.0625 11.78125l-1.953125 0l-2.578125 -8.953125l-2.4375 8.953125l-2.171875 0l-3.09375 -11.78125l2.03125 0l2.125 9.28125l2.578125 -9.28125l1.890625 0l2.421875 9.28125l2.140625 -9.28125l2.109375 0zm10.853516 8.515625q0 1.03125 -0.234375 1.703125q-0.21875 0.65625 -0.734375 1.046875q-0.515625 0.375 -1.265625 0.515625q-0.75 0.15625 -1.890625 0.15625q-0.671875 0 -1.078125 -0.015625q-0.390625 0 -0.921875 -0.046875q-0.515625 -0.046875 -0.828125 -0.125q-0.3125 -0.09375 -0.671875 -0.25q-0.359375 -0.15625 -0.578125 -0.390625q-0.203125 -0.25 -0.390625 -0.578125q-0.171875 -0.34375 -0.25 -0.796875q-0.078125 -0.453125 -0.078125 -1.03125l1.671875 -0.4375q0.09375 1.234375 0.21875 1.546875q0.203125 0.4375 0.8125 0.5625q0.46875 0.09375 1.9375 0.09375q0.90625 0 1.328125 -0.078125q0.4375 -0.078125 0.59375 -0.3125q0.421875 -0.34375 0.421875 -2.40625q0 -0.3125 -0.125 -0.53125q-0.125 -0.21875 -0.3125 -0.328125q-0.1875 -0.125 -0.515625 -0.203125q-0.3125 -0.078125 -0.578125 -0.109375q-0.265625 -0.03125 -0.703125 -0.0625q-0.421875 -0.046875 -0.6875 -0.078125q-0.78125 -0.09375 -1.28125 -0.171875q-0.484375 -0.078125 -1.0 -0.234375q-0.5 -0.171875 -0.78125 -0.40625q-0.28125 -0.234375 -0.515625 -0.609375q-0.234375 -0.375 -0.34375 -0.890625q-0.09375 -0.53125 -0.09375 -1.265625q0 -0.78125 0.15625 -1.3125q0.171875 -0.53125 0.484375 -0.890625q0.3125 -0.359375 0.84375 -0.546875q0.546875 -0.203125 1.21875 -0.28125q0.6875 -0.09375 1.65625 -0.09375q0.625 0 1.015625 0.03125q0.390625 0.015625 0.859375 0.078125q0.46875 0.046875 0.75 0.15625q0.296875 0.109375 0.578125 0.3125q0.296875 0.1875 0.453125 0.46875q0.171875 0.28125 0.265625 0.6875q0.109375 0.40625 0.109375 0.9375l-1.4375 0.4375q-0.046875 -0.421875 -0.09375 -0.65625q-0.03125 -0.25 -0.15625 -0.453125q-0.125 -0.203125 -0.265625 -0.28125q-0.140625 -0.09375 -0.484375 -0.15625q-0.328125 -0.0625 -0.671875 -0.0625q-0.34375 -0.015625 -0.984375 -0.015625q-1.375 0 -1.875 0.28125q-0.484375 0.265625 -0.484375 0.890625l0 1.09375q0 0.703125 0.421875 0.890625q0.421875 0.1875 2.28125 0.421875q0.1875 0.03125 0.28125 0.046875q0.75 0.09375 1.171875 0.171875q0.4375 0.0625 0.921875 0.1875q0.484375 0.125 0.734375 0.296875q0.25 0.15625 0.5 0.421875q0.265625 0.25 0.375 0.625q0.109375 0.375 0.171875 0.875q0.078125 0.5 0.078125 1.171875z" fill-rule="nonzero"/><path fill="#000000" fill-opacity="0.0" d="m36.41379 61.29627l338.86615 0l0 216.6929l-338.86615 0z" fill-rule="evenodd"/><path fill="#ffd966" d="m50.44504 75.15376q2.734375 0 4.1875 1.046875q1.46875 1.03125 1.46875 3.078125q0 1.125 -0.40625 1.921875q-0.390625 0.78125 -1.15625 1.28125q-0.75 0.484375 -1.828125 0.71875q-1.078125 0.21875 -2.453125 0.21875l-1.421875 0l0 4.796875l-1.8125 0l0 -12.75q0.765625 -0.171875 1.703125 -0.234375q0.9375 -0.078125 1.71875 -0.078125zm0.15625 1.59375q-1.15625 0 -1.765625 0.046875l0 5.078125l1.359375 0q0.921875 0 1.671875 -0.109375q0.75 -0.125 1.265625 -0.40625q0.515625 -0.296875 0.78125 -0.796875q0.28125 -0.515625 0.28125 -1.296875q0 -0.75 -0.296875 -1.234375q-0.28125 -0.484375 -0.78125 -0.765625q-0.484375 -0.296875 -1.140625 -0.40625q-0.65625 -0.109375 -1.375 -0.109375zm9.389877 11.46875l-1.734375 0l0 -9.703125l1.734375 0l0 9.703125zm-0.890625 -11.453125q-0.453125 0 -0.78125 -0.3125q-0.328125 -0.3125 -0.328125 -0.828125q0 -0.515625 0.328125 -0.828125q0.328125 -0.3125 0.78125 -0.3125q0.46875 0 0.796875 0.3125q0.328125 0.3125 0.328125 0.828125q0 0.515625 -0.328125 0.828125q-0.328125 0.3125 -0.796875 0.3125zm10.610661 6.625q0 -1.703125 -0.84375 -2.609375q-0.84375 -0.921875 -2.234375 -0.921875q-0.796875 0 -1.234375 0.0625q-0.4375 0.046875 -0.6875 0.125l0 6.125q0.3125 0.25 0.90625 0.5q0.59375 0.234375 1.3125 0.234375q0.734375 0 1.265625 -0.265625q0.53125 -0.265625 0.859375 -0.734375q0.34375 -0.484375 0.5 -1.125q0.15625 -0.640625 0.15625 -1.390625zm1.796875 0q0 1.09375 -0.296875 2.03125q-0.28125 0.9375 -0.84375 1.609375q-0.546875 0.671875 -1.359375 1.046875q-0.8125 0.359375 -1.859375 0.359375q-0.84375 0 -1.484375 -0.21875q-0.640625 -0.21875 -0.953125 -0.421875l0 3.875l-1.7343788 0l0 -12.859375q0.609375 -0.140625 1.5312538 -0.3125q0.921875 -0.1875 2.140625 -0.1875q1.109375 0 2.0 0.359375q0.90625 0.34375 1.53125 1.0q0.640625 0.65625 0.984375 1.609375q0.34375 0.9375 0.34375 2.109375zm1.9104156 0q0 -1.296875 0.375 -2.25q0.375 -0.96875 0.984375 -1.59375q0.609375 -0.640625 1.40625 -0.953125q0.8125 -0.3125 1.65625 -0.3125q1.953125 0 3.0 1.21875q1.046875 1.21875 1.046875 3.71875q0 0.109375 0 0.296875q0 0.171875 -0.015625 0.3125l-6.640625 0q0.109375 1.515625 0.875 2.296875q0.765625 0.78125 2.390625 0.78125q0.90625 0 1.53125 -0.15625q0.625 -0.15625 0.9375 -0.296875l0.25 1.453125q-0.3125 0.15625 -1.109375 0.34375q-0.796875 0.1875 -1.796875 0.1875q-1.265625 0 -2.203125 -0.375q-0.921875 -0.390625 -1.515625 -1.0625q-0.59375 -0.671875 -0.890625 -1.59375q-0.28125 -0.921875 -0.28125 -2.015625zm6.65625 -0.953125q0.015625 -1.171875 -0.59375 -1.921875q-0.59375 -0.765625 -1.65625 -0.765625q-0.609375 0 -1.0625 0.234375q-0.453125 0.234375 -0.78125 0.609375q-0.3125 0.375 -0.484375 0.859375q-0.171875 0.484375 -0.234375 0.984375l4.8125 0zm7.2257233 5.96875q-1.609375 -0.03125 -2.28125 -0.6875q-0.671875 -0.65625 -0.671875 -2.03125l0 -11.640625l1.734375 -0.3125l0 11.671875q0 0.421875 0.078125 0.703125q0.078125 0.28125 0.234375 0.453125q0.171875 0.15625 0.453125 0.25q0.28125 0.078125 0.6875 0.140625l-0.234375 1.453125zm3.92128 -0.1875l-1.734375 0l0 -9.703125l1.734375 0l0 9.703125zm-0.890625 -11.453125q-0.453125 0 -0.78125 -0.3125q-0.328125 -0.3125 -0.328125 -0.828125q0 -0.515625 0.328125 -0.828125q0.328125 -0.3125 0.78125 -0.3125q0.46875 0 0.796875 0.3125q0.328125 0.3125 0.328125 0.828125q0 0.515625 -0.328125 0.828125q-0.328125 0.3125 -0.796875 0.3125zm3.8762817 2.03125q0.59375 -0.15625 1.578125 -0.3125q0.984375 -0.171875 2.28125 -0.171875q1.15625 0 1.921875 0.328125q0.765625 0.328125 1.21875 0.921875q0.453125 0.578125 0.640625 1.40625q0.1875 0.8125 0.1875 1.796875l0 5.453125l-1.734375 0l0 -5.078125q0 -0.890625 -0.125 -1.515625q-0.125 -0.640625 -0.40625 -1.03125q-0.265625 -0.390625 -0.734375 -0.5625q-0.46875 -0.1875 -1.15625 -0.1875q-0.28125 0 -0.578125 0.015625q-0.296875 0.015625 -0.578125 0.046875q-0.265625 0.03125 -0.484375 0.078125q-0.203125 0.03125 -0.296875 0.046875l0 8.1875l-1.734375 0l0 -9.421875zm10.161819 4.59375q0 -1.296875 0.375 -2.25q0.375 -0.96875 0.984375 -1.59375q0.609375 -0.640625 1.40625 -0.953125q0.8125 -0.3125 1.65625 -0.3125q1.953125 0 3.0 1.21875q1.046875 1.21875 1.046875 3.71875q0 0.109375 0 0.296875q0 0.171875 -0.015625 0.3125l-6.640625 0q0.109375 1.515625 0.875 2.296875q0.765625 0.78125 2.390625 0.78125q0.90625 0 1.53125 -0.15625q0.625 -0.15625 0.9375 -0.296875l0.25 1.453125q-0.3125 0.15625 -1.109375 0.34375q-0.796875 0.1875 -1.796875 0.1875q-1.265625 0 -2.203125 -0.375q-0.921875 -0.390625 -1.515625 -1.0625q-0.59375 -0.671875 -0.890625 -1.59375q-0.28125 -0.921875 -0.28125 -2.015625zm6.65625 -0.953125q0.015625 -1.171875 -0.59375 -1.921875q-0.59375 -0.765625 -1.65625 -0.765625q-0.609375 0 -1.0625 0.234375q-0.453125 0.234375 -0.78125 0.609375q-0.3125 0.375 -0.484375 0.859375q-0.171875 0.484375 -0.234375 0.984375l4.8125 0z" fill-rule="nonzero"/><path fill="#f3f3f3" d="m116.8137 83.02876q0 2.21875 0.640625 4.109375q0.640625 1.890625 1.890625 3.5l-1.15625 0.78125q-1.34375 -1.640625 -2.171875 -3.78125q-0.8125 -2.140625 -0.8125 -4.609375q0 -2.453125 0.8125 -4.59375q0.828125 -2.140625 2.171875 -3.78125l1.15625 0.78125q-1.25 1.609375 -1.890625 3.5q-0.640625 1.875 -0.640625 4.09375z" fill-rule="nonzero"/><path fill="#f3f3f3" d="m96.413795 112.69626l-1.609375 0l0 -9.015625l1.609375 0l0 9.015625zm-0.8125 -10.640625q-0.4375 0 -0.75 -0.28125q-0.296875 -0.296875 -0.296875 -0.78125q0 -0.484375 0.296875 -0.765625q0.3125 -0.28125 0.75 -0.28125q0.421875 0 0.71875 0.28125q0.3125 0.28125 0.3125 0.765625q0 0.484375 -0.3125 0.78125q-0.296875 0.28125 -0.71875 0.28125zm3.5871124 1.890625q0.546875 -0.140625 1.46875 -0.296875q0.921875 -0.15625 2.109375 -0.15625q1.078125 0 1.78125 0.3125q0.71875 0.296875 1.140625 0.84375q0.421875 0.546875 0.59375 1.3125q0.171875 0.75 0.171875 1.671875l0 5.0625l-1.609375 0l0 -4.71875q0 -0.828125 -0.109375 -1.40625q-0.109375 -0.59375 -0.375 -0.953125q-0.25 -0.375 -0.6875 -0.53125q-0.4375 -0.171875 -1.078125 -0.171875q-0.25 0 -0.53125 0.015625q-0.28125 0.015625 -0.53125 0.046875q-0.25 0.03125 -0.453125 0.0625q-0.203125 0.03125 -0.28125 0.046875l0 7.609375l-1.609375 0l0 -8.75zm16.19629 4.265625q0 -1.578125 -0.78125 -2.421875q-0.78125 -0.859375 -2.078125 -0.859375q-0.71875 0 -1.140625 0.0625q-0.40625 0.046875 -0.640625 0.109375l0 5.6875q0.296875 0.25 0.84375 0.46875q0.5625 0.21875 1.21875 0.21875q0.6875 0 1.171875 -0.25q0.5 -0.25 0.8125 -0.6875q0.3125 -0.4375 0.453125 -1.03125q0.140625 -0.609375 0.140625 -1.296875zm1.6875 0q0 1.015625 -0.28125 1.890625q-0.265625 0.859375 -0.78125 1.484375q-0.515625 0.625 -1.28125 0.96875q-0.75 0.34375 -1.71875 0.34375q-0.78125 0 -1.375 -0.203125q-0.59375 -0.203125 -0.890625 -0.40625l0 3.609375l-1.609375 0l0 -11.9375q0.5625 -0.140625 1.421875 -0.296875q0.859375 -0.171875 1.984375 -0.171875q1.046875 0 1.875 0.328125q0.828125 0.328125 1.421875 0.9375q0.59375 0.609375 0.90625 1.484375q0.328125 0.875 0.328125 1.96875zm9.440582 4.21875q-0.5625 0.140625 -1.46875 0.296875q-0.90625 0.15625 -2.109375 0.15625q-1.03125 0 -1.75 -0.296875q-0.703125 -0.3125 -1.140625 -0.859375q-0.4375 -0.5625 -0.625 -1.3125q-0.1875 -0.75 -0.1875 -1.671875l0 -5.0625l1.609375 0l0 4.71875q0 1.640625 0.515625 2.359375q0.53125 0.703125 1.75 0.703125q0.265625 0 0.546875 -0.015625q0.28125 -0.015625 0.515625 -0.03125q0.25 -0.03125 0.4375 -0.0625q0.203125 -0.03125 0.296875 -0.0625l0 -7.609375l1.609375 0l0 8.75zm4.2744064 -8.75l3.421875 0l0 1.359375l-3.421875 0l0 4.15625q0 0.671875 0.109375 1.125q0.109375 0.4375 0.3125 0.6875q0.203125 0.25 0.515625 0.359375q0.3125 0.09375 0.734375 0.09375q0.71875 0 1.15625 -0.15625q0.453125 -0.171875 0.625 -0.234375l0.3125 1.328125q-0.25 0.125 -0.859375 0.296875q-0.59375 0.1875 -1.375 0.1875q-0.921875 0 -1.53125 -0.234375q-0.59375 -0.234375 -0.953125 -0.703125q-0.359375 -0.46875 -0.515625 -1.140625q-0.140625 -0.6875 -0.140625 -1.59375l0 -8.03125l1.609375 -0.28125l0 2.78125zm7.559616 7.859375q0.984375 0 1.453125 -0.265625q0.484375 -0.265625 0.484375 -0.828125q0 -0.59375 -0.46875 -0.9375q-0.46875 -0.34375 -1.546875 -0.78125q-0.515625 -0.203125 -1.0 -0.421875q-0.46875 -0.21875 -0.8125 -0.515625q-0.34375 -0.296875 -0.5625 -0.703125q-0.203125 -0.421875 -0.203125 -1.03125q0 -1.1875 0.875 -1.890625q0.890625 -0.703125 2.421875 -0.703125q0.375 0 0.75 0.046875q0.390625 0.03125 0.71875 0.09375q0.328125 0.0625 0.578125 0.140625q0.25 0.0625 0.390625 0.109375l-0.296875 1.390625q-0.25 -0.140625 -0.8125 -0.28125q-0.546875 -0.15625 -1.328125 -0.15625q-0.671875 0 -1.1875 0.28125q-0.5 0.265625 -0.5 0.828125q0 0.296875 0.109375 0.53125q0.125 0.21875 0.359375 0.40625q0.234375 0.171875 0.578125 0.328125q0.34375 0.15625 0.828125 0.328125q0.640625 0.25 1.140625 0.484375q0.5 0.234375 0.859375 0.546875q0.359375 0.3125 0.546875 0.75q0.1875 0.4375 0.1875 1.078125q0 1.25 -0.921875 1.890625q-0.921875 0.640625 -2.640625 0.640625q-1.203125 0 -1.875 -0.203125q-0.671875 -0.1875 -0.921875 -0.296875l0.296875 -1.390625q0.28125 0.109375 0.890625 0.328125q0.609375 0.203125 1.609375 0.203125zm7.540802 0.21875q0 0.46875 -0.3125 0.8125q-0.3125 0.34375 -0.859375 0.34375q-0.53125 0 -0.84375 -0.34375q-0.3125 -0.34375 -0.3125 -0.8125q0 -0.46875 0.3125 -0.8125q0.3125 -0.34375 0.84375 -0.34375q0.546875 0 0.859375 0.34375q0.3125 0.34375 0.3125 0.8125zm0 -6.90625q0 0.46875 -0.3125 0.8125q-0.3125 0.34375 -0.859375 0.34375q-0.53125 0 -0.84375 -0.34375q-0.3125 -0.34375 -0.3125 -0.8125q0 -0.46875 0.3125 -0.8125q0.3125 -0.34375 0.84375 -0.34375q0.546875 0 0.859375 0.34375q0.3125 0.34375 0.3125 0.8125z" fill-rule="nonzero"/><path fill="#97e574" d="m154.94995 112.86813q-1.5 -0.03125 -2.125 -0.640625q-0.609375 -0.609375 -0.609375 -1.890625l0 -10.8125l1.609375 -0.28125l0 10.84375q0 0.390625 0.0625 0.65625q0.078125 0.25 0.21875 0.40625q0.15625 0.15625 0.421875 0.234375q0.265625 0.078125 0.640625 0.140625l-0.21875 1.34375zm3.636795 -0.171875l-1.609375 0l0 -9.015625l1.609375 0l0 9.015625zm-0.8125 -10.640625q-0.4375 0 -0.75 -0.28125q-0.296875 -0.296875 -0.296875 -0.78125q0 -0.484375 0.296875 -0.765625q0.3125 -0.28125 0.75 -0.28125q0.421875 0 0.71875 0.28125q0.3125 0.28125 0.3125 0.765625q0 0.484375 -0.3125 0.78125q-0.296875 0.28125 -0.71875 0.28125zm5.6808624 9.484375q0.984375 0 1.453125 -0.265625q0.484375 -0.265625 0.484375 -0.828125q0 -0.59375 -0.46875 -0.9375q-0.46875 -0.34375 -1.546875 -0.78125q-0.515625 -0.203125 -1.0 -0.421875q-0.46875 -0.21875 -0.8125 -0.515625q-0.34375 -0.296875 -0.5625 -0.703125q-0.203125 -0.421875 -0.203125 -1.03125q0 -1.1875 0.875 -1.890625q0.890625 -0.703125 2.421875 -0.703125q0.375 0 0.75 0.046875q0.390625 0.03125 0.71875 0.09375q0.328125 0.0625 0.578125 0.140625q0.25 0.0625 0.390625 0.109375l-0.296875 1.390625q-0.25 -0.140625 -0.8125 -0.28125q-0.546875 -0.15625 -1.328125 -0.15625q-0.671875 0 -1.1875 0.28125q-0.5 0.265625 -0.5 0.828125q0 0.296875 0.109375 0.53125q0.125 0.21875 0.359375 0.40625q0.234375 0.171875 0.578125 0.328125q0.34375 0.15625 0.828125 0.328125q0.640625 0.25 1.140625 0.484375q0.5 0.234375 0.859375 0.546875q0.359375 0.3125 0.546875 0.75q0.1875 0.4375 0.1875 1.078125q0 1.25 -0.921875 1.890625q-0.921875 0.640625 -2.640625 0.640625q-1.203125 0 -1.875 -0.203125q-0.671875 -0.1875 -0.921875 -0.296875l0.296875 -1.390625q0.28125 0.109375 0.890625 0.328125q0.609375 0.203125 1.609375 0.203125zm7.134552 -7.859375l3.421875 0l0 1.359375l-3.421875 0l0 4.15625q0 0.671875 0.109375 1.125q0.109375 0.4375 0.3125 0.6875q0.203125 0.25 0.515625 0.359375q0.3125 0.09375 0.734375 0.09375q0.71875 0 1.15625 -0.15625q0.453125 -0.171875 0.625 -0.234375l0.3125 1.328125q-0.25 0.125 -0.859375 0.296875q-0.59375 0.1875 -1.375 0.1875q-0.921875 0 -1.53125 -0.234375q-0.59375 -0.234375 -0.953125 -0.703125q-0.359375 -0.46875 -0.515625 -1.140625q-0.140625 -0.6875 -0.140625 -1.59375l0 -8.03125l1.609375 -0.28125l0 2.78125z" fill-rule="nonzero"/><path fill="#f3f3f3" d="m177.74303 110.72751q0.03125 0.125 0.03125 0.265625q0 0.125 0 0.265625q0 1.09375 -0.328125 2.15625q-0.328125 1.0625 -0.875 2.03125l-1.25 -0.390625q0.4375 -0.890625 0.578125 -1.796875q0.140625 -0.90625 0.140625 -1.703125q0 -0.234375 -0.015625 -0.4375q0 -0.203125 -0.03125 -0.390625l1.75 0z" fill-rule="nonzero"/><path fill="#f3f3f3" d="m96.30442 127.60063l3.421875 0l0 1.359375l-3.421875 0l0 4.15625q0 0.671875 0.109375 1.125q0.109375 0.4375 0.3125 0.6875q0.203125 0.25 0.515625 0.359375q0.3125 0.09375 0.734375 0.09375q0.71875 0 1.15625 -0.15625q0.453125 -0.171875 0.625 -0.234375l0.3125 1.328125q-0.25 0.125 -0.859375 0.296875q-0.59375 0.1875 -1.375 0.1875q-0.921875 0 -1.53125 -0.234375q-0.59375 -0.234375 -0.953125 -0.703125q-0.359375 -0.46875 -0.515625 -1.140625q-0.140625 -0.6875 -0.140625 -1.59375l0 -8.03125l1.609375 -0.28125l0 2.78125zm8.512741 7.859375q0.5625 0 1.0 -0.03125q0.453125 -0.03125 0.75 -0.09375l0 -2.6875q-0.171875 -0.09375 -0.5625 -0.140625q-0.390625 -0.0625 -0.953125 -0.0625q-0.359375 0 -0.765625 0.046875q-0.40625 0.046875 -0.75 0.21875q-0.328125 0.15625 -0.5625 0.453125q-0.21875 0.28125 -0.21875 0.75q0 0.859375 0.546875 1.203125q0.5625 0.34375 1.515625 0.34375zm-0.140625 -8.078125q0.96875 0 1.640625 0.25q0.671875 0.25 1.078125 0.71875q0.40625 0.453125 0.578125 1.09375q0.171875 0.625 0.171875 1.390625l0 5.625q-0.203125 0.03125 -0.578125 0.09375q-0.375 0.0625 -0.84375 0.109375q-0.46875 0.0625 -1.015625 0.09375q-0.546875 0.046875 -1.078125 0.046875q-0.765625 0 -1.40625 -0.15625q-0.640625 -0.15625 -1.109375 -0.484375q-0.46875 -0.34375 -0.734375 -0.890625q-0.25 -0.5625 -0.25 -1.34375q0 -0.75 0.296875 -1.28125q0.3125 -0.53125 0.828125 -0.859375q0.515625 -0.328125 1.203125 -0.484375q0.703125 -0.15625 1.46875 -0.15625q0.234375 0 0.484375 0.03125q0.265625 0.015625 0.5 0.0625q0.234375 0.03125 0.40625 0.078125q0.171875 0.03125 0.25 0.046875l0 -0.453125q0 -0.390625 -0.09375 -0.78125q-0.078125 -0.390625 -0.3125 -0.6875q-0.21875 -0.3125 -0.609375 -0.484375q-0.390625 -0.1875 -1.015625 -0.1875q-0.796875 0 -1.390625 0.109375q-0.59375 0.109375 -0.890625 0.234375l-0.1875 -1.34375q0.3125 -0.125 1.03125 -0.25q0.734375 -0.140625 1.578125 -0.140625zm9.467102 0.03125q0.203125 0 0.46875 0.03125q0.265625 0.015625 0.53125 0.0625q0.265625 0.046875 0.46875 0.09375q0.21875 0.046875 0.328125 0.078125l-0.28125 1.40625q-0.1875 -0.078125 -0.640625 -0.171875q-0.4375 -0.09375 -1.125 -0.09375q-0.453125 0 -0.890625 0.09375q-0.4375 0.09375 -0.578125 0.125l0 7.578125l-1.609375 0l0 -8.625q0.5625 -0.21875 1.40625 -0.390625q0.859375 -0.1875 1.921875 -0.1875zm9.001114 8.296875q-0.203125 0.140625 -0.8125 0.359375q-0.59375 0.21875 -1.390625 0.21875q-0.8125 0 -1.53125 -0.25q-0.71875 -0.265625 -1.265625 -0.8125q-0.53125 -0.546875 -0.84375 -1.359375q-0.296875 -0.8125 -0.296875 -1.953125q0 -0.984375 0.28125 -1.796875q0.296875 -0.828125 0.859375 -1.421875q0.5625 -0.609375 1.375 -0.9375q0.828125 -0.34375 1.84375 -0.34375q1.125 0 1.96875 0.171875q0.84375 0.15625 1.40625 0.296875l0 8.046875q0 2.078125 -1.078125 3.0q-1.0625 0.9375 -3.25 0.9375q-0.84375 0 -1.609375 -0.140625q-0.75 -0.125 -1.296875 -0.3125l0.296875 -1.40625q0.484375 0.1875 1.171875 0.328125q0.703125 0.15625 1.46875 0.15625q1.4375 0 2.0625 -0.578125q0.640625 -0.5625 0.640625 -1.8125l0 -0.390625zm-0.015625 -6.6875q-0.234375 -0.0625 -0.65625 -0.125q-0.40625 -0.0625 -1.09375 -0.0625q-1.296875 0 -2.0 0.859375q-0.703125 0.84375 -0.703125 2.25q0 0.765625 0.203125 1.328125q0.203125 0.546875 0.53125 0.921875q0.34375 0.359375 0.78125 0.53125q0.4375 0.171875 0.90625 0.171875q0.640625 0 1.171875 -0.171875q0.546875 -0.1875 0.859375 -0.4375l0 -5.265625zm3.8905945 3.109375q0 -1.203125 0.34375 -2.09375q0.34375 -0.890625 0.9062424 -1.46875q0.578125 -0.59375 1.3125 -0.890625q0.75 -0.296875 1.53125 -0.296875q1.828125 0 2.796875 1.140625q0.96875 1.125 0.96875 3.453125q0 0.09375 0 0.265625q0 0.171875 -0.015625 0.296875l-6.171875 0q0.109375 1.40625 0.8125 2.140625q0.71875 0.71875 2.21875 0.71875q0.859375 0 1.4375 -0.140625q0.578125 -0.140625 0.875 -0.28125l0.21875 1.34375q-0.296875 0.15625 -1.03125 0.328125q-0.734375 0.171875 -1.671875 0.171875q-1.171875 0 -2.03125 -0.34375q-0.859375 -0.359375 -1.421875 -0.984375q-0.5468674 -0.625 -0.8124924 -1.484375q-0.265625 -0.859375 -0.265625 -1.875zm6.1718674 -0.890625q0.03125 -1.09375 -0.546875 -1.78125q-0.5625 -0.703125 -1.546875 -0.703125q-0.546875 0 -0.984375 0.21875q-0.421875 0.203125 -0.71875 0.5625q-0.28125 0.34375 -0.453125 0.796875q-0.15625 0.4375 -0.21875 0.90625l4.46875 0zm5.514496 -3.640625l3.421875 0l0 1.359375l-3.421875 0l0 4.15625q0 0.671875 0.109375 1.125q0.109375 0.4375 0.3125 0.6875q0.203125 0.25 0.515625 0.359375q0.3125 0.09375 0.734375 0.09375q0.71875 0 1.15625 -0.15625q0.453125 -0.171875 0.625 -0.234375l0.3125 1.328125q-0.25 0.125 -0.859375 0.296875q-0.59375 0.1875 -1.375 0.1875q-0.921875 0 -1.53125 -0.234375q-0.59375 -0.234375 -0.953125 -0.703125q-0.359375 -0.46875 -0.515625 -1.140625q-0.140625 -0.6875 -0.140625 -1.59375l0 -8.03125l1.609375 -0.28125l0 2.78125zm7.372116 8.078125q0 0.46875 -0.3125 0.8125q-0.3125 0.34375 -0.859375 0.34375q-0.53125 0 -0.84375 -0.34375q-0.3125 -0.34375 -0.3125 -0.8125q0 -0.46875 0.3125 -0.8125q0.3125 -0.34375 0.84375 -0.34375q0.546875 0 0.859375 0.34375q0.3125 0.34375 0.3125 0.8125zm0 -6.90625q0 0.46875 -0.3125 0.8125q-0.3125 0.34375 -0.859375 0.34375q-0.53125 0 -0.84375 -0.34375q-0.3125 -0.34375 -0.3125 -0.8125q0 -0.46875 0.3125 -0.8125q0.3125 -0.34375 0.84375 -0.34375q0.546875 0 0.859375 0.34375q0.3125 0.34375 0.3125 0.8125z" fill-rule="nonzero"/><path fill="#97e574" d="m160.39055 132.11626q0 1.0625 -0.3125 1.9375q-0.3125 0.859375 -0.875 1.484375q-0.5625 0.625 -1.34375 0.96875q-0.78125 0.328125 -1.703125 0.328125q-0.921875 0 -1.703125 -0.328125q-0.765625 -0.34375 -1.34375 -0.96875q-0.5625 -0.625 -0.875 -1.484375q-0.296875 -0.875 -0.296875 -1.9375q0 -1.0625 0.296875 -1.9375q0.3125 -0.875 0.875 -1.5q0.578125 -0.625 1.34375 -0.953125q0.78125 -0.34375 1.703125 -0.34375q0.921875 0 1.703125 0.34375q0.78125 0.328125 1.34375 0.953125q0.5625 0.625 0.875 1.5q0.3125 0.875 0.3125 1.9375zm-1.6875 0q0 -1.53125 -0.6875 -2.421875q-0.671875 -0.890625 -1.859375 -0.890625q-1.171875 0 -1.859375 0.890625q-0.6875 0.890625 -0.6875 2.421875q0 1.515625 0.6875 2.40625q0.6875 0.890625 1.859375 0.890625q1.1875 0 1.859375 -0.890625q0.6875 -0.890625 0.6875 -2.40625zm5.5672913 -4.109375q0.296875 -0.1875 0.890625 -0.390625q0.59375 -0.21875 1.375 -0.21875q0.96875 0 1.71875 0.34375q0.765625 0.34375 1.28125 0.96875q0.515625 0.625 0.78125 1.5q0.28125 0.859375 0.28125 1.90625q0 1.09375 -0.328125 1.96875q-0.3125 0.875 -0.90625 1.484375q-0.59375 0.59375 -1.421875 0.921875q-0.828125 0.328125 -1.875 0.328125q-1.125 0 -2.0 -0.15625q-0.859375 -0.15625 -1.40625 -0.3125l0 -12.90625l1.609375 -0.28125l0 4.84375zm0 7.203125q0.234375 0.078125 0.671875 0.140625q0.453125 0.046875 1.109375 0.046875q1.296875 0 2.078125 -0.84375q0.78125 -0.859375 0.78125 -2.4375q0 -0.703125 -0.140625 -1.296875q-0.140625 -0.609375 -0.453125 -1.046875q-0.3125 -0.453125 -0.8125 -0.703125q-0.484375 -0.25 -1.171875 -0.25q-0.65625 0 -1.21875 0.234375q-0.546875 0.21875 -0.84375 0.453125l0 5.703125zm7.1124573 4.640625q-0.203125 0 -0.53125 -0.046875q-0.328125 -0.046875 -0.546875 -0.140625l0.203125 -1.3125q0.171875 0.046875 0.40625 0.078125q0.21875 0.046875 0.40625 0.046875q0.828125 0 1.1875 -0.515625q0.359375 -0.515625 0.359375 -1.5l0 -8.859375l1.609375 0l0 8.84375q0 1.734375 -0.796875 2.5625q-0.78125 0.84375 -2.296875 0.84375zm2.28125 -13.875q-0.4375 0 -0.75 -0.28125q-0.296875 -0.296875 -0.296875 -0.78125q0 -0.484375 0.296875 -0.765625q0.3125 -0.28125 0.75 -0.28125q0.421875 0 0.71875 0.28125q0.3125 0.28125 0.3125 0.765625q0 0.484375 -0.3125 0.78125q-0.296875 0.28125 -0.71875 0.28125zm3.0871124 6.15625q0 -1.203125 0.34375 -2.09375q0.34375 -0.890625 0.90625 -1.46875q0.578125 -0.59375 1.3125 -0.890625q0.75 -0.296875 1.53125 -0.296875q1.828125 0 2.796875 1.140625q0.96875 1.125 0.96875 3.453125q0 0.09375 0 0.265625q0 0.171875 -0.015625 0.296875l-6.171875 0q0.109375 1.40625 0.8125 2.140625q0.71875 0.71875 2.21875 0.71875q0.859375 0 1.4375 -0.140625q0.578125 -0.140625 0.875 -0.28125l0.21875 1.34375q-0.296875 0.15625 -1.03125 0.328125q-0.734375 0.171875 -1.671875 0.171875q-1.171875 0 -2.03125 -0.34375q-0.859375 -0.359375 -1.421875 -0.984375q-0.546875 -0.625 -0.8125 -1.484375q-0.265625 -0.859375 -0.265625 -1.875zm6.171875 -0.890625q0.03125 -1.09375 -0.546875 -1.78125q-0.5625 -0.703125 -1.546875 -0.703125q-0.546875 0 -0.984375 0.21875q-0.421875 0.203125 -0.71875 0.5625q-0.28125 0.34375 -0.453125 0.796875q-0.15625 0.4375 -0.21875 0.90625l4.46875 0zm7.920746 5.578125q-1.09375 0 -1.921875 -0.34375q-0.8125 -0.34375 -1.375 -0.96875q-0.5625 -0.625 -0.84375 -1.484375q-0.265625 -0.859375 -0.265625 -1.890625q0 -1.046875 0.296875 -1.90625q0.296875 -0.875 0.84375 -1.5q0.5625 -0.640625 1.359375 -0.984375q0.8125 -0.359375 1.8125 -0.359375q0.609375 0 1.203125 0.109375q0.609375 0.09375 1.171875 0.328125l-0.375 1.359375q-0.359375 -0.171875 -0.84375 -0.265625q-0.46875 -0.109375 -1.0 -0.109375q-1.359375 0 -2.078125 0.859375q-0.71875 0.84375 -0.71875 2.46875q0 0.71875 0.15625 1.328125q0.171875 0.609375 0.53125 1.046875q0.359375 0.421875 0.90625 0.65625q0.5625 0.234375 1.359375 0.234375q0.640625 0 1.15625 -0.109375q0.515625 -0.125 0.8125 -0.265625l0.234375 1.34375q-0.140625 0.09375 -0.40625 0.171875q-0.265625 0.078125 -0.59375 0.140625q-0.328125 0.0625 -0.703125 0.09375q-0.359375 0.046875 -0.71875 0.046875zm5.6512756 -9.21875l3.421875 0l0 1.359375l-3.421875 0l0 4.15625q0 0.671875 0.109375 1.125q0.109375 0.4375 0.3125 0.6875q0.203125 0.25 0.515625 0.359375q0.3125 0.09375 0.734375 0.09375q0.71875 0 1.15625 -0.15625q0.453125 -0.171875 0.625 -0.234375l0.3125 1.328125q-0.25 0.125 -0.859375 0.296875q-0.59375 0.1875 -1.375 0.1875q-0.921875 0 -1.53125 -0.234375q-0.59375 -0.234375 -0.953125 -0.703125q-0.359375 -0.46875 -0.515625 -1.140625q-0.140625 -0.6875 -0.140625 -1.59375l0 -8.03125l1.609375 -0.28125l0 2.78125z" fill-rule="nonzero"/><path fill="#f3f3f3" d="m203.64842 134.6475q0.03125 0.125 0.03125 0.265625q0 0.125 0 0.265625q0 1.09375 -0.328125 2.15625q-0.328125 1.0625 -0.875 2.03125l-1.25 -0.390625q0.4375 -0.890625 0.578125 -1.796875q0.140625 -0.90625 0.140625 -1.703125q0 -0.234375 -0.015625 -0.4375q0 -0.203125 -0.03125 -0.390625l1.75 0z" fill-rule="nonzero"/><path fill="#f3f3f3" d="m96.89817 159.38q0.984375 0 1.453125 -0.265625q0.484375 -0.265625 0.484375 -0.828125q0 -0.59375 -0.46875 -0.9375q-0.46875 -0.34375 -1.546875 -0.78125q-0.515625 -0.203125 -1.0 -0.421875q-0.46875 -0.21875 -0.8125 -0.515625q-0.34375 -0.296875 -0.5625 -0.703125q-0.203125 -0.421875 -0.203125 -1.03125q0 -1.1875 0.875 -1.890625q0.890625 -0.703125 2.421875 -0.703125q0.375 0 0.75 0.046875q0.390625 0.03125 0.71875 0.09375q0.328125 0.0625 0.578125 0.140625q0.25 0.0625 0.390625 0.109375l-0.296875 1.390625q-0.25 -0.140625 -0.8125 -0.28125q-0.546875 -0.15625 -1.328125 -0.15625q-0.671875 0 -1.1875 0.28125q-0.5 0.265625 -0.5 0.828125q0 0.296875 0.109375 0.53125q0.125 0.21875 0.359375 0.40625q0.234375 0.171875 0.578125 0.328125q0.34375 0.15625 0.828125 0.328125q0.640625 0.25 1.140625 0.484375q0.5 0.234375 0.859375 0.546875q0.359375 0.3125 0.546875 0.75q0.1875 0.4375 0.1875 1.078125q0 1.25 -0.921875 1.890625q-0.921875 0.640625 -2.640625 0.640625q-1.203125 0 -1.875 -0.203125q-0.671875 -0.1875 -0.921875 -0.296875l0.296875 -1.390625q0.28125 0.109375 0.890625 0.328125q0.609375 0.203125 1.609375 0.203125zm7.134552 -7.859375l3.421875 0l0 1.359375l-3.421875 0l0 4.15625q0 0.671875 0.109375 1.125q0.109375 0.4375 0.3125 0.6875q0.203125 0.25 0.515625 0.359375q0.3125 0.09375 0.734375 0.09375q0.71875 0 1.15625 -0.15625q0.453125 -0.171875 0.625 -0.234375l0.3125 1.328125q-0.25 0.125 -0.859375 0.296875q-0.59375 0.1875 -1.375 0.1875q-0.921875 0 -1.53125 -0.234375q-0.59375 -0.234375 -0.953125 -0.703125q-0.359375 -0.46875 -0.515625 -1.140625q-0.140625 -0.6875 -0.140625 -1.59375l0 -8.03125l1.609375 -0.28125l0 2.78125zm8.793991 -0.1875q0.203125 0 0.46875 0.03125q0.265625 0.015625 0.53125 0.0625q0.265625 0.046875 0.46875 0.09375q0.21875 0.046875 0.328125 0.078125l-0.28125 1.40625q-0.1875 -0.078125 -0.640625 -0.171875q-0.4375 -0.09375 -1.125 -0.09375q-0.453125 0 -0.890625 0.09375q-0.4375 0.09375 -0.578125 0.125l0 7.578125l-1.609375 0l0 -8.625q0.5625 -0.21875 1.40625 -0.390625q0.859375 -0.1875 1.921875 -0.1875zm6.407364 8.046875q0.5625 0 1.0 -0.03125q0.453125 -0.03125 0.75 -0.09375l0 -2.6875q-0.171875 -0.09375 -0.5625 -0.140625q-0.390625 -0.0625 -0.953125 -0.0625q-0.359375 0 -0.765625 0.046875q-0.40625 0.046875 -0.75 0.21875q-0.328125 0.15625 -0.5625 0.453125q-0.21875 0.28125 -0.21875 0.75q0 0.859375 0.546875 1.203125q0.5625 0.34375 1.515625 0.34375zm-0.140625 -8.078125q0.96875 0 1.640625 0.25q0.671875 0.25 1.078125 0.71875q0.40625 0.453125 0.578125 1.09375q0.171875 0.625 0.171875 1.390625l0 5.625q-0.203125 0.03125 -0.578125 0.09375q-0.375 0.0625 -0.84375 0.109375q-0.46875 0.0625 -1.015625 0.09375q-0.546875 0.046875 -1.078125 0.046875q-0.765625 0 -1.40625 -0.15625q-0.640625 -0.15625 -1.109375 -0.484375q-0.46875 -0.34375 -0.734375 -0.890625q-0.25 -0.5625 -0.25 -1.34375q0 -0.75 0.296875 -1.28125q0.3125 -0.53125 0.828125 -0.859375q0.515625 -0.328125 1.203125 -0.484375q0.703125 -0.15625 1.46875 -0.15625q0.234375 0 0.484375 0.03125q0.265625 0.015625 0.5 0.0625q0.234375 0.03125 0.40625 0.078125q0.171875 0.03125 0.25 0.046875l0 -0.453125q0 -0.390625 -0.09375 -0.78125q-0.078125 -0.390625 -0.3125 -0.6875q-0.21875 -0.3125 -0.609375 -0.484375q-0.390625 -0.1875 -1.015625 -0.1875q-0.796875 0 -1.390625 0.109375q-0.59375 0.109375 -0.890625 0.234375l-0.1875 -1.34375q0.3125 -0.125 1.03125 -0.25q0.734375 -0.140625 1.578125 -0.140625zm7.638977 0.21875l3.4218674 0l0 1.359375l-3.4218674 0l0 4.15625q0 0.671875 0.109375 1.125q0.109375 0.4375 0.3125 0.6875q0.203125 0.25 0.515625 0.359375q0.3125 0.09375 0.7343674 0.09375q0.71875 0 1.15625 -0.15625q0.453125 -0.171875 0.625 -0.234375l0.3125 1.328125q-0.25 0.125 -0.859375 0.296875q-0.59375 0.1875 -1.375 0.1875q-0.9218674 0 -1.5312424 -0.234375q-0.59375 -0.234375 -0.953125 -0.703125q-0.359375 -0.46875 -0.515625 -1.140625q-0.140625 -0.6875 -0.140625 -1.59375l0 -8.03125l1.609375 -0.28125l0 2.78125zm7.0752335 9.015625l-1.609375 0l0 -9.015625l1.609375 0l0 9.015625zm-0.8125 -10.640625q-0.4375 0 -0.75 -0.28125q-0.296875 -0.296875 -0.296875 -0.78125q0 -0.484375 0.296875 -0.765625q0.3125 -0.28125 0.75 -0.28125q0.421875 0 0.71875 0.28125q0.3125 0.28125 0.3125 0.765625q0 0.484375 -0.3125 0.78125q-0.296875 0.28125 -0.71875 0.28125zm7.1027374 -2.8125q0.609375 0 1.03125 0.078125q0.4375 0.078125 0.625 0.15625l-0.21875 1.390625q-0.1875 -0.078125 -0.515625 -0.15625q-0.328125 -0.078125 -0.796875 -0.078125q-1.125 0 -1.578125 0.625q-0.453125 0.609375 -0.453125 1.640625l0 0.78125l3.46875 0l0 1.359375l-3.46875 0l0 7.65625l-1.609375 0l0 -9.828125q0 -1.734375 0.84375 -2.671875q0.84375 -0.953125 2.671875 -0.953125zm4.84375 13.453125l-1.609375 0l0 -9.015625l1.609375 0l0 9.015625zm-0.8125 -10.640625q-0.421875 0 -0.734375 -0.28125q-0.296875 -0.296875 -0.296875 -0.78125q0 -0.484375 0.296875 -0.765625q0.3125 -0.28125 0.734375 -0.28125q0.4375 0 0.734375 0.28125q0.3125 0.28125 0.3125 0.765625q0 0.484375 -0.3125 0.78125q-0.296875 0.28125 -0.734375 0.28125zm3.095047 6.15625q0 -1.203125 0.34375 -2.09375q0.34375 -0.890625 0.90625 -1.46875q0.578125 -0.59375 1.3125 -0.890625q0.75 -0.296875 1.53125 -0.296875q1.828125 0 2.796875 1.140625q0.96875 1.125 0.96875 3.453125q0 0.09375 0 0.265625q0 0.171875 -0.015625 0.296875l-6.171875 0q0.109375 1.40625 0.8125 2.140625q0.71875 0.71875 2.21875 0.71875q0.859375 0 1.4375 -0.140625q0.578125 -0.140625 0.875 -0.28125l0.21875 1.34375q-0.296875 0.15625 -1.03125 0.328125q-0.734375 0.171875 -1.671875 0.171875q-1.171875 0 -2.03125 -0.34375q-0.859375 -0.359375 -1.421875 -0.984375q-0.546875 -0.625 -0.8125 -1.484375q-0.265625 -0.859375 -0.265625 -1.875zm6.171875 -0.890625q0.03125 -1.09375 -0.546875 -1.78125q-0.5625 -0.703125 -1.546875 -0.703125q-0.546875 0 -0.984375 0.21875q-0.421875 0.203125 -0.71875 0.5625q-0.28125 0.34375 -0.453125 0.796875q-0.15625 0.4375 -0.21875 0.90625l4.46875 0zm7.342621 -3.828125q0.203125 0 0.46875 0.03125q0.265625 0.015625 0.53125 0.0625q0.265625 0.046875 0.46875 0.09375q0.21875 0.046875 0.328125 0.078125l-0.28125 1.40625q-0.1875 -0.078125 -0.640625 -0.171875q-0.4375 -0.09375 -1.125 -0.09375q-0.453125 0 -0.890625 0.09375q-0.4375 0.09375 -0.578125 0.125l0 7.578125l-1.609375 0l0 -8.625q0.5625 -0.21875 1.40625 -0.390625q0.859375 -0.1875 1.921875 -0.1875zm5.266739 8.265625q0 0.46875 -0.3125 0.8125q-0.3125 0.34375 -0.859375 0.34375q-0.53125 0 -0.84375 -0.34375q-0.3125 -0.34375 -0.3125 -0.8125q0 -0.46875 0.3125 -0.8125q0.3125 -0.34375 0.84375 -0.34375q0.546875 0 0.859375 0.34375q0.3125 0.34375 0.3125 0.8125zm0 -6.90625q0 0.46875 -0.3125 0.8125q-0.3125 0.34375 -0.859375 0.34375q-0.53125 0 -0.84375 -0.34375q-0.3125 -0.34375 -0.3125 -0.8125q0 -0.46875 0.3125 -0.8125q0.3125 -0.34375 0.84375 -0.34375q0.546875 0 0.859375 0.34375q0.3125 0.34375 0.3125 0.8125z" fill-rule="nonzero"/><path fill="#97e574" d="m180.31778 156.03625q0 1.0625 -0.3125 1.9375q-0.3125 0.859375 -0.875 1.484375q-0.5625 0.625 -1.34375 0.96875q-0.78125 0.328125 -1.703125 0.328125q-0.921875 0 -1.703125 -0.328125q-0.765625 -0.34375 -1.34375 -0.96875q-0.5625 -0.625 -0.875 -1.484375q-0.296875 -0.875 -0.296875 -1.9375q0 -1.0625 0.296875 -1.9375q0.3125 -0.875 0.875 -1.5q0.578125 -0.625 1.34375 -0.953125q0.78125 -0.34375 1.703125 -0.34375q0.921875 0 1.703125 0.34375q0.78125 0.328125 1.34375 0.953125q0.5625 0.625 0.875 1.5q0.3125 0.875 0.3125 1.9375zm-1.6875 0q0 -1.53125 -0.6875 -2.421875q-0.671875 -0.890625 -1.859375 -0.890625q-1.171875 0 -1.859375 0.890625q-0.6875 0.890625 -0.6875 2.421875q0 1.515625 0.6875 2.40625q0.6875 0.890625 1.859375 0.890625q1.1875 0 1.859375 -0.890625q0.6875 -0.890625 0.6875 -2.40625zm5.5672913 -4.109375q0.296875 -0.1875 0.890625 -0.390625q0.59375 -0.21875 1.375 -0.21875q0.96875 0 1.71875 0.34375q0.765625 0.34375 1.28125 0.96875q0.515625 0.625 0.78125 1.5q0.28125 0.859375 0.28125 1.90625q0 1.09375 -0.328125 1.96875q-0.3125 0.875 -0.90625 1.484375q-0.59375 0.59375 -1.421875 0.921875q-0.828125 0.328125 -1.875 0.328125q-1.125 0 -2.0 -0.15625q-0.859375 -0.15625 -1.40625 -0.3125l0 -12.90625l1.609375 -0.28125l0 4.84375zm0 7.203125q0.234375 0.078125 0.671875 0.140625q0.453125 0.046875 1.109375 0.046875q1.296875 0 2.078125 -0.84375q0.78125 -0.859375 0.78125 -2.4375q0 -0.703125 -0.140625 -1.296875q-0.140625 -0.609375 -0.453125 -1.046875q-0.3125 -0.453125 -0.8125 -0.703125q-0.484375 -0.25 -1.171875 -0.25q-0.65625 0 -1.21875 0.234375q-0.546875 0.21875 -0.84375 0.453125l0 5.703125zm7.1124573 4.640625q-0.203125 0 -0.53125 -0.046875q-0.328125 -0.046875 -0.546875 -0.140625l0.203125 -1.3125q0.171875 0.046875 0.40625 0.078125q0.21875 0.046875 0.40625 0.046875q0.828125 0 1.1875 -0.515625q0.359375 -0.515625 0.359375 -1.5l0 -8.859375l1.609375 0l0 8.84375q0 1.734375 -0.796875 2.5625q-0.78125 0.84375 -2.296875 0.84375zm2.28125 -13.875q-0.4375 0 -0.75 -0.28125q-0.296875 -0.296875 -0.296875 -0.78125q0 -0.484375 0.296875 -0.765625q0.3125 -0.28125 0.75 -0.28125q0.421875 0 0.71875 0.28125q0.3125 0.28125 0.3125 0.765625q0 0.484375 -0.3125 0.78125q-0.296875 0.28125 -0.71875 0.28125zm3.0871124 6.15625q0 -1.203125 0.34375 -2.09375q0.34375 -0.890625 0.90625 -1.46875q0.578125 -0.59375 1.3125 -0.890625q0.75 -0.296875 1.53125 -0.296875q1.828125 0 2.796875 1.140625q0.96875 1.125 0.96875 3.453125q0 0.09375 0 0.265625q0 0.171875 -0.015625 0.296875l-6.171875 0q0.109375 1.40625 0.8125 2.140625q0.71875 0.71875 2.21875 0.71875q0.859375 0 1.4375 -0.140625q0.578125 -0.140625 0.875 -0.28125l0.21875 1.34375q-0.296875 0.15625 -1.03125 0.328125q-0.734375 0.171875 -1.671875 0.171875q-1.171875 0 -2.03125 -0.34375q-0.859375 -0.359375 -1.421875 -0.984375q-0.546875 -0.625 -0.8125 -1.484375q-0.265625 -0.859375 -0.265625 -1.875zm6.171875 -0.890625q0.03125 -1.09375 -0.546875 -1.78125q-0.5625 -0.703125 -1.546875 -0.703125q-0.546875 0 -0.984375 0.21875q-0.421875 0.203125 -0.71875 0.5625q-0.28125 0.34375 -0.453125 0.796875q-0.15625 0.4375 -0.21875 0.90625l4.46875 0zm7.920746 5.578125q-1.09375 0 -1.921875 -0.34375q-0.8125 -0.34375 -1.375 -0.96875q-0.5625 -0.625 -0.84375 -1.484375q-0.265625 -0.859375 -0.265625 -1.890625q0 -1.046875 0.296875 -1.90625q0.296875 -0.875 0.84375 -1.5q0.5625 -0.640625 1.359375 -0.984375q0.8125 -0.359375 1.8125 -0.359375q0.609375 0 1.203125 0.109375q0.609375 0.09375 1.171875 0.328125l-0.375 1.359375q-0.359375 -0.171875 -0.84375 -0.265625q-0.46875 -0.109375 -1.0 -0.109375q-1.359375 0 -2.078125 0.859375q-0.71875 0.84375 -0.71875 2.46875q0 0.71875 0.15625 1.328125q0.171875 0.609375 0.53125 1.046875q0.359375 0.421875 0.90625 0.65625q0.5625 0.234375 1.359375 0.234375q0.640625 0 1.15625 -0.109375q0.515625 -0.125 0.8125 -0.265625l0.234375 1.34375q-0.140625 0.09375 -0.40625 0.171875q-0.265625 0.078125 -0.59375 0.140625q-0.328125 0.0625 -0.703125 0.09375q-0.359375 0.046875 -0.71875 0.046875zm5.6512756 -9.21875l3.421875 0l0 1.359375l-3.421875 0l0 4.15625q0 0.671875 0.109375 1.125q0.109375 0.4375 0.3125 0.6875q0.203125 0.25 0.515625 0.359375q0.3125 0.09375 0.734375 0.09375q0.71875 0 1.15625 -0.15625q0.453125 -0.171875 0.625 -0.234375l0.3125 1.328125q-0.25 0.125 -0.859375 0.296875q-0.59375 0.1875 -1.375 0.1875q-0.921875 0 -1.53125 -0.234375q-0.59375 -0.234375 -0.953125 -0.703125q-0.359375 -0.46875 -0.515625 -1.140625q-0.140625 -0.6875 -0.140625 -1.59375l0 -8.03125l1.609375 -0.28125l0 2.78125z" fill-rule="nonzero"/><path fill="#f3f3f3" d="m48.07004 179.26875q0 -2.21875 -0.640625 -4.09375q-0.640625 -1.890625 -1.890625 -3.5l1.140625 -0.78125q1.34375 1.640625 2.171875 3.78125q0.828125 2.140625 0.828125 4.59375q0 2.46875 -0.828125 4.609375q-0.828125 2.140625 -2.171875 3.78125l-1.140625 -0.78125q1.25 -1.609375 1.890625 -3.5q0.640625 -1.890625 0.640625 -4.109375z" fill-rule="nonzero"/><path fill="#9fc5e8" d="m52.91379 225.90062l2.921875 0l1.46875 -3.40625l1.5625 0l-1.453125 3.40625l1.5625 0l-0.328125 1.375l-1.8125 0l-1.453125 3.34375l2.453125 0l-0.328125 1.375l-2.703125 0l-1.46875 3.421875l-1.5625 0l1.4375 -3.421875l-2.90625 0l-1.453125 3.421875l-1.578125 0l1.4375 -3.421875l-1.59375 0l0.328125 -1.375l1.875 0l1.421875 -3.34375l-2.5 0l0.34375 -1.375l2.734375 0l1.484375 -3.40625l1.5625 0l-1.453125 3.40625zm-2.03125 4.71875l2.921875 0l1.453125 -3.34375l-2.921875 0l-1.453125 3.34375zm12.901413 1.328125q0 -1.265625 0.3750038 -2.4375q0.390625 -1.1875 1.140625 -2.078125q0.75 -0.890625 1.828125 -1.421875q1.078125 -0.53125 2.484375 -0.53125q0.609375 0 1.171875 0.078125q0.5625 0.078125 1.0625 0.328125l-0.65625 1.453125q-0.296875 -0.171875 -0.703125 -0.265625q-0.390625 -0.09375 -1.03125 -0.09375q-0.90625 0 -1.640625 0.40625q-0.71875 0.40625 -1.234375 1.0625q-0.515625 0.65625 -0.796875 1.53125q-0.265625 0.859375 -0.265625 1.796875q0 0.484375 0.109375 0.921875q0.109375 0.421875 0.359375 0.75q0.265625 0.328125 0.703125 0.515625q0.4375 0.1875 1.109375 0.1875q0.34375 0 0.703125 -0.0625q0.375 -0.078125 0.6875 -0.15625q0.328125 -0.09375 0.578125 -0.203125q0.25 -0.109375 0.359375 -0.203125l0.15625 1.484375q-0.359375 0.21875 -1.109375 0.4375q-0.734375 0.21875 -1.6875 0.21875q-0.890625 0 -1.59375 -0.265625q-0.6875 -0.28125 -1.15625 -0.765625q-0.46875 -0.5 -0.71875 -1.1875q-0.23437881 -0.6875 -0.23437881 -1.5zm14.4491005 3.578125q-0.09375 -0.203125 -0.1875 -0.453125q-0.09375 -0.25 -0.15625 -0.53125q-0.40625 0.375 -1.09375 0.75q-0.6875 0.375 -1.703125 0.375q-0.8125 0 -1.40625 -0.265625q-0.59375 -0.265625 -0.96875 -0.734375q-0.359375 -0.46875 -0.546875 -1.09375q-0.171875 -0.640625 -0.171875 -1.40625q0 -1.25 0.421875 -2.4375q0.421875 -1.203125 1.25 -2.125q0.84375 -0.9375 2.109375 -1.515625q1.28125 -0.578125 2.96875 -0.578125q0.5 0 1.171875 0.109375q0.671875 0.109375 1.15625 0.375l-1.421875 5.859375q-0.09375 0.421875 -0.171875 0.828125q-0.0625 0.390625 -0.0625 0.8125q0 0.421875 0.078125 0.875q0.078125 0.4375 0.265625 0.9375l-1.53125 0.21875zm-2.78125 -1.34375q0.78125 0 1.34375 -0.328125q0.5625 -0.34375 0.96875 -0.78125q0.015625 -0.328125 0.0625 -0.671875q0.046875 -0.34375 0.125 -0.703125l1.125 -4.625q-0.09375 -0.03125 -0.3125 -0.046875q-0.21875 -0.015625 -0.390625 -0.015625q-1.0625 0 -1.921875 0.40625q-0.859375 0.40625 -1.46875 1.09375q-0.59375 0.671875 -0.921875 1.578125q-0.328125 0.90625 -0.328125 1.890625q0 0.390625 0.078125 0.796875q0.078125 0.40625 0.265625 0.71875q0.203125 0.296875 0.515625 0.5q0.328125 0.1875 0.859375 0.1875zm6.727127 -2.234375q0 -1.265625 0.375 -2.4375q0.390625 -1.1875 1.140625 -2.078125q0.75 -0.890625 1.828125 -1.421875q1.078125 -0.53125 2.484375 -0.53125q0.609375 0 1.171875 0.078125q0.5625 0.078125 1.0625 0.328125l-0.65625 1.453125q-0.296875 -0.171875 -0.703125 -0.265625q-0.390625 -0.09375 -1.03125 -0.09375q-0.90625 0 -1.640625 0.40625q-0.71875 0.40625 -1.234375 1.0625q-0.515625 0.65625 -0.796875 1.53125q-0.265625 0.859375 -0.265625 1.796875q0 0.484375 0.109375 0.921875q0.109375 0.421875 0.359375 0.75q0.265625 0.328125 0.703125 0.515625q0.4375 0.1875 1.109375 0.1875q0.34375 0 0.703125 -0.0625q0.375 -0.078125 0.6875 -0.15625q0.328125 -0.09375 0.578125 -0.203125q0.25 -0.109375 0.359375 -0.203125l0.15625 1.484375q-0.359375 0.21875 -1.109375 0.4375q-0.734375 0.21875 -1.6875 0.21875q-0.890625 0 -1.59375 -0.265625q-0.6875 -0.28125 -1.15625 -0.765625q-0.46875 -0.5 -0.71875 -1.1875q-0.234375 -0.6875 -0.234375 -1.5zm7.976471 3.46875l3.40625 -14.171875l1.8125 -0.3125l-1.1875 4.90625q0.421875 -0.140625 0.890625 -0.234375q0.484375 -0.09375 0.96875 -0.09375q0.84375 0 1.4375 0.234375q0.609375 0.234375 0.984375 0.640625q0.375 0.390625 0.546875 0.96875q0.1875 0.5625 0.1875 1.234375q0 0.828125 -0.265625 1.859375l-1.1875 4.96875l-1.734375 0l1.09375 -4.59375q0.125 -0.515625 0.25 -1.046875q0.125 -0.546875 0.125 -1.03125q0 -0.75 -0.421875 -1.234375q-0.40625 -0.5 -1.515625 -0.5q-0.453125 0 -0.9375 0.078125q-0.46875 0.078125 -0.78125 0.234375l-1.9375 8.09375l-1.734375 0zm12.688873 -5.09375q1.078125 -0.03125 1.96875 -0.125q0.890625 -0.109375 1.546875 -0.359375q0.65625 -0.265625 1.015625 -0.6875q0.375 -0.4375 0.375 -1.125q0 -0.171875 -0.078125 -0.34375q-0.0625 -0.1875 -0.21875 -0.34375q-0.15625 -0.171875 -0.4375 -0.265625q-0.28125 -0.109375 -0.6875 -0.109375q-0.65625 0 -1.234375 0.28125q-0.5625 0.28125 -1.015625 0.734375q-0.4375 0.453125 -0.765625 1.0625q-0.3125 0.609375 -0.46875 1.28125zm1.765625 5.34375q-0.953125 0 -1.640625 -0.265625q-0.6875 -0.28125 -1.15625 -0.75q-0.46875 -0.484375 -0.703125 -1.109375q-0.21875 -0.640625 -0.21875 -1.359375q0 -1.296875 0.390625 -2.5q0.40625 -1.21875 1.125 -2.15625q0.734375 -0.9375 1.765625 -1.484375q1.046875 -0.546875 2.375 -0.546875q0.765625 0 1.3125 0.203125q0.5625 0.1875 0.90625 0.53125q0.34375 0.328125 0.5 0.765625q0.171875 0.4375 0.171875 0.90625q0 0.875 -0.3125 1.484375q-0.3125 0.609375 -0.84375 1.015625q-0.515625 0.40625 -1.21875 0.640625q-0.703125 0.21875 -1.453125 0.34375q-0.75 0.125 -1.53125 0.171875q-0.78125 0.046875 -1.46875 0.09375q-0.015625 0.140625 -0.015625 0.234375q0 0.09375 0 0.15625q0 0.421875 0.09375 0.8125q0.109375 0.375 0.390625 0.671875q0.28125 0.28125 0.765625 0.453125q0.5 0.171875 1.3125 0.171875q0.34375 0 0.71875 -0.0625q0.390625 -0.078125 0.734375 -0.171875q0.34375 -0.109375 0.609375 -0.203125q0.28125 -0.109375 0.390625 -0.203125l0.15625 1.484375q-0.375 0.203125 -1.203125 0.4375q-0.828125 0.234375 -1.953125 0.234375zm7.9295654 -1.46875q0.390625 0 0.78125 -0.0625q0.40625 -0.078125 0.71875 -0.25q0.3125 -0.171875 0.5 -0.453125q0.203125 -0.296875 0.203125 -0.71875q0 -0.28125 -0.09375 -0.5q-0.09375 -0.21875 -0.296875 -0.390625q-0.203125 -0.1875 -0.515625 -0.359375q-0.3125 -0.1875 -0.734375 -0.40625q-0.4375 -0.21875 -0.796875 -0.421875q-0.34375 -0.203125 -0.625 -0.484375q-0.265625 -0.28125 -0.421875 -0.65625q-0.140625 -0.390625 -0.140625 -0.921875q0 -1.40625 1.0 -2.25q1.015625 -0.84375 2.9375 -0.84375q0.890625 0 1.578125 0.171875q0.6875 0.171875 0.9375 0.328125l-0.640625 1.421875q-0.265625 -0.15625 -0.84375 -0.3125q-0.578125 -0.171875 -1.296875 -0.171875q-0.34375 0 -0.703125 0.078125q-0.359375 0.0625 -0.65625 0.25q-0.28125 0.171875 -0.453125 0.46875q-0.171875 0.28125 -0.171875 0.6875q0 0.5 0.390625 0.828125q0.390625 0.328125 1.171875 0.6875q0.484375 0.21875 0.859375 0.453125q0.390625 0.234375 0.65625 0.53125q0.28125 0.28125 0.421875 0.671875q0.140625 0.390625 0.140625 0.9375q0 0.78125 -0.3125 1.375q-0.296875 0.59375 -0.828125 0.984375q-0.53125 0.390625 -1.265625 0.59375q-0.71875 0.203125 -1.578125 0.203125q-0.625 0 -1.140625 -0.09375q-0.515625 -0.078125 -0.90625 -0.1875q-0.375 -0.125 -0.625 -0.234375q-0.25 -0.125 -0.390625 -0.203125l0.671875 -1.421875q0.140625 0.078125 0.375 0.203125q0.234375 0.109375 0.546875 0.21875q0.328125 0.109375 0.71875 0.1875q0.40625 0.0625 0.828125 0.0625zm15.230347 -8.71875q0.9062424 0 1.5624924 0.265625q0.671875 0.25 1.09375 0.71875q0.4375 0.453125 0.640625 1.078125q0.21875 0.625 0.21875 1.359375q0 1.296875 -0.390625 2.5q-0.390625 1.203125 -1.203125 2.140625q-0.8125 0.921875 -2.0624924 1.484375q-1.234375 0.5625 -2.921875 0.5625q-0.203125 0 -0.453125 -0.03125q-0.234375 -0.015625 -0.421875 -0.046875l-0.8125 3.359375l-1.734375 0l3.0625 -12.75q0.78125 -0.3125 1.703125 -0.46875q0.921875 -0.171875 1.71875 -0.171875zm-3.59375 8.578125q0.1875 0.03125 0.40625 0.046875q0.21875 0 0.421875 0q1.0625 0 1.890625 -0.40625q0.84375 -0.40625 1.4374924 -1.109375q0.59375 -0.703125 0.90625 -1.59375q0.3125 -0.90625 0.3125 -1.90625q0 -0.40625 -0.09375 -0.796875q-0.09375 -0.390625 -0.34375 -0.6875q-0.25 -0.296875 -0.6875 -0.46875q-0.421875 -0.1875 -1.0937424 -0.1875q-0.46875 0 -0.859375 0.09375q-0.390625 0.078125 -0.65625 0.140625l-1.640625 6.875zm13.686302 -8.546875q0.21875 0 0.5 0.015625q0.28125 0.015625 0.546875 0.0625q0.265625 0.046875 0.484375 0.09375q0.234375 0.046875 0.34375 0.109375l-0.5 1.515625q-0.375 -0.15625 -0.859375 -0.21875q-0.484375 -0.078125 -0.9375 -0.078125q-0.390625 0 -0.78125 0.0625q-0.375 0.046875 -0.65625 0.140625l-1.96875 8.203125l-1.734375 0l2.234375 -9.328125q0.75 -0.265625 1.609375 -0.421875q0.859375 -0.15625 1.71875 -0.15625zm3.6749115 4.8125q1.078125 -0.03125 1.96875 -0.125q0.890625 -0.109375 1.546875 -0.359375q0.65625 -0.265625 1.015625 -0.6875q0.375 -0.4375 0.375 -1.125q0 -0.171875 -0.078125 -0.34375q-0.0625 -0.1875 -0.21875 -0.34375q-0.15625 -0.171875 -0.4375 -0.265625q-0.28125 -0.109375 -0.6875 -0.109375q-0.65625 0 -1.234375 0.28125q-0.5625 0.28125 -1.015625 0.734375q-0.4375 0.453125 -0.765625 1.0625q-0.3125 0.609375 -0.46875 1.28125zm1.765625 5.34375q-0.953125 0 -1.640625 -0.265625q-0.6875 -0.28125 -1.15625 -0.75q-0.46875 -0.484375 -0.703125 -1.109375q-0.21875 -0.640625 -0.21875 -1.359375q0 -1.296875 0.390625 -2.5q0.40625 -1.21875 1.125 -2.15625q0.734375 -0.9375 1.765625 -1.484375q1.046875 -0.546875 2.375 -0.546875q0.765625 0 1.3125 0.203125q0.5625 0.1875 0.90625 0.53125q0.34375 0.328125 0.5 0.765625q0.171875 0.4375 0.171875 0.90625q0 0.875 -0.3125 1.484375q-0.3125 0.609375 -0.84375 1.015625q-0.515625 0.40625 -1.21875 0.640625q-0.703125 0.21875 -1.453125 0.34375q-0.75 0.125 -1.53125 0.171875q-0.78125 0.046875 -1.46875 0.09375q-0.015625 0.140625 -0.015625 0.234375q0 0.09375 0 0.15625q0 0.421875 0.09375 0.8125q0.109375 0.375 0.390625 0.671875q0.28125 0.28125 0.765625 0.453125q0.5 0.171875 1.3125 0.171875q0.34375 0 0.71875 -0.0625q0.390625 -0.078125 0.734375 -0.171875q0.34375 -0.109375 0.609375 -0.203125q0.28125 -0.109375 0.390625 -0.203125l0.15625 1.484375q-0.375 0.203125 -1.203125 0.4375q-0.828125 0.234375 -1.953125 0.234375zm11.16394 -10.1875q0.90625 0 1.5625 0.265625q0.671875 0.25 1.09375 0.71875q0.4375 0.453125 0.640625 1.078125q0.21875 0.625 0.21875 1.359375q0 1.296875 -0.390625 2.5q-0.390625 1.203125 -1.203125 2.140625q-0.8125 0.921875 -2.0625 1.484375q-1.234375 0.5625 -2.921875 0.5625q-0.203125 0 -0.453125 -0.03125q-0.234375 -0.015625 -0.421875 -0.046875l-0.8125 3.359375l-1.734375 0l3.0625 -12.75q0.78125 -0.3125 1.703125 -0.46875q0.921875 -0.171875 1.71875 -0.171875zm-3.59375 8.578125q0.1875 0.03125 0.40625 0.046875q0.21875 0 0.421875 0q1.0625 0 1.890625 -0.40625q0.84375 -0.40625 1.4375 -1.109375q0.59375 -0.703125 0.90625 -1.59375q0.3125 -0.90625 0.3125 -1.90625q0 -0.40625 -0.09375 -0.796875q-0.09375 -0.390625 -0.34375 -0.6875q-0.25 -0.296875 -0.6875 -0.46875q-0.421875 -0.1875 -1.09375 -0.1875q-0.46875 0 -0.859375 0.09375q-0.390625 0.078125 -0.65625 0.140625l-1.640625 6.875zm13.68631 -8.546875q0.21875 0 0.5 0.015625q0.28125 0.015625 0.546875 0.0625q0.265625 0.046875 0.484375 0.09375q0.234375 0.046875 0.34375 0.109375l-0.5 1.515625q-0.375 -0.15625 -0.859375 -0.21875q-0.484375 -0.078125 -0.9375 -0.078125q-0.390625 0 -0.78125 0.0625q-0.375 0.046875 -0.65625 0.140625l-1.96875 8.203125l-1.734375 0l2.234375 -9.328125q0.75 -0.265625 1.609375 -0.421875q0.859375 -0.15625 1.71875 -0.15625zm4.9874115 10.15625q-1.53125 0 -2.40625 -0.90625q-0.859375 -0.90625 -0.859375 -2.5q0 -1.078125 0.3125 -2.265625q0.3125 -1.203125 0.984375 -2.203125q0.671875 -1.015625 1.734375 -1.65625q1.0625 -0.65625 2.578125 -0.65625q1.53125 0 2.390625 0.90625q0.875 0.890625 0.875 2.484375q0 1.078125 -0.3125 2.28125q-0.3125 1.1875 -0.984375 2.203125q-0.671875 1.0 -1.734375 1.65625q-1.0625 0.65625 -2.578125 0.65625zm0.296875 -1.484375q0.84375 0 1.5 -0.484375q0.671875 -0.484375 1.125 -1.234375q0.453125 -0.765625 0.703125 -1.671875q0.25 -0.921875 0.25 -1.78125q0 -0.9375 -0.421875 -1.5q-0.40625 -0.5625 -1.421875 -0.5625q-0.828125 0 -1.5 0.484375q-0.65625 0.484375 -1.125 1.25q-0.453125 0.75 -0.703125 1.671875q-0.234375 0.90625 -0.234375 1.765625q0 0.953125 0.40625 1.515625q0.421875 0.546875 1.421875 0.546875zm6.7917175 -2.234375q0 -1.265625 0.375 -2.4375q0.390625 -1.1875 1.140625 -2.078125q0.75 -0.890625 1.828125 -1.421875q1.078125 -0.53125 2.484375 -0.53125q0.609375 0 1.171875 0.078125q0.5625 0.078125 1.0625 0.328125l-0.65625 1.453125q-0.296875 -0.171875 -0.703125 -0.265625q-0.390625 -0.09375 -1.03125 -0.09375q-0.90625 0 -1.640625 0.40625q-0.71875 0.40625 -1.234375 1.0625q-0.515625 0.65625 -0.796875 1.53125q-0.265625 0.859375 -0.265625 1.796875q0 0.484375 0.109375 0.921875q0.109375 0.421875 0.359375 0.75q0.265625 0.328125 0.703125 0.515625q0.4375 0.1875 1.109375 0.1875q0.34375 0 0.703125 -0.0625q0.375 -0.078125 0.6875 -0.15625q0.328125 -0.09375 0.578125 -0.203125q0.25 -0.109375 0.359375 -0.203125l0.15625 1.484375q-0.359375 0.21875 -1.109375 0.4375q-0.734375 0.21875 -1.6875 0.21875q-0.890625 0 -1.59375 -0.265625q-0.6875 -0.28125 -1.15625 -0.765625q-0.46875 -0.5 -0.71875 -1.1875q-0.234375 -0.6875 -0.234375 -1.5zm10.180435 -1.625q1.078125 -0.03125 1.96875 -0.125q0.890625 -0.109375 1.546875 -0.359375q0.65625 -0.265625 1.015625 -0.6875q0.375 -0.4375 0.375 -1.125q0 -0.171875 -0.078125 -0.34375q-0.0625 -0.1875 -0.21875 -0.34375q-0.15625 -0.171875 -0.4375 -0.265625q-0.28125 -0.109375 -0.6875 -0.109375q-0.65625 0 -1.234375 0.28125q-0.5625 0.28125 -1.015625 0.734375q-0.4375 0.453125 -0.765625 1.0625q-0.3125 0.609375 -0.46875 1.28125zm1.765625 5.34375q-0.953125 0 -1.640625 -0.265625q-0.6875 -0.28125 -1.15625 -0.75q-0.46875 -0.484375 -0.703125 -1.109375q-0.21875 -0.640625 -0.21875 -1.359375q0 -1.296875 0.390625 -2.5q0.40625 -1.21875 1.125 -2.15625q0.734375 -0.9375 1.765625 -1.484375q1.046875 -0.546875 2.375 -0.546875q0.765625 0 1.3125 0.203125q0.5625 0.1875 0.90625 0.53125q0.34375 0.328125 0.5 0.765625q0.171875 0.4375 0.171875 0.90625q0 0.875 -0.3125 1.484375q-0.3125 0.609375 -0.84375 1.015625q-0.515625 0.40625 -1.21875 0.640625q-0.703125 0.21875 -1.453125 0.34375q-0.75 0.125 -1.53125 0.171875q-0.78125 0.046875 -1.46875 0.09375q-0.015625 0.140625 -0.015625 0.234375q0 0.09375 0 0.15625q0 0.421875 0.09375 0.8125q0.109375 0.375 0.390625 0.671875q0.28125 0.28125 0.765625 0.453125q0.5 0.171875 1.3125 0.171875q0.34375 0 0.71875 -0.0625q0.390625 -0.078125 0.734375 -0.171875q0.34375 -0.109375 0.609375 -0.203125q0.28125 -0.109375 0.390625 -0.203125l0.15625 1.484375q-0.375 0.203125 -1.203125 0.4375q-0.828125 0.234375 -1.953125 0.234375zm7.9295654 -1.46875q0.390625 0 0.78125 -0.0625q0.40625 -0.078125 0.71875 -0.25q0.3125 -0.171875 0.5 -0.453125q0.203125 -0.296875 0.203125 -0.71875q0 -0.28125 -0.09375 -0.5q-0.09375 -0.21875 -0.296875 -0.390625q-0.203125 -0.1875 -0.515625 -0.359375q-0.3125 -0.1875 -0.734375 -0.40625q-0.4375 -0.21875 -0.796875 -0.421875q-0.34375 -0.203125 -0.625 -0.484375q-0.265625 -0.28125 -0.421875 -0.65625q-0.140625 -0.390625 -0.140625 -0.921875q0 -1.40625 1.0 -2.25q1.015625 -0.84375 2.9375 -0.84375q0.890625 0 1.578125 0.171875q0.6875 0.171875 0.9375 0.328125l-0.640625 1.421875q-0.265625 -0.15625 -0.84375 -0.3125q-0.578125 -0.171875 -1.296875 -0.171875q-0.34375 0 -0.703125 0.078125q-0.359375 0.0625 -0.65625 0.25q-0.28125 0.171875 -0.453125 0.46875q-0.171875 0.28125 -0.171875 0.6875q0 0.5 0.390625 0.828125q0.390625 0.328125 1.171875 0.6875q0.484375 0.21875 0.859375 0.453125q0.390625 0.234375 0.65625 0.53125q0.28125 0.28125 0.421875 0.671875q0.140625 0.390625 0.140625 0.9375q0 0.78125 -0.3125 1.375q-0.296875 0.59375 -0.828125 0.984375q-0.53125 0.390625 -1.265625 0.59375q-0.71875 0.203125 -1.578125 0.203125q-0.625 0 -1.140625 -0.09375q-0.515625 -0.078125 -0.90625 -0.1875q-0.375 -0.125 -0.625 -0.234375q-0.25 -0.125 -0.390625 -0.203125l0.671875 -1.421875q0.140625 0.078125 0.375 0.203125q0.234375 0.109375 0.546875 0.21875q0.328125 0.109375 0.71875 0.1875q0.40625 0.0625 0.828125 0.0625zm7.686371 0q0.390625 0 0.78125 -0.0625q0.40625 -0.078125 0.71875 -0.25q0.3125 -0.171875 0.5 -0.453125q0.203125 -0.296875 0.203125 -0.71875q0 -0.28125 -0.09375 -0.5q-0.09375 -0.21875 -0.296875 -0.390625q-0.203125 -0.1875 -0.515625 -0.359375q-0.3125 -0.1875 -0.734375 -0.40625q-0.4375 -0.21875 -0.796875 -0.421875q-0.34375 -0.203125 -0.625 -0.484375q-0.265625 -0.28125 -0.421875 -0.65625q-0.140625 -0.390625 -0.140625 -0.921875q0 -1.40625 1.0 -2.25q1.015625 -0.84375 2.9375 -0.84375q0.890625 0 1.578125 0.171875q0.6875 0.171875 0.9375 0.328125l-0.640625 1.421875q-0.265625 -0.15625 -0.84375 -0.3125q-0.578125 -0.171875 -1.296875 -0.171875q-0.34375 0 -0.703125 0.078125q-0.359375 0.0625 -0.65625 0.25q-0.28125 0.171875 -0.453125 0.46875q-0.171875 0.28125 -0.171875 0.6875q0 0.5 0.390625 0.828125q0.390625 0.328125 1.171875 0.6875q0.484375 0.21875 0.859375 0.453125q0.390625 0.234375 0.65625 0.53125q0.28125 0.28125 0.421875 0.671875q0.140625 0.390625 0.140625 0.9375q0 0.78125 -0.3125 1.375q-0.296875 0.59375 -0.828125 0.984375q-0.53125 0.390625 -1.265625 0.59375q-0.71875 0.203125 -1.578125 0.203125q-0.625 0 -1.140625 -0.09375q-0.515625 -0.078125 -0.90625 -0.1875q-0.375 -0.125 -0.625 -0.234375q-0.25 -0.125 -0.390625 -0.203125l0.671875 -1.421875q0.140625 0.078125 0.375 0.203125q0.234375 0.109375 0.546875 0.21875q0.328125 0.109375 0.71875 0.1875q0.40625 0.0625 0.828125 0.0625zm7.655121 -3.875q1.078125 -0.03125 1.96875 -0.125q0.890625 -0.109375 1.546875 -0.359375q0.65625 -0.265625 1.015625 -0.6875q0.375 -0.4375 0.375 -1.125q0 -0.171875 -0.078125 -0.34375q-0.0625 -0.1875 -0.21875 -0.34375q-0.15625 -0.171875 -0.4375 -0.265625q-0.28125 -0.109375 -0.6875 -0.109375q-0.65625 0 -1.234375 0.28125q-0.5625 0.28125 -1.015625 0.734375q-0.4375 0.453125 -0.765625 1.0625q-0.3125 0.609375 -0.46875 1.28125zm1.765625 5.34375q-0.953125 0 -1.640625 -0.265625q-0.6875 -0.28125 -1.15625 -0.75q-0.46875 -0.484375 -0.703125 -1.109375q-0.21875 -0.640625 -0.21875 -1.359375q0 -1.296875 0.390625 -2.5q0.40625 -1.21875 1.125 -2.15625q0.734375 -0.9375 1.765625 -1.484375q1.046875 -0.546875 2.375 -0.546875q0.765625 0 1.3125 0.203125q0.5625 0.1875 0.90625 0.53125q0.34375 0.328125 0.5 0.765625q0.171875 0.4375 0.171875 0.90625q0 0.875 -0.3125 1.484375q-0.3125 0.609375 -0.84375 1.015625q-0.515625 0.40625 -1.21875 0.640625q-0.703125 0.21875 -1.453125 0.34375q-0.75 0.125 -1.53125 0.171875q-0.78125 0.046875 -1.46875 0.09375q-0.015625 0.140625 -0.015625 0.234375q0 0.09375 0 0.15625q0 0.421875 0.09375 0.8125q0.109375 0.375 0.390625 0.671875q0.28125 0.28125 0.765625 0.453125q0.5 0.171875 1.3125 0.171875q0.34375 0 0.71875 -0.0625q0.390625 -0.078125 0.734375 -0.171875q0.34375 -0.109375 0.609375 -0.203125q0.28125 -0.109375 0.390625 -0.203125l0.15625 1.484375q-0.375 0.203125 -1.203125 0.4375q-0.828125 0.234375 -1.953125 0.234375zm13.398315 -2.171875q0 0.421875 0.0625 0.875q0.078125 0.4375 0.265625 0.9375l-1.53125 0.21875q-0.203125 -0.40625 -0.3125 -0.984375q-0.40625 0.375 -1.109375 0.75q-0.6875 0.375 -1.6875 0.375q-0.828125 0 -1.421875 -0.25q-0.59375 -0.265625 -0.984375 -0.71875q-0.390625 -0.46875 -0.578125 -1.109375q-0.1875 -0.65625 -0.1875 -1.421875q0 -1.25 0.421875 -2.4375q0.421875 -1.203125 1.25 -2.125q0.828125 -0.9375 2.078125 -1.5q1.25 -0.578125 2.90625 -0.578125q0.203125 0 0.40625 0.03125q0.21875 0.015625 0.4375 0.046875l1.046875 -4.359375l1.8125 -0.3125l-2.640625 10.921875q-0.09375 0.421875 -0.171875 0.828125q-0.0625 0.390625 -0.0625 0.8125zm-3.953125 0.6875q0.78125 0 1.328125 -0.328125q0.546875 -0.328125 0.96875 -0.75q0.015625 -0.296875 0.0625 -0.640625q0.046875 -0.34375 0.140625 -0.765625l1.109375 -4.65625q-0.15625 -0.03125 -0.375 -0.046875q-0.203125 -0.015625 -0.390625 -0.015625q-1.0625 0 -1.921875 0.421875q-0.859375 0.40625 -1.46875 1.09375q-0.59375 0.6875 -0.921875 1.59375q-0.328125 0.90625 -0.328125 1.890625q0 0.4375 0.09375 0.828125q0.09375 0.390625 0.296875 0.703125q0.203125 0.296875 0.546875 0.484375q0.34375 0.1875 0.859375 0.1875zm12.998947 0.015625q0.390625 0 0.78125 -0.0625q0.40625 -0.078125 0.71875 -0.25q0.3125 -0.171875 0.5 -0.453125q0.203125 -0.296875 0.203125 -0.71875q0 -0.28125 -0.09375 -0.5q-0.09375 -0.21875 -0.296875 -0.390625q-0.203125 -0.1875 -0.515625 -0.359375q-0.3125 -0.1875 -0.734375 -0.40625q-0.4375 -0.21875 -0.796875 -0.421875q-0.34375 -0.203125 -0.625 -0.484375q-0.265625 -0.28125 -0.421875 -0.65625q-0.140625 -0.390625 -0.140625 -0.921875q0 -1.40625 1.0 -2.25q1.015625 -0.84375 2.9375 -0.84375q0.890625 0 1.578125 0.171875q0.6875 0.171875 0.9375 0.328125l-0.640625 1.421875q-0.265625 -0.15625 -0.84375 -0.3125q-0.578125 -0.171875 -1.296875 -0.171875q-0.34375 0 -0.703125 0.078125q-0.359375 0.0625 -0.65625 0.25q-0.28125 0.171875 -0.453125 0.46875q-0.171875 0.28125 -0.171875 0.6875q0 0.5 0.390625 0.828125q0.390625 0.328125 1.171875 0.6875q0.484375 0.21875 0.859375 0.453125q0.390625 0.234375 0.65625 0.53125q0.28125 0.28125 0.421875 0.671875q0.140625 0.390625 0.140625 0.9375q0 0.78125 -0.3125 1.375q-0.296875 0.59375 -0.828125 0.984375q-0.53125 0.390625 -1.265625 0.59375q-0.71875 0.203125 -1.578125 0.203125q-0.625 0 -1.140625 -0.09375q-0.515625 -0.078125 -0.90625 -0.1875q-0.375 -0.125 -0.625 -0.234375q-0.25 -0.125 -0.390625 -0.203125l0.671875 -1.421875q0.140625 0.078125 0.375 0.203125q0.234375 0.109375 0.546875 0.21875q0.328125 0.109375 0.71875 0.1875q0.40625 0.0625 0.828125 0.0625zm10.920746 -8.71875q0.90625 0 1.5625 0.265625q0.671875 0.25 1.09375 0.71875q0.4375 0.453125 0.640625 1.078125q0.21875 0.625 0.21875 1.359375q0 1.296875 -0.390625 2.5q-0.390625 1.203125 -1.203125 2.140625q-0.8125 0.921875 -2.0625 1.484375q-1.234375 0.5625 -2.921875 0.5625q-0.203125 0 -0.453125 -0.03125q-0.234375 -0.015625 -0.421875 -0.046875l-0.8125 3.359375l-1.734375 0l3.0625 -12.75q0.78125 -0.3125 1.703125 -0.46875q0.921875 -0.171875 1.71875 -0.171875zm-3.59375 8.578125q0.1875 0.03125 0.40625 0.046875q0.21875 0 0.421875 0q1.0625 0 1.890625 -0.40625q0.84375 -0.40625 1.4375 -1.109375q0.59375 -0.703125 0.90625 -1.59375q0.3125 -0.90625 0.3125 -1.90625q0 -0.40625 -0.09375 -0.796875q-0.09375 -0.390625 -0.34375 -0.6875q-0.25 -0.296875 -0.6875 -0.46875q-0.421875 -0.1875 -1.09375 -0.1875q-0.46875 0 -0.859375 0.09375q-0.390625 0.078125 -0.65625 0.140625l-1.640625 6.875zm10.71756 -2.90625q-0.09375 0.40625 -0.1875 0.796875q-0.09375 0.390625 -0.09375 0.75q0 0.625 0.296875 1.0q0.3125 0.375 1.15625 0.46875l-0.390625 1.421875q-0.765625 -0.015625 -1.296875 -0.234375q-0.53125 -0.21875 -0.859375 -0.5625q-0.328125 -0.359375 -0.484375 -0.84375q-0.140625 -0.484375 -0.140625 -1.0625q0 -0.4375 0.078125 -0.90625q0.078125 -0.46875 0.203125 -0.96875l2.34375 -9.765625l1.8125 -0.3125l-2.4375 10.21875zm4.2897644 4.265625l-1.734375 0l2.328125 -9.703125l1.734375 0l-2.328125 9.703125zm2.015625 -11.453125q-0.4375 0 -0.734375 -0.265625q-0.28125 -0.265625 -0.28125 -0.71875q0 -0.609375 0.375 -0.953125q0.375 -0.34375 0.84375 -0.34375q0.421875 0 0.71875 0.28125q0.3125 0.265625 0.3125 0.75q0 0.5625 -0.40625 0.90625q-0.390625 0.34375 -0.828125 0.34375zm4.2078857 11.71875q-1.390625 0 -2.046875 -0.609375q-0.65625 -0.625 -0.65625 -1.796875q0 -0.765625 0.265625 -1.96875l2.0 -8.296875l1.796875 -0.296875l-0.71875 3.0l3.296875 0l-0.34375 1.453125l-3.3125 0l-1.015625 4.296875q-0.234375 0.875 -0.234375 1.53125q0 0.609375 0.328125 0.890625q0.34375 0.265625 1.125 0.265625q0.546875 0 1.0625 -0.171875q0.53125 -0.1875 0.8125 -0.328125l0.125 1.46875q-0.28125 0.171875 -0.953125 0.359375q-0.671875 0.203125 -1.53125 0.203125zm6.6279907 -1.484375q0.390625 0 0.78125 -0.0625q0.40625 -0.078125 0.71875 -0.25q0.3125 -0.171875 0.5 -0.453125q0.203125 -0.296875 0.203125 -0.71875q0 -0.28125 -0.09375 -0.5q-0.09375 -0.21875 -0.296875 -0.390625q-0.203125 -0.1875 -0.515625 -0.359375q-0.3125 -0.1875 -0.734375 -0.40625q-0.4375 -0.21875 -0.796875 -0.421875q-0.34375 -0.203125 -0.625 -0.484375q-0.265625 -0.28125 -0.421875 -0.65625q-0.140625 -0.390625 -0.140625 -0.921875q0 -1.40625 1.0 -2.25q1.015625 -0.84375 2.9375 -0.84375q0.890625 0 1.578125 0.171875q0.6875 0.171875 0.9375 0.328125l-0.640625 1.421875q-0.265625 -0.15625 -0.84375 -0.3125q-0.578125 -0.171875 -1.296875 -0.171875q-0.34375 0 -0.703125 0.078125q-0.359375 0.0625 -0.65625 0.25q-0.28125 0.171875 -0.453125 0.46875q-0.171875 0.28125 -0.171875 0.6875q0 0.5 0.390625 0.828125q0.390625 0.328125 1.171875 0.6875q0.484375 0.21875 0.859375 0.453125q0.390625 0.234375 0.65625 0.53125q0.28125 0.28125 0.421875 0.671875q0.140625 0.390625 0.140625 0.9375q0 0.78125 -0.3125 1.375q-0.296875 0.59375 -0.828125 0.984375q-0.53125 0.390625 -1.265625 0.59375q-0.71875 0.203125 -1.578125 0.203125q-0.625 0 -1.140625 -0.09375q-0.515625 -0.078125 -0.90625 -0.1875q-0.375 -0.125 -0.625 -0.234375q-0.25 -0.125 -0.390625 -0.203125l0.671875 -1.421875q0.140625 0.078125 0.375 0.203125q0.234375 0.109375 0.546875 0.21875q0.328125 0.109375 0.71875 0.1875q0.40625 0.0625 0.828125 0.0625z" fill-rule="nonzero"/><path fill="#9fc5e8" d="m52.91379 251.66061l2.921875 0l1.46875 -3.40625l1.5625 0l-1.453125 3.40625l1.5625 0l-0.328125 1.375l-1.8125 0l-1.453125 3.34375l2.453125 0l-0.328125 1.375l-2.703125 0l-1.46875 3.421875l-1.5625 0l1.4375 -3.421875l-2.90625 0l-1.453125 3.421875l-1.578125 0l1.4375 -3.421875l-1.59375 0l0.328125 -1.375l1.875 0l1.421875 -3.34375l-2.5 0l0.34375 -1.375l2.734375 0l1.484375 -3.40625l1.5625 0l-1.453125 3.40625zm-2.03125 4.71875l2.921875 0l1.453125 -3.34375l-2.921875 0l-1.453125 3.34375zm18.026417 -5.109375q0.21875 0 0.5 0.015625q0.28125 0.015625 0.546875 0.0625q0.265625 0.046875 0.484375 0.09375q0.234375 0.046875 0.34375 0.109375l-0.5 1.515625q-0.375 -0.15625 -0.859375 -0.21875q-0.484375 -0.078125 -0.9375 -0.078125q-0.390625 0 -0.78125 0.0625q-0.375 0.046875 -0.65625 0.140625l-1.96875 8.203125l-1.7343788 0l2.2343788 -9.328125q0.75 -0.265625 1.609375 -0.421875q0.859375 -0.15625 1.71875 -0.15625zm3.6749115 4.8125q1.078125 -0.03125 1.96875 -0.125q0.890625 -0.109375 1.546875 -0.359375q0.65625 -0.265625 1.015625 -0.6875q0.375 -0.4375 0.375 -1.125q0 -0.171875 -0.078125 -0.34375q-0.0625 -0.1875 -0.21875 -0.34375q-0.15625 -0.171875 -0.4375 -0.265625q-0.28125 -0.109375 -0.6875 -0.109375q-0.65625 0 -1.234375 0.28125q-0.5625 0.28125 -1.015625 0.734375q-0.4375 0.453125 -0.765625 1.0625q-0.3125 0.609375 -0.46875 1.28125zm1.765625 5.34375q-0.953125 0 -1.640625 -0.265625q-0.6875 -0.28125 -1.15625 -0.75q-0.46875 -0.484375 -0.703125 -1.109375q-0.21875 -0.640625 -0.21875 -1.359375q0 -1.296875 0.390625 -2.5q0.40625 -1.21875 1.125 -2.15625q0.734375 -0.9375 1.765625 -1.484375q1.046875 -0.546875 2.375 -0.546875q0.765625 0 1.3125 0.203125q0.5625 0.1875 0.90625 0.53125q0.34375 0.328125 0.5 0.765625q0.171875 0.4375 0.171875 0.90625q0 0.875 -0.3125 1.484375q-0.3125 0.609375 -0.84375 1.015625q-0.515625 0.40625 -1.21875 0.640625q-0.703125 0.21875 -1.453125 0.34375q-0.75 0.125 -1.53125 0.171875q-0.78125 0.046875 -1.46875 0.09375q-0.015625 0.140625 -0.015625 0.234375q0 0.09375 0 0.15625q0 0.421875 0.09375 0.8125q0.109375 0.375 0.390625 0.671875q0.28125 0.28125 0.765625 0.453125q0.5 0.171875 1.3125 0.171875q0.34375 0 0.71875 -0.0625q0.390625 -0.078125 0.734375 -0.171875q0.34375 -0.109375 0.609375 -0.203125q0.28125 -0.109375 0.390625 -0.203125l0.15625 1.484375q-0.375 0.203125 -1.203125 0.4375q-0.828125 0.234375 -1.953125 0.234375zm11.07019 -10.15625q0.21875 0 0.5 0.015625q0.28125 0.015625 0.546875 0.0625q0.265625 0.046875 0.484375 0.09375q0.234375 0.046875 0.34375 0.109375l-0.5 1.515625q-0.375 -0.15625 -0.859375 -0.21875q-0.484375 -0.078125 -0.9375 -0.078125q-0.390625 0 -0.78125 0.0625q-0.375 0.046875 -0.65625 0.140625l-1.96875 8.203125l-1.734375 0l2.234375 -9.328125q0.75 -0.265625 1.609375 -0.421875q0.859375 -0.15625 1.71875 -0.15625zm4.9244995 10.15625q-0.828125 0 -1.375 -0.25q-0.546875 -0.25 -0.90625 -0.65625q-0.34375 -0.40625 -0.5 -0.96875q-0.140625 -0.5625 -0.140625 -1.1875q0 -0.484375 0.078125 -0.953125q0.09375 -0.484375 0.203125 -0.96875l1.203125 -4.96875l1.734375 0l-1.109375 4.59375q-0.09375 0.421875 -0.25 1.0q-0.140625 0.578125 -0.140625 1.15625q0 0.34375 0.0625 0.65625q0.078125 0.296875 0.25 0.53125q0.171875 0.234375 0.46875 0.375q0.296875 0.140625 0.75 0.140625q0.796875 0 1.40625 -0.34375q0.609375 -0.34375 1.015625 -0.8125q0.03125 -0.296875 0.0625 -0.609375q0.03125 -0.328125 0.125 -0.703125l1.4375 -5.984375l1.734375 0l-1.46875 6.140625q-0.09375 0.421875 -0.15625 0.828125q-0.0625 0.40625 -0.0625 0.828125q0 0.4375 0.0625 0.875q0.078125 0.421875 0.265625 0.921875l-1.53125 0.21875q-0.09375 -0.203125 -0.1875 -0.453125q-0.09375 -0.265625 -0.140625 -0.578125q-0.203125 0.1875 -0.484375 0.40625q-0.28125 0.203125 -0.65625 0.375q-0.359375 0.15625 -0.796875 0.265625q-0.4375 0.125 -0.953125 0.125zm8.448441 -0.25l-1.734375 0l2.234375 -9.328125q0.859375 -0.265625 1.859375 -0.421875q1.0 -0.15625 1.78125 -0.15625q0.84375 0 1.4375 0.234375q0.609375 0.234375 0.984375 0.640625q0.375 0.390625 0.546875 0.96875q0.1875 0.5625 0.1875 1.234375q0 0.421875 -0.078125 0.90625q-0.078125 0.46875 -0.1875 0.953125l-1.1875 4.96875l-1.75 0l1.109375 -4.59375q0.125 -0.515625 0.25 -1.046875q0.125 -0.546875 0.125 -1.03125q0 -0.75 -0.421875 -1.234375q-0.40625 -0.5 -1.515625 -0.5q-0.46875 0 -0.921875 0.0625q-0.453125 0.046875 -0.75 0.140625l-1.96875 8.203125zm20.745453 -1.921875q0 0.421875 0.0625 0.875q0.078125 0.4375 0.265625 0.9375l-1.53125 0.21875q-0.203125 -0.40625 -0.3125 -0.984375q-0.40625 0.375 -1.109375 0.75q-0.6875 0.375 -1.6875 0.375q-0.828125 0 -1.421875 -0.25q-0.59375 -0.265625 -0.984375 -0.71875q-0.390625 -0.46875 -0.578125 -1.109375q-0.1875 -0.65625 -0.1875 -1.421875q0 -1.25 0.421875 -2.4375q0.421875 -1.203125 1.25 -2.125q0.828125 -0.9375 2.078125 -1.5q1.25 -0.578125 2.90625 -0.578125q0.203125 0 0.40625 0.03125q0.21875 0.015625 0.4375 0.046875l1.046875 -4.359375l1.8125 -0.3125l-2.640625 10.921875q-0.09375 0.421875 -0.171875 0.828125q-0.0625 0.390625 -0.0625 0.8125zm-3.953125 0.6875q0.78125 0 1.328125 -0.328125q0.546875 -0.328125 0.96875 -0.75q0.015625 -0.296875 0.0625 -0.640625q0.046875 -0.34375 0.140625 -0.765625l1.109375 -4.65625q-0.15625 -0.03125 -0.375 -0.046875q-0.203125 -0.015625 -0.390625 -0.015625q-1.0625 0 -1.921875 0.421875q-0.859375 0.40625 -1.46875 1.09375q-0.59375 0.6875 -0.921875 1.59375q-0.328125 0.90625 -0.328125 1.890625q0 0.4375 0.09375 0.828125q0.09375 0.390625 0.296875 0.703125q0.203125 0.296875 0.546875 0.484375q0.34375 0.1875 0.859375 0.1875zm9.814346 1.484375q-0.828125 0 -1.375 -0.25q-0.546875 -0.25 -0.90625 -0.65625q-0.34375 -0.40625 -0.5 -0.96875q-0.140625 -0.5625 -0.140625 -1.1875q0 -0.484375 0.078125 -0.953125q0.09375 -0.484375 0.203125 -0.96875l1.203125 -4.96875l1.734375 0l-1.109375 4.59375q-0.09375 0.421875 -0.25 1.0q-0.140625 0.578125 -0.140625 1.15625q0 0.34375 0.0625 0.65625q0.078125 0.296875 0.25 0.53125q0.171875 0.234375 0.46875 0.375q0.296875 0.140625 0.75 0.140625q0.796875 0 1.40625 -0.34375q0.609375 -0.34375 1.0156174 -0.8125q0.03125 -0.296875 0.0625 -0.609375q0.03125 -0.328125 0.125 -0.703125l1.4375 -5.984375l1.734375 0l-1.46875 6.140625q-0.09375 0.421875 -0.15625 0.828125q-0.0625 0.40625 -0.0625 0.828125q0 0.4375 0.0625 0.875q0.078125 0.421875 0.265625 0.921875l-1.53125 0.21875q-0.09375 -0.203125 -0.1875 -0.453125q-0.09375 -0.265625 -0.140625 -0.578125q-0.203125 0.1875 -0.48436737 0.40625q-0.28125 0.203125 -0.65625 0.375q-0.359375 0.15625 -0.796875 0.265625q-0.4375 0.125 -0.953125 0.125zm12.276558 -10.15625q0.21875 0 0.5 0.015625q0.28125 0.015625 0.546875 0.0625q0.265625 0.046875 0.484375 0.09375q0.234375 0.046875 0.34375 0.109375l-0.5 1.515625q-0.375 -0.15625 -0.859375 -0.21875q-0.484375 -0.078125 -0.9375 -0.078125q-0.390625 0 -0.78125 0.0625q-0.375 0.046875 -0.65625 0.140625l-1.96875 8.203125l-1.734375 0l2.234375 -9.328125q0.75 -0.265625 1.609375 -0.421875q0.859375 -0.15625 1.71875 -0.15625zm3.1119995 9.90625l-1.734375 0l2.328125 -9.703125l1.734375 0l-2.328125 9.703125zm2.015625 -11.453125q-0.4375 0 -0.734375 -0.265625q-0.28125 -0.265625 -0.28125 -0.71875q0 -0.609375 0.375 -0.953125q0.375 -0.34375 0.84375 -0.34375q0.421875 0 0.71875 0.28125q0.3125 0.265625 0.3125 0.75q0 0.5625 -0.40625 0.90625q-0.390625 0.34375 -0.828125 0.34375zm2.629776 11.453125l-1.734375 0l2.234375 -9.328125q0.859375 -0.265625 1.859375 -0.421875q1.0 -0.15625 1.78125 -0.15625q0.84375 0 1.4375 0.234375q0.609375 0.234375 0.984375 0.640625q0.375 0.390625 0.546875 0.96875q0.1875 0.5625 0.1875 1.234375q0 0.421875 -0.078125 0.90625q-0.078125 0.46875 -0.1875 0.953125l-1.1875 4.96875l-1.75 0l1.109375 -4.59375q0.125 -0.515625 0.25 -1.046875q0.125 -0.546875 0.125 -1.03125q0 -0.75 -0.421875 -1.234375q-0.40625 -0.5 -1.515625 -0.5q-0.46875 0 -0.921875 0.0625q-0.453125 0.046875 -0.75 0.140625l-1.96875 8.203125zm10.888977 2.015625q0.765625 0 1.34375 -0.1875q0.578125 -0.1875 1.0 -0.546875q0.421875 -0.34375 0.671875 -0.828125q0.265625 -0.484375 0.421875 -1.109375l0.078125 -0.34375q-0.375 0.203125 -1.015625 0.40625q-0.625 0.203125 -1.296875 0.203125q-1.515625 0 -2.328125 -0.75q-0.8125 -0.765625 -0.8125 -2.125q0 -1.25 0.40625 -2.4375q0.421875 -1.203125 1.25 -2.125q0.84375 -0.9375 2.09375 -1.5q1.25 -0.578125 2.921875 -0.578125q0.265625 0 0.59375 0.046875q0.328125 0.03125 0.671875 0.09375q0.34375 0.0625 0.671875 0.171875q0.328125 0.109375 0.5625 0.265625l-2.03125 8.484375q-0.234375 1.015625 -0.59375 1.8125q-0.359375 0.796875 -0.96875 1.359375q-0.609375 0.5625 -1.59375 0.859375q-0.96875 0.3125 -2.421875 0.3125q-0.796875 0 -1.578125 -0.21875q-0.78125 -0.203125 -1.328125 -0.515625l0.65625 -1.453125q0.421875 0.3125 1.125 0.5q0.71875 0.203125 1.5 0.203125zm1.5625 -3.859375q0.75 0 1.375 -0.265625q0.625 -0.28125 0.96875 -0.515625l1.359375 -5.671875q-0.1875 -0.046875 -0.4375 -0.078125q-0.234375 -0.03125 -0.453125 -0.03125q-1.015625 0 -1.859375 0.375q-0.828125 0.375 -1.4375 1.03125q-0.609375 0.640625 -0.953125 1.484375q-0.328125 0.84375 -0.328125 1.765625q0 1.0 0.4375 1.453125q0.4375 0.453125 1.328125 0.453125zm12.398666 1.84375l-1.734375 0l2.328125 -9.703125l1.734375 0l-2.328125 9.703125zm2.015625 -11.453125q-0.4375 0 -0.734375 -0.265625q-0.28125 -0.265625 -0.28125 -0.71875q0 -0.609375 0.375 -0.953125q0.375 -0.34375 0.84375 -0.34375q0.421875 0 0.71875 0.28125q0.3125 0.265625 0.3125 0.75q0 0.5625 -0.40625 0.90625q-0.390625 0.34375 -0.828125 0.34375zm2.629776 11.453125l-1.734375 0l2.234375 -9.328125q0.859375 -0.265625 1.859375 -0.421875q1.0 -0.15625 1.78125 -0.15625q0.84375 0 1.4375 0.234375q0.609375 0.234375 0.984375 0.640625q0.375 0.390625 0.546875 0.96875q0.1875 0.5625 0.1875 1.234375q0 0.421875 -0.078125 0.90625q-0.078125 0.46875 -0.1875 0.953125l-1.1875 4.96875l-1.75 0l1.109375 -4.59375q0.125 -0.515625 0.25 -1.046875q0.125 -0.546875 0.125 -1.03125q0 -0.75 -0.421875 -1.234375q-0.40625 -0.5 -1.515625 -0.5q-0.46875 0 -0.921875 0.0625q-0.453125 0.046875 -0.75 0.140625l-1.96875 8.203125zm12.607727 -9.703125l3.25 0l-0.34375 1.453125l-3.234375 0l-1.5 6.15625q-0.21875 0.953125 -0.390625 1.703125q-0.171875 0.75 -0.40625 1.390625q-0.234375 0.65625 -0.625 1.265625q-0.375 0.609375 -1.015625 1.265625l-1.53125 -0.234375q0.5625 -0.71875 0.875 -1.234375q0.3125 -0.5 0.53125 -1.03125q0.21875 -0.515625 0.375 -1.1875q0.15625 -0.6875 0.421875 -1.765625l2.0625 -8.65625q0.21875 -0.9375 0.5625 -1.65625q0.359375 -0.734375 0.890625 -1.21875q0.53125 -0.5 1.25 -0.765625q0.734375 -0.265625 1.734375 -0.265625q0.65625 0 1.234375 0.140625q0.59375 0.125 0.890625 0.28125l-0.6875 1.375q-0.140625 -0.078125 -0.515625 -0.1875q-0.359375 -0.109375 -1.0625 -0.109375q-0.625 0 -1.0625 0.1875q-0.421875 0.171875 -0.71875 0.484375q-0.296875 0.3125 -0.46875 0.765625q-0.171875 0.453125 -0.3125 1.0l-0.203125 0.84375zm5.193634 4.609375q1.078125 -0.03125 1.96875 -0.125q0.890625 -0.109375 1.546875 -0.359375q0.65625 -0.265625 1.015625 -0.6875q0.375 -0.4375 0.375 -1.125q0 -0.171875 -0.078125 -0.34375q-0.0625 -0.1875 -0.21875 -0.34375q-0.15625 -0.171875 -0.4375 -0.265625q-0.28125 -0.109375 -0.6875 -0.109375q-0.65625 0 -1.234375 0.28125q-0.5625 0.28125 -1.015625 0.734375q-0.4375 0.453125 -0.765625 1.0625q-0.3125 0.609375 -0.46875 1.28125zm1.765625 5.34375q-0.953125 0 -1.640625 -0.265625q-0.6875 -0.28125 -1.15625 -0.75q-0.46875 -0.484375 -0.703125 -1.109375q-0.21875 -0.640625 -0.21875 -1.359375q0 -1.296875 0.390625 -2.5q0.40625 -1.21875 1.125 -2.15625q0.734375 -0.9375 1.765625 -1.484375q1.046875 -0.546875 2.375 -0.546875q0.765625 0 1.3125 0.203125q0.5625 0.1875 0.90625 0.53125q0.34375 0.328125 0.5 0.765625q0.171875 0.4375 0.171875 0.90625q0 0.875 -0.3125 1.484375q-0.3125 0.609375 -0.84375 1.015625q-0.515625 0.40625 -1.21875 0.640625q-0.703125 0.21875 -1.453125 0.34375q-0.75 0.125 -1.53125 0.171875q-0.78125 0.046875 -1.46875 0.09375q-0.015625 0.140625 -0.015625 0.234375q0 0.09375 0 0.15625q0 0.421875 0.09375 0.8125q0.109375 0.375 0.390625 0.671875q0.28125 0.28125 0.765625 0.453125q0.5 0.171875 1.3125 0.171875q0.34375 0 0.71875 -0.0625q0.390625 -0.078125 0.734375 -0.171875q0.34375 -0.109375 0.609375 -0.203125q0.28125 -0.109375 0.390625 -0.203125l0.15625 1.484375q-0.375 0.203125 -1.203125 0.4375q-0.828125 0.234375 -1.953125 0.234375zm11.07019 -10.15625q0.21875 0 0.5 0.015625q0.28125 0.015625 0.546875 0.0625q0.265625 0.046875 0.484375 0.09375q0.234375 0.046875 0.34375 0.109375l-0.5 1.515625q-0.375 -0.15625 -0.859375 -0.21875q-0.484375 -0.078125 -0.9375 -0.078125q-0.390625 0 -0.78125 0.0625q-0.375 0.046875 -0.65625 0.140625l-1.96875 8.203125l-1.734375 0l2.234375 -9.328125q0.75 -0.265625 1.609375 -0.421875q0.859375 -0.15625 1.71875 -0.15625zm3.6749115 4.8125q1.078125 -0.03125 1.96875 -0.125q0.890625 -0.109375 1.546875 -0.359375q0.65625 -0.265625 1.015625 -0.6875q0.375 -0.4375 0.375 -1.125q0 -0.171875 -0.078125 -0.34375q-0.0625 -0.1875 -0.21875 -0.34375q-0.15625 -0.171875 -0.4375 -0.265625q-0.28125 -0.109375 -0.6875 -0.109375q-0.65625 0 -1.234375 0.28125q-0.5625 0.28125 -1.015625 0.734375q-0.4375 0.453125 -0.765625 1.0625q-0.3125 0.609375 -0.46875 1.28125zm1.765625 5.34375q-0.953125 0 -1.640625 -0.265625q-0.6875 -0.28125 -1.15625 -0.75q-0.46875 -0.484375 -0.703125 -1.109375q-0.21875 -0.640625 -0.21875 -1.359375q0 -1.296875 0.390625 -2.5q0.40625 -1.21875 1.125 -2.15625q0.734375 -0.9375 1.765625 -1.484375q1.046875 -0.546875 2.375 -0.546875q0.765625 0 1.3125 0.203125q0.5625 0.1875 0.90625 0.53125q0.34375 0.328125 0.5 0.765625q0.171875 0.4375 0.171875 0.90625q0 0.875 -0.3125 1.484375q-0.3125 0.609375 -0.84375 1.015625q-0.515625 0.40625 -1.21875 0.640625q-0.703125 0.21875 -1.453125 0.34375q-0.75 0.125 -1.53125 0.171875q-0.78125 0.046875 -1.46875 0.09375q-0.015625 0.140625 -0.015625 0.234375q0 0.09375 0 0.15625q0 0.421875 0.09375 0.8125q0.109375 0.375 0.390625 0.671875q0.28125 0.28125 0.765625 0.453125q0.5 0.171875 1.3125 0.171875q0.34375 0 0.71875 -0.0625q0.390625 -0.078125 0.734375 -0.171875q0.34375 -0.109375 0.609375 -0.203125q0.28125 -0.109375 0.390625 -0.203125l0.15625 1.484375q-0.375 0.203125 -1.203125 0.4375q-0.828125 0.234375 -1.953125 0.234375zm7.2420654 -0.25l-1.734375 0l2.234375 -9.328125q0.859375 -0.265625 1.859375 -0.421875q1.0 -0.15625 1.78125 -0.15625q0.84375 0 1.4375 0.234375q0.609375 0.234375 0.984375 0.640625q0.375 0.390625 0.546875 0.96875q0.1875 0.5625 0.1875 1.234375q0 0.421875 -0.078125 0.90625q-0.078125 0.46875 -0.1875 0.953125l-1.1875 4.96875l-1.75 0l1.109375 -4.59375q0.125 -0.515625 0.25 -1.046875q0.125 -0.546875 0.125 -1.03125q0 -0.75 -0.421875 -1.234375q-0.40625 -0.5 -1.515625 -0.5q-0.46875 0 -0.921875 0.0625q-0.453125 0.046875 -0.75 0.140625l-1.96875 8.203125zm8.982727 -3.46875q0 -1.265625 0.375 -2.4375q0.390625 -1.1875 1.140625 -2.078125q0.75 -0.890625 1.828125 -1.421875q1.078125 -0.53125 2.484375 -0.53125q0.609375 0 1.171875 0.078125q0.5625 0.078125 1.0625 0.328125l-0.65625 1.453125q-0.296875 -0.171875 -0.703125 -0.265625q-0.390625 -0.09375 -1.03125 -0.09375q-0.90625 0 -1.640625 0.40625q-0.71875 0.40625 -1.234375 1.0625q-0.515625 0.65625 -0.796875 1.53125q-0.265625 0.859375 -0.265625 1.796875q0 0.484375 0.109375 0.921875q0.109375 0.421875 0.359375 0.75q0.265625 0.328125 0.703125 0.515625q0.4375 0.1875 1.109375 0.1875q0.34375 0 0.703125 -0.0625q0.375 -0.078125 0.6875 -0.15625q0.328125 -0.09375 0.578125 -0.203125q0.25 -0.109375 0.359375 -0.203125l0.15625 1.484375q-0.359375 0.21875 -1.109375 0.4375q-0.734375 0.21875 -1.6875 0.21875q-0.890625 0 -1.59375 -0.265625q-0.6875 -0.28125 -1.15625 -0.765625q-0.46875 -0.5 -0.71875 -1.1875q-0.234375 -0.6875 -0.234375 -1.5zm10.180435 -1.625q1.078125 -0.03125 1.96875 -0.125q0.890625 -0.109375 1.546875 -0.359375q0.65625 -0.265625 1.015625 -0.6875q0.375 -0.4375 0.375 -1.125q0 -0.171875 -0.078125 -0.34375q-0.0625 -0.1875 -0.21875 -0.34375q-0.15625 -0.171875 -0.4375 -0.265625q-0.28125 -0.109375 -0.6875 -0.109375q-0.65625 0 -1.234375 0.28125q-0.5625 0.28125 -1.015625 0.734375q-0.4375 0.453125 -0.765625 1.0625q-0.3125 0.609375 -0.46875 1.28125zm1.765625 5.34375q-0.953125 0 -1.640625 -0.265625q-0.6875 -0.28125 -1.15625 -0.75q-0.46875 -0.484375 -0.703125 -1.109375q-0.21875 -0.640625 -0.21875 -1.359375q0 -1.296875 0.390625 -2.5q0.40625 -1.21875 1.125 -2.15625q0.734375 -0.9375 1.765625 -1.484375q1.046875 -0.546875 2.375 -0.546875q0.765625 0 1.3125 0.203125q0.5625 0.1875 0.90625 0.53125q0.34375 0.328125 0.5 0.765625q0.171875 0.4375 0.171875 0.90625q0 0.875 -0.3125 1.484375q-0.3125 0.609375 -0.84375 1.015625q-0.515625 0.40625 -1.21875 0.640625q-0.703125 0.21875 -1.453125 0.34375q-0.75 0.125 -1.53125 0.171875q-0.78125 0.046875 -1.46875 0.09375q-0.015625 0.140625 -0.015625 0.234375q0 0.09375 0 0.15625q0 0.421875 0.09375 0.8125q0.109375 0.375 0.390625 0.671875q0.28125 0.28125 0.765625 0.453125q0.5 0.171875 1.3125 0.171875q0.34375 0 0.71875 -0.0625q0.390625 -0.078125 0.734375 -0.171875q0.34375 -0.109375 0.609375 -0.203125q0.28125 -0.109375 0.390625 -0.203125l0.15625 1.484375q-0.375 0.203125 -1.203125 0.4375q-0.828125 0.234375 -1.953125 0.234375z" fill-rule="nonzero"/></g></svg>