<svg version="1.1" viewBox="0.0 0.0 376.82152230971127 329.7191601049869" fill="none" stroke="none" stroke-linecap="square" stroke-miterlimit="10" xmlns:xlink="http://www.w3.org/1999/xlink" xmlns="http://www.w3.org/2000/svg"><clipPath id="p.0"><path d="m0 0l376.82153 0l0 329.71915l-376.82153 0l0 -329.71915z" clip-rule="nonzero"/></clipPath><g clip-path="url(#p.0)"><path fill="#000000" fill-opacity="0.0" d="m0 0l376.82153 0l0 329.71915l-376.82153 0z" fill-rule="evenodd"/><path fill="#072430" d="m0.005249344 28.648361l0 0c0 -15.822053 12.826308 -28.648361 28.648361 -28.648361l319.86865 0c7.5980225 0 14.884827 3.0183008 20.257446 8.39091c5.3726196 5.37261 8.3909 12.659432 8.3909 20.25745l0 271.80566c0 15.822052 -12.826294 28.648346 -28.648346 28.648346l-319.86865 0c-15.822053 0 -28.648361 -12.826294 -28.648361 -28.648346z" fill-rule="evenodd"/><path fill="#0e4b68" d="m15.589085 -1.4173228E-5l345.98718 0c4.134491 0 8.09964 1.6424167 11.023163 4.5659375c2.923523 2.92352 4.565918 6.8886647 4.565918 11.023148l0 31.277058c0 0.0017356873 -0.0014038086 0.0031433105 -0.0031433105 0.0031433105l-377.1622 -0.0031433105l5.4140403E-19 0c-0.0017358556 0 -0.0031430447 -0.0014076233 -0.0031430447 -0.0031433105l0.0031430447 -31.273914l0 0c0 -8.609613 6.9794707 -15.589085 15.589085 -15.589085z" fill-rule="evenodd"/><path fill="#ff605c" d="m12.742013 15.921679l0 0c0 -2.9223251 2.3690128 -5.291338 5.291339 -5.291338l0 0c1.4033489 0 2.7492218 0.55747795 3.741541 1.549797c0.9923191 0.99231815 1.549797 2.338191 1.549797 3.741541l0 0c0 2.9223251 -2.3690128 5.291338 -5.291338 5.291338l0 0c-2.922326 0 -5.291339 -2.3690128 -5.291339 -5.291338z" fill-rule="evenodd"/><path fill="#ffbd44" d="m30.129261 15.921679l0 0c0 -2.9223251 2.3690147 -5.291338 5.29134 -5.291338l0 0c1.403347 0 2.7492218 0.55747795 3.741539 1.549797c0.992321 0.99231815 1.549797 2.338191 1.549797 3.741541l0 0c0 2.9223251 -2.369011 5.291338 -5.291336 5.291338l0 0c-2.9223251 0 -5.29134 -2.3690128 -5.29134 -5.291338z" fill-rule="evenodd"/><path fill="#00ca4e" d="m47.514603 15.921679l0 0c0 -2.9223251 2.3690147 -5.291338 5.29134 -5.291338l0 0c1.4033508 0 2.7492218 0.55747795 3.741539 1.549797c0.992321 0.99231815 1.5498009 2.338191 1.5498009 3.741541l0 0c0 2.9223251 -2.3690147 5.291338 -5.29134 5.291338l0 0c-2.9223251 0 -5.29134 -2.3690128 -5.29134 -5.291338z" fill-rule="evenodd"/><path fill="#000000" fill-opacity="0.0" d="m72.59294 0.96587926l259.4961 0l0 46.047245l-259.4961 0z" fill-rule="evenodd"/><path fill="#ffffff" d="m133.11002 21.679628q0 1.46875 -0.015625 2.421875q-0.015625 0.953125 -0.109375 1.953125q-0.078125 0.984375 -0.171875 1.5625q-0.09375 0.578125 -0.359375 1.1875q-0.265625 0.609375 -0.515625 0.90625q-0.25 0.296875 -0.765625 0.609375q-0.515625 0.296875 -1.015625 0.40625q-0.484375 0.109375 -1.328125 0.21875q-0.84375 0.109375 -1.65625 0.125q-0.8125 0.015625 -2.0625 0.015625l-3.890625 0l0 -16.0l5.546875 0q1.359375 0 2.28125 0.109375q0.9375 0.109375 1.671875 0.421875q0.734375 0.296875 1.171875 0.765625q0.453125 0.453125 0.734375 1.234375q0.28125 0.765625 0.375 1.71875q0.109375 0.953125 0.109375 2.34375zm-2.15625 0.03125q0 -0.984375 -0.015625 -1.421875q0 -0.4375 -0.078125 -1.09375q-0.0625 -0.65625 -0.1875 -0.890625q-0.109375 -0.25 -0.390625 -0.625q-0.265625 -0.375 -0.625 -0.46875q-0.359375 -0.109375 -0.953125 -0.265625q-0.578125 -0.15625 -1.296875 -0.1875q-0.71875 -0.03125 -1.75 -0.03125l-2.25 0l0 12.71875l2.578125 0q0.921875 0 1.4375 -0.015625q0.515625 -0.015625 1.109375 -0.09375q0.609375 -0.078125 0.890625 -0.203125q0.28125 -0.125 0.609375 -0.375q0.34375 -0.265625 0.46875 -0.609375q0.125 -0.34375 0.25 -0.890625q0.140625 -0.5625 0.171875 -1.21875q0.03125 -0.671875 0.03125 -1.609375l0 -2.71875zm14.467773 3.3125q-1.28125 0.125 -1.59375 0.15625l-5.859375 0q0.015625 1.5625 0.09375 3.40625q0.046875 0.734375 0.609375 0.96875q0.5625 0.21875 2.203125 0.21875q0.609375 0 1.046875 -0.046875q0.4375 -0.046875 0.703125 -0.171875q0.28125 -0.125 0.4375 -0.234375q0.15625 -0.109375 0.234375 -0.34375q0.078125 -0.25 0.09375 -0.421875q0.03125 -0.171875 0.046875 -0.5q0.015625 -0.34375 0.046875 -0.5625l1.65625 0.3125q-0.03125 0.75 -0.125 1.265625q-0.078125 0.515625 -0.28125 0.921875q-0.203125 0.390625 -0.484375 0.625q-0.28125 0.234375 -0.75 0.390625q-0.46875 0.140625 -1.046875 0.1875q-0.5625 0.046875 -1.40625 0.046875q-1.0625 0 -1.859375 -0.125q-0.796875 -0.125 -1.359375 -0.296875q-0.5625 -0.1875 -0.9375 -0.59375q-0.359375 -0.421875 -0.578125 -0.796875q-0.203125 -0.375 -0.296875 -1.09375q-0.09375 -0.734375 -0.125 -1.328125q-0.03125 -0.609375 -0.03125 -1.65625q0 -1.484375 0.03125 -2.3125q0.046875 -0.828125 0.21875 -1.65625q0.171875 -0.828125 0.453125 -1.203125q0.296875 -0.390625 0.859375 -0.703125q0.578125 -0.328125 1.34375 -0.421875q0.78125 -0.09375 1.96875 -0.09375q0.828125 0 1.421875 0.0625q0.609375 0.046875 1.109375 0.203125q0.515625 0.140625 0.84375 0.34375q0.328125 0.1875 0.578125 0.5625q0.25 0.375 0.375 0.78125q0.140625 0.390625 0.21875 1.0625q0.09375 0.671875 0.109375 1.359375q0.03125 0.671875 0.03125 1.6875zm-7.4375 -0.96875l5.328125 0q-0.03125 -1.375 -0.109375 -2.515625q-0.046875 -0.65625 -0.578125 -0.875q-0.515625 -0.21875 -1.890625 -0.21875q-1.546875 0 -1.953125 0.171875q-0.171875 0.046875 -0.3125 0.1875q-0.140625 0.125 -0.234375 0.375q-0.078125 0.25 -0.125 0.46875q-0.046875 0.203125 -0.078125 0.59375q-0.015625 0.375 -0.03125 0.59375q-0.015625 0.203125 -0.015625 0.640625q0 0.421875 0 0.578125zm19.231445 -1.359375l-1.734375 0.296875l-0.234375 -1.5q-0.078125 -0.515625 -0.203125 -0.65625q-0.28125 -0.328125 -1.546875 -0.359375q-0.296875 -0.015625 -0.65625 -0.015625q-1.46875 0 -1.921875 0.15625q-0.484375 0.09375 -0.71875 0.984375q-0.21875 0.890625 -0.21875 2.171875l0.015625 1.859375q0 0.390625 0 1.0625q0 0.890625 0 1.25q0 0.359375 0.09375 0.8125q0.09375 0.453125 0.21875 0.578125q0.125 0.109375 0.46875 0.265625q0.34375 0.140625 0.734375 0.15625q0.390625 0 1.125 0q0.578125 0 1.0 -0.03125q0.4375 -0.046875 0.734375 -0.109375q0.296875 -0.0625 0.484375 -0.203125q0.1875 -0.140625 0.28125 -0.25q0.109375 -0.125 0.15625 -0.375q0.0625 -0.265625 0.078125 -0.4375q0.015625 -0.1875 0.03125 -0.546875q0.015625 -0.375 0.046875 -0.640625l1.765625 0.296875q-0.0625 0.84375 -0.140625 1.359375q-0.078125 0.5 -0.265625 0.96875q-0.1875 0.46875 -0.484375 0.71875q-0.28125 0.234375 -0.78125 0.4375q-0.5 0.1875 -1.15625 0.234375q-0.65625 0.0625 -1.640625 0.0625q-0.71875 0 -1.28125 -0.046875q-0.5625 -0.03125 -1.03125 -0.15625q-0.453125 -0.140625 -0.796875 -0.265625q-0.34375 -0.125 -0.609375 -0.4375q-0.265625 -0.3125 -0.453125 -0.53125q-0.171875 -0.234375 -0.296875 -0.734375q-0.109375 -0.515625 -0.171875 -0.859375q-0.0625 -0.359375 -0.09375 -1.078125q-0.03125 -0.734375 -0.046875 -1.234375q0 -0.5 0 -1.46875q0 -0.859375 0.03125 -1.484375q0.03125 -0.625 0.125 -1.203125q0.109375 -0.578125 0.265625 -0.953125q0.15625 -0.375 0.40625 -0.703125q0.265625 -0.34375 0.609375 -0.53125q0.34375 -0.203125 0.84375 -0.34375q0.5 -0.140625 1.09375 -0.1875q0.59375 -0.0625 1.390625 -0.0625q1.015625 0 1.703125 0.109375q0.703125 0.109375 1.234375 0.34375q0.546875 0.234375 0.84375 0.671875q0.3125 0.421875 0.484375 1.0625q0.171875 0.625 0.21875 1.546875zm5.022461 8.390625l-2.125 0l0 -15.96875l2.125 -0.171875l0 16.140625zm12.017578 0l-1.671875 0l-0.34375 -1.6875q-0.328125 1.109375 -1.171875 1.484375q-0.84375 0.359375 -2.46875 0.359375q-1.0625 0 -1.75 -0.203125q-0.6875 -0.21875 -1.109375 -0.703125q-0.40625 -0.5 -0.5625 -1.203125q-0.15625 -0.71875 -0.15625 -1.84375q0 -0.515625 0.171875 -0.90625q0.1875 -0.40625 0.484375 -0.671875q0.3125 -0.28125 0.828125 -0.484375q0.515625 -0.203125 1.0625 -0.328125q0.546875 -0.125 1.3125 -0.1875q0.78125 -0.078125 1.515625 -0.09375q0.75 -0.015625 1.75 -0.015625l0 -3.1875q0 -0.5625 -0.515625 -0.765625q-0.515625 -0.203125 -1.84375 -0.203125q-0.921875 0 -1.390625 0.046875q-0.453125 0.03125 -0.703125 0.25q-0.234375 0.203125 -0.28125 0.40625q-0.03125 0.203125 -0.046875 0.765625q0 0.203125 0 0.3125l-1.65625 -0.0625q-0.015625 -0.171875 -0.015625 -0.5q0 -0.71875 0.203125 -1.21875q0.21875 -0.5 0.546875 -0.78125q0.34375 -0.28125 0.921875 -0.4375q0.578125 -0.171875 1.140625 -0.21875q0.578125 -0.046875 1.421875 -0.046875q1.28125 0 2.09375 0.203125q0.8125 0.203125 1.328125 0.71875q0.515625 0.515625 0.703125 1.3125q0.203125 0.796875 0.203125 2.09375l0 7.796875zm-2.109375 -3.375l0 -1.828125q-2.125 0 -3.265625 0.15625q-1.140625 0.15625 -1.515625 0.453125q-0.375 0.28125 -0.375 0.796875q0 0.015625 0 0.0625q0 1.625 0.265625 2.03125q0.265625 0.390625 1.640625 0.390625q1.171875 0 1.890625 -0.28125q0.734375 -0.28125 1.015625 -0.703125q0.296875 -0.4375 0.34375 -1.078125zm10.626953 -8.671875l-0.078125 1.78125q-0.421875 -0.046875 -0.78125 -0.046875q-0.765625 0 -1.234375 0.15625q-0.46875 0.140625 -0.71875 0.515625q-0.234375 0.359375 -0.3125 0.828125q-0.078125 0.46875 -0.078125 1.25q0 0.4375 0.03125 1.296875q0.03125 0.84375 0.03125 1.203125l0 5.0625l-2.109375 0l0 -11.78125l1.921875 0l0.21875 1.3125q0.328125 -0.765625 1.0 -1.1875q0.6875 -0.421875 1.625 -0.421875q0.234375 0 0.484375 0.03125zm11.493164 5.984375q-1.28125 0.125 -1.59375 0.15625l-5.859375 0q0.015625 1.5625 0.09375 3.40625q0.046875 0.734375 0.609375 0.96875q0.5625 0.21875 2.203125 0.21875q0.609375 0 1.046875 -0.046875q0.4375 -0.046875 0.703125 -0.171875q0.28125 -0.125 0.4375 -0.234375q0.15625 -0.109375 0.234375 -0.34375q0.078125 -0.25 0.09375 -0.421875q0.03125 -0.171875 0.046875 -0.5q0.015625 -0.34375 0.046875 -0.5625l1.65625 0.3125q-0.03125 0.75 -0.125 1.265625q-0.078125 0.515625 -0.28125 0.921875q-0.203125 0.390625 -0.484375 0.625q-0.28125 0.234375 -0.75 0.390625q-0.46875 0.140625 -1.046875 0.1875q-0.5625 0.046875 -1.40625 0.046875q-1.0625 0 -1.859375 -0.125q-0.796875 -0.125 -1.359375 -0.296875q-0.5625 -0.1875 -0.9375 -0.59375q-0.359375 -0.421875 -0.578125 -0.796875q-0.203125 -0.375 -0.296875 -1.09375q-0.09375 -0.734375 -0.125 -1.328125q-0.03125 -0.609375 -0.03125 -1.65625q0 -1.484375 0.03125 -2.3125q0.046875 -0.828125 0.21875 -1.65625q0.171875 -0.828125 0.453125 -1.203125q0.296875 -0.390625 0.859375 -0.703125q0.578125 -0.328125 1.34375 -0.421875q0.78125 -0.09375 1.96875 -0.09375q0.828125 0 1.421875 0.0625q0.609375 0.046875 1.109375 0.203125q0.515625 0.140625 0.84375 0.34375q0.328125 0.1875 0.578125 0.5625q0.25 0.375 0.375 0.78125q0.140625 0.390625 0.21875 1.0625q0.09375 0.671875 0.109375 1.359375q0.03125 0.671875 0.03125 1.6875zm-7.4375 -0.96875l5.328125 0q-0.03125 -1.375 -0.109375 -2.515625q-0.046875 -0.65625 -0.578125 -0.875q-0.515625 -0.21875 -1.890625 -0.21875q-1.546875 0 -1.953125 0.171875q-0.171875 0.046875 -0.3125 0.1875q-0.140625 0.125 -0.234375 0.375q-0.078125 0.25 -0.125 0.46875q-0.046875 0.203125 -0.078125 0.59375q-0.015625 0.375 -0.03125 0.59375q-0.015625 0.203125 -0.015625 0.640625q0 0.421875 0 0.578125zm23.564453 -7.328125l-6.609375 0l0 5.234375l5.625 0l0 1.734375l-5.625 0l0 7.390625l-2.171875 0l0 -16.0l8.5625 0l0.21875 1.640625zm11.104492 8.296875q-1.28125 0.125 -1.59375 0.15625l-5.859375 0q0.015625 1.5625 0.09375 3.40625q0.046875 0.734375 0.609375 0.96875q0.5625 0.21875 2.203125 0.21875q0.609375 0 1.046875 -0.046875q0.4375 -0.046875 0.703125 -0.171875q0.28125 -0.125 0.4375 -0.234375q0.15625 -0.109375 0.234375 -0.34375q0.078125 -0.25 0.09375 -0.421875q0.03125 -0.171875 0.046875 -0.5q0.015625 -0.34375 0.046875 -0.5625l1.65625 0.3125q-0.03125 0.75 -0.125 1.265625q-0.078125 0.515625 -0.28125 0.921875q-0.203125 0.390625 -0.484375 0.625q-0.28125 0.234375 -0.75 0.390625q-0.46875 0.140625 -1.046875 0.1875q-0.5625 0.046875 -1.40625 0.046875q-1.0625 0 -1.859375 -0.125q-0.796875 -0.125 -1.359375 -0.296875q-0.5625 -0.1875 -0.9375 -0.59375q-0.359375 -0.421875 -0.578125 -0.796875q-0.203125 -0.375 -0.296875 -1.09375q-0.09375 -0.734375 -0.125 -1.328125q-0.03125 -0.609375 -0.03125 -1.65625q0 -1.484375 0.03125 -2.3125q0.046875 -0.828125 0.21875 -1.65625q0.171875 -0.828125 0.453125 -1.203125q0.296875 -0.390625 0.859375 -0.703125q0.578125 -0.328125 1.34375 -0.421875q0.78125 -0.09375 1.96875 -0.09375q0.828125 0 1.421875 0.0625q0.609375 0.046875 1.109375 0.203125q0.515625 0.140625 0.84375 0.34375q0.328125 0.1875 0.578125 0.5625q0.25 0.375 0.375 0.78125q0.140625 0.390625 0.21875 1.0625q0.09375 0.671875 0.109375 1.359375q0.03125 0.671875 0.03125 1.6875zm-7.4375 -0.96875l5.328125 0q-0.03125 -1.375 -0.109375 -2.515625q-0.046875 -0.65625 -0.578125 -0.875q-0.515625 -0.21875 -1.890625 -0.21875q-1.546875 0 -1.953125 0.171875q-0.171875 0.046875 -0.3125 0.1875q-0.140625 0.125 -0.234375 0.375q-0.078125 0.25 -0.125 0.46875q-0.046875 0.203125 -0.078125 0.59375q-0.015625 0.375 -0.03125 0.59375q-0.015625 0.203125 -0.015625 0.640625q0 0.421875 0 0.578125zm18.77246 7.03125l-1.671875 0l-0.34375 -1.6875q-0.328125 1.109375 -1.171875 1.484375q-0.84375 0.359375 -2.46875 0.359375q-1.0625 0 -1.75 -0.203125q-0.6875 -0.21875 -1.109375 -0.703125q-0.40625 -0.5 -0.5625 -1.203125q-0.15625 -0.71875 -0.15625 -1.84375q0 -0.515625 0.171875 -0.90625q0.1875 -0.40625 0.484375 -0.671875q0.3125 -0.28125 0.828125 -0.484375q0.515625 -0.203125 1.0625 -0.328125q0.546875 -0.125 1.3125 -0.1875q0.78125 -0.078125 1.515625 -0.09375q0.75 -0.015625 1.75 -0.015625l0 -3.1875q0 -0.5625 -0.515625 -0.765625q-0.515625 -0.203125 -1.84375 -0.203125q-0.921875 0 -1.390625 0.046875q-0.453125 0.03125 -0.703125 0.25q-0.234375 0.203125 -0.28125 0.40625q-0.03125 0.203125 -0.046875 0.765625q0 0.203125 0 0.3125l-1.65625 -0.0625q-0.015625 -0.171875 -0.015625 -0.5q0 -0.71875 0.203125 -1.21875q0.21875 -0.5 0.546875 -0.78125q0.34375 -0.28125 0.921875 -0.4375q0.578125 -0.171875 1.140625 -0.21875q0.578125 -0.046875 1.421875 -0.046875q1.28125 0 2.09375 0.203125q0.8125 0.203125 1.328125 0.71875q0.515625 0.515625 0.703125 1.3125q0.203125 0.796875 0.203125 2.09375l0 7.796875zm-2.109375 -3.375l0 -1.828125q-2.125 0 -3.265625 0.15625q-1.140625 0.15625 -1.515625 0.453125q-0.375 0.28125 -0.375 0.796875q0 0.015625 0 0.0625q0 1.625 0.265625 2.03125q0.265625 0.390625 1.640625 0.390625q1.171875 0 1.890625 -0.28125q0.734375 -0.28125 1.015625 -0.703125q0.296875 -0.4375 0.34375 -1.078125zm10.033203 1.875l-0.046875 1.515625q-0.90625 0.140625 -1.640625 0.140625q-0.78125 0 -1.296875 -0.171875q-0.5 -0.171875 -0.765625 -0.546875q-0.25 -0.375 -0.359375 -0.828125q-0.09375 -0.453125 -0.09375 -1.171875l0 -8.015625l-1.59375 0l0 -1.203125l1.59375 0l0 -3.359375l2.109375 -0.171875l0 3.53125l2.171875 0l0 1.203125l-2.171875 0l0 7.296875q0 1.171875 0.109375 1.515625q0.125 0.34375 0.625 0.34375q0.5 0 1.359375 -0.078125zm12.052734 1.515625l-1.953125 0l-0.1875 -1.515625q-0.28125 0.84375 -1.21875 1.25q-0.9375 0.40625 -2.296875 0.40625q-0.921875 0 -1.5625 -0.171875q-0.625 -0.1875 -1.0625 -0.53125q-0.421875 -0.359375 -0.65625 -0.984375q-0.21875 -0.625 -0.3125 -1.40625q-0.09375 -0.78125 -0.09375 -1.9375l0 -6.90625l2.125 0l0 6.84375q0 0.234375 -0.015625 0.640625q0 0.390625 0 0.5625q0 0.5625 0.015625 0.890625q0.03125 0.3125 0.109375 0.625q0.09375 0.3125 0.25 0.46875q0.15625 0.140625 0.453125 0.265625q0.296875 0.109375 0.6875 0.140625q0.390625 0.03125 1.0 0.03125q0.6875 0 1.171875 -0.09375q0.484375 -0.09375 0.765625 -0.25q0.28125 -0.15625 0.421875 -0.421875q0.15625 -0.28125 0.1875 -0.53125q0.046875 -0.265625 0.046875 -0.640625q0 -0.140625 -0.015625 -0.421875q0 -0.296875 0 -0.4375l0 -7.671875l2.140625 0l0 11.796875zm8.553711 -12.0625l-0.078125 1.78125q-0.421875 -0.046875 -0.78125 -0.046875q-0.765625 0 -1.234375 0.15625q-0.46875 0.140625 -0.71875 0.515625q-0.234375 0.359375 -0.3125 0.828125q-0.078125 0.46875 -0.078125 1.25q0 0.4375 0.03125 1.296875q0.03125 0.84375 0.03125 1.203125l0 5.0625l-2.109375 0l0 -11.78125l1.921875 0l0.21875 1.3125q0.328125 -0.765625 1.0 -1.1875q0.6875 -0.421875 1.625 -0.421875q0.234375 0 0.484375 0.03125zm11.493164 5.984375q-1.28125 0.125 -1.59375 0.15625l-5.859375 0q0.015625 1.5625 0.09375 3.40625q0.046875 0.734375 0.609375 0.96875q0.5625 0.21875 2.203125 0.21875q0.609375 0 1.046875 -0.046875q0.4375 -0.046875 0.703125 -0.171875q0.28125 -0.125 0.4375 -0.234375q0.15625 -0.109375 0.234375 -0.34375q0.078125 -0.25 0.09375 -0.421875q0.03125 -0.171875 0.046875 -0.5q0.015625 -0.34375 0.046875 -0.5625l1.65625 0.3125q-0.03125 0.75 -0.125 1.265625q-0.078125 0.515625 -0.28125 0.921875q-0.203125 0.390625 -0.484375 0.625q-0.28125 0.234375 -0.75 0.390625q-0.46875 0.140625 -1.046875 0.1875q-0.5625 0.046875 -1.40625 0.046875q-1.0625 0 -1.859375 -0.125q-0.796875 -0.125 -1.359375 -0.296875q-0.5625 -0.1875 -0.9375 -0.59375q-0.359375 -0.421875 -0.578125 -0.796875q-0.203125 -0.375 -0.296875 -1.09375q-0.09375 -0.734375 -0.125 -1.328125q-0.03125 -0.609375 -0.03125 -1.65625q0 -1.484375 0.03125 -2.3125q0.046875 -0.828125 0.21875 -1.65625q0.171875 -0.828125 0.453125 -1.203125q0.296875 -0.390625 0.859375 -0.703125q0.578125 -0.328125 1.34375 -0.421875q0.78125 -0.09375 1.96875 -0.09375q0.828125 0 1.421875 0.0625q0.609375 0.046875 1.109375 0.203125q0.515625 0.140625 0.84375 0.34375q0.328125 0.1875 0.578125 0.5625q0.25 0.375 0.375 0.78125q0.140625 0.390625 0.21875 1.0625q0.09375 0.671875 0.109375 1.359375q0.03125 0.671875 0.03125 1.6875zm-7.4375 -0.96875l5.328125 0q-0.03125 -1.375 -0.109375 -2.515625q-0.046875 -0.65625 -0.578125 -0.875q-0.515625 -0.21875 -1.890625 -0.21875q-1.546875 0 -1.953125 0.171875q-0.171875 0.046875 -0.3125 0.1875q-0.140625 0.125 -0.234375 0.375q-0.078125 0.25 -0.125 0.46875q-0.046875 0.203125 -0.078125 0.59375q-0.015625 0.375 -0.03125 0.59375q-0.015625 0.203125 -0.015625 0.640625q0 0.421875 0 0.578125zm18.825195 3.765625q0 1.03125 -0.234375 1.703125q-0.21875 0.65625 -0.734375 1.046875q-0.515625 0.375 -1.265625 0.515625q-0.75 0.15625 -1.890625 0.15625q-0.671875 0 -1.078125 -0.015625q-0.390625 0 -0.921875 -0.046875q-0.515625 -0.046875 -0.828125 -0.125q-0.3125 -0.09375 -0.671875 -0.25q-0.359375 -0.15625 -0.578125 -0.390625q-0.203125 -0.25 -0.390625 -0.578125q-0.171875 -0.34375 -0.25 -0.796875q-0.078125 -0.453125 -0.078125 -1.03125l1.671875 -0.4375q0.09375 1.234375 0.21875 1.546875q0.203125 0.4375 0.8125 0.5625q0.46875 0.09375 1.9375 0.09375q0.90625 0 1.328125 -0.078125q0.4375 -0.078125 0.59375 -0.3125q0.421875 -0.34375 0.421875 -2.40625q0 -0.3125 -0.125 -0.53125q-0.125 -0.21875 -0.3125 -0.328125q-0.1875 -0.125 -0.515625 -0.203125q-0.3125 -0.078125 -0.578125 -0.109375q-0.265625 -0.03125 -0.703125 -0.0625q-0.421875 -0.046875 -0.6875 -0.078125q-0.78125 -0.09375 -1.28125 -0.171875q-0.484375 -0.078125 -1.0 -0.234375q-0.5 -0.171875 -0.78125 -0.40625q-0.28125 -0.234375 -0.515625 -0.609375q-0.234375 -0.375 -0.34375 -0.890625q-0.09375 -0.53125 -0.09375 -1.265625q0 -0.78125 0.15625 -1.3125q0.171875 -0.53125 0.484375 -0.890625q0.3125 -0.359375 0.84375 -0.546875q0.546875 -0.203125 1.21875 -0.28125q0.6875 -0.09375 1.65625 -0.09375q0.625 0 1.015625 0.03125q0.390625 0.015625 0.859375 0.078125q0.46875 0.046875 0.75 0.15625q0.296875 0.109375 0.578125 0.3125q0.296875 0.1875 0.453125 0.46875q0.171875 0.28125 0.265625 0.6875q0.109375 0.40625 0.109375 0.9375l-1.4375 0.4375q-0.046875 -0.421875 -0.09375 -0.65625q-0.03125 -0.25 -0.15625 -0.453125q-0.125 -0.203125 -0.265625 -0.28125q-0.140625 -0.09375 -0.484375 -0.15625q-0.328125 -0.0625 -0.671875 -0.0625q-0.34375 -0.015625 -0.984375 -0.015625q-1.375 0 -1.875 0.28125q-0.484375 0.265625 -0.484375 0.890625l0 1.09375q0 0.703125 0.421875 0.890625q0.421875 0.1875 2.28125 0.421875q0.1875 0.03125 0.28125 0.046875q0.75 0.09375 1.171875 0.171875q0.4375 0.0625 0.921875 0.1875q0.484375 0.125 0.734375 0.296875q0.25 0.15625 0.5 0.421875q0.265625 0.25 0.375 0.625q0.109375 0.375 0.171875 0.875q0.078125 0.5 0.078125 1.171875z" fill-rule="nonzero"/><path fill="#000000" fill-opacity="0.0" d="m40.045193 62.388416l338.86615 0l0 235.52757l-338.86615 0z" fill-rule="evenodd"/><path fill="#ffd966" d="m50.654568 76.38654l1.8125 0l0 12.921875l-1.8125 0l0 -12.921875zm4.9091644 3.5q0.59375 -0.15625 1.578125 -0.3125q0.984375 -0.171875 2.28125 -0.171875q1.15625 0 1.921875 0.328125q0.765625 0.328125 1.21875 0.921875q0.453125 0.578125 0.640625 1.40625q0.1875 0.8125 0.1875 1.796875l0 5.453125l-1.734375 0l0 -5.078125q0 -0.890625 -0.125 -1.515625q-0.125 -0.640625 -0.40625 -1.03125q-0.265625 -0.390625 -0.734375 -0.5625q-0.46875 -0.1875 -1.15625 -0.1875q-0.28125 0 -0.578125 0.015625q-0.296875 0.015625 -0.578125 0.046875q-0.265625 0.03125 -0.484375 0.078125q-0.203125 0.03125 -0.296875 0.046875l0 8.1875l-1.734375 0l0 -9.421875zm17.443066 4.59375q0 -1.703125 -0.84375 -2.609375q-0.84375 -0.921875 -2.234375 -0.921875q-0.796875 0 -1.234375 0.0625q-0.4375 0.046875 -0.6875 0.125l0 6.125q0.3125 0.25 0.90625 0.5q0.59375 0.234375 1.3125 0.234375q0.734375 0 1.265625 -0.265625q0.53125 -0.265625 0.859375 -0.734375q0.34375 -0.484375 0.5 -1.125q0.15625 -0.640625 0.15625 -1.390625zm1.796875 0q0 1.09375 -0.296875 2.03125q-0.28125 0.9375 -0.84375 1.609375q-0.546875 0.671875 -1.359375 1.046875q-0.8125 0.359375 -1.859375 0.359375q-0.84375 0 -1.484375 -0.21875q-0.640625 -0.21875 -0.953125 -0.421875l0 3.875l-1.734375 0l0 -12.859375q0.609375 -0.140625 1.53125 -0.3125q0.921875 -0.1875 2.140625 -0.1875q1.109375 0 2.0 0.359375q0.90625 0.34375 1.53125 1.0q0.640625 0.65625 0.984375 1.609375q0.34375 0.9375 0.34375 2.109375zm10.176041 4.546875q-0.59375 0.15625 -1.578125 0.3125q-0.984375 0.171875 -2.265625 0.171875q-1.125 0 -1.890625 -0.328125q-0.765625 -0.328125 -1.234375 -0.921875q-0.453125 -0.59375 -0.671875 -1.40625q-0.203125 -0.8125 -0.203125 -1.796875l0 -5.453125l1.734375 0l0 5.078125q0 1.765625 0.5625 2.53125q0.5625 0.765625 1.890625 0.765625q0.28125 0 0.578125 -0.015625q0.296875 -0.015625 0.546875 -0.046875q0.265625 -0.03125 0.484375 -0.046875q0.21875 -0.03125 0.3125 -0.078125l0 -8.1875l1.734375 0l0 9.421875zm4.5993195 -9.421875l3.6875 0l0 1.453125l-3.6875 0l0 4.484375q0 0.71875 0.109375 1.203125q0.125 0.46875 0.34375 0.75q0.21875 0.265625 0.546875 0.375q0.34375 0.109375 0.796875 0.109375q0.78125 0 1.25 -0.171875q0.484375 -0.171875 0.671875 -0.25l0.328125 1.4375q-0.25 0.125 -0.90625 0.3125q-0.65625 0.203125 -1.5 0.203125q-0.984375 0 -1.625 -0.25q-0.640625 -0.25 -1.03125 -0.75q-0.390625 -0.515625 -0.5625 -1.25q-0.15625 -0.734375 -0.15625 -1.703125l0 -8.65625l1.734375 -0.296875l0 3.0z" fill-rule="nonzero"/><path fill="#f3f3f3" d="m96.938225 84.12092q0 2.21875 0.640625 4.109375q0.640625 1.890625 1.890625 3.5l-1.15625 0.78125q-1.34375 -1.640625 -2.171875 -3.78125q-0.8125 -2.140625 -0.8125 -4.609375q0 -2.453125 0.8125 -4.59375q0.828125 -2.140625 2.171875 -3.78125l1.15625 0.78125q-1.25 1.609375 -1.890625 3.5q-0.640625 1.875 -0.640625 4.09375z" fill-rule="nonzero"/><path fill="#f3f3f3" d="m104.248314 106.67904q-0.296875 -0.234375 -0.84375 -0.453125q-0.546875 -0.234375 -1.21875 -0.234375q-0.6875 0 -1.1875 0.25q-0.484375 0.25 -0.796875 0.703125q-0.3125 0.4375 -0.453125 1.046875q-0.140625 0.59375 -0.140625 1.296875q0 1.578125 0.78125 2.4375q0.78125 0.84375 2.078125 0.84375q0.65625 0 1.09375 -0.046875q0.453125 -0.0625 0.6875 -0.140625l0 -5.703125zm0 -6.0625l1.609375 -0.28125l0 13.1875q-0.546875 0.15625 -1.421875 0.3125q-0.859375 0.15625 -1.984375 0.15625q-1.046875 0 -1.875 -0.328125q-0.828125 -0.328125 -1.421875 -0.921875q-0.578125 -0.609375 -0.90625 -1.484375q-0.3125 -0.875 -0.3125 -1.96875q0 -1.046875 0.265625 -1.90625q0.265625 -0.875 0.78125 -1.5q0.515625 -0.625 1.265625 -0.96875q0.765625 -0.34375 1.734375 -0.34375q0.78125 0 1.375 0.21875q0.59375 0.203125 0.890625 0.390625l0 -4.5625zm7.4405823 12.015625q0.5625 0 1.0 -0.03125q0.453125 -0.03125 0.75 -0.09375l0 -2.6875q-0.171875 -0.09375 -0.5625 -0.140625q-0.390625 -0.0625 -0.953125 -0.0625q-0.359375 0 -0.765625 0.046875q-0.40625 0.046875 -0.75 0.21875q-0.328125 0.15625 -0.5625 0.453125q-0.21875 0.28125 -0.21875 0.75q0 0.859375 0.546875 1.203125q0.5625 0.34375 1.515625 0.34375zm-0.140625 -8.078125q0.96875 0 1.640625 0.25q0.671875 0.25 1.078125 0.71875q0.40625 0.453125 0.578125 1.09375q0.171875 0.625 0.171875 1.390625l0 5.625q-0.203125 0.03125 -0.578125 0.09375q-0.375 0.0625 -0.84375 0.109375q-0.46875 0.0625 -1.015625 0.09375q-0.546875 0.046875 -1.078125 0.046875q-0.765625 0 -1.40625 -0.15625q-0.640625 -0.15625 -1.109375 -0.484375q-0.46875 -0.34375 -0.734375 -0.890625q-0.25 -0.5625 -0.25 -1.34375q0 -0.75 0.296875 -1.28125q0.3125 -0.53125 0.828125 -0.859375q0.515625 -0.328125 1.203125 -0.484375q0.703125 -0.15625 1.46875 -0.15625q0.234375 0 0.484375 0.03125q0.265625 0.015625 0.5 0.0625q0.234375 0.03125 0.40625 0.078125q0.171875 0.03125 0.25 0.046875l0 -0.453125q0 -0.390625 -0.09375 -0.78125q-0.078125 -0.390625 -0.3125 -0.6875q-0.21875 -0.3125 -0.609375 -0.484375q-0.390625 -0.1875 -1.015625 -0.1875q-0.796875 0 -1.390625 0.109375q-0.59375 0.109375 -0.890625 0.234375l-0.1875 -1.34375q0.3125 -0.125 1.03125 -0.25q0.734375 -0.140625 1.578125 -0.140625zm7.638977 0.21875l3.421875 0l0 1.359375l-3.421875 0l0 4.15625q0 0.671875 0.109375 1.125q0.109375 0.4375 0.3125 0.6875q0.203125 0.25 0.515625 0.359375q0.3125 0.09375 0.734375 0.09375q0.71875 0 1.15625 -0.15625q0.453125 -0.171875 0.625 -0.234375l0.3125 1.328125q-0.25 0.125 -0.859375 0.296875q-0.59375 0.1875 -1.375 0.1875q-0.921875 0 -1.53125 -0.234375q-0.59375 -0.234375 -0.953125 -0.703125q-0.359375 -0.46875 -0.515625 -1.140625q-0.140625 -0.6875 -0.140625 -1.59375l0 -8.03125l1.609375 -0.28125l0 2.78125zm8.512741 7.859375q0.5625076 0 1.0000076 -0.03125q0.453125 -0.03125 0.75 -0.09375l0 -2.6875q-0.171875 -0.09375 -0.5625 -0.140625q-0.390625 -0.0625 -0.9531326 -0.0625q-0.359375 0 -0.765625 0.046875q-0.40625 0.046875 -0.75 0.21875q-0.328125 0.15625 -0.5625 0.453125q-0.21875 0.28125 -0.21875 0.75q0 0.859375 0.546875 1.203125q0.5625 0.34375 1.515625 0.34375zm-0.140625 -8.078125q0.9687576 0 1.6406326 0.25q0.671875 0.25 1.078125 0.71875q0.40625 0.453125 0.578125 1.09375q0.171875 0.625 0.171875 1.390625l0 5.625q-0.203125 0.03125 -0.578125 0.09375q-0.375 0.0625 -0.84375 0.109375q-0.46875 0.0625 -1.015625 0.09375q-0.546875 0.046875 -1.0781326 0.046875q-0.765625 0 -1.40625 -0.15625q-0.640625 -0.15625 -1.109375 -0.484375q-0.46875 -0.34375 -0.734375 -0.890625q-0.25 -0.5625 -0.25 -1.34375q0 -0.75 0.296875 -1.28125q0.3125 -0.53125 0.828125 -0.859375q0.515625 -0.328125 1.203125 -0.484375q0.703125 -0.15625 1.46875 -0.15625q0.23438263 0 0.48438263 0.03125q0.265625 0.015625 0.5 0.0625q0.234375 0.03125 0.40625 0.078125q0.171875 0.03125 0.25 0.046875l0 -0.453125q0 -0.390625 -0.09375 -0.78125q-0.078125 -0.390625 -0.3125 -0.6875q-0.21875 -0.3125 -0.609375 -0.484375q-0.390625 -0.1875 -1.0156326 -0.1875q-0.796875 0 -1.390625 0.109375q-0.59375 0.109375 -0.890625 0.234375l-0.1875 -1.34375q0.3125 -0.125 1.03125 -0.25q0.734375 -0.140625 1.578125 -0.140625zm8.232735 8.078125q0.984375 0 1.453125 -0.265625q0.484375 -0.265625 0.484375 -0.828125q0 -0.59375 -0.46875 -0.9375q-0.46875 -0.34375 -1.546875 -0.78125q-0.515625 -0.203125 -1.0 -0.421875q-0.46875 -0.21875 -0.8125 -0.515625q-0.34375 -0.296875 -0.5625 -0.703125q-0.203125 -0.421875 -0.203125 -1.03125q0 -1.1875 0.875 -1.890625q0.890625 -0.703125 2.421875 -0.703125q0.375 0 0.75 0.046875q0.390625 0.03125 0.71875 0.09375q0.328125 0.0625 0.578125 0.140625q0.25 0.0625 0.390625 0.109375l-0.296875 1.390625q-0.25 -0.140625 -0.8125 -0.28125q-0.546875 -0.15625 -1.328125 -0.15625q-0.671875 0 -1.1875 0.28125q-0.5 0.265625 -0.5 0.828125q0 0.296875 0.109375 0.53125q0.125 0.21875 0.359375 0.40625q0.234375 0.171875 0.578125 0.328125q0.34375 0.15625 0.828125 0.328125q0.640625 0.25 1.140625 0.484375q0.5 0.234375 0.859375 0.546875q0.359375 0.3125 0.546875 0.75q0.1875 0.4375 0.1875 1.078125q0 1.25 -0.921875 1.890625q-0.921875 0.640625 -2.640625 0.640625q-1.203125 0 -1.875 -0.203125q-0.671875 -0.1875 -0.921875 -0.296875l0.296875 -1.390625q0.28125 0.109375 0.890625 0.328125q0.609375 0.203125 1.609375 0.203125zm5.134552 -3.328125q0 -1.203125 0.34375 -2.09375q0.34375 -0.890625 0.90625 -1.46875q0.578125 -0.59375 1.3125 -0.890625q0.75 -0.296875 1.53125 -0.296875q1.828125 0 2.796875 1.140625q0.96875 1.125 0.96875 3.453125q0 0.09375 0 0.265625q0 0.171875 -0.015625 0.296875l-6.171875 0q0.109375 1.40625 0.8125 2.140625q0.71875 0.71875 2.21875 0.71875q0.859375 0 1.4375 -0.140625q0.578125 -0.140625 0.875 -0.28125l0.21875 1.34375q-0.296875 0.15625 -1.03125 0.328125q-0.734375 0.171875 -1.671875 0.171875q-1.171875 0 -2.03125 -0.34375q-0.859375 -0.359375 -1.421875 -0.984375q-0.546875 -0.625 -0.8125 -1.484375q-0.265625 -0.859375 -0.265625 -1.875zm6.171875 -0.890625q0.03125 -1.09375 -0.546875 -1.78125q-0.5625 -0.703125 -1.546875 -0.703125q-0.546875 0 -0.984375 0.21875q-0.421875 0.203125 -0.71875 0.5625q-0.28125 0.34375 -0.453125 0.796875q-0.15625 0.4375 -0.21875 0.90625l4.46875 0zm5.514496 -3.640625l3.421875 0l0 1.359375l-3.421875 0l0 4.15625q0 0.671875 0.109375 1.125q0.109375 0.4375 0.3125 0.6875q0.203125 0.25 0.515625 0.359375q0.3125 0.09375 0.734375 0.09375q0.71875 0 1.15625 -0.15625q0.453125 -0.171875 0.625 -0.234375l0.3125 1.328125q-0.25 0.125 -0.859375 0.296875q-0.59375 0.1875 -1.375 0.1875q-0.921875 0 -1.53125 -0.234375q-0.59375 -0.234375 -0.953125 -0.703125q-0.359375 -0.46875 -0.515625 -1.140625q-0.140625 -0.6875 -0.140625 -1.59375l0 -8.03125l1.609375 -0.28125l0 2.78125zm7.372116 8.078125q0 0.46875 -0.3125 0.8125q-0.3125 0.34375 -0.859375 0.34375q-0.53125 0 -0.84375 -0.34375q-0.3125 -0.34375 -0.3125 -0.8125q0 -0.46875 0.3125 -0.8125q0.3125 -0.34375 0.84375 -0.34375q0.546875 0 0.859375 0.34375q0.3125 0.34375 0.3125 0.8125zm0 -6.90625q0 0.46875 -0.3125 0.8125q-0.3125 0.34375 -0.859375 0.34375q-0.53125 0 -0.84375 -0.34375q-0.3125 -0.34375 -0.3125 -0.8125q0 -0.46875 0.3125 -0.8125q0.3125 -0.34375 0.84375 -0.34375q0.546875 0 0.859375 0.34375q0.3125 0.34375 0.3125 0.8125z" fill-rule="nonzero"/><path fill="#97e574" d="m174.29749 109.288414q0 1.0625 -0.3125 1.9375q-0.3125 0.859375 -0.875 1.484375q-0.5625 0.625 -1.34375 0.96875q-0.78125 0.328125 -1.703125 0.328125q-0.921875 0 -1.703125 -0.328125q-0.765625 -0.34375 -1.34375 -0.96875q-0.5625 -0.625 -0.875 -1.484375q-0.296875 -0.875 -0.296875 -1.9375q0 -1.0625 0.296875 -1.9375q0.3125 -0.875 0.875 -1.5q0.578125 -0.625 1.34375 -0.953125q0.78125 -0.34375 1.703125 -0.34375q0.921875 0 1.703125 0.34375q0.78125 0.328125 1.34375 0.953125q0.5625 0.625 0.875 1.5q0.3125 0.875 0.3125 1.9375zm-1.6875 0q0 -1.53125 -0.6875 -2.421875q-0.671875 -0.890625 -1.859375 -0.890625q-1.171875 0 -1.859375 0.890625q-0.6875 0.890625 -0.6875 2.421875q0 1.515625 0.6875 2.40625q0.6875 0.890625 1.859375 0.890625q1.1875 0 1.859375 -0.890625q0.6875 -0.890625 0.6875 -2.40625zm5.5672913 -4.109375q0.296875 -0.1875 0.890625 -0.390625q0.59375 -0.21875 1.375 -0.21875q0.96875 0 1.71875 0.34375q0.765625 0.34375 1.28125 0.96875q0.515625 0.625 0.78125 1.5q0.28125 0.859375 0.28125 1.90625q0 1.09375 -0.328125 1.96875q-0.3125 0.875 -0.90625 1.484375q-0.59375 0.59375 -1.421875 0.921875q-0.828125 0.328125 -1.875 0.328125q-1.125 0 -2.0 -0.15625q-0.859375 -0.15625 -1.40625 -0.3125l0 -12.90625l1.609375 -0.28125l0 4.84375zm0 7.203125q0.234375 0.078125 0.671875 0.140625q0.453125 0.046875 1.109375 0.046875q1.296875 0 2.078125 -0.84375q0.78125 -0.859375 0.78125 -2.4375q0 -0.703125 -0.140625 -1.296875q-0.140625 -0.609375 -0.453125 -1.046875q-0.3125 -0.453125 -0.8125 -0.703125q-0.484375 -0.25 -1.171875 -0.25q-0.65625 0 -1.21875 0.234375q-0.546875 0.21875 -0.84375 0.453125l0 5.703125zm7.1124573 4.640625q-0.203125 0 -0.53125 -0.046875q-0.328125 -0.046875 -0.546875 -0.140625l0.203125 -1.3125q0.171875 0.046875 0.40625 0.078125q0.21875 0.046875 0.40625 0.046875q0.828125 0 1.1875 -0.515625q0.359375 -0.515625 0.359375 -1.5l0 -8.859375l1.609375 0l0 8.84375q0 1.734375 -0.796875 2.5625q-0.78125 0.84375 -2.296875 0.84375zm2.28125 -13.875q-0.4375 0 -0.75 -0.28125q-0.296875 -0.296875 -0.296875 -0.78125q0 -0.484375 0.296875 -0.765625q0.3125 -0.28125 0.75 -0.28125q0.421875 0 0.71875 0.28125q0.3125 0.28125 0.3125 0.765625q0 0.484375 -0.3125 0.78125q-0.296875 0.28125 -0.71875 0.28125zm3.0871124 6.15625q0 -1.203125 0.34375 -2.09375q0.34375 -0.890625 0.90625 -1.46875q0.578125 -0.59375 1.3125 -0.890625q0.75 -0.296875 1.53125 -0.296875q1.828125 0 2.796875 1.140625q0.96875 1.125 0.96875 3.453125q0 0.09375 0 0.265625q0 0.171875 -0.015625 0.296875l-6.171875 0q0.109375 1.40625 0.8125 2.140625q0.71875 0.71875 2.21875 0.71875q0.859375 0 1.4375 -0.140625q0.578125 -0.140625 0.875 -0.28125l0.21875 1.34375q-0.296875 0.15625 -1.03125 0.328125q-0.734375 0.171875 -1.671875 0.171875q-1.171875 0 -2.03125 -0.34375q-0.859375 -0.359375 -1.421875 -0.984375q-0.546875 -0.625 -0.8125 -1.484375q-0.265625 -0.859375 -0.265625 -1.875zm6.171875 -0.890625q0.03125 -1.09375 -0.546875 -1.78125q-0.5625 -0.703125 -1.546875 -0.703125q-0.546875 0 -0.984375 0.21875q-0.421875 0.203125 -0.71875 0.5625q-0.28125 0.34375 -0.453125 0.796875q-0.15625 0.4375 -0.21875 0.90625l4.46875 0zm7.920746 5.578125q-1.09375 0 -1.921875 -0.34375q-0.8125 -0.34375 -1.375 -0.96875q-0.5625 -0.625 -0.84375 -1.484375q-0.265625 -0.859375 -0.265625 -1.890625q0 -1.046875 0.296875 -1.90625q0.296875 -0.875 0.84375 -1.5q0.5625 -0.640625 1.359375 -0.984375q0.8125 -0.359375 1.8125 -0.359375q0.609375 0 1.203125 0.109375q0.609375 0.09375 1.171875 0.328125l-0.375 1.359375q-0.359375 -0.171875 -0.84375 -0.265625q-0.46875 -0.109375 -1.0 -0.109375q-1.359375 0 -2.078125 0.859375q-0.71875 0.84375 -0.71875 2.46875q0 0.71875 0.15625 1.328125q0.171875 0.609375 0.53125 1.046875q0.359375 0.421875 0.90625 0.65625q0.5625 0.234375 1.359375 0.234375q0.640625 0 1.15625 -0.109375q0.515625 -0.125 0.8125 -0.265625l0.234375 1.34375q-0.140625 0.09375 -0.40625 0.171875q-0.265625 0.078125 -0.59375 0.140625q-0.328125 0.0625 -0.703125 0.09375q-0.359375 0.046875 -0.71875 0.046875zm5.6512756 -9.21875l3.421875 0l0 1.359375l-3.421875 0l0 4.15625q0 0.671875 0.109375 1.125q0.109375 0.4375 0.3125 0.6875q0.203125 0.25 0.515625 0.359375q0.3125 0.09375 0.734375 0.09375q0.71875 0 1.15625 -0.15625q0.453125 -0.171875 0.625 -0.234375l0.3125 1.328125q-0.25 0.125 -0.859375 0.296875q-0.59375 0.1875 -1.375 0.1875q-0.921875 0 -1.53125 -0.234375q-0.59375 -0.234375 -0.953125 -0.703125q-0.359375 -0.46875 -0.515625 -1.140625q-0.140625 -0.6875 -0.140625 -1.59375l0 -8.03125l1.609375 -0.28125l0 2.78125z" fill-rule="nonzero"/><path fill="#f3f3f3" d="m217.55536 111.819664q0.03125 0.125 0.03125 0.265625q0 0.125 0 0.265625q0 1.09375 -0.328125 2.15625q-0.328125 1.0625 -0.875 2.03125l-1.25 -0.390625q0.4375 -0.890625 0.578125 -1.796875q0.140625 -0.90625 0.140625 -1.703125q0 -0.234375 -0.015625 -0.4375q0 -0.203125 -0.03125 -0.390625l1.75 0z" fill-rule="nonzero"/><path fill="#f3f3f3" d="m102.342064 137.91153q-1.09375 0 -1.921875 -0.34375q-0.8125 -0.34375 -1.375 -0.96875q-0.5625 -0.625 -0.84375 -1.484375q-0.265625 -0.859375 -0.265625 -1.890625q0 -1.046875 0.296875 -1.90625q0.296875 -0.875 0.84375 -1.5q0.5625 -0.640625 1.359375 -0.984375q0.8125 -0.359375 1.8125 -0.359375q0.609375 0 1.203125 0.109375q0.609375 0.09375 1.171875 0.328125l-0.375 1.359375q-0.359375 -0.171875 -0.84375 -0.265625q-0.46875 -0.109375 -1.0 -0.109375q-1.359375 0 -2.078125 0.859375q-0.71875 0.84375 -0.71875 2.46875q0 0.71875 0.15625 1.328125q0.171875 0.609375 0.53125 1.046875q0.359375 0.421875 0.90625 0.65625q0.5625 0.234375 1.359375 0.234375q0.640625 0 1.15625 -0.109375q0.515625 -0.125 0.8125 -0.265625l0.234375 1.34375q-0.140625 0.09375 -0.40625 0.171875q-0.265625 0.078125 -0.59375 0.140625q-0.328125 0.0625 -0.703125 0.09375q-0.359375 0.046875 -0.71875 0.046875zm11.879074 -4.703125q0 1.0625 -0.3125 1.9375q-0.3125 0.859375 -0.875 1.484375q-0.5625 0.625 -1.34375 0.96875q-0.78125 0.328125 -1.703125 0.328125q-0.921875 0 -1.703125 -0.328125q-0.765625 -0.34375 -1.34375 -0.96875q-0.5625 -0.625 -0.875 -1.484375q-0.296875 -0.875 -0.296875 -1.9375q0 -1.0625 0.296875 -1.9375q0.3125 -0.875 0.875 -1.5q0.578125 -0.625 1.34375 -0.953125q0.78125 -0.34375 1.703125 -0.34375q0.921875 0 1.703125 0.34375q0.78125 0.328125 1.34375 0.953125q0.5625 0.625 0.875 1.5q0.3125 0.875 0.3125 1.9375zm-1.6875 0q0 -1.53125 -0.6875 -2.421875q-0.671875 -0.890625 -1.859375 -0.890625q-1.171875 0 -1.859375 0.890625q-0.6875 0.890625 -0.6875 2.421875q0 1.515625 0.6875 2.40625q0.6875 0.890625 1.859375 0.890625q1.1875 0 1.859375 -0.890625q0.6875 -0.890625 0.6875 -2.40625zm6.6610413 4.671875q-1.5 -0.03125 -2.125 -0.640625q-0.609375 -0.609375 -0.609375 -1.890625l0 -10.812492l1.609375 -0.28125l0 10.843742q0 0.390625 0.0625 0.65625q0.078125 0.25 0.21875 0.40625q0.15625 0.15625 0.421875 0.234375q0.265625 0.078125 0.640625 0.140625l-0.21875 1.34375zm9.199303 -0.4375q-0.5625076 0.140625 -1.4687576 0.296875q-0.90625 0.15625 -2.109375 0.15625q-1.03125 0 -1.75 -0.296875q-0.703125 -0.3125 -1.140625 -0.859375q-0.4375 -0.5625 -0.625 -1.3125q-0.1875 -0.75 -0.1875 -1.671875l0 -5.0625l1.609375 0l0 4.71875q0 1.640625 0.515625 2.359375q0.53125 0.703125 1.75 0.703125q0.265625 0 0.546875 -0.015625q0.28125 -0.015625 0.515625 -0.03125q0.25 -0.03125 0.4375 -0.0625q0.203125 -0.03125 0.296875 -0.0625l0 -7.609375l1.6093826 0l0 8.75zm2.774414 -8.484375q0.546875 -0.140625 1.453125 -0.296875q0.921875 -0.15625 2.109375 -0.15625q0.875 0 1.453125 0.234375q0.59375 0.234375 1.0 0.6875q0.109375 -0.09375 0.375 -0.25q0.265625 -0.15625 0.640625 -0.296875q0.375 -0.140625 0.84375 -0.25q0.46875 -0.125 1.015625 -0.125q1.03125 0 1.6875 0.3125q0.65625 0.296875 1.03125 0.859375q0.375 0.546875 0.5 1.3125q0.140625 0.765625 0.140625 1.65625l0 5.0625l-1.609375 0l0 -4.71875q0 -0.796875 -0.078125 -1.359375q-0.078125 -0.578125 -0.296875 -0.953125q-0.21875 -0.390625 -0.59375 -0.5625q-0.375 -0.1875 -0.953125 -0.1875q-0.828125 0 -1.359375 0.21875q-0.515625 0.21875 -0.703125 0.390625q0.125 0.453125 0.1875 0.984375q0.078125 0.53125 0.078125 1.125l0 5.0625l-1.609375 0l0 -4.71875q0 -0.796875 -0.09375 -1.359375q-0.078125 -0.578125 -0.296875 -0.953125q-0.21875 -0.390625 -0.59375 -0.5625q-0.359375 -0.1875 -0.9375 -0.1875q-0.234375 0 -0.515625 0.015625q-0.28125 0.015625 -0.53125 0.046875q-0.25 0.03125 -0.46875 0.0625q-0.203125 0.03125 -0.265625 0.046875l0 7.609375l-1.609375 0l0 -8.75zm14.919434 0q0.546875 -0.140625 1.46875 -0.296875q0.921875 -0.15625 2.109375 -0.15625q1.078125 0 1.78125 0.3125q0.71875 0.296875 1.140625 0.84375q0.421875 0.546875 0.59375 1.3125q0.171875 0.75 0.171875 1.671875l0 5.0625l-1.609375 0l0 -4.71875q0 -0.828125 -0.109375 -1.40625q-0.109375 -0.59375 -0.375 -0.953125q-0.25 -0.375 -0.6875 -0.53125q-0.4375 -0.171875 -1.078125 -0.171875q-0.25 0 -0.53125 0.015625q-0.28125 0.015625 -0.53125 0.046875q-0.25 0.03125 -0.453125 0.0625q-0.203125 0.03125 -0.28125 0.046875l0 7.609375l-1.609375 0l0 -8.75zm12.040039 7.59375q0.984375 0 1.453125 -0.265625q0.484375 -0.265625 0.484375 -0.828125q0 -0.59375 -0.46875 -0.9375q-0.46875 -0.34375 -1.546875 -0.78125q-0.515625 -0.203125 -1.0 -0.421875q-0.46875 -0.21875 -0.8125 -0.515625q-0.34375 -0.296875 -0.5625 -0.703125q-0.203125 -0.421875 -0.203125 -1.03125q0 -1.1875 0.875 -1.890625q0.890625 -0.703125 2.421875 -0.703125q0.375 0 0.75 0.046875q0.390625 0.03125 0.71875 0.09375q0.328125 0.0625 0.578125 0.140625q0.25 0.0625 0.390625 0.109375l-0.296875 1.390625q-0.25 -0.140625 -0.8125 -0.28125q-0.546875 -0.15625 -1.328125 -0.15625q-0.671875 0 -1.1875 0.28125q-0.5 0.265625 -0.5 0.828125q0 0.296875 0.109375 0.53125q0.125 0.21875 0.359375 0.40625q0.234375 0.171875 0.578125 0.328125q0.34375 0.15625 0.828125 0.328125q0.640625 0.25 1.140625 0.484375q0.5 0.234375 0.859375 0.546875q0.359375 0.3125 0.546875 0.75q0.1875 0.4375 0.1875 1.078125q0 1.25 -0.921875 1.890625q-0.921875 0.640625 -2.640625 0.640625q-1.203125 0 -1.875 -0.203125q-0.671875 -0.1875 -0.921875 -0.296875l0.296875 -1.390625q0.28125 0.109375 0.890625 0.328125q0.609375 0.203125 1.609375 0.203125zm4.181427 3.0l8.65625 0l0 1.359375l-8.65625 0l0 -1.359375zm9.478516 -6.328125q0 -1.203125 0.34375 -2.09375q0.34375 -0.890625 0.90625 -1.46875q0.578125 -0.59375 1.3125 -0.890625q0.75 -0.296875 1.53125 -0.296875q1.828125 0 2.796875 1.140625q0.96875 1.125 0.96875 3.453125q0 0.09375 0 0.265625q0 0.171875 -0.015625 0.296875l-6.171875 0q0.109375 1.40625 0.8125 2.140625q0.71875 0.71875 2.21875 0.71875q0.859375 0 1.4375 -0.140625q0.578125 -0.140625 0.875 -0.28125l0.21875 1.34375q-0.296875 0.15625 -1.03125 0.328125q-0.734375 0.171875 -1.671875 0.171875q-1.171875 0 -2.03125 -0.34375q-0.859375 -0.359375 -1.421875 -0.984375q-0.546875 -0.625 -0.8125 -1.484375q-0.265625 -0.859375 -0.265625 -1.875zm6.171875 -0.890625q0.03125 -1.09375 -0.546875 -1.78125q-0.5625 -0.703125 -1.546875 -0.703125q-0.546875 0 -0.984375 0.21875q-0.421875 0.203125 -0.71875 0.5625q-0.28125 0.34375 -0.453125 0.796875q-0.15625 0.4375 -0.21875 0.90625l4.46875 0zm9.405121 5.375q-0.203125 -0.375 -0.484375 -0.84375q-0.265625 -0.46875 -0.59375 -0.953125q-0.328125 -0.5 -0.6875 -0.984375q-0.34375 -0.5 -0.671875 -0.921875q-0.328125 0.421875 -0.671875 0.921875q-0.34375 0.5 -0.671875 1.0q-0.3125 0.484375 -0.59375 0.953125q-0.28125 0.46875 -0.46875 0.828125l-1.65625 0q0.609375 -1.171875 1.4375 -2.390625q0.84375 -1.234375 1.671875 -2.34375l-2.96875 -4.28125l1.8125 0l2.15625 3.15625l2.15625 -3.15625l1.71875 0l-2.90625 4.1875q0.828125 1.125 1.703125 2.375q0.875 1.25 1.484375 2.453125l-1.765625 0zm7.006241 0.203125q-1.09375 0 -1.921875 -0.34375q-0.8125 -0.34375 -1.375 -0.96875q-0.5625 -0.625 -0.84375 -1.484375q-0.265625 -0.859375 -0.265625 -1.890625q0 -1.046875 0.296875 -1.90625q0.296875 -0.875 0.84375 -1.5q0.5625 -0.640625 1.359375 -0.984375q0.8125 -0.359375 1.8125 -0.359375q0.609375 0 1.203125 0.109375q0.609375 0.09375 1.171875 0.328125l-0.375 1.359375q-0.359375 -0.171875 -0.84375 -0.265625q-0.46875 -0.109375 -1.0 -0.109375q-1.359375 0 -2.078125 0.859375q-0.71875 0.84375 -0.71875 2.46875q0 0.71875 0.15625 1.328125q0.171875 0.609375 0.53125 1.046875q0.359375 0.421875 0.90625 0.65625q0.5625 0.234375 1.359375 0.234375q0.640625 0 1.15625 -0.109375q0.515625 -0.125 0.8125 -0.265625l0.234375 1.34375q-0.140625 0.09375 -0.40625 0.171875q-0.265625 0.078125 -0.59375 0.140625q-0.328125 0.0625 -0.703125 0.09375q-0.359375 0.046875 -0.71875 0.046875zm6.8544006 -0.03125q-1.5 -0.03125 -2.125 -0.640625q-0.609375 -0.609375 -0.609375 -1.890625l0 -10.812492l1.609375 -0.28125l0 10.843742q0 0.390625 0.0625 0.65625q0.078125 0.25 0.21875 0.40625q0.15625 0.15625 0.421875 0.234375q0.265625 0.078125 0.640625 0.140625l-0.21875 1.34375zm9.199295 -0.4375q-0.5625 0.140625 -1.46875 0.296875q-0.90625 0.15625 -2.109375 0.15625q-1.03125 0 -1.75 -0.296875q-0.703125 -0.3125 -1.140625 -0.859375q-0.4375 -0.5625 -0.625 -1.3125q-0.1875 -0.75 -0.1875 -1.671875l0 -5.0625l1.609375 0l0 4.71875q0 1.640625 0.515625 2.359375q0.53125 0.703125 1.75 0.703125q0.265625 0 0.546875 -0.015625q0.28125 -0.015625 0.515625 -0.03125q0.25 -0.03125 0.4375 -0.0625q0.203125 -0.03125 0.296875 -0.0625l0 -7.609375l1.609375 0l0 8.75zm8.586914 -6.84375q-0.296875 -0.234375 -0.84375 -0.453125q-0.546875 -0.234375 -1.21875 -0.234375q-0.6875 0 -1.1875 0.25q-0.484375 0.25 -0.796875 0.703125q-0.3125 0.4375 -0.453125 1.046875q-0.140625 0.59375 -0.140625 1.296875q0 1.578125 0.78125 2.4375q0.78125 0.84375 2.078125 0.84375q0.65625 0 1.09375 -0.046875q0.453125 -0.0625 0.6875 -0.140625l0 -5.703125zm0 -6.0624924l1.609375 -0.28125l0 13.187492q-0.546875 0.15625 -1.421875 0.3125q-0.859375 0.15625 -1.984375 0.15625q-1.046875 0 -1.875 -0.328125q-0.828125 -0.328125 -1.421875 -0.921875q-0.578125 -0.609375 -0.90625 -1.484375q-0.3125 -0.875 -0.3125 -1.96875q0 -1.046875 0.265625 -1.90625q0.265625 -0.875 0.78125 -1.5q0.515625 -0.625 1.265625 -0.96875q0.765625 -0.34375 1.734375 -0.34375q0.78125 0 1.375 0.21875q0.59375 0.203125 0.890625 0.390625l0 -4.5624924zm3.8937073 8.687492q0 -1.203125 0.34375 -2.09375q0.34375 -0.890625 0.90625 -1.46875q0.578125 -0.59375 1.3125 -0.890625q0.75 -0.296875 1.53125 -0.296875q1.828125 0 2.796875 1.140625q0.96875 1.125 0.96875 3.453125q0 0.09375 0 0.265625q0 0.171875 -0.015625 0.296875l-6.171875 0q0.109375 1.40625 0.8125 2.140625q0.71875 0.71875 2.21875 0.71875q0.859375 0 1.4375 -0.140625q0.578125 -0.140625 0.875 -0.28125l0.21875 1.34375q-0.296875 0.15625 -1.03125 0.328125q-0.734375 0.171875 -1.671875 0.171875q-1.171875 0 -2.03125 -0.34375q-0.859375 -0.359375 -1.421875 -0.984375q-0.546875 -0.625 -0.8125 -1.484375q-0.265625 -0.859375 -0.265625 -1.875zm6.171875 -0.890625q0.03125 -1.09375 -0.546875 -1.78125q-0.5625 -0.703125 -1.546875 -0.703125q-0.546875 0 -0.984375 0.21875q-0.421875 0.203125 -0.71875 0.5625q-0.28125 0.34375 -0.453125 0.796875q-0.15625 0.4375 -0.21875 0.90625l4.46875 0zm9.826996 -1.734375q-0.296875 -0.234375 -0.84375 -0.453125q-0.546875 -0.234375 -1.21875 -0.234375q-0.6875 0 -1.1875 0.25q-0.484375 0.25 -0.796875 0.703125q-0.3125 0.4375 -0.453125 1.046875q-0.140625 0.59375 -0.140625 1.296875q0 1.578125 0.78125 2.4375q0.78125 0.84375 2.078125 0.84375q0.65625 0 1.09375 -0.046875q0.453125 -0.0625 0.6875 -0.140625l0 -5.703125zm0 -6.0624924l1.609375 -0.28125l0 13.187492q-0.546875 0.15625 -1.421875 0.3125q-0.859375 0.15625 -1.984375 0.15625q-1.046875 0 -1.875 -0.328125q-0.828125 -0.328125 -1.421875 -0.921875q-0.578125 -0.609375 -0.90625 -1.484375q-0.3125 -0.875 -0.3125 -1.96875q0 -1.046875 0.265625 -1.90625q0.265625 -0.875 0.78125 -1.5q0.515625 -0.625 1.265625 -0.96875q0.765625 -0.34375 1.734375 -0.34375q0.78125 0 1.375 0.21875q0.59375 0.203125 0.890625 0.390625l0 -4.5624924zm6.2999573 12.234367q0 0.46875 -0.3125 0.8125q-0.3125 0.34375 -0.859375 0.34375q-0.53125 0 -0.84375 -0.34375q-0.3125 -0.34375 -0.3125 -0.8125q0 -0.46875 0.3125 -0.8125q0.3125 -0.34375 0.84375 -0.34375q0.546875 0 0.859375 0.34375q0.3125 0.34375 0.3125 0.8125zm0 -6.90625q0 0.46875 -0.3125 0.8125q-0.3125 0.34375 -0.859375 0.34375q-0.53125 0 -0.84375 -0.34375q-0.3125 -0.34375 -0.3125 -0.8125q0 -0.46875 0.3125 -0.8125q0.3125 -0.34375 0.84375 -0.34375q0.546875 0 0.859375 0.34375q0.3125 0.34375 0.3125 0.8125z" fill-rule="nonzero"/><path fill="#97e574" d="m254.26654 137.88028q-1.5 -0.03125 -2.125 -0.640625q-0.609375 -0.609375 -0.609375 -1.890625l0 -10.812492l1.609375 -0.28125l0 10.843742q0 0.390625 0.0625 0.65625q0.078125 0.25 0.21875 0.40625q0.15625 0.15625 0.421875 0.234375q0.265625 0.078125 0.640625 0.140625l-0.21875 1.34375zm3.6367798 -0.171875l-1.609375 0l0 -9.015625l1.609375 0l0 9.015625zm-0.8125 -10.640617q-0.4375 0 -0.75 -0.28125q-0.296875 -0.296875 -0.296875 -0.78125q0 -0.484375 0.296875 -0.765625q0.3125 -0.28125 0.75 -0.28125q0.421875 0 0.71875 0.28125q0.3125 0.28125 0.3125 0.765625q0 0.484375 -0.3125 0.78125q-0.296875 0.28125 -0.71875 0.28125zm5.6808777 9.484367q0.984375 0 1.453125 -0.265625q0.484375 -0.265625 0.484375 -0.828125q0 -0.59375 -0.46875 -0.9375q-0.46875 -0.34375 -1.546875 -0.78125q-0.515625 -0.203125 -1.0 -0.421875q-0.46875 -0.21875 -0.8125 -0.515625q-0.34375 -0.296875 -0.5625 -0.703125q-0.203125 -0.421875 -0.203125 -1.03125q0 -1.1875 0.875 -1.890625q0.890625 -0.703125 2.421875 -0.703125q0.375 0 0.75 0.046875q0.390625 0.03125 0.71875 0.09375q0.328125 0.0625 0.578125 0.140625q0.25 0.0625 0.390625 0.109375l-0.296875 1.390625q-0.25 -0.140625 -0.8125 -0.28125q-0.546875 -0.15625 -1.328125 -0.15625q-0.671875 0 -1.1875 0.28125q-0.5 0.265625 -0.5 0.828125q0 0.296875 0.109375 0.53125q0.125 0.21875 0.359375 0.40625q0.234375 0.171875 0.578125 0.328125q0.34375 0.15625 0.828125 0.328125q0.640625 0.25 1.140625 0.484375q0.5 0.234375 0.859375 0.546875q0.359375 0.3125 0.546875 0.75q0.1875 0.4375 0.1875 1.078125q0 1.25 -0.921875 1.890625q-0.921875 0.640625 -2.640625 0.640625q-1.203125 0 -1.875 -0.203125q-0.671875 -0.1875 -0.921875 -0.296875l0.296875 -1.390625q0.28125 0.109375 0.890625 0.328125q0.609375 0.203125 1.609375 0.203125zm7.134552 -7.859375l3.421875 0l0 1.359375l-3.421875 0l0 4.15625q0 0.671875 0.109375 1.125q0.109375 0.4375 0.3125 0.6875q0.203125 0.25 0.515625 0.359375q0.3125 0.09375 0.734375 0.09375q0.71875 0 1.15625 -0.15625q0.453125 -0.171875 0.625 -0.234375l0.3125 1.328125q-0.25 0.125 -0.859375 0.296875q-0.59375 0.1875 -1.375 0.1875q-0.921875 0 -1.53125 -0.234375q-0.59375 -0.234375 -0.953125 -0.703125q-0.359375 -0.46875 -0.515625 -1.140625q-0.140625 -0.6875 -0.140625 -1.59375l0 -8.031242l1.609375 -0.28125l0 2.7812424z" fill-rule="nonzero"/><path fill="#f3f3f3" d="m277.0596 135.73965q0.03125 0.125 0.03125 0.265625q0 0.125 0 0.265625q0 1.09375 -0.328125 2.15625q-0.328125 1.0625 -0.875 2.03125l-1.25 -0.390625q0.4375 -0.890625 0.578125 -1.796875q0.140625 -0.90625 0.140625 -1.703125q0 -0.234375 -0.015625 -0.4375q0 -0.203125 -0.03125 -0.390625l1.75 0z" fill-rule="nonzero"/><path fill="#f3f3f3" d="m100.04519 161.6284l-1.609375 0l0 -9.015625l1.609375 0l0 9.015625zm-0.8125 -10.640625q-0.4375 0 -0.75 -0.28125q-0.296875 -0.296875 -0.296875 -0.78125q0 -0.484375 0.296875 -0.765625q0.3125 -0.28125 0.75 -0.28125q0.421875 0 0.71875 0.28125q0.3125 0.28125 0.3125 0.765625q0 0.484375 -0.3125 0.78125q-0.296875 0.28125 -0.71875 0.28125zm3.5871124 1.890625q0.546875 -0.140625 1.453125 -0.296875q0.921875 -0.15625 2.109375 -0.15625q0.875 0 1.453125 0.234375q0.59375 0.234375 1.0 0.6875q0.109375 -0.09375 0.375 -0.25q0.265625 -0.15625 0.640625 -0.296875q0.375 -0.140625 0.84375 -0.25q0.46875 -0.125 1.015625 -0.125q1.03125 0 1.6875 0.3125q0.65625 0.296875 1.03125 0.859375q0.375 0.546875 0.5 1.3125q0.140625 0.765625 0.140625 1.65625l0 5.0625l-1.609375 0l0 -4.71875q0 -0.796875 -0.078125 -1.359375q-0.078125 -0.578125 -0.296875 -0.953125q-0.21875 -0.390625 -0.59375 -0.5625q-0.375 -0.1875 -0.953125 -0.1875q-0.828125 0 -1.359375 0.21875q-0.515625 0.21875 -0.703125 0.390625q0.125 0.453125 0.1875 0.984375q0.078125 0.53125 0.078125 1.125l0 5.0625l-1.609375 0l0 -4.71875q0 -0.796875 -0.09375 -1.359375q-0.078125 -0.578125 -0.296875 -0.953125q-0.21875 -0.390625 -0.59375 -0.5625q-0.359375 -0.1875 -0.9375 -0.1875q-0.234375 0 -0.515625 0.015625q-0.28125 0.015625 -0.53125 0.046875q-0.25 0.03125 -0.46875 0.0625q-0.203125 0.03125 -0.265625 0.046875l0 7.609375l-1.609375 0l0 -8.75zm21.169434 4.265625q0 -1.578125 -0.78125 -2.421875q-0.78125 -0.859375 -2.078125 -0.859375q-0.71875 0 -1.140625 0.0625q-0.40625 0.046875 -0.640625 0.109375l0 5.6875q0.296875 0.25 0.84375 0.46875q0.5625 0.21875 1.21875 0.21875q0.6875 0 1.171875 -0.25q0.5 -0.25 0.8125 -0.6875q0.3125 -0.4375 0.453125 -1.03125q0.140625 -0.609375 0.140625 -1.296875zm1.6875 0q0 1.015625 -0.28125 1.890625q-0.265625 0.859375 -0.78125 1.484375q-0.515625 0.625 -1.28125 0.96875q-0.75 0.34375 -1.71875 0.34375q-0.78125 0 -1.375 -0.203125q-0.59375 -0.203125 -0.890625 -0.40625l0 3.609375l-1.609375 0l0 -11.9375q0.5625 -0.140625 1.421875 -0.296875q0.859375 -0.171875 1.984375 -0.171875q1.046875 0 1.875 0.328125q0.828125 0.328125 1.421875 0.9375q0.59375 0.609375 0.90625 1.484375q0.328125 0.875 0.328125 1.96875zm9.44059 4.21875q-0.5625 0.140625 -1.46875 0.296875q-0.90625 0.15625 -2.109375 0.15625q-1.03125 0 -1.75 -0.296875q-0.703125 -0.3125 -1.140625 -0.859375q-0.4375 -0.5625 -0.625 -1.3125q-0.18750763 -0.75 -0.18750763 -1.671875l0 -5.0625l1.6093826 0l0 4.71875q0 1.640625 0.515625 2.359375q0.53125 0.703125 1.75 0.703125q0.265625 0 0.546875 -0.015625q0.28125 -0.015625 0.515625 -0.03125q0.25 -0.03125 0.4375 -0.0625q0.203125 -0.03125 0.296875 -0.0625l0 -7.609375l1.609375 0l0 8.75zm4.274414 -8.75l3.421875 0l0 1.359375l-3.421875 0l0 4.15625q0 0.671875 0.109375 1.125q0.109375 0.4375 0.3125 0.6875q0.203125 0.25 0.515625 0.359375q0.3125 0.09375 0.734375 0.09375q0.71875 0 1.15625 -0.15625q0.453125 -0.171875 0.625 -0.234375l0.3125 1.328125q-0.25 0.125 -0.859375 0.296875q-0.59375 0.1875 -1.375 0.1875q-0.921875 0 -1.53125 -0.234375q-0.59375 -0.234375 -0.953125 -0.703125q-0.359375 -0.46875 -0.515625 -1.140625q-0.140625 -0.6875 -0.140625 -1.59375l0 -8.03125l1.609375 -0.28125l0 2.78125zm4.7925262 4.53125q0 -1.203125 0.34375 -2.09375q0.34375 -0.890625 0.90625 -1.46875q0.578125 -0.59375 1.3125 -0.890625q0.75 -0.296875 1.53125 -0.296875q1.828125 0 2.796875 1.140625q0.96875 1.125 0.96875 3.453125q0 0.09375 0 0.265625q0 0.171875 -0.015625 0.296875l-6.171875 0q0.109375 1.40625 0.8125 2.140625q0.71875 0.71875 2.21875 0.71875q0.859375 0 1.4375 -0.140625q0.578125 -0.140625 0.875 -0.28125l0.21875 1.34375q-0.296875 0.15625 -1.03125 0.328125q-0.734375 0.171875 -1.671875 0.171875q-1.171875 0 -2.03125 -0.34375q-0.859375 -0.359375 -1.421875 -0.984375q-0.546875 -0.625 -0.8125 -1.484375q-0.265625 -0.859375 -0.265625 -1.875zm6.171875 -0.890625q0.03125 -1.09375 -0.546875 -1.78125q-0.5625 -0.703125 -1.546875 -0.703125q-0.546875 0 -0.984375 0.21875q-0.421875 0.203125 -0.71875 0.5625q-0.28125 0.34375 -0.453125 0.796875q-0.15625 0.4375 -0.21875 0.90625l4.46875 0zm7.342621 -3.828125q0.203125 0 0.46875 0.03125q0.265625 0.015625 0.53125 0.0625q0.265625 0.046875 0.46875 0.09375q0.21875 0.046875 0.328125 0.078125l-0.28125 1.40625q-0.1875 -0.078125 -0.640625 -0.171875q-0.4375 -0.09375 -1.125 -0.09375q-0.453125 0 -0.890625 0.09375q-0.4375 0.09375 -0.578125 0.125l0 7.578125l-1.609375 0l0 -8.625q0.5625 -0.21875 1.40625 -0.390625q0.859375 -0.1875 1.921875 -0.1875zm5.454239 8.046875q0.984375 0 1.453125 -0.265625q0.484375 -0.265625 0.484375 -0.828125q0 -0.59375 -0.46875 -0.9375q-0.46875 -0.34375 -1.546875 -0.78125q-0.515625 -0.203125 -1.0 -0.421875q-0.46875 -0.21875 -0.8125 -0.515625q-0.34375 -0.296875 -0.5625 -0.703125q-0.203125 -0.421875 -0.203125 -1.03125q0 -1.1875 0.875 -1.890625q0.890625 -0.703125 2.421875 -0.703125q0.375 0 0.75 0.046875q0.390625 0.03125 0.71875 0.09375q0.328125 0.0625 0.578125 0.140625q0.25 0.0625 0.390625 0.109375l-0.296875 1.390625q-0.25 -0.140625 -0.8125 -0.28125q-0.546875 -0.15625 -1.328125 -0.15625q-0.671875 0 -1.1875 0.28125q-0.5 0.265625 -0.5 0.828125q0 0.296875 0.109375 0.53125q0.125 0.21875 0.359375 0.40625q0.234375 0.171875 0.578125 0.328125q0.34375 0.15625 0.828125 0.328125q0.640625 0.25 1.140625 0.484375q0.5 0.234375 0.859375 0.546875q0.359375 0.3125 0.546875 0.75q0.1875 0.4375 0.1875 1.078125q0 1.25 -0.921875 1.890625q-0.921875 0.640625 -2.640625 0.640625q-1.203125 0 -1.875 -0.203125q-0.671875 -0.1875 -0.921875 -0.296875l0.296875 -1.390625q0.28125 0.109375 0.890625 0.328125q0.609375 0.203125 1.609375 0.203125zm7.540802 0.21875q0 0.46875 -0.3125 0.8125q-0.3125 0.34375 -0.859375 0.34375q-0.53125 0 -0.84375 -0.34375q-0.3125 -0.34375 -0.3125 -0.8125q0 -0.46875 0.3125 -0.8125q0.3125 -0.34375 0.84375 -0.34375q0.546875 0 0.859375 0.34375q0.3125 0.34375 0.3125 0.8125zm0 -6.90625q0 0.46875 -0.3125 0.8125q-0.3125 0.34375 -0.859375 0.34375q-0.53125 0 -0.84375 -0.34375q-0.3125 -0.34375 -0.3125 -0.8125q0 -0.46875 0.3125 -0.8125q0.3125 -0.34375 0.84375 -0.34375q0.546875 0 0.859375 0.34375q0.3125 0.34375 0.3125 0.8125z" fill-rule="nonzero"/><path fill="#97e574" d="m179.75615 161.80028q-1.5 -0.03125 -2.125 -0.640625q-0.609375 -0.609375 -0.609375 -1.890625l0 -10.8125l1.609375 -0.28125l0 10.84375q0 0.390625 0.0625 0.65625q0.078125 0.25 0.21875 0.40625q0.15625 0.15625 0.421875 0.234375q0.265625 0.078125 0.640625 0.140625l-0.21875 1.34375zm3.636795 -0.171875l-1.609375 0l0 -9.015625l1.609375 0l0 9.015625zm-0.8125 -10.640625q-0.4375 0 -0.75 -0.28125q-0.296875 -0.296875 -0.296875 -0.78125q0 -0.484375 0.296875 -0.765625q0.3125 -0.28125 0.75 -0.28125q0.421875 0 0.71875 0.28125q0.3125 0.28125 0.3125 0.765625q0 0.484375 -0.3125 0.78125q-0.296875 0.28125 -0.71875 0.28125zm5.6808624 9.484375q0.984375 0 1.453125 -0.265625q0.484375 -0.265625 0.484375 -0.828125q0 -0.59375 -0.46875 -0.9375q-0.46875 -0.34375 -1.546875 -0.78125q-0.515625 -0.203125 -1.0 -0.421875q-0.46875 -0.21875 -0.8125 -0.515625q-0.34375 -0.296875 -0.5625 -0.703125q-0.203125 -0.421875 -0.203125 -1.03125q0 -1.1875 0.875 -1.890625q0.890625 -0.703125 2.421875 -0.703125q0.375 0 0.75 0.046875q0.390625 0.03125 0.71875 0.09375q0.328125 0.0625 0.578125 0.140625q0.25 0.0625 0.390625 0.109375l-0.296875 1.390625q-0.25 -0.140625 -0.8125 -0.28125q-0.546875 -0.15625 -1.328125 -0.15625q-0.671875 0 -1.1875 0.28125q-0.5 0.265625 -0.5 0.828125q0 0.296875 0.109375 0.53125q0.125 0.21875 0.359375 0.40625q0.234375 0.171875 0.578125 0.328125q0.34375 0.15625 0.828125 0.328125q0.640625 0.25 1.140625 0.484375q0.5 0.234375 0.859375 0.546875q0.359375 0.3125 0.546875 0.75q0.1875 0.4375 0.1875 1.078125q0 1.25 -0.921875 1.890625q-0.921875 0.640625 -2.640625 0.640625q-1.203125 0 -1.875 -0.203125q-0.671875 -0.1875 -0.921875 -0.296875l0.296875 -1.390625q0.28125 0.109375 0.890625 0.328125q0.609375 0.203125 1.609375 0.203125zm7.134552 -7.859375l3.421875 0l0 1.359375l-3.421875 0l0 4.15625q0 0.671875 0.109375 1.125q0.109375 0.4375 0.3125 0.6875q0.203125 0.25 0.515625 0.359375q0.3125 0.09375 0.734375 0.09375q0.71875 0 1.15625 -0.15625q0.453125 -0.171875 0.625 -0.234375l0.3125 1.328125q-0.25 0.125 -0.859375 0.296875q-0.59375 0.1875 -1.375 0.1875q-0.921875 0 -1.53125 -0.234375q-0.59375 -0.234375 -0.953125 -0.703125q-0.359375 -0.46875 -0.515625 -1.140625q-0.140625 -0.6875 -0.140625 -1.59375l0 -8.03125l1.609375 -0.28125l0 2.78125z" fill-rule="nonzero"/><path fill="#f3f3f3" d="m202.54922 159.65965q0.03125 0.125 0.03125 0.265625q0 0.125 0 0.265625q0 1.09375 -0.328125 2.15625q-0.328125 1.0625 -0.875 2.03125l-1.25 -0.390625q0.4375 -0.890625 0.578125 -1.796875q0.140625 -0.90625 0.140625 -1.703125q0 -0.234375 -0.015625 -0.4375q0 -0.203125 -0.03125 -0.390625l1.75 0z" fill-rule="nonzero"/><path fill="#f3f3f3" d="m100.04519 185.5484l-1.609375 0l0 -9.015625l1.609375 0l0 9.015625zm-0.8125 -10.640625q-0.4375 0 -0.75 -0.28125q-0.296875 -0.296875 -0.296875 -0.78125q0 -0.484375 0.296875 -0.765625q0.3125 -0.28125 0.75 -0.28125q0.421875 0 0.71875 0.28125q0.3125 0.28125 0.3125 0.765625q0 0.484375 -0.3125 0.78125q-0.296875 0.28125 -0.71875 0.28125zm3.5871124 1.890625q0.546875 -0.140625 1.46875 -0.296875q0.921875 -0.15625 2.109375 -0.15625q1.078125 0 1.78125 0.3125q0.71875 0.296875 1.140625 0.84375q0.421875 0.546875 0.59375 1.3125q0.171875 0.75 0.171875 1.671875l0 5.0625l-1.609375 0l0 -4.71875q0 -0.828125 -0.109375 -1.40625q-0.109375 -0.59375 -0.375 -0.953125q-0.25 -0.375 -0.6875 -0.53125q-0.4375 -0.171875 -1.078125 -0.171875q-0.25 0 -0.53125 0.015625q-0.28125 0.015625 -0.53125 0.046875q-0.25 0.03125 -0.453125 0.0625q-0.203125 0.03125 -0.28125 0.046875l0 7.609375l-1.609375 0l0 -8.75zm11.446289 -0.265625l3.421875 0l0 1.359375l-3.421875 0l0 4.15625q0 0.671875 0.109375 1.125q0.109375 0.4375 0.3125 0.6875q0.203125 0.25 0.515625 0.359375q0.3125 0.09375 0.734375 0.09375q0.71875 0 1.15625 -0.15625q0.453125 -0.171875 0.625 -0.234375l0.3125 1.328125q-0.25 0.125 -0.859375 0.296875q-0.59375 0.1875 -1.375 0.1875q-0.921875 0 -1.53125 -0.234375q-0.59375 -0.234375 -0.953125 -0.703125q-0.359375 -0.46875 -0.515625 -1.140625q-0.140625 -0.6875 -0.140625 -1.59375l0 -8.03125l1.609375 -0.28125l0 2.78125zm4.7925262 4.53125q0 -1.203125 0.34375 -2.09375q0.34375 -0.890625 0.90625 -1.46875q0.578125 -0.59375 1.3125 -0.890625q0.75 -0.296875 1.53125 -0.296875q1.828125 0 2.796875 1.140625q0.96875 1.125 0.96875 3.453125q0 0.09375 0 0.265625q0 0.171875 -0.015625 0.296875l-6.171875 0q0.109375 1.40625 0.8125 2.140625q0.71875 0.71875 2.21875 0.71875q0.859375 0 1.4375 -0.140625q0.578125 -0.140625 0.875 -0.28125l0.21875 1.34375q-0.296875 0.15625 -1.03125 0.328125q-0.734375 0.171875 -1.671875 0.171875q-1.171875 0 -2.03125 -0.34375q-0.859375 -0.359375 -1.421875 -0.984375q-0.546875 -0.625 -0.8125 -1.484375q-0.265625 -0.859375 -0.265625 -1.875zm6.171875 -0.890625q0.03125 -1.09375 -0.546875 -1.78125q-0.5625 -0.703125 -1.546875 -0.703125q-0.546875 0 -0.984375 0.21875q-0.421875 0.203125 -0.71875 0.5625q-0.28125 0.34375 -0.453125 0.796875q-0.15625 0.4375 -0.21875 0.90625l4.46875 0zm7.3426285 -3.828125q0.203125 0 0.46875 0.03125q0.265625 0.015625 0.53125 0.0625q0.265625 0.046875 0.46875 0.09375q0.21875 0.046875 0.328125 0.078125l-0.28125 1.40625q-0.1875 -0.078125 -0.640625 -0.171875q-0.4375 -0.09375 -1.125 -0.09375q-0.453125 0 -0.890625 0.09375q-0.4375 0.09375 -0.578125 0.125l0 7.578125l-1.609375 0l0 -8.625q0.5625 -0.21875 1.40625 -0.390625q0.859375 -0.1875 1.921875 -0.1875zm9.610489 4.71875q0 -1.578125 -0.78125 -2.421875q-0.78125 -0.859375 -2.078125 -0.859375q-0.71875 0 -1.140625 0.0625q-0.40625 0.046875 -0.640625 0.109375l0 5.6875q0.296875 0.25 0.84375 0.46875q0.5625 0.21875 1.21875 0.21875q0.6875 0 1.171875 -0.25q0.5 -0.25 0.8125 -0.6875q0.3125 -0.4375 0.453125 -1.03125q0.140625 -0.609375 0.140625 -1.296875zm1.6875 0q0 1.015625 -0.28125 1.890625q-0.265625 0.859375 -0.78125 1.484375q-0.515625 0.625 -1.28125 0.96875q-0.75 0.34375 -1.71875 0.34375q-0.78125 0 -1.375 -0.203125q-0.59375 -0.203125 -0.890625 -0.40625l0 3.609375l-1.609375 0l0 -11.9375q0.5625 -0.140625 1.421875 -0.296875q0.859375 -0.171875 1.984375 -0.171875q1.046875 0 1.875 0.328125q0.828125 0.328125 1.421875 0.9375q0.59375 0.609375 0.90625 1.484375q0.328125 0.875 0.328125 1.96875zm10.221832 -0.015625q0 1.0625 -0.3125 1.9375q-0.3125 0.859375 -0.875 1.484375q-0.5625 0.625 -1.34375 0.96875q-0.78125 0.328125 -1.703125 0.328125q-0.921875 0 -1.703125 -0.328125q-0.765625 -0.34375 -1.34375 -0.96875q-0.5625 -0.625 -0.875 -1.484375q-0.296875 -0.875 -0.296875 -1.9375q0 -1.0625 0.296875 -1.9375q0.3125 -0.875 0.875 -1.5q0.578125 -0.625 1.34375 -0.953125q0.78125 -0.34375 1.703125 -0.34375q0.921875 0 1.703125 0.34375q0.78125 0.328125 1.34375 0.953125q0.5625 0.625 0.875 1.5q0.3125 0.875 0.3125 1.9375zm-1.6875 0q0 -1.53125 -0.6875 -2.421875q-0.671875 -0.890625 -1.859375 -0.890625q-1.171875 0 -1.859375 0.890625q-0.6875 0.890625 -0.6875 2.421875q0 1.515625 0.6875 2.40625q0.6875 0.890625 1.859375 0.890625q1.1875 0 1.859375 -0.890625q0.6875 -0.890625 0.6875 -2.40625zm6.6610413 4.671875q-1.5 -0.03125 -2.125 -0.640625q-0.609375 -0.609375 -0.609375 -1.890625l0 -10.8125l1.609375 -0.28125l0 10.84375q0 0.390625 0.0625 0.65625q0.078125 0.25 0.21875 0.40625q0.15625 0.15625 0.421875 0.234375q0.265625 0.078125 0.640625 0.140625l-0.21875 1.34375zm5.074295 -1.328125q0.5625 0 1.0 -0.03125q0.453125 -0.03125 0.75 -0.09375l0 -2.6875q-0.171875 -0.09375 -0.5625 -0.140625q-0.390625 -0.0625 -0.953125 -0.0625q-0.359375 0 -0.765625 0.046875q-0.40625 0.046875 -0.75 0.21875q-0.328125 0.15625 -0.5625 0.453125q-0.21875 0.28125 -0.21875 0.75q0 0.859375 0.546875 1.203125q0.5625 0.34375 1.515625 0.34375zm-0.140625 -8.078125q0.96875 0 1.640625 0.25q0.671875 0.25 1.078125 0.71875q0.40625 0.453125 0.578125 1.09375q0.171875 0.625 0.171875 1.390625l0 5.625q-0.203125 0.03125 -0.578125 0.09375q-0.375 0.0625 -0.84375 0.109375q-0.46875 0.0625 -1.015625 0.09375q-0.546875 0.046875 -1.078125 0.046875q-0.765625 0 -1.40625 -0.15625q-0.640625 -0.15625 -1.109375 -0.484375q-0.46875 -0.34375 -0.734375 -0.890625q-0.25 -0.5625 -0.25 -1.34375q0 -0.75 0.296875 -1.28125q0.3125 -0.53125 0.828125 -0.859375q0.515625 -0.328125 1.203125 -0.484375q0.703125 -0.15625 1.46875 -0.15625q0.234375 0 0.484375 0.03125q0.265625 0.015625 0.5 0.0625q0.234375 0.03125 0.40625 0.078125q0.171875 0.03125 0.25 0.046875l0 -0.453125q0 -0.390625 -0.09375 -0.78125q-0.078125 -0.390625 -0.3125 -0.6875q-0.21875 -0.3125 -0.609375 -0.484375q-0.390625 -0.1875 -1.015625 -0.1875q-0.796875 0 -1.390625 0.109375q-0.59375 0.109375 -0.890625 0.234375l-0.1875 -1.34375q0.3125 -0.125 1.03125 -0.25q0.734375 -0.140625 1.578125 -0.140625zm7.638977 0.21875l3.421875 0l0 1.359375l-3.421875 0l0 4.15625q0 0.671875 0.109375 1.125q0.109375 0.4375 0.3125 0.6875q0.203125 0.25 0.515625 0.359375q0.3125 0.09375 0.734375 0.09375q0.71875 0 1.15625 -0.15625q0.453125 -0.171875 0.625 -0.234375l0.3125 1.328125q-0.25 0.125 -0.859375 0.296875q-0.59375 0.1875 -1.375 0.1875q-0.921875 0 -1.53125 -0.234375q-0.59375 -0.234375 -0.953125 -0.703125q-0.359375 -0.46875 -0.515625 -1.140625q-0.140625 -0.6875 -0.140625 -1.59375l0 -8.03125l1.609375 -0.28125l0 2.78125zm4.7925262 4.53125q0 -1.203125 0.34375 -2.09375q0.34375 -0.890625 0.90625 -1.46875q0.578125 -0.59375 1.3125 -0.890625q0.75 -0.296875 1.53125 -0.296875q1.828125 0 2.796875 1.140625q0.96875 1.125 0.96875 3.453125q0 0.09375 0 0.265625q0 0.171875 -0.015625 0.296875l-6.171875 0q0.109375 1.40625 0.8125 2.140625q0.71875 0.71875 2.21875 0.71875q0.859375 0 1.4375 -0.140625q0.578125 -0.140625 0.875 -0.28125l0.21875 1.34375q-0.296875 0.15625 -1.03125 0.328125q-0.734375 0.171875 -1.671875 0.171875q-1.171875 0 -2.03125 -0.34375q-0.859375 -0.359375 -1.421875 -0.984375q-0.546875 -0.625 -0.8125 -1.484375q-0.265625 -0.859375 -0.265625 -1.875zm6.171875 -0.890625q0.03125 -1.09375 -0.546875 -1.78125q-0.5625 -0.703125 -1.546875 -0.703125q-0.546875 0 -0.984375 0.21875q-0.421875 0.203125 -0.71875 0.5625q-0.28125 0.34375 -0.453125 0.796875q-0.15625 0.4375 -0.21875 0.90625l4.46875 0zm7.342621 -3.828125q0.203125 0 0.46875 0.03125q0.265625 0.015625 0.53125 0.0625q0.265625 0.046875 0.46875 0.09375q0.21875 0.046875 0.328125 0.078125l-0.28125 1.40625q-0.1875 -0.078125 -0.640625 -0.171875q-0.4375 -0.09375 -1.125 -0.09375q-0.453125 0 -0.890625 0.09375q-0.4375 0.09375 -0.578125 0.125l0 7.578125l-1.609375 0l0 -8.625q0.5625 -0.21875 1.40625 -0.390625q0.859375 -0.1875 1.921875 -0.1875zm5.454239 8.046875q0.984375 0 1.453125 -0.265625q0.484375 -0.265625 0.484375 -0.828125q0 -0.59375 -0.46875 -0.9375q-0.46875 -0.34375 -1.546875 -0.78125q-0.515625 -0.203125 -1.0 -0.421875q-0.46875 -0.21875 -0.8125 -0.515625q-0.34375 -0.296875 -0.5625 -0.703125q-0.203125 -0.421875 -0.203125 -1.03125q0 -1.1875 0.875 -1.890625q0.890625 -0.703125 2.421875 -0.703125q0.375 0 0.75 0.046875q0.390625 0.03125 0.71875 0.09375q0.328125 0.0625 0.578125 0.140625q0.25 0.0625 0.390625 0.109375l-0.296875 1.390625q-0.25 -0.140625 -0.8125 -0.28125q-0.546875 -0.15625 -1.328125 -0.15625q-0.671875 0 -1.1875 0.28125q-0.5 0.265625 -0.5 0.828125q0 0.296875 0.109375 0.53125q0.125 0.21875 0.359375 0.40625q0.234375 0.171875 0.578125 0.328125q0.34375 0.15625 0.828125 0.328125q0.640625 0.25 1.140625 0.484375q0.5 0.234375 0.859375 0.546875q0.359375 0.3125 0.546875 0.75q0.1875 0.4375 0.1875 1.078125q0 1.25 -0.921875 1.890625q-0.921875 0.640625 -2.640625 0.640625q-1.203125 0 -1.875 -0.203125q-0.671875 -0.1875 -0.921875 -0.296875l0.296875 -1.390625q0.28125 0.109375 0.890625 0.328125q0.609375 0.203125 1.609375 0.203125zm7.540802 0.21875q0 0.46875 -0.3125 0.8125q-0.3125 0.34375 -0.859375 0.34375q-0.53125 0 -0.84375 -0.34375q-0.3125 -0.34375 -0.3125 -0.8125q0 -0.46875 0.3125 -0.8125q0.3125 -0.34375 0.84375 -0.34375q0.546875 0 0.859375 0.34375q0.3125 0.34375 0.3125 0.8125zm0 -6.90625q0 0.46875 -0.3125 0.8125q-0.3125 0.34375 -0.859375 0.34375q-0.53125 0 -0.84375 -0.34375q-0.3125 -0.34375 -0.3125 -0.8125q0 -0.46875 0.3125 -0.8125q0.3125 -0.34375 0.84375 -0.34375q0.546875 0 0.859375 0.34375q0.3125 0.34375 0.3125 0.8125z" fill-rule="nonzero"/><path fill="#97e574" d="m212.00354 185.72028q-1.5 -0.03125 -2.125 -0.640625q-0.609375 -0.609375 -0.609375 -1.890625l0 -10.8125l1.609375 -0.28125l0 10.84375q0 0.390625 0.0625 0.65625q0.078125 0.25 0.21875 0.40625q0.15625 0.15625 0.421875 0.234375q0.265625 0.078125 0.640625 0.140625l-0.21875 1.34375zm3.636795 -0.171875l-1.609375 0l0 -9.015625l1.609375 0l0 9.015625zm-0.8125 -10.640625q-0.4375 0 -0.75 -0.28125q-0.296875 -0.296875 -0.296875 -0.78125q0 -0.484375 0.296875 -0.765625q0.3125 -0.28125 0.75 -0.28125q0.421875 0 0.71875 0.28125q0.3125 0.28125 0.3125 0.765625q0 0.484375 -0.3125 0.78125q-0.296875 0.28125 -0.71875 0.28125zm5.6808624 9.484375q0.984375 0 1.453125 -0.265625q0.484375 -0.265625 0.484375 -0.828125q0 -0.59375 -0.46875 -0.9375q-0.46875 -0.34375 -1.546875 -0.78125q-0.515625 -0.203125 -1.0 -0.421875q-0.46875 -0.21875 -0.8125 -0.515625q-0.34375 -0.296875 -0.5625 -0.703125q-0.203125 -0.421875 -0.203125 -1.03125q0 -1.1875 0.875 -1.890625q0.890625 -0.703125 2.421875 -0.703125q0.375 0 0.75 0.046875q0.390625 0.03125 0.71875 0.09375q0.328125 0.0625 0.578125 0.140625q0.25 0.0625 0.390625 0.109375l-0.296875 1.390625q-0.25 -0.140625 -0.8125 -0.28125q-0.546875 -0.15625 -1.328125 -0.15625q-0.671875 0 -1.1875 0.28125q-0.5 0.265625 -0.5 0.828125q0 0.296875 0.109375 0.53125q0.125 0.21875 0.359375 0.40625q0.234375 0.171875 0.578125 0.328125q0.34375 0.15625 0.828125 0.328125q0.640625 0.25 1.140625 0.484375q0.5 0.234375 0.859375 0.546875q0.359375 0.3125 0.546875 0.75q0.1875 0.4375 0.1875 1.078125q0 1.25 -0.921875 1.890625q-0.921875 0.640625 -2.640625 0.640625q-1.203125 0 -1.875 -0.203125q-0.671875 -0.1875 -0.921875 -0.296875l0.296875 -1.390625q0.28125 0.109375 0.890625 0.328125q0.609375 0.203125 1.609375 0.203125zm7.134552 -7.859375l3.421875 0l0 1.359375l-3.421875 0l0 4.15625q0 0.671875 0.109375 1.125q0.109375 0.4375 0.3125 0.6875q0.203125 0.25 0.515625 0.359375q0.3125 0.09375 0.734375 0.09375q0.71875 0 1.15625 -0.15625q0.453125 -0.171875 0.625 -0.234375l0.3125 1.328125q-0.25 0.125 -0.859375 0.296875q-0.59375 0.1875 -1.375 0.1875q-0.921875 0 -1.53125 -0.234375q-0.59375 -0.234375 -0.953125 -0.703125q-0.359375 -0.46875 -0.515625 -1.140625q-0.140625 -0.6875 -0.140625 -1.59375l0 -8.03125l1.609375 -0.28125l0 2.78125z" fill-rule="nonzero"/><path fill="#f3f3f3" d="m234.79662 183.57965q0.03125 0.125 0.03125 0.265625q0 0.125 0 0.265625q0 1.09375 -0.328125 2.15625q-0.328125 1.0625 -0.875 2.03125l-1.25 -0.390625q0.4375 -0.890625 0.578125 -1.796875q0.140625 -0.90625 0.140625 -1.703125q0 -0.234375 -0.015625 -0.4375q0 -0.203125 -0.03125 -0.390625l1.75 0z" fill-rule="nonzero"/><path fill="#f3f3f3" d="m105.79519 209.4684q-0.484375 -1.25 -1.03125 -2.84375q-0.546875 -1.609375 -1.0 -3.34375q-0.453125 1.734375 -0.984375 3.34375q-0.53125 1.59375 -1.015625 2.84375l-1.40625 0q-0.796875 -1.78125 -1.5625 -4.0625q-0.765625 -2.296875 -1.4375 -4.953125l1.734375 0q0.171875 0.8125 0.40625 1.765625q0.25 0.953125 0.515625 1.90625q0.265625 0.953125 0.5625 1.84375q0.296875 0.890625 0.5625 1.546875q0.296875 -0.8125 0.578125 -1.71875q0.28125 -0.921875 0.53125 -1.84375q0.265625 -0.9375 0.5 -1.828125q0.234375 -0.890625 0.40625 -1.671875l1.34375 0q0.15625 0.78125 0.375 1.671875q0.234375 0.890625 0.484375 1.828125q0.265625 0.921875 0.546875 1.84375q0.296875 0.90625 0.578125 1.71875q0.265625 -0.65625 0.546875 -1.546875q0.296875 -0.890625 0.5625 -1.84375q0.28125 -0.953125 0.515625 -1.90625q0.25 -0.953125 0.421875 -1.765625l1.671875 0q-0.6875 2.65625 -1.453125 4.953125q-0.75 2.28125 -1.546875 4.0625l-1.40625 0zm7.713867 0l-1.609375 0l0 -9.015625l1.609375 0l0 9.015625zm-0.8125 -10.640625q-0.4375 0 -0.75 -0.28125q-0.296875 -0.296875 -0.296875 -0.78125q0 -0.484375 0.296875 -0.765625q0.3125 -0.28125 0.75 -0.28125q0.421875 0 0.71875 0.28125q0.3125 0.28125 0.3125 0.765625q0 0.484375 -0.3125 0.78125q-0.296875 0.28125 -0.71875 0.28125zm3.5871124 1.890625q0.546875 -0.140625 1.46875 -0.296875q0.921875 -0.15625 2.109375 -0.15625q1.078125 0 1.78125 0.3125q0.71875 0.296875 1.140625 0.84375q0.421875 0.546875 0.59375 1.3125q0.171875 0.75 0.171875 1.671875l0 5.0625l-1.609375 0l0 -4.71875q0 -0.828125 -0.109375 -1.40625q-0.109375 -0.59375 -0.375 -0.953125q-0.25 -0.375 -0.6875 -0.53125q-0.4375 -0.171875 -1.078125 -0.171875q-0.25 0 -0.53125 0.015625q-0.28125 0.015625 -0.53125 0.046875q-0.25 0.03125 -0.453125 0.0625q-0.203125 0.03125 -0.28125 0.046875l0 7.609375l-1.609375 0l0 -8.75zm15.758797 1.640625q-0.296875 -0.234375 -0.84375 -0.453125q-0.546875 -0.234375 -1.21875 -0.234375q-0.6875 0 -1.1875 0.25q-0.484375 0.25 -0.7968826 0.703125q-0.3125 0.4375 -0.453125 1.046875q-0.140625 0.59375 -0.140625 1.296875q0 1.578125 0.7812576 2.4375q0.78125 0.84375 2.078125 0.84375q0.65625 0 1.09375 -0.046875q0.453125 -0.0625 0.6875 -0.140625l0 -5.703125zm0 -6.0625l1.609375 -0.28125l0 13.1875q-0.546875 0.15625 -1.421875 0.3125q-0.859375 0.15625 -1.984375 0.15625q-1.046875 0 -1.875 -0.328125q-0.8281326 -0.328125 -1.4218826 -0.921875q-0.578125 -0.609375 -0.90625 -1.484375q-0.3125 -0.875 -0.3125 -1.96875q0 -1.046875 0.265625 -1.90625q0.265625 -0.875 0.78125 -1.5q0.515625 -0.625 1.2656326 -0.96875q0.765625 -0.34375 1.734375 -0.34375q0.78125 0 1.375 0.21875q0.59375 0.203125 0.890625 0.390625l0 -4.5625zm12.346832 8.671875q0 1.0625 -0.3125 1.9375q-0.3125 0.859375 -0.875 1.484375q-0.5625 0.625 -1.34375 0.96875q-0.78125 0.328125 -1.703125 0.328125q-0.921875 0 -1.703125 -0.328125q-0.765625 -0.34375 -1.34375 -0.96875q-0.5625 -0.625 -0.875 -1.484375q-0.296875 -0.875 -0.296875 -1.9375q0 -1.0625 0.296875 -1.9375q0.3125 -0.875 0.875 -1.5q0.578125 -0.625 1.34375 -0.953125q0.78125 -0.34375 1.703125 -0.34375q0.921875 0 1.703125 0.34375q0.78125 0.328125 1.34375 0.953125q0.5625 0.625 0.875 1.5q0.3125 0.875 0.3125 1.9375zm-1.6875 0q0 -1.53125 -0.6875 -2.421875q-0.671875 -0.890625 -1.859375 -0.890625q-1.171875 0 -1.859375 0.890625q-0.6875 0.890625 -0.6875 2.421875q0 1.515625 0.6875 2.40625q0.6875 0.890625 1.859375 0.890625q1.1875 0 1.859375 -0.890625q0.6875 -0.890625 0.6875 -2.40625zm11.091965 4.5q-0.484375 -1.25 -1.03125 -2.84375q-0.546875 -1.609375 -1.0 -3.34375q-0.453125 1.734375 -0.984375 3.34375q-0.53125 1.59375 -1.015625 2.84375l-1.40625 0q-0.796875 -1.78125 -1.5625 -4.0625q-0.765625 -2.296875 -1.4375 -4.953125l1.734375 0q0.171875 0.8125 0.40625 1.765625q0.25 0.953125 0.515625 1.90625q0.265625 0.953125 0.5625 1.84375q0.296875 0.890625 0.5625 1.546875q0.296875 -0.8125 0.578125 -1.71875q0.28125 -0.921875 0.53125 -1.84375q0.265625 -0.9375 0.5 -1.828125q0.234375 -0.890625 0.40625 -1.671875l1.34375 0q0.15625 0.78125 0.375 1.671875q0.234375 0.890625 0.484375 1.828125q0.265625 0.921875 0.546875 1.84375q0.296875 0.90625 0.578125 1.71875q0.265625 -0.65625 0.546875 -1.546875q0.296875 -0.890625 0.5625 -1.84375q0.28125 -0.953125 0.515625 -1.90625q0.25 -0.953125 0.421875 -1.765625l1.671875 0q-0.6875 2.65625 -1.453125 4.953125q-0.75 2.28125 -1.546875 4.0625l-1.40625 0zm8.010742 -0.9375q0 0.46875 -0.3125 0.8125q-0.3125 0.34375 -0.859375 0.34375q-0.53125 0 -0.84375 -0.34375q-0.3125 -0.34375 -0.3125 -0.8125q0 -0.46875 0.3125 -0.8125q0.3125 -0.34375 0.84375 -0.34375q0.546875 0 0.859375 0.34375q0.3125 0.34375 0.3125 0.8125zm0 -6.90625q0 0.46875 -0.3125 0.8125q-0.3125 0.34375 -0.859375 0.34375q-0.53125 0 -0.84375 -0.34375q-0.3125 -0.34375 -0.3125 -0.8125q0 -0.46875 0.3125 -0.8125q0.3125 -0.34375 0.84375 -0.34375q0.546875 0 0.859375 0.34375q0.3125 0.34375 0.3125 0.8125z" fill-rule="nonzero"/><path fill="#97e574" d="m176.11685 204.9684q0 1.0625 -0.3125 1.9375q-0.3125 0.859375 -0.875 1.484375q-0.5625 0.625 -1.34375 0.96875q-0.78125 0.328125 -1.703125 0.328125q-0.921875 0 -1.703125 -0.328125q-0.765625 -0.34375 -1.34375 -0.96875q-0.5625 -0.625 -0.875 -1.484375q-0.296875 -0.875 -0.296875 -1.9375q0 -1.0625 0.296875 -1.9375q0.3125 -0.875 0.875 -1.5q0.578125 -0.625 1.34375 -0.953125q0.78125 -0.34375 1.703125 -0.34375q0.921875 0 1.703125 0.34375q0.78125 0.328125 1.34375 0.953125q0.5625 0.625 0.875 1.5q0.3125 0.875 0.3125 1.9375zm-1.6875 0q0 -1.53125 -0.6875 -2.421875q-0.671875 -0.890625 -1.859375 -0.890625q-1.171875 0 -1.859375 0.890625q-0.6875 0.890625 -0.6875 2.421875q0 1.515625 0.6875 2.40625q0.6875 0.890625 1.859375 0.890625q1.1875 0 1.859375 -0.890625q0.6875 -0.890625 0.6875 -2.40625zm5.5672913 -4.109375q0.296875 -0.1875 0.890625 -0.390625q0.59375 -0.21875 1.375 -0.21875q0.96875 0 1.71875 0.34375q0.765625 0.34375 1.28125 0.96875q0.515625 0.625 0.78125 1.5q0.28125 0.859375 0.28125 1.90625q0 1.09375 -0.328125 1.96875q-0.3125 0.875 -0.90625 1.484375q-0.59375 0.59375 -1.421875 0.921875q-0.828125 0.328125 -1.875 0.328125q-1.125 0 -2.0 -0.15625q-0.859375 -0.15625 -1.40625 -0.3125l0 -12.90625l1.609375 -0.28125l0 4.84375zm0 7.203125q0.234375 0.078125 0.671875 0.140625q0.453125 0.046875 1.109375 0.046875q1.296875 0 2.078125 -0.84375q0.78125 -0.859375 0.78125 -2.4375q0 -0.703125 -0.140625 -1.296875q-0.140625 -0.609375 -0.453125 -1.046875q-0.3125 -0.453125 -0.8125 -0.703125q-0.484375 -0.25 -1.171875 -0.25q-0.65625 0 -1.21875 0.234375q-0.546875 0.21875 -0.84375 0.453125l0 5.703125zm7.1124573 4.640625q-0.203125 0 -0.53125 -0.046875q-0.328125 -0.046875 -0.546875 -0.140625l0.203125 -1.3125q0.171875 0.046875 0.40625 0.078125q0.21875 0.046875 0.40625 0.046875q0.828125 0 1.1875 -0.515625q0.359375 -0.515625 0.359375 -1.5l0 -8.859375l1.609375 0l0 8.84375q0 1.734375 -0.796875 2.5625q-0.78125 0.84375 -2.296875 0.84375zm2.28125 -13.875q-0.4375 0 -0.75 -0.28125q-0.296875 -0.296875 -0.296875 -0.78125q0 -0.484375 0.296875 -0.765625q0.3125 -0.28125 0.75 -0.28125q0.421875 0 0.71875 0.28125q0.3125 0.28125 0.3125 0.765625q0 0.484375 -0.3125 0.78125q-0.296875 0.28125 -0.71875 0.28125zm3.0871124 6.15625q0 -1.203125 0.34375 -2.09375q0.34375 -0.890625 0.90625 -1.46875q0.578125 -0.59375 1.3125 -0.890625q0.75 -0.296875 1.53125 -0.296875q1.828125 0 2.796875 1.140625q0.96875 1.125 0.96875 3.453125q0 0.09375 0 0.265625q0 0.171875 -0.015625 0.296875l-6.171875 0q0.109375 1.40625 0.8125 2.140625q0.71875 0.71875 2.21875 0.71875q0.859375 0 1.4375 -0.140625q0.578125 -0.140625 0.875 -0.28125l0.21875 1.34375q-0.296875 0.15625 -1.03125 0.328125q-0.734375 0.171875 -1.671875 0.171875q-1.171875 0 -2.03125 -0.34375q-0.859375 -0.359375 -1.421875 -0.984375q-0.546875 -0.625 -0.8125 -1.484375q-0.265625 -0.859375 -0.265625 -1.875zm6.171875 -0.890625q0.03125 -1.09375 -0.546875 -1.78125q-0.5625 -0.703125 -1.546875 -0.703125q-0.546875 0 -0.984375 0.21875q-0.421875 0.203125 -0.71875 0.5625q-0.28125 0.34375 -0.453125 0.796875q-0.15625 0.4375 -0.21875 0.90625l4.46875 0zm7.920746 5.578125q-1.09375 0 -1.921875 -0.34375q-0.8125 -0.34375 -1.375 -0.96875q-0.5625 -0.625 -0.84375 -1.484375q-0.265625 -0.859375 -0.265625 -1.890625q0 -1.046875 0.296875 -1.90625q0.296875 -0.875 0.84375 -1.5q0.5625 -0.640625 1.359375 -0.984375q0.8125 -0.359375 1.8125 -0.359375q0.609375 0 1.203125 0.109375q0.609375 0.09375 1.171875 0.328125l-0.375 1.359375q-0.359375 -0.171875 -0.84375 -0.265625q-0.46875 -0.109375 -1.0 -0.109375q-1.359375 0 -2.078125 0.859375q-0.71875 0.84375 -0.71875 2.46875q0 0.71875 0.15625 1.328125q0.171875 0.609375 0.53125 1.046875q0.359375 0.421875 0.90625 0.65625q0.5625 0.234375 1.359375 0.234375q0.640625 0 1.15625 -0.109375q0.515625 -0.125 0.8125 -0.265625l0.234375 1.34375q-0.140625 0.09375 -0.40625 0.171875q-0.265625 0.078125 -0.59375 0.140625q-0.328125 0.0625 -0.703125 0.09375q-0.359375 0.046875 -0.71875 0.046875zm5.6512756 -9.21875l3.421875 0l0 1.359375l-3.421875 0l0 4.15625q0 0.671875 0.109375 1.125q0.109375 0.4375 0.3125 0.6875q0.203125 0.25 0.515625 0.359375q0.3125 0.09375 0.734375 0.09375q0.71875 0 1.15625 -0.15625q0.453125 -0.171875 0.625 -0.234375l0.3125 1.328125q-0.25 0.125 -0.859375 0.296875q-0.59375 0.1875 -1.375 0.1875q-0.921875 0 -1.53125 -0.234375q-0.59375 -0.234375 -0.953125 -0.703125q-0.359375 -0.46875 -0.515625 -1.140625q-0.140625 -0.6875 -0.140625 -1.59375l0 -8.03125l1.609375 -0.28125l0 2.78125z" fill-rule="nonzero"/><path fill="#f3f3f3" d="m219.37473 207.49965q0.03125 0.125 0.03125 0.265625q0 0.125 0 0.265625q0 1.09375 -0.328125 2.15625q-0.328125 1.0625 -0.875 2.03125l-1.25 -0.390625q0.4375 -0.890625 0.578125 -1.796875q0.140625 -0.90625 0.140625 -1.703125q0 -0.234375 -0.015625 -0.4375q0 -0.203125 -0.03125 -0.390625l1.75 0z" fill-rule="nonzero"/><path fill="#f3f3f3" d="m97.935814 228.90402q0 -1.203125 0.34375 -2.09375q0.34375 -0.890625 0.90625 -1.46875q0.578125 -0.59375 1.3125 -0.890625q0.75 -0.296875 1.53125 -0.296875q1.828125 0 2.796875 1.140625q0.96875 1.125 0.96875 3.453125q0 0.09375 0 0.265625q0 0.171875 -0.015625 0.296875l-6.171875 0q0.109375 1.40625 0.8125 2.140625q0.71875 0.71875 2.21875 0.71875q0.859375 0 1.4375 -0.140625q0.578125 -0.140625 0.875 -0.28125l0.21875 1.34375q-0.296875 0.15625 -1.03125 0.328125q-0.734375 0.171875 -1.671875 0.171875q-1.171875 0 -2.03125 -0.34375q-0.859375 -0.359375 -1.421875 -0.984375q-0.546875 -0.625 -0.8125 -1.484375q-0.265625 -0.859375 -0.265625 -1.875zm6.171875 -0.890625q0.03125 -1.09375 -0.546875 -1.78125q-0.5625 -0.703125 -1.546875 -0.703125q-0.546875 0 -0.984375 0.21875q-0.421875 0.203125 -0.71875 0.5625q-0.28125 0.34375 -0.453125 0.796875q-0.15625 0.4375 -0.21875 0.90625l4.46875 0zm4.014496 -3.375q0.546875 -0.140625 1.46875 -0.296875q0.921875 -0.15625 2.109375 -0.15625q1.078125 0 1.78125 0.3125q0.71875 0.296875 1.140625 0.84375q0.421875 0.546875 0.59375 1.3125q0.171875 0.75 0.171875 1.671875l0 5.0625l-1.609375 0l0 -4.71875q0 -0.828125 -0.109375 -1.40625q-0.109375 -0.59375 -0.375 -0.953125q-0.25 -0.375 -0.6875 -0.53125q-0.4375 -0.171875 -1.078125 -0.171875q-0.25 0 -0.53125 0.015625q-0.28125 0.015625 -0.53125 0.046875q-0.25 0.03125 -0.453125 0.0625q-0.203125 0.03125 -0.28125 0.046875l0 7.609375l-1.609375 0l0 -8.75zm13.852539 8.953125q-1.09375 0 -1.921875 -0.34375q-0.8125 -0.34375 -1.375 -0.96875q-0.5625 -0.625 -0.84375 -1.484375q-0.265625 -0.859375 -0.265625 -1.890625q0 -1.046875 0.296875 -1.90625q0.296875 -0.875 0.84375 -1.5q0.5625 -0.640625 1.359375 -0.984375q0.8125 -0.359375 1.8125 -0.359375q0.609375 0 1.203125 0.109375q0.609375 0.09375 1.171875 0.328125l-0.375 1.359375q-0.359375 -0.171875 -0.84375 -0.265625q-0.46875 -0.109375 -1.0 -0.109375q-1.359375 0 -2.078125 0.859375q-0.71875 0.84375 -0.71875 2.46875q0 0.71875 0.15625 1.328125q0.171875 0.609375 0.53125 1.046875q0.359375 0.421875 0.90625 0.65625q0.5625 0.234375 1.359375 0.234375q0.640625 0 1.15625 -0.109375q0.515625 -0.125 0.8125 -0.265625l0.234375 1.34375q-0.140625 0.09375 -0.40625 0.171875q-0.265625 0.078125 -0.59375 0.140625q-0.328125 0.0625 -0.703125 0.09375q-0.359375 0.046875 -0.71875 0.046875zm11.879082 -4.703125q0 1.0625 -0.3125 1.9375q-0.3125 0.859375 -0.875 1.484375q-0.5625 0.625 -1.34375 0.96875q-0.78125 0.328125 -1.703125 0.328125q-0.921875 0 -1.7031326 -0.328125q-0.765625 -0.34375 -1.34375 -0.96875q-0.5625 -0.625 -0.875 -1.484375q-0.296875 -0.875 -0.296875 -1.9375q0 -1.0625 0.296875 -1.9375q0.3125 -0.875 0.875 -1.5q0.578125 -0.625 1.34375 -0.953125q0.7812576 -0.34375 1.7031326 -0.34375q0.921875 0 1.703125 0.34375q0.78125 0.328125 1.34375 0.953125q0.5625 0.625 0.875 1.5q0.3125 0.875 0.3125 1.9375zm-1.6875 0q0 -1.53125 -0.6875 -2.421875q-0.671875 -0.890625 -1.859375 -0.890625q-1.171875 0 -1.8593826 0.890625q-0.6875 0.890625 -0.6875 2.421875q0 1.515625 0.6875 2.40625q0.6875076 0.890625 1.8593826 0.890625q1.1875 0 1.859375 -0.890625q0.6875 -0.890625 0.6875 -2.40625zm9.770416 -2.609375q-0.296875 -0.234375 -0.84375 -0.453125q-0.546875 -0.234375 -1.21875 -0.234375q-0.6875 0 -1.1875 0.25q-0.484375 0.25 -0.796875 0.703125q-0.3125 0.4375 -0.453125 1.046875q-0.140625 0.59375 -0.140625 1.296875q0 1.578125 0.78125 2.4375q0.78125 0.84375 2.078125 0.84375q0.65625 0 1.09375 -0.046875q0.453125 -0.0625 0.6875 -0.140625l0 -5.703125zm0 -6.0625l1.609375 -0.28125l0 13.1875q-0.546875 0.15625 -1.421875 0.3125q-0.859375 0.15625 -1.984375 0.15625q-1.046875 0 -1.875 -0.328125q-0.828125 -0.328125 -1.421875 -0.921875q-0.578125 -0.609375 -0.90625 -1.484375q-0.3125 -0.875 -0.3125 -1.96875q0 -1.046875 0.265625 -1.90625q0.265625 -0.875 0.78125 -1.5q0.515625 -0.625 1.265625 -0.96875q0.765625 -0.34375 1.734375 -0.34375q0.78125 0 1.375 0.21875q0.59375 0.203125 0.890625 0.390625l0 -4.5625zm3.8937073 8.6875q0 -1.203125 0.34375 -2.09375q0.34375 -0.890625 0.90625 -1.46875q0.578125 -0.59375 1.3125 -0.890625q0.75 -0.296875 1.53125 -0.296875q1.828125 0 2.796875 1.140625q0.96875 1.125 0.96875 3.453125q0 0.09375 0 0.265625q0 0.171875 -0.015625 0.296875l-6.171875 0q0.109375 1.40625 0.8125 2.140625q0.71875 0.71875 2.21875 0.71875q0.859375 0 1.4375 -0.140625q0.578125 -0.140625 0.875 -0.28125l0.21875 1.34375q-0.296875 0.15625 -1.03125 0.328125q-0.734375 0.171875 -1.671875 0.171875q-1.171875 0 -2.03125 -0.34375q-0.859375 -0.359375 -1.421875 -0.984375q-0.546875 -0.625 -0.8125 -1.484375q-0.265625 -0.859375 -0.265625 -1.875zm6.171875 -0.890625q0.03125 -1.09375 -0.546875 -1.78125q-0.5625 -0.703125 -1.546875 -0.703125q-0.546875 0 -0.984375 0.21875q-0.421875 0.203125 -0.71875 0.5625q-0.28125 0.34375 -0.453125 0.796875q-0.15625 0.4375 -0.21875 0.90625l4.46875 0zm7.342621 -3.828125q0.203125 0 0.46875 0.03125q0.265625 0.015625 0.53125 0.0625q0.265625 0.046875 0.46875 0.09375q0.21875 0.046875 0.328125 0.078125l-0.28125 1.40625q-0.1875 -0.078125 -0.640625 -0.171875q-0.4375 -0.09375 -1.125 -0.09375q-0.453125 0 -0.890625 0.09375q-0.4375 0.09375 -0.578125 0.125l0 7.578125l-1.609375 0l0 -8.625q0.5625 -0.21875 1.40625 -0.390625q0.859375 -0.1875 1.921875 -0.1875zm5.454239 8.046875q0.984375 0 1.453125 -0.265625q0.484375 -0.265625 0.484375 -0.828125q0 -0.59375 -0.46875 -0.9375q-0.46875 -0.34375 -1.546875 -0.78125q-0.515625 -0.203125 -1.0 -0.421875q-0.46875 -0.21875 -0.8125 -0.515625q-0.34375 -0.296875 -0.5625 -0.703125q-0.203125 -0.421875 -0.203125 -1.03125q0 -1.1875 0.875 -1.890625q0.890625 -0.703125 2.421875 -0.703125q0.375 0 0.75 0.046875q0.390625 0.03125 0.71875 0.09375q0.328125 0.0625 0.578125 0.140625q0.25 0.0625 0.390625 0.109375l-0.296875 1.390625q-0.25 -0.140625 -0.8125 -0.28125q-0.546875 -0.15625 -1.328125 -0.15625q-0.671875 0 -1.1875 0.28125q-0.5 0.265625 -0.5 0.828125q0 0.296875 0.109375 0.53125q0.125 0.21875 0.359375 0.40625q0.234375 0.171875 0.578125 0.328125q0.34375 0.15625 0.828125 0.328125q0.640625 0.25 1.140625 0.484375q0.5 0.234375 0.859375 0.546875q0.359375 0.3125 0.546875 0.75q0.1875 0.4375 0.1875 1.078125q0 1.25 -0.921875 1.890625q-0.921875 0.640625 -2.640625 0.640625q-1.203125 0 -1.875 -0.203125q-0.671875 -0.1875 -0.921875 -0.296875l0.296875 -1.390625q0.28125 0.109375 0.890625 0.328125q0.609375 0.203125 1.609375 0.203125zm7.540802 0.21875q0 0.46875 -0.3125 0.8125q-0.3125 0.34375 -0.859375 0.34375q-0.53125 0 -0.84375 -0.34375q-0.3125 -0.34375 -0.3125 -0.8125q0 -0.46875 0.3125 -0.8125q0.3125 -0.34375 0.84375 -0.34375q0.546875 0 0.859375 0.34375q0.3125 0.34375 0.3125 0.8125zm0 -6.90625q0 0.46875 -0.3125 0.8125q-0.3125 0.34375 -0.859375 0.34375q-0.53125 0 -0.84375 -0.34375q-0.3125 -0.34375 -0.3125 -0.8125q0 -0.46875 0.3125 -0.8125q0.3125 -0.34375 0.84375 -0.34375q0.546875 0 0.859375 0.34375q0.3125 0.34375 0.3125 0.8125z" fill-rule="nonzero"/><path fill="#97e574" d="m181.40231 233.56027q-1.5 -0.03125 -2.125 -0.640625q-0.609375 -0.609375 -0.609375 -1.890625l0 -10.8125l1.609375 -0.28125l0 10.84375q0 0.390625 0.0625 0.65625q0.078125 0.25 0.21875 0.40625q0.15625 0.15625 0.421875 0.234375q0.265625 0.078125 0.640625 0.140625l-0.21875 1.34375zm3.636795 -0.171875l-1.609375 0l0 -9.015625l1.609375 0l0 9.015625zm-0.8125 -10.640625q-0.4375 0 -0.75 -0.28125q-0.296875 -0.296875 -0.296875 -0.78125q0 -0.484375 0.296875 -0.765625q0.3125 -0.28125 0.75 -0.28125q0.421875 0 0.71875 0.28125q0.3125 0.28125 0.3125 0.765625q0 0.484375 -0.3125 0.78125q-0.296875 0.28125 -0.71875 0.28125zm5.6808624 9.484375q0.984375 0 1.453125 -0.265625q0.484375 -0.265625 0.484375 -0.828125q0 -0.59375 -0.46875 -0.9375q-0.46875 -0.34375 -1.546875 -0.78125q-0.515625 -0.203125 -1.0 -0.421875q-0.46875 -0.21875 -0.8125 -0.515625q-0.34375 -0.296875 -0.5625 -0.703125q-0.203125 -0.421875 -0.203125 -1.03125q0 -1.1875 0.875 -1.890625q0.890625 -0.703125 2.421875 -0.703125q0.375 0 0.75 0.046875q0.390625 0.03125 0.71875 0.09375q0.328125 0.0625 0.578125 0.140625q0.25 0.0625 0.390625 0.109375l-0.296875 1.390625q-0.25 -0.140625 -0.8125 -0.28125q-0.546875 -0.15625 -1.328125 -0.15625q-0.671875 0 -1.1875 0.28125q-0.5 0.265625 -0.5 0.828125q0 0.296875 0.109375 0.53125q0.125 0.21875 0.359375 0.40625q0.234375 0.171875 0.578125 0.328125q0.34375 0.15625 0.828125 0.328125q0.640625 0.25 1.140625 0.484375q0.5 0.234375 0.859375 0.546875q0.359375 0.3125 0.546875 0.75q0.1875 0.4375 0.1875 1.078125q0 1.25 -0.921875 1.890625q-0.921875 0.640625 -2.640625 0.640625q-1.203125 0 -1.875 -0.203125q-0.671875 -0.1875 -0.921875 -0.296875l0.296875 -1.390625q0.28125 0.109375 0.890625 0.328125q0.609375 0.203125 1.609375 0.203125zm7.134552 -7.859375l3.421875 0l0 1.359375l-3.421875 0l0 4.15625q0 0.671875 0.109375 1.125q0.109375 0.4375 0.3125 0.6875q0.203125 0.25 0.515625 0.359375q0.3125 0.09375 0.734375 0.09375q0.71875 0 1.15625 -0.15625q0.453125 -0.171875 0.625 -0.234375l0.3125 1.328125q-0.25 0.125 -0.859375 0.296875q-0.59375 0.1875 -1.375 0.1875q-0.921875 0 -1.53125 -0.234375q-0.59375 -0.234375 -0.953125 -0.703125q-0.359375 -0.46875 -0.515625 -1.140625q-0.140625 -0.6875 -0.140625 -1.59375l0 -8.03125l1.609375 -0.28125l0 2.78125z" fill-rule="nonzero"/><path fill="#f3f3f3" d="m204.19539 231.41965q0.03125 0.125 0.03125 0.265625q0 0.125 0 0.265625q0 1.09375 -0.328125 2.15625q-0.328125 1.0625 -0.875 2.03125l-1.25 -0.390625q0.4375 -0.890625 0.578125 -1.796875q0.140625 -0.90625 0.140625 -1.703125q0 -0.234375 -0.015625 -0.4375q0 -0.203125 -0.03125 -0.390625l1.75 0z" fill-rule="nonzero"/><path fill="#f3f3f3" d="m100.529564 256.15216q0.984375 0 1.453125 -0.26564026q0.484375 -0.265625 0.484375 -0.828125q0 -0.59375 -0.46875 -0.9375q-0.46875 -0.34375 -1.546875 -0.78125q-0.515625 -0.203125 -1.0 -0.421875q-0.46875 -0.21875 -0.8125 -0.515625q-0.34375 -0.296875 -0.5625 -0.703125q-0.203125 -0.421875 -0.203125 -1.03125q0 -1.1875 0.875 -1.890625q0.890625 -0.703125 2.421875 -0.703125q0.375 0 0.75 0.046875q0.390625 0.03125 0.71875 0.09375q0.328125 0.0625 0.578125 0.140625q0.25 0.0625 0.390625 0.109375l-0.296875 1.390625q-0.25 -0.140625 -0.8125 -0.28125q-0.546875 -0.15625 -1.328125 -0.15625q-0.671875 0 -1.1875 0.28125q-0.5 0.265625 -0.5 0.828125q0 0.296875 0.109375 0.53125q0.125 0.21875 0.359375 0.40625q0.234375 0.171875 0.578125 0.328125q0.34375 0.15625 0.828125 0.328125q0.640625 0.25 1.140625 0.484375q0.5 0.234375 0.859375 0.546875q0.359375 0.3125 0.546875 0.75q0.1875 0.4375 0.1875 1.078125q0 1.2500153 -0.921875 1.8906403q-0.921875 0.640625 -2.640625 0.640625q-1.203125 0 -1.875 -0.203125q-0.671875 -0.1875 -0.921875 -0.296875l0.296875 -1.3906403q0.28125 0.109375 0.890625 0.328125q0.609375 0.20314026 1.609375 0.20314026zm5.634552 1.15625l0 -13.17189l1.609375 -0.28125l0 4.609375q0.453125 -0.171875 0.953125 -0.265625q0.515625 -0.09375 1.015625 -0.09375q1.078125 0 1.78125 0.3125q0.71875 0.296875 1.140625 0.84375q0.421875 0.546875 0.59375 1.3125q0.171875 0.75 0.171875 1.671875l0 5.0625153l-1.609375 0l0 -4.7187653q0 -0.828125 -0.109375 -1.40625q-0.109375 -0.59375 -0.375 -0.953125q-0.25 -0.375 -0.6875 -0.53125q-0.4375 -0.171875 -1.078125 -0.171875q-0.25 0 -0.53125 0.03125q-0.28125 0.03125 -0.53125 0.078125q-0.25 0.046875 -0.453125 0.109375q-0.203125 0.046875 -0.28125 0.078125l0 7.4843903l-1.609375 0zm12.941177 -1.15625q0.5625 0 1.0 -0.03125q0.453125 -0.03125 0.75 -0.09375l0 -2.6875153q-0.171875 -0.09375 -0.5625 -0.140625q-0.390625 -0.0625 -0.953125 -0.0625q-0.359375 0 -0.765625 0.046875q-0.40625 0.046875 -0.75 0.21875q-0.328125 0.15625 -0.5625 0.453125q-0.21875 0.28125 -0.21875 0.75q0 0.859375 0.546875 1.203125q0.5625 0.34376526 1.515625 0.34376526zm-0.140625 -8.07814q0.96875 0 1.640625 0.25q0.671875 0.25 1.078125 0.71875q0.40625 0.453125 0.578125 1.09375q0.171875 0.625 0.171875 1.390625l0 5.6250153q-0.203125 0.03125 -0.578125 0.09375q-0.375 0.0625 -0.84375 0.109375q-0.46875 0.0625 -1.015625 0.09375q-0.546875 0.046875 -1.078125 0.046875q-0.765625 0 -1.40625 -0.15625q-0.640625 -0.15625 -1.109375 -0.484375q-0.46875 -0.34375 -0.734375 -0.89064026q-0.25 -0.5625 -0.25 -1.34375q0 -0.75 0.296875 -1.28125q0.3125 -0.53125 0.828125 -0.859375q0.515625 -0.328125 1.203125 -0.484375q0.703125 -0.15625 1.46875 -0.15625q0.234375 0 0.484375 0.03125q0.265625 0.015625 0.5 0.0625q0.234375 0.03125 0.40625 0.078125q0.171875 0.03125 0.25 0.046875l0 -0.453125q0 -0.390625 -0.09375 -0.78125q-0.078125 -0.390625 -0.3125 -0.6875q-0.21875 -0.3125 -0.609375 -0.484375q-0.390625 -0.1875 -1.015625 -0.1875q-0.796875 0 -1.390625 0.109375q-0.59375 0.109375 -0.890625 0.234375l-0.1875 -1.34375q0.3125 -0.125 1.03125 -0.25q0.734375 -0.140625 1.578125 -0.140625zm12.388985 4.75q0 -1.578125 -0.78125 -2.421875q-0.78125 -0.859375 -2.078125 -0.859375q-0.7187576 0 -1.1406326 0.0625q-0.40625 0.046875 -0.640625 0.109375l0 5.6875q0.296875 0.25 0.84375 0.46875q0.5625076 0.21876526 1.2187576 0.21876526q0.6875 0 1.171875 -0.25001526q0.5 -0.25 0.8125 -0.6875q0.3125 -0.4375 0.453125 -1.03125q0.140625 -0.609375 0.140625 -1.296875zm1.6875 0q0 1.015625 -0.28125 1.890625q-0.265625 0.859375 -0.78125 1.4843903q-0.515625 0.625 -1.28125 0.96875q-0.75 0.34375 -1.71875 0.34375q-0.78125 0 -1.3750076 -0.203125q-0.59375 -0.203125 -0.890625 -0.40625l0 3.609375l-1.609375 0l0 -11.937515q0.5625 -0.140625 1.421875 -0.296875q0.859375 -0.171875 1.9843826 -0.171875q1.046875 0 1.875 0.328125q0.828125 0.328125 1.421875 0.9375q0.59375 0.609375 0.90625 1.484375q0.328125 0.875 0.328125 1.96875zm1.7687073 0q0 -1.203125 0.34375 -2.09375q0.34375 -0.890625 0.90625 -1.46875q0.578125 -0.59375 1.3125 -0.890625q0.75 -0.296875 1.53125 -0.296875q1.828125 0 2.796875 1.140625q0.96875 1.125 0.96875 3.453125q0 0.09375 0 0.265625q0 0.171875 -0.015625 0.296875l-6.171875 0q0.109375 1.40625 0.8125 2.140625q0.71875 0.71876526 2.21875 0.71876526q0.859375 0 1.4375 -0.14064026q0.578125 -0.140625 0.875 -0.28125l0.21875 1.3437653q-0.296875 0.15625 -1.03125 0.328125q-0.734375 0.171875 -1.671875 0.171875q-1.171875 0 -2.03125 -0.34375q-0.859375 -0.359375 -1.421875 -0.984375q-0.546875 -0.62501526 -0.8125 -1.4843903q-0.265625 -0.859375 -0.265625 -1.875zm6.171875 -0.890625q0.03125 -1.09375 -0.546875 -1.78125q-0.5625 -0.703125 -1.546875 -0.703125q-0.546875 0 -0.984375 0.21875q-0.421875 0.203125 -0.71875 0.5625q-0.28125 0.34375 -0.453125 0.796875q-0.15625 0.4375 -0.21875 0.90625l4.46875 0zm7.342621 -3.828125q0.203125 0 0.46875 0.03125q0.265625 0.015625 0.53125 0.0625q0.265625 0.046875 0.46875 0.09375q0.21875 0.046875 0.328125 0.078125l-0.28125 1.40625q-0.1875 -0.078125 -0.640625 -0.171875q-0.4375 -0.09375 -1.125 -0.09375q-0.453125 0 -0.890625 0.09375q-0.4375 0.09375 -0.578125 0.125l0 7.5781403l-1.609375 0l0 -8.625015q0.5625 -0.21875 1.40625 -0.390625q0.859375 -0.1875 1.921875 -0.1875zm5.266739 8.26564q0 0.46875 -0.3125 0.8125q-0.3125 0.34375 -0.859375 0.34375q-0.53125 0 -0.84375 -0.34375q-0.3125 -0.34375 -0.3125 -0.8125q0 -0.46876526 0.3125 -0.81251526q0.3125 -0.34375 0.84375 -0.34375q0.546875 0 0.859375 0.34375q0.3125 0.34375 0.3125 0.81251526zm0 -6.9062653q0 0.46875 -0.3125 0.8125q-0.3125 0.34375 -0.859375 0.34375q-0.53125 0 -0.84375 -0.34375q-0.3125 -0.34375 -0.3125 -0.8125q0 -0.46875 0.3125 -0.8125q0.3125 -0.34375 0.84375 -0.34375q0.546875 0 0.859375 0.34375q0.3125 0.34375 0.3125 0.8125z" fill-rule="nonzero"/><path fill="#97e574" d="m161.45032 248.29277l3.421875 0l0 1.359375l-3.421875 0l0 4.15625q0 0.671875 0.109375 1.125q0.109375 0.4375 0.3125 0.6875q0.203125 0.25 0.515625 0.359375q0.3125 0.09376526 0.734375 0.09376526q0.71875 0 1.15625 -0.15626526q0.453125 -0.171875 0.625 -0.234375l0.3125 1.3281403q-0.25 0.125 -0.859375 0.296875q-0.59375 0.1875 -1.375 0.1875q-0.921875 0 -1.53125 -0.234375q-0.59375 -0.234375 -0.953125 -0.703125q-0.359375 -0.46875 -0.515625 -1.1406403q-0.140625 -0.6875 -0.140625 -1.59375l0 -8.03125l1.609375 -0.28125l0 2.78125zm12.637741 8.750015q-0.5625 0.140625 -1.46875 0.296875q-0.90625 0.15625 -2.109375 0.15625q-1.03125 0 -1.75 -0.296875q-0.703125 -0.3125 -1.140625 -0.859375q-0.4375 -0.56251526 -0.625 -1.3125153q-0.1875 -0.75 -0.1875 -1.671875l0 -5.0625l1.609375 0l0 4.71875q0 1.640625 0.515625 2.359375q0.53125 0.70314026 1.75 0.70314026q0.265625 0 0.546875 -0.015625q0.28125 -0.015625 0.515625 -0.03125q0.25 -0.03126526 0.4375 -0.06251526q0.203125 -0.03125 0.296875 -0.0625l0 -7.609375l1.609375 0l0 8.750015zm9.024414 -4.2187653q0 -1.578125 -0.78125 -2.421875q-0.78125 -0.859375 -2.078125 -0.859375q-0.71875 0 -1.140625 0.0625q-0.40625 0.046875 -0.640625 0.109375l0 5.6875q0.296875 0.25 0.84375 0.46875q0.5625 0.21876526 1.21875 0.21876526q0.6875 0 1.171875 -0.25001526q0.5 -0.25 0.8125 -0.6875q0.3125 -0.4375 0.453125 -1.03125q0.140625 -0.609375 0.140625 -1.296875zm1.6875 0q0 1.015625 -0.28125 1.890625q-0.265625 0.859375 -0.78125 1.4843903q-0.515625 0.625 -1.28125 0.96875q-0.75 0.34375 -1.71875 0.34375q-0.78125 0 -1.375 -0.203125q-0.59375 -0.203125 -0.890625 -0.40625l0 3.609375l-1.609375 0l0 -11.937515q0.5625 -0.140625 1.421875 -0.296875q0.859375 -0.171875 1.984375 -0.171875q1.046875 0 1.875 0.328125q0.828125 0.328125 1.421875 0.9375q0.59375 0.609375 0.90625 1.484375q0.328125 0.875 0.328125 1.96875zm4.9718323 4.6562653q-1.5 -0.03125 -2.125 -0.640625q-0.609375 -0.609375 -0.609375 -1.8906403l0 -10.8125l1.609375 -0.28125l0 10.84375q0 0.390625 0.0625 0.65625q0.078125 0.25 0.21875 0.40625q0.15625 0.15625 0.421875 0.234375q0.265625 0.07814026 0.640625 0.14064026l-0.21875 1.34375zm1.52742 -4.6562653q0 -1.203125 0.34375 -2.09375q0.34375 -0.890625 0.90625 -1.46875q0.578125 -0.59375 1.3125 -0.890625q0.75 -0.296875 1.53125 -0.296875q1.828125 0 2.796875 1.140625q0.96875 1.125 0.96875 3.453125q0 0.09375 0 0.265625q0 0.171875 -0.015625 0.296875l-6.171875 0q0.109375 1.40625 0.8125 2.140625q0.71875 0.71876526 2.21875 0.71876526q0.859375 0 1.4375 -0.14064026q0.578125 -0.140625 0.875 -0.28125l0.21875 1.3437653q-0.296875 0.15625 -1.03125 0.328125q-0.734375 0.171875 -1.671875 0.171875q-1.171875 0 -2.03125 -0.34375q-0.859375 -0.359375 -1.421875 -0.984375q-0.546875 -0.62501526 -0.8125 -1.4843903q-0.265625 -0.859375 -0.265625 -1.875zm6.171875 -0.890625q0.03125 -1.09375 -0.546875 -1.78125q-0.5625 -0.703125 -1.546875 -0.703125q-0.546875 0 -0.984375 0.21875q-0.421875 0.203125 -0.71875 0.5625q-0.28125 0.34375 -0.453125 0.796875q-0.15625 0.4375 -0.21875 0.90625l4.46875 0z" fill-rule="nonzero"/><path fill="#f3f3f3" d="m51.701443 276.0409q0 -2.21875 -0.640625 -4.09375q-0.640625 -1.890625 -1.890625 -3.5l1.140625 -0.78125q1.34375 1.640625 2.171875 3.78125q0.828125 2.140625 0.828125 4.59375q0 2.46875 -0.828125 4.609375q-0.828125 2.140625 -2.171875 3.78125l-1.140625 -0.78125q1.25 -1.609375 1.890625 -3.5q0.640625 -1.890625 0.640625 -4.109375z" fill-rule="nonzero"/></g></svg>