<svg version="1.1" viewBox="0.0 0.0 300.0 75.0" fill="none" stroke="none" stroke-linecap="square" stroke-miterlimit="10" xmlns:xlink="http://www.w3.org/1999/xlink" xmlns="http://www.w3.org/2000/svg"><clipPath id="p.0"><path d="m0 0l300.0 0l0 75.0l-300.0 0l0 -75.0z" clip-rule="nonzero"/></clipPath><g clip-path="url(#p.0)"><path fill="#000000" fill-opacity="0.0" d="m0 0l300.0 0l0 75.0l-300.0 0z" fill-rule="evenodd"/><path fill="#000000" fill-opacity="0.0" d="m95.23743 19.63517l192.50394 0l0 35.716537l-192.50394 0z" fill-rule="evenodd"/><path fill="#fefefe" d="m96.89368 32.053436l4.875 -14.218748l1.96875 0l4.875 14.218748l-1.59375 0l-1.421875 -4.062498l-5.71875 0l-1.40625 4.062498l-1.578125 0zm3.359375 -5.453123l4.953125 0l-2.453125 -7.421875l-2.5 7.421875zm10.48027 5.453123l0 -10.328123l1.15625 0l0.375 1.796875q0.6875 -0.828125 1.546875 -1.359375q0.859375 -0.546875 1.984375 -0.546875q0.265625 0 0.5 0.015625q0.25 0.015625 0.46875 0.078125l0 1.5625q-0.25 -0.03125 -0.546875 -0.0625q-0.28125 -0.03125 -0.578125 -0.03125q-0.71875 0 -1.28125 0.171875q-0.546875 0.171875 -1.0625 0.53125q-0.5 0.34375 -1.03125 0.84375l0 7.328123l-1.53125 0zm11.578384 0q-1.0 0 -1.65625 -0.3281231q-0.65625 -0.328125 -0.96875 -1.0625q-0.3125 -0.734375 -0.296875 -1.953125l0.0625 -5.71875l-1.640625 0l0 -0.984375l1.65625 -0.28125l0.25 -2.875l1.1875 0l0 2.875l2.96875 0l0 1.265625l-2.96875 0l0 5.71875q0 0.671875 0.140625 1.078125q0.140625 0.40625 0.375 0.625q0.25 0.203125 0.515625 0.296875q0.28125 0.09375 0.53125 0.109375l1.25 0.109375l0 1.1249981l-1.40625 0zm3.9059143 -12.156248q-0.3125 0 -0.3125 -0.3125l0 -1.5q0 -0.3125 0.3125 -0.3125l1.078125 0q0.15625 0 0.21875 0.09375q0.078125 0.078125 0.078125 0.21875l0 1.5q0 0.3125 -0.296875 0.3125l-1.078125 0zm-0.234375 12.156248l0 -10.328123l1.53125 0l0 10.328123l-1.53125 0zm4.964798 0l0 -9.062498l-1.578125 0l0 -0.984375l1.578125 -0.28125l0 -1.359375q0 -1.0625 0.265625 -1.765625q0.265625 -0.71875 0.890625 -1.0625q0.625 -0.34375 1.6875 -0.34375q0.734375 0 1.25 0.09375q0.53125 0.078125 0.9375 0.1875l0 1.09375q-0.40625 -0.046875 -0.859375 -0.078125q-0.453125 -0.03125 -0.890625 -0.03125q-0.703125 0 -1.09375 0.234375q-0.375 0.234375 -0.515625 0.703125q-0.140625 0.453125 -0.140625 1.15625l0 1.171875l6.109375 0l0 1.265625l-6.109375 0l0 9.062498l-1.53125 0zm6.90625 0l0 -10.328123l1.53125 0l0 10.328123l-1.53125 0zm0.234375 -12.156248q-0.3125 0 -0.3125 -0.3125l0 -1.5q0 -0.3125 0.3125 -0.3125l1.09375 0q0.140625 0 0.203125 0.09375q0.0625 0.078125 0.0625 0.21875l0 1.5q0 0.3125 -0.265625 0.3125l-1.09375 0zm7.976837 12.265623q-0.875 0 -1.625 -0.2187481q-0.75 -0.234375 -1.3125 -0.8125q-0.5625 -0.578125 -0.875 -1.609375q-0.296875 -1.03125 -0.296875 -2.609375q0 -1.609375 0.28125 -2.640625q0.296875 -1.03125 0.828125 -1.609375q0.546875 -0.578125 1.3125 -0.8125q0.78125 -0.234375 1.71875 -0.234375q0.78125 0 1.6875 0.078125q0.90625 0.0625 1.734375 0.1875l0 0.90625l-3.015625 0q-0.984375 0 -1.65625 0.34375q-0.671875 0.328125 -1.03125 1.234375q-0.34375 0.890625 -0.34375 2.578125q0 1.65625 0.359375 2.53125q0.375 0.859375 1.046875 1.1875q0.6875 0.3125 1.65625 0.3125l3.140625 0l0 0.890625q-0.4375 0.078125 -1.03125 0.1562481q-0.59375 0.0625 -1.25 0.09375q-0.65625 0.046875 -1.328125 0.046875zm5.9551544 -12.265623q-0.3125 0 -0.3125 -0.3125l0 -1.5q0 -0.3125 0.3125 -0.3125l1.078125 0q0.15625 0 0.21875 0.09375q0.078125 0.078125 0.078125 0.21875l0 1.5q0 0.3125 -0.296875 0.3125l-1.078125 0zm-0.234375 12.156248l0 -10.328123l1.53125 0l0 10.328123l-1.53125 0zm6.480423 0.109375q-1.140625 0 -1.875 -0.6718731q-0.734375 -0.671875 -0.734375 -1.90625l0 -0.734375q0 -1.21875 0.796875 -1.96875q0.796875 -0.765625 2.421875 -0.765625l3.5 0l0 -1.265625q0 -0.640625 -0.21875 -1.09375q-0.21875 -0.453125 -0.796875 -0.703125q-0.5625 -0.265625 -1.65625 -0.265625l-3.203125 0l0 -0.90625q0.671875 -0.109375 1.5625 -0.203125q0.90625 -0.09375 2.125 -0.09375q1.265625 -0.03125 2.09375 0.296875q0.828125 0.328125 1.21875 1.046875q0.40625 0.703125 0.40625 1.84375l0 7.281248l-1.1875 0l-0.28125 -1.1718731q-0.078125 0.0625 -0.484375 0.265625q-0.390625 0.1875 -1.0 0.4375q-0.609375 0.234375 -1.3125 0.40625q-0.703125 0.1718731 -1.375 0.1718731zm0.625 -1.1406231q0.359375 0.03125 0.796875 -0.0625q0.453125 -0.109375 0.90625 -0.234375q0.46875 -0.125 0.859375 -0.25q0.40625 -0.140625 0.65625 -0.234375q0.25 -0.09375 0.265625 -0.09375l0 -3.25l-3.140625 0.125q-1.109375 0.046875 -1.59375 0.546875q-0.46875 0.5 -0.46875 1.296875l0 0.46875q0 0.609375 0.265625 0.984375q0.265625 0.375 0.65625 0.53125q0.40625 0.15625 0.796875 0.171875zm10.596329 1.0468731q-0.890625 0 -1.484375 -0.3124981q-0.59375 -0.328125 -0.90625 -1.046875q-0.3125 -0.71875 -0.3125 -1.96875l0 -11.4375l1.53125 0l0 11.25q0 0.921875 0.171875 1.40625q0.171875 0.46875 0.5 0.65625q0.328125 0.1875 0.78125 0.234375l1.03125 0.125l0 1.0937481l-1.3125 0zm8.213562 -0.015625l0 -14.218748l1.546875 0l0 14.218748l-1.546875 0zm4.5071564 0l0 -10.328123l1.203125 0l0.328125 1.140625q0.734375 -0.515625 1.71875 -0.90625q0.984375 -0.40625 2.046875 -0.40625q1.140625 0 1.828125 0.484375q0.703125 0.484375 1.03125 1.28125q0.328125 0.796875 0.328125 1.71875l0 7.015623l-1.53125 0l0 -6.843748q0 -0.65625 -0.265625 -1.171875q-0.25 -0.515625 -0.734375 -0.796875q-0.46875 -0.296875 -1.15625 -0.296875q-0.640625 0 -1.203125 0.125q-0.546875 0.125 -1.046875 0.359375q-0.484375 0.21875 -1.015625 0.53125l0 8.093748l-1.53125 0zm14.786804 0q-1.0 0 -1.65625 -0.3281231q-0.65625 -0.328125 -0.96875 -1.0625q-0.3125 -0.734375 -0.296875 -1.953125l0.0625 -5.71875l-1.640625 0l0 -0.984375l1.65625 -0.28125l0.25 -2.875l1.1875 0l0 2.875l2.96875 0l0 1.265625l-2.96875 0l0 5.71875q0 0.671875 0.140625 1.078125q0.140625 0.40625 0.375 0.625q0.25 0.203125 0.515625 0.296875q0.28125 0.09375 0.53125 0.109375l1.25 0.109375l0 1.1249981l-1.40625 0zm7.6090393 0.109375q-1.625 0 -2.5625 -0.4687481q-0.9375 -0.484375 -1.34375 -1.640625q-0.390625 -1.171875 -0.390625 -3.1875q0 -2.046875 0.40625 -3.1875q0.421875 -1.15625 1.359375 -1.609375q0.953125 -0.46875 2.5625 -0.46875q1.359375 0 2.21875 0.3125q0.875 0.296875 1.28125 1.046875q0.421875 0.75 0.421875 2.0625q0 0.90625 -0.359375 1.453125q-0.359375 0.546875 -1.03125 0.796875q-0.65625 0.234375 -1.578125 0.234375l-3.765625 0q0.015625 1.265625 0.265625 2.03125q0.265625 0.75 0.921875 1.09375q0.671875 0.34375 1.96875 0.34375l3.328125 0l0 0.921875q-0.890625 0.12499809 -1.75 0.1874981q-0.84375 0.078125 -1.953125 0.078125zm-2.796875 -5.656248l3.671875 0q0.875 0 1.28125 -0.3125q0.421875 -0.328125 0.421875 -1.15625q0 -0.890625 -0.265625 -1.375q-0.265625 -0.5 -0.8125 -0.703125q-0.546875 -0.203125 -1.46875 -0.203125q-1.09375 0 -1.71875 0.328125q-0.609375 0.3125 -0.859375 1.125q-0.25 0.8125 -0.25 2.296875zm12.019012 5.562498q-0.890625 0 -1.484375 -0.3124981q-0.59375 -0.328125 -0.90625 -1.046875q-0.3125 -0.71875 -0.3125 -1.96875l0 -11.4375l1.53125 0l0 11.25q0 0.921875 0.171875 1.40625q0.171875 0.46875 0.5 0.65625q0.328125 0.1875 0.78125 0.234375l1.03125 0.125l0 1.0937481l-1.3125 0zm5.6824646 0q-0.890625 0 -1.484375 -0.3124981q-0.59375 -0.328125 -0.90625 -1.046875q-0.3125 -0.71875 -0.3125 -1.96875l0 -11.4375l1.53125 0l0 11.25q0 0.921875 0.171875 1.40625q0.171875 0.46875 0.5 0.65625q0.328125 0.1875 0.78125 0.234375l1.03125 0.125l0 1.0937481l-1.3125 0zm3.2137146 -12.171873q-0.3125 0 -0.3125 -0.3125l0 -1.5q0 -0.3125 0.3125 -0.3125l1.078125 0q0.15625 0 0.21875 0.09375q0.078125 0.078125 0.078125 0.21875l0 1.5q0 0.3125 -0.296875 0.3125l-1.078125 0zm-0.234375 12.156248l0 -10.328123l1.53125 0l0 10.328123l-1.53125 0zm6.996048 4.734375q-1.0 0 -1.765625 -0.28125q-0.765625 -0.28125 -1.203125 -0.859375q-0.4375 -0.5625 -0.4375 -1.40625l0 -0.46875q0 -0.890625 0.484375 -1.5q0.5 -0.5937481 1.25 -0.8906231q0.765625 -0.296875 1.5625 -0.296875l0.375 0.625q-0.578125 0 -1.078125 0.1875q-0.5 0.1718731 -0.828125 0.5781231q-0.3125 0.40625 -0.3125 1.046875l0 0.421875q0 0.9375 0.609375 1.328125q0.625 0.390625 1.6875 0.390625l2.40625 0q1.15625 0 1.8125 -0.453125q0.671875 -0.4375 0.671875 -1.375l0 -0.390625q0 -0.546875 -0.21875 -0.9375q-0.203125 -0.375 -0.703125 -0.5781231q-0.484375 -0.21875 -1.375 -0.21875l-3.109375 0q-1.203125 0 -1.875 -0.515625q-0.65625 -0.515625 -0.65625 -1.328125q0 -0.765625 0.453125 -1.203125q0.453125 -0.453125 1.28125 -0.625q-0.71875 -0.296875 -1.125 -0.78125q-0.40625 -0.5 -0.5625 -1.0625q-0.140625 -0.578125 -0.140625 -1.15625q0 -1.203125 0.484375 -1.9375q0.484375 -0.734375 1.375 -1.0625q0.90625 -0.328125 2.125 -0.328125l5.5 0l0 0.875l-2.3125 0.1875q0.25 0.171875 0.546875 0.453125q0.3125 0.28125 0.53125 0.796875q0.234375 0.515625 0.234375 1.40625q0 0.78125 -0.34375 1.5q-0.34375 0.71875 -1.140625 1.171875q-0.78125 0.453125 -2.171875 0.453125l-1.640625 0q-0.8125 0 -1.296875 0.25q-0.46875 0.234375 -0.46875 0.859375q0 0.453125 0.34375 0.65625q0.359375 0.1875 0.75 0.1875l3.40625 0q1.203125 0 1.984375 0.3125q0.78125 0.3125 1.171875 0.9375q0.40625 0.6249981 0.40625 1.5937481l0 0.421875q0 1.40625 -0.953125 2.203125q-0.953125 0.8125 -2.859375 0.8125l-2.875 0zm0.71875 -9.406248l1.15625 0q0.984375 0 1.5 -0.296875q0.515625 -0.3125 0.703125 -0.796875q0.1875 -0.484375 0.1875 -1.03125q0 -0.875 -0.28125 -1.390625q-0.265625 -0.515625 -0.78125 -0.734375q-0.5 -0.21875 -1.15625 -0.21875l-1.09375 0q-1.109375 0 -1.734375 0.5q-0.625 0.484375 -0.625 1.703125q0 1.203125 0.5625 1.734375q0.578125 0.53125 1.5625 0.53125zm11.820496 4.781248q-1.625 0 -2.5625 -0.4687481q-0.9375 -0.484375 -1.34375 -1.640625q-0.390625 -1.171875 -0.390625 -3.1875q0 -2.046875 0.40625 -3.1875q0.421875 -1.15625 1.359375 -1.609375q0.953125 -0.46875 2.5625 -0.46875q1.359375 0 2.21875 0.3125q0.875 0.296875 1.28125 1.046875q0.421875 0.75 0.421875 2.0625q0 0.90625 -0.359375 1.453125q-0.359375 0.546875 -1.03125 0.796875q-0.65625 0.234375 -1.578125 0.234375l-3.765625 0q0.015625 1.265625 0.265625 2.03125q0.265625 0.75 0.921875 1.09375q0.671875 0.34375 1.96875 0.34375l3.328125 0l0 0.921875q-0.890625 0.12499809 -1.75 0.1874981q-0.84375 0.078125 -1.953125 0.078125zm-2.796875 -5.656248l3.671875 0q0.875 0 1.28125 -0.3125q0.421875 -0.328125 0.421875 -1.15625q0 -0.890625 -0.265625 -1.375q-0.265625 -0.5 -0.8125 -0.703125q-0.546875 -0.203125 -1.46875 -0.203125q-1.09375 0 -1.71875 0.328125q-0.609375 0.3125 -0.859375 1.125q-0.25 0.8125 -0.25 2.296875zm9.315887 5.546873l0 -10.328123l1.203125 0l0.328125 1.140625q0.734375 -0.515625 1.71875 -0.90625q0.984375 -0.40625 2.046875 -0.40625q1.140625 0 1.828125 0.484375q0.703125 0.484375 1.03125 1.28125q0.328125 0.796875 0.328125 1.71875l0 7.015623l-1.53125 0l0 -6.843748q0 -0.65625 -0.265625 -1.171875q-0.25 -0.515625 -0.734375 -0.796875q-0.46875 -0.296875 -1.15625 -0.296875q-0.640625 0 -1.203125 0.125q-0.546875 0.125 -1.046875 0.359375q-0.484375 0.21875 -1.015625 0.53125l0 8.093748l-1.53125 0zm15.114929 0.109375q-0.875 0 -1.625 -0.2187481q-0.75 -0.234375 -1.3125 -0.8125q-0.5625 -0.578125 -0.875 -1.609375q-0.296875 -1.03125 -0.296875 -2.609375q0 -1.609375 0.28125 -2.640625q0.296875 -1.03125 0.828125 -1.609375q0.546875 -0.578125 1.3125 -0.8125q0.78125 -0.234375 1.71875 -0.234375q0.78125 0 1.6875 0.078125q0.90625 0.0625 1.734375 0.1875l0 0.90625l-3.015625 0q-0.984375 0 -1.65625 0.34375q-0.671875 0.328125 -1.03125 1.234375q-0.34375 0.890625 -0.34375 2.578125q0 1.65625 0.359375 2.53125q0.375 0.859375 1.046875 1.1875q0.6875 0.3125 1.65625 0.3125l3.140625 0l0 0.890625q-0.4375 0.078125 -1.03125 0.1562481q-0.59375 0.0625 -1.25 0.09375q-0.65625 0.046875 -1.328125 0.046875zm9.658295 0q-1.625 0 -2.5625 -0.4687481q-0.9375 -0.484375 -1.34375 -1.640625q-0.390625 -1.171875 -0.390625 -3.1875q0 -2.046875 0.40625 -3.1875q0.421875 -1.15625 1.359375 -1.609375q0.953125 -0.46875 2.5625 -0.46875q1.359375 0 2.21875 0.3125q0.875 0.296875 1.28125 1.046875q0.421875 0.75 0.421875 2.0625q0 0.90625 -0.359375 1.453125q-0.359375 0.546875 -1.03125 0.796875q-0.65625 0.234375 -1.578125 0.234375l-3.765625 0q0.015625 1.265625 0.265625 2.03125q0.265625 0.75 0.921875 1.09375q0.671875 0.34375 1.96875 0.34375l3.328125 0l0 0.921875q-0.890625 0.12499809 -1.75 0.1874981q-0.84375 0.078125 -1.953125 0.078125zm-2.796875 -5.656248l3.671875 0q0.875 0 1.28125 -0.3125q0.421875 -0.328125 0.421875 -1.15625q0 -0.890625 -0.265625 -1.375q-0.265625 -0.5 -0.8125 -0.703125q-0.546875 -0.203125 -1.46875 -0.203125q-1.09375 0 -1.71875 0.328125q-0.609375 0.3125 -0.859375 1.125q-0.25 0.8125 -0.25 2.296875z" fill-rule="nonzero"/><path fill="#fefefe" d="m106.01868 59.334686q-0.71875 0 -1.390625 -0.296875q-0.65625 -0.28125 -1.140625 -0.859375q-0.46875 -0.578125 -0.5625 -1.453125l1.046875 0q0.234375 0.765625 0.8125 1.09375q0.578125 0.34375 1.21875 0.34375q0.265625 0 0.515625 -0.046875q0.25 -0.046875 0.484375 -0.125l0 1.1875q-0.234375 0.0625 -0.484375 0.109375q-0.234375 0.046875 -0.5 0.046875zm-3.15625 -3.171875q-1.375 0 -2.40625 -0.25q-1.03125 -0.265625 -1.71875 -1.0q-0.6875 -0.734375 -1.03125 -2.15625q-0.328125 -1.4375 -0.328125 -3.765625q0 -2.3125 0.34375 -3.75q0.359375 -1.4375 1.046875 -2.203125q0.703125 -0.765625 1.71875 -1.046875q1.03125 -0.28125 2.375 -0.28125q1.390625 0 2.421875 0.28125q1.046875 0.28125 1.734375 1.046875q0.6875 0.765625 1.015625 2.203125q0.328125 1.4375 0.328125 3.75q0 2.328125 -0.34375 3.765625q-0.34375 1.421875 -1.03125 2.15625q-0.6875 0.734375 -1.71875 1.0q-1.015625 0.25 -2.40625 0.25zm0 -1.359375q1.09375 0 1.84375 -0.21875q0.75 -0.21875 1.21875 -0.828125q0.484375 -0.609375 0.6875 -1.75q0.21875 -1.140625 0.21875 -3.015625q0 -1.9375 -0.234375 -3.109375q-0.21875 -1.1875 -0.6875 -1.78125q-0.46875 -0.609375 -1.21875 -0.796875q-0.734375 -0.203125 -1.828125 -0.203125q-1.0 0 -1.75 0.203125q-0.734375 0.1875 -1.234375 0.796875q-0.484375 0.59375 -0.734375 1.78125q-0.234375 1.171875 -0.234375 3.109375q0 1.875 0.203125 3.015625q0.203125 1.140625 0.65625 1.75q0.46875 0.609375 1.234375 0.828125q0.765625 0.21875 1.859375 0.21875zm11.180969 1.359375q-1.5 0 -2.296875 -0.765625q-0.796875 -0.78125 -0.796875 -2.390625l0 -7.28125l1.515625 0l0 6.890625q0 1.296875 0.59375 1.75q0.59375 0.453125 1.65625 0.453125q0.90625 0 1.65625 -0.265625q0.765625 -0.265625 1.546875 -0.71875l0 -8.109375l1.53125 0l0 10.328125l-1.203125 0l-0.328125 -1.140625q-0.78125 0.5 -1.78125 0.875q-1.0 0.375 -2.09375 0.375zm10.302429 0q-1.140625 0 -1.875 -0.671875q-0.734375 -0.671875 -0.734375 -1.90625l0 -0.734375q0 -1.21875 0.796875 -1.96875q0.796875 -0.765625 2.421875 -0.765625l3.5 0l0 -1.265625q0 -0.640625 -0.21875 -1.09375q-0.21875 -0.453125 -0.796875 -0.703125q-0.5625 -0.265625 -1.65625 -0.265625l-3.203125 0l0 -0.90625q0.671875 -0.109375 1.5625 -0.203125q0.90625 -0.09375 2.125 -0.09375q1.265625 -0.03125 2.09375 0.296875q0.828125 0.328125 1.21875 1.046875q0.40625 0.703125 0.40625 1.84375l0 7.28125l-1.1875 0l-0.28125 -1.171875q-0.078125 0.0625 -0.484375 0.265625q-0.390625 0.1875 -1.0 0.4375q-0.609375 0.234375 -1.3125 0.40625q-0.703125 0.171875 -1.375 0.171875zm0.625 -1.140625q0.359375 0.03125 0.796875 -0.0625q0.453125 -0.109375 0.90625 -0.234375q0.46875 -0.125 0.859375 -0.25q0.40625 -0.140625 0.65625 -0.234375q0.25 -0.09375 0.265625 -0.09375l0 -3.25l-3.140625 0.125q-1.109375 0.046875 -1.59375 0.546875q-0.46875 0.5 -0.46875 1.296875l0 0.46875q0 0.609375 0.265625 0.984375q0.265625 0.375 0.65625 0.53125q0.40625 0.15625 0.796875 0.171875zm10.596329 1.046875q-0.890625 0 -1.484375 -0.3125q-0.59375 -0.328125 -0.90625 -1.046875q-0.3125 -0.71875 -0.3125 -1.96875l0 -11.4375l1.53125 0l0 11.25q0 0.921875 0.171875 1.40625q0.171875 0.46875 0.5 0.65625q0.328125 0.1875 0.78125 0.234375l1.03125 0.125l0 1.09375l-1.3125 0zm3.2137146 -12.171875q-0.3125 0 -0.3125 -0.3125l0 -1.5q0 -0.3125 0.3125 -0.3125l1.078125 0q0.15625 0 0.21875 0.09375q0.078125 0.078125 0.078125 0.21875l0 1.5q0 0.3125 -0.296875 0.3125l-1.078125 0zm-0.234375 12.15625l0 -10.328125l1.53125 0l0 10.328125l-1.53125 0zm7.886673 0q-1.0 0 -1.65625 -0.328125q-0.65625 -0.328125 -0.96875 -1.0625q-0.3125 -0.734375 -0.296875 -1.953125l0.0625 -5.71875l-1.640625 0l0 -0.984375l1.65625 -0.28125l0.25 -2.875l1.1875 0l0 2.875l2.96875 0l0 1.265625l-2.96875 0l0 5.71875q0 0.671875 0.140625 1.078125q0.140625 0.40625 0.375 0.625q0.25 0.203125 0.515625 0.296875q0.28125 0.09375 0.53125 0.109375l1.25 0.109375l0 1.125l-1.40625 0zm6.4371643 4.578125l1.3125 -4.578125q-0.484375 -0.015625 -1.015625 -0.21875q-0.515625 -0.21875 -0.96875 -0.734375q-0.4375 -0.53125 -0.71875 -1.46875l-2.46875 -7.90625l1.59375 0l2.296875 7.578125q0.21875 0.609375 0.453125 0.90625q0.25 0.28125 0.5 0.40625q0.25 0.109375 0.4375 0.125q0.1875 0 0.21875 0l2.65625 -9.015625l1.5625 0l-3.78125 13.0l-0.875 1.90625l-1.203125 0zm17.58136 -4.46875q-1.265625 0 -2.21875 -0.28125q-0.953125 -0.296875 -1.578125 -1.046875q-0.609375 -0.765625 -0.90625 -2.1875q-0.296875 -1.4375 -0.296875 -3.75q0 -2.15625 0.3125 -3.5625q0.3125 -1.40625 0.9375 -2.1875q0.625 -0.796875 1.59375 -1.109375q0.96875 -0.328125 2.28125 -0.328125q0.59375 0 1.328125 0.078125q0.734375 0.078125 1.453125 0.1875q0.71875 0.109375 1.296875 0.265625l0 1.140625q-0.328125 -0.0625 -0.9375 -0.125q-0.59375 -0.0625 -1.359375 -0.109375q-0.765625 -0.046875 -1.546875 -0.046875q-1.03125 0 -1.765625 0.234375q-0.734375 0.234375 -1.1875 0.859375q-0.453125 0.625 -0.671875 1.765625q-0.203125 1.140625 -0.203125 2.96875q0 1.828125 0.203125 3.0q0.203125 1.171875 0.640625 1.796875q0.453125 0.609375 1.15625 0.84375q0.71875 0.234375 1.78125 0.234375q1.453125 0 2.375 -0.078125q0.9375 -0.078125 1.515625 -0.171875l0 1.15625q-0.578125 0.125 -1.296875 0.234375q-0.703125 0.109375 -1.453125 0.15625q-0.734375 0.0625 -1.453125 0.0625zm10.458176 0q-1.109375 0 -1.953125 -0.21875q-0.84375 -0.234375 -1.40625 -0.8125q-0.5625 -0.578125 -0.828125 -1.609375q-0.265625 -1.046875 -0.265625 -2.65625q0 -1.609375 0.265625 -2.640625q0.265625 -1.046875 0.828125 -1.609375q0.5625 -0.578125 1.40625 -0.796875q0.84375 -0.21875 1.953125 -0.21875q1.125 0 1.96875 0.234375q0.84375 0.21875 1.390625 0.796875q0.5625 0.5625 0.84375 1.609375q0.28125 1.03125 0.28125 2.625q0 1.625 -0.28125 2.671875q-0.28125 1.03125 -0.828125 1.609375q-0.546875 0.5625 -1.40625 0.796875q-0.84375 0.21875 -1.96875 0.21875zm0 -1.25q0.71875 0 1.265625 -0.125q0.5625 -0.140625 0.921875 -0.546875q0.375 -0.40625 0.5625 -1.21875q0.1875 -0.8125 0.1875 -2.15625q0 -1.34375 -0.1875 -2.140625q-0.1875 -0.796875 -0.5625 -1.1875q-0.359375 -0.40625 -0.921875 -0.546875q-0.546875 -0.140625 -1.265625 -0.140625q-0.734375 0 -1.28125 0.140625q-0.53125 0.140625 -0.90625 0.546875q-0.359375 0.390625 -0.5625 1.1875q-0.1875 0.796875 -0.1875 2.140625q0 1.34375 0.1875 2.15625q0.203125 0.8125 0.5625 1.21875q0.375 0.40625 0.90625 0.546875q0.546875 0.125 1.28125 0.125zm7.0585785 1.140625l0 -10.328125l1.203125 0l0.328125 1.140625q0.734375 -0.515625 1.71875 -0.90625q0.984375 -0.40625 2.046875 -0.40625q1.140625 0 1.828125 0.484375q0.703125 0.484375 1.03125 1.28125q0.328125 0.796875 0.328125 1.71875l0 7.015625l-1.53125 0l0 -6.84375q0 -0.65625 -0.265625 -1.171875q-0.25 -0.515625 -0.734375 -0.796875q-0.46875 -0.296875 -1.15625 -0.296875q-0.640625 0 -1.203125 0.125q-0.546875 0.125 -1.046875 0.359375q-0.484375 0.21875 -1.015625 0.53125l0 8.09375l-1.53125 0zm14.786804 0q-1.0 0 -1.65625 -0.328125q-0.65625 -0.328125 -0.96875 -1.0625q-0.3125 -0.734375 -0.296875 -1.953125l0.0625 -5.71875l-1.640625 0l0 -0.984375l1.65625 -0.28125l0.25 -2.875l1.1875 0l0 2.875l2.96875 0l0 1.265625l-2.96875 0l0 5.71875q0 0.671875 0.140625 1.078125q0.140625 0.40625 0.375 0.625q0.25 0.203125 0.515625 0.296875q0.28125 0.09375 0.53125 0.109375l1.25 0.109375l0 1.125l-1.40625 0zm3.6715393 0l0 -10.328125l1.15625 0l0.375 1.796875q0.6875 -0.828125 1.546875 -1.359375q0.859375 -0.546875 1.984375 -0.546875q0.265625 0 0.5 0.015625q0.25 0.015625 0.46875 0.078125l0 1.5625q-0.25 -0.03125 -0.546875 -0.0625q-0.28125 -0.03125 -0.578125 -0.03125q-0.71875 0 -1.28125 0.171875q-0.546875 0.171875 -1.0625 0.53125q-0.5 0.34375 -1.03125 0.84375l0 7.328125l-1.53125 0zm12.056931 0.109375q-1.109375 0 -1.953125 -0.21875q-0.84375 -0.234375 -1.40625 -0.8125q-0.5625 -0.578125 -0.828125 -1.609375q-0.265625 -1.046875 -0.265625 -2.65625q0 -1.609375 0.265625 -2.640625q0.265625 -1.046875 0.828125 -1.609375q0.5625 -0.578125 1.40625 -0.796875q0.84375 -0.21875 1.953125 -0.21875q1.125 0 1.96875 0.234375q0.84375 0.21875 1.390625 0.796875q0.5625 0.5625 0.84375 1.609375q0.28125 1.03125 0.28125 2.625q0 1.625 -0.28125 2.671875q-0.28125 1.03125 -0.828125 1.609375q-0.546875 0.5625 -1.40625 0.796875q-0.84375 0.21875 -1.96875 0.21875zm0 -1.25q0.71875 0 1.265625 -0.125q0.5625 -0.140625 0.921875 -0.546875q0.375 -0.40625 0.5625 -1.21875q0.1875 -0.8125 0.1875 -2.15625q0 -1.34375 -0.1875 -2.140625q-0.1875 -0.796875 -0.5625 -1.1875q-0.359375 -0.40625 -0.921875 -0.546875q-0.546875 -0.140625 -1.265625 -0.140625q-0.734375 0 -1.28125 0.140625q-0.53125 0.140625 -0.90625 0.546875q-0.359375 0.390625 -0.5625 1.1875q-0.1875 0.796875 -0.1875 2.140625q0 1.34375 0.1875 2.15625q0.203125 0.8125 0.5625 1.21875q0.375 0.40625 0.90625 0.546875q0.546875 0.125 1.28125 0.125zm9.7617035 1.15625q-0.890625 0 -1.484375 -0.3125q-0.59375 -0.328125 -0.90625 -1.046875q-0.3125 -0.71875 -0.3125 -1.96875l0 -11.4375l1.53125 0l0 11.25q0 0.921875 0.171875 1.40625q0.171875 0.46875 0.5 0.65625q0.328125 0.1875 0.78125 0.234375l1.03125 0.125l0 1.09375l-1.3125 0z" fill-rule="nonzero"/><defs><linearGradient id="p.1" gradientUnits="userSpaceOnUse" gradientTransform="matrix(7.479145576157432 0.0 0.0 7.479145576157432 0.0 0.0)" spreadMethod="pad" x1="10.460995272225237" y1="8.753806104163026" x2="10.461077521925294" y2="1.274660528457853"><stop offset="0.0" stop-color="#9f8937"/><stop offset="0.28" stop-color="#e3ce7a"/><stop offset="0.75" stop-color="#9f8937"/><stop offset="0.91" stop-color="#e3cd77"/><stop offset="1.0" stop-color="#e1ca6f"/></linearGradient></defs><path fill="url(#p.1)" d="m23.026707 14.244662l0 0c0 -2.6019735 2.1093178 -4.7112904 4.7112923 -4.7112904l45.790016 0c1.2495117 0 2.4478455 0.4963665 3.3313828 1.3799047c0.8835449 0.88353825 1.3799057 2.081874 1.3799057 3.3313856l0 46.514423c0 2.6019745 -2.109314 4.711296 -4.7112885 4.711296l-45.790016 0c-2.6019745 0 -4.7112923 -2.1093216 -4.7112923 -4.711296z" fill-rule="evenodd"/><defs><linearGradient id="p.2" gradientUnits="userSpaceOnUse" gradientTransform="matrix(7.123225445422641 0.0 0.0 7.123225445422641 0.0 0.0)" spreadMethod="pad" x1="3.5925985656064205" y1="1.7029910089397189" x2="3.592572657786219" y2="8.826216454315245"><stop offset="0.0" stop-color="#4d4d4d"/><stop offset="0.41" stop-color="#272727"/><stop offset="1.0" stop-color="#000000"/></linearGradient></defs><path fill="url(#p.2)" d="m25.590889 16.511358l0 0c0 -2.419221 1.9611664 -4.3803873 4.3803864 -4.3803873l41.317963 0c1.1617508 0 2.2759247 0.46150398 3.0974045 1.2829857c0.8214798 0.82148266 1.2829895 1.9356508 1.2829895 3.0974016l0 41.979385c0 2.41922 -1.9611664 4.3803864 -4.380394 4.3803864l-41.317963 0c-2.41922 0 -4.3803864 -1.9611664 -4.3803864 -4.3803864z" fill-rule="evenodd"/><path fill="#000000" fill-opacity="0.0" d="m24.339933 18.189693l55.08661 0l0 24.440945l-55.08661 0z" fill-rule="evenodd"/><path fill="#ffffff" d="m33.22699 35.002037l0 -12.421873l2.328125 0l0 -2.328125l2.34375 0l0 -2.328125l7.734375 0l0 2.328125l2.34375 0l0 2.328125l2.328125 0l0 12.421873l-5.421875 0l0 -4.671873l-6.234375 0l0 4.671873l-5.421875 0zm5.421875 -7.749998l6.234375 0l0 -3.921875l-2.328125 0l0 -2.328125l-1.578125 0l0 2.328125l-2.328125 0l0 3.921875zm15.5625 7.749998l0 -3.093748l4.671871 0l0 -10.90625l-4.671871 0l0 -3.078125l14.75 0l0 3.078125l-4.671875 0l0 10.90625l4.671875 0l0 3.093748l-14.75 0z" fill-rule="nonzero"/><path fill="#000000" fill-opacity="0.0" d="m24.389868 41.89105l55.08661 0l0 21.291336l-55.08661 0z" fill-rule="evenodd"/><path fill="#ffffff" d="m49.690933 42.37859l0 10.078125l-2.328125 0l0 2.328125l-2.34375 0l0 2.34375l-10.078125 0l0 -2.34375l-2.328125 0l0 -12.40625l2.328125 0l0 -2.328125l12.421875 0l0 2.328125l2.328125 0zm-5.421875 0.75l-6.234375 0l0 10.90625l3.90625 0l0 -1.578125l-2.328125 0l0 -3.078125l4.65625 0l0 -6.25zm2.34375 14.0l0 -3.09375l3.078125 0l0 3.09375l-3.078125 0z" fill-rule="nonzero"/><path fill="#ffffff" d="m57.26916 57.12859l0 -2.34375l-2.3437462 0l0 -2.328125l-2.328125 0l0 -7.75l2.328125 0l0 -2.328125l2.3437462 0l0 -2.328125l10.078129 0l0 2.328125l2.328125 0l0 3.078125l-5.421875 0l0 -2.328125l-3.9062538 0l0 2.328125l-2.328125 0l0 6.25l2.328125 0l0 2.328125l3.9062538 0l0 -2.328125l5.421875 0l0 3.078125l-2.328125 0l0 2.34375l-10.078129 0z" fill-rule="nonzero"/></g></svg>