<svg version="1.1" viewBox="0.0 0.0 300.0 75.0" fill="none" stroke="none" stroke-linecap="square" stroke-miterlimit="10" xmlns:xlink="http://www.w3.org/1999/xlink" xmlns="http://www.w3.org/2000/svg"><clipPath id="p.0"><path d="m0 0l300.0 0l0 75.0l-300.0 0l0 -75.0z" clip-rule="nonzero"/></clipPath><g clip-path="url(#p.0)"><path fill="#000000" fill-opacity="0.0" d="m0 0l300.0 0l0 75.0l-300.0 0z" fill-rule="evenodd"/><path fill="#000000" fill-opacity="0.0" d="m97.34234 19.63422l196.50394 0l0 35.716534l-196.50394 0z" fill-rule="evenodd"/><path fill="#fcfcfc" d="m98.95171 31.412485l0 -0.296875l1.203125 -0.625l4.765625 -11.484375l0.84375 0l4.703125 11.4375l1.25 0.671875l0 0.296875l-4.625 0l0 -0.296875l1.640625 -0.640625l-1.390625 -3.453125l-4.546875 0l-1.375 3.453125l1.5625 0.640625l0 0.296875l-4.03125 0zm4.28125 -5.40625l3.6875 0l-1.84375 -4.59375l-1.84375 4.59375zm10.0703125 5.40625l0 -0.296875l1.171875 -0.59375l0 -5.5625l-1.109375 -0.96875l0 -0.140625l2.3125 -1.015625l0.109375 0l0.171875 1.578125l0.0625 0q0.4375 -0.6875 0.796875 -1.03125q0.359375 -0.34375 0.671875 -0.4375q0.328125 -0.109375 0.640625 -0.109375q0.15625 0 0.34375 0.0625q0.203125 0.046875 0.328125 0.109375q0.203125 0.078125 0.375 0.21875q0.1875 0.125 0.1875 0.296875q0 0.171875 -0.078125 0.328125l-0.375 0.921875l-0.125 0l-0.703125 -0.28125q-0.203125 -0.09375 -0.40625 -0.109375q-0.1875 -0.015625 -0.375 -0.015625q-0.796875 0 -1.328125 0.796875l0 5.359375l1.328125 0.59375l0 0.296875l-4.0 0zm10.31279 0.1875q-0.8125 0 -1.421875 -0.484375q-0.59375 -0.484375 -0.59375 -1.359375l0 -5.859375l-1.53125 0l0 -0.109375l1.59375 -0.765625l1.328125 -2.0625l0.109375 0l0 2.0625l2.46875 0l0 0.875l-2.46875 0l0 5.53125q0 0.484375 0.421875 0.71875q0.4375 0.21875 1.015625 0.21875q0.359375 0 0.65625 -0.03125q0.3125 -0.046875 0.53125 -0.09375l0.0625 0l0 0.1875q-0.1875 0.421875 -0.75 0.796875q-0.546875 0.375 -1.421875 0.375zm5.6043167 -11.03125q-0.484375 0 -0.8125 -0.328125q-0.3125 -0.328125 -0.3125 -0.78125q0 -0.484375 0.3125 -0.796875q0.328125 -0.328125 0.8125 -0.328125q0.484375 0 0.796875 0.328125q0.328125 0.3125 0.328125 0.796875q0 0.453125 -0.328125 0.78125q-0.3125 0.328125 -0.796875 0.328125zm-1.8750076 10.84375l0 -0.296875l1.1875076 -0.59375l0 -5.5625l-1.1250076 -0.96875l0 -0.140625l2.5000076 -1.015625l0.109375 0l0 7.6875l1.171875 0.59375l0 0.296875l-3.8437576 0zm5.839409 0l0 -0.296875l1.1875 -0.59375l0 -6.625l-1.453125 0l0 -0.875l1.453125 0l0 -0.734375q0 -0.75 0.421875 -1.578125q0.4375 -0.84375 1.1875 -1.59375q0.75 -0.75 1.71875 -1.21875q0.984375 -0.484375 2.0625 -0.484375q0.40625 0 0.6875 0.078125q0.28125 0.0625 0.453125 0.109375q0.71875 0.25 0.71875 0.578125q0 0.078125 -0.015625 0.171875q-0.015625 0.09375 -0.078125 0.203125l-0.484375 0.9375l-0.1875 0l-0.5 -0.21875q-0.515625 -0.25 -0.9375 -0.359375q-0.421875 -0.109375 -1.078125 -0.109375q-1.375 0 -1.9375 0.828125q-0.546875 0.8125 -0.546875 2.09375l0 1.296875l6.390625 0l0 7.5l1.171875 0.59375l0 0.296875l-3.84375 0l0 -0.296875l1.171875 -0.59375l0 -6.625l-4.890625 0l0 6.65625l1.328125 0.5625l0 0.296875l-4.0 0zm16.047974 0.1875q-1.8125 0 -2.859375 -1.09375q-1.03125 -1.109375 -1.03125 -2.921875q0 -1.390625 0.5625 -2.46875q0.578125 -1.078125 1.546875 -1.671875q0.96875 -0.609375 2.171875 -0.609375q0.75 0 1.453125 0.25q0.71875 0.25 1.09375 0.65625q0.296875 0.359375 0.296875 0.5625q0 0.265625 -0.25 0.453125l-0.703125 0.59375l-0.125 0l-0.640625 -0.859375q-0.28125 -0.375 -0.703125 -0.609375q-0.421875 -0.234375 -1.03125 -0.234375q-1.03125 0 -1.625 0.8125q-0.578125 0.8125 -0.578125 2.265625q0 0.90625 0.296875 1.703125q0.296875 0.78125 1.0 1.28125q0.703125 0.484375 1.9375 0.484375q1.015625 0 2.40625 -0.734375l0.046875 0l0 0.1875q-0.421875 0.796875 -1.28125 1.375q-0.84375 0.578125 -1.984375 0.578125zm6.9832153 -11.03125q-0.484375 0 -0.8125 -0.328125q-0.3125 -0.328125 -0.3125 -0.78125q0 -0.484375 0.3125 -0.796875q0.328125 -0.328125 0.8125 -0.328125q0.484375 0 0.796875 0.328125q0.328125 0.3125 0.328125 0.796875q0 0.453125 -0.328125 0.78125q-0.3125 0.328125 -0.796875 0.328125zm-1.875 10.84375l0 -0.296875l1.1875 -0.59375l0 -5.5625l-1.125 -0.96875l0 -0.140625l2.5 -1.015625l0.109375 0l0 7.6875l1.171875 0.59375l0 0.296875l-3.84375 0zm7.7456512 0.1875q-0.875 0 -1.453125 -0.515625q-0.578125 -0.515625 -0.578125 -1.421875q0 -0.921875 0.671875 -1.59375q0.6875 -0.671875 2.296875 -1.046875l1.765625 -0.40625l0 -1.359375q0 -0.640625 -0.515625 -1.09375q-0.5 -0.453125 -1.15625 -0.453125q-0.703125 0 -0.984375 0.390625q-0.28125 0.375 -0.28125 1.0l0 0.53125l-0.09375 0.09375l-0.96875 0q-0.28125 0 -0.390625 -0.09375q-0.09375 -0.09375 -0.09375 -0.4375q0 -0.40625 0.234375 -0.828125q0.25 -0.4375 0.75 -0.75q0.515625 -0.34375 1.078125 -0.5625q0.578125 -0.21875 1.234375 -0.21875q0.65625 0 1.28125 0.1875q0.625 0.1875 1.015625 0.625q0.390625 0.4375 0.390625 1.21875l0 5.296875q0.125 0.125 0.359375 0.21875q0.25 0.09375 0.6875 0.09375l0.703125 0l0.0625 0.046875l0 0.046875q-0.234375 0.421875 -0.671875 0.734375q-0.4375 0.296875 -1.0625 0.296875q-0.578125 0 -0.953125 -0.296875q-0.359375 -0.3125 -0.5 -0.828125l-0.125 0q-0.484375 0.484375 -1.203125 0.8125q-0.71875 0.3125 -1.5 0.3125zm-0.578125 -2.3125q0 1.15625 1.40625 1.15625q0.4375 0 0.875 -0.09375q0.453125 -0.09375 1.0 -0.34375l0 -2.75q-1.484375 0.28125 -2.171875 0.59375q-0.6875 0.296875 -0.90625 0.65625q-0.203125 0.34375 -0.203125 0.78125zm7.5295715 2.125l0 -0.296875l1.171875 -0.59375l0 -10.96875l-1.125 -0.96875l0 -0.140625l2.5 -1.03125l0.109375 0l0 13.109375l1.1875 0.59375l0 0.296875l-3.84375 0zm10.633377 0l0 -0.296875l1.484375 -0.75l0 -10.21875l-1.484375 -0.75l0 -0.296875l4.65625 0l0 0.296875l-1.484375 0.75l0 10.21875l1.484375 0.75l0 0.296875l-4.65625 0zm6.854065 0l0 -0.296875l1.1875 -0.59375l0 -5.5625l-1.125 -0.96875l0 -0.140625l2.3125 -1.015625l0.109375 0l0.171875 1.375l0.09375 0q0.703125 -0.703125 1.359375 -1.03125q0.671875 -0.34375 1.46875 -0.34375q1.109375 0 1.796875 0.546875q0.703125 0.546875 0.703125 1.625l0 5.515625l1.1875 0.59375l0 0.296875l-4.0 0l0 -0.296875l1.328125 -0.59375l0 -4.625q0 -0.828125 -0.515625 -1.25q-0.515625 -0.4375 -1.328125 -0.4375q-0.515625 0 -1.125 0.171875q-0.59375 0.171875 -0.953125 0.484375l0 5.65625l1.328125 0.59375l0 0.296875l-4.0 0zm13.842316 0.1875q-0.8125 0 -1.421875 -0.484375q-0.59375 -0.484375 -0.59375 -1.359375l0 -5.859375l-1.53125 0l0 -0.109375l1.59375 -0.765625l1.328125 -2.0625l0.109375 0l0 2.0625l2.46875 0l0 0.875l-2.46875 0l0 5.53125q0 0.484375 0.421875 0.71875q0.4375 0.21875 1.015625 0.21875q0.359375 0 0.65625 -0.03125q0.3125 -0.046875 0.53125 -0.09375l0.0625 0l0 0.1875q-0.1875 0.421875 -0.75 0.796875q-0.546875 0.375 -1.421875 0.375zm7.557434 0q-1.8125 0 -2.859375 -1.09375q-1.03125 -1.109375 -1.03125 -2.921875q0 -1.390625 0.546875 -2.46875q0.546875 -1.078125 1.453125 -1.671875q0.90625 -0.609375 1.96875 -0.609375q1.46875 0 2.3125 1.03125q0.859375 1.015625 0.859375 2.9375l-0.09375 0.09375l-5.578125 0q0.015625 0.859375 0.328125 1.625q0.328125 0.75 1.015625 1.21875q0.703125 0.453125 1.890625 0.453125q1.015625 0 2.40625 -0.734375l0.046875 0l0 0.1875q-0.421875 0.796875 -1.28125 1.375q-0.84375 0.578125 -1.984375 0.578125zm-0.21875 -7.953125q-0.890625 0 -1.46875 0.625q-0.5625 0.625 -0.703125 1.765625l4.21875 0q-0.203125 -1.265625 -0.71875 -1.828125q-0.515625 -0.5625 -1.328125 -0.5625zm5.2483826 7.765625l0 -0.296875l1.171875 -0.59375l0 -10.96875l-1.125 -0.96875l0 -0.140625l2.5 -1.03125l0.109375 0l0 13.109375l1.1875 0.59375l0 0.296875l-3.84375 0zm5.4849396 0l0 -0.296875l1.171875 -0.59375l0 -10.96875l-1.125 -0.96875l0 -0.140625l2.5 -1.03125l0.109375 0l0 13.109375l1.1875 0.59375l0 0.296875l-3.84375 0zm7.5318146 -10.84375q-0.484375 0 -0.8125 -0.328125q-0.3125 -0.328125 -0.3125 -0.78125q0 -0.484375 0.3125 -0.796875q0.328125 -0.328125 0.8125 -0.328125q0.484375 0 0.796875 0.328125q0.328125 0.3125 0.328125 0.796875q0 0.453125 -0.328125 0.78125q-0.3125 0.328125 -0.796875 0.328125zm-1.875 10.84375l0 -0.296875l1.1875 -0.59375l0 -5.5625l-1.125 -0.96875l0 -0.140625l2.5 -1.015625l0.109375 0l0 7.6875l1.171875 0.59375l0 0.296875l-3.84375 0zm9.651901 -2.65625q-0.8125 0 -1.515625 -0.296875q-0.375 0.15625 -0.53125 0.40625q-0.15625 0.234375 -0.15625 0.515625q0 0.9375 1.328125 0.9375l2.234375 0q1.359375 0 2.0 0.59375q0.65625 0.59375 0.65625 1.7656269q0 0.8125 -0.53125 1.546875q-0.53125 0.734375 -1.515625 1.203125q-0.984375 0.46875 -2.328125 0.46875q-1.765625 0 -2.546875 -0.65625q-0.765625 -0.640625 -0.765625 -1.578125q0 -0.6875 0.328125 -1.1875l1.296875 -0.8593769l0 -0.078125q-0.71875 -0.140625 -1.09375 -0.546875q-0.359375 -0.40625 -0.359375 -0.984375q0 -0.703125 0.484375 -1.1875l1.0 -0.515625l0 -0.125q-0.59375 -0.390625 -0.953125 -1.0q-0.34375 -0.609375 -0.34375 -1.375q0 -0.84375 0.421875 -1.515625q0.421875 -0.671875 1.171875 -1.0625q0.765625 -0.390625 1.71875 -0.390625q0.390625 0 0.84375 0.09375q0.46875 0.09375 0.796875 0.234375l2.796875 -0.140625l0 1.0l-1.734375 -0.109375l-0.078125 0.078125q0.3125 0.328125 0.5 0.8125q0.203125 0.484375 0.203125 1.0q0 0.828125 -0.4375 1.5q-0.421875 0.671875 -1.1875 1.0625q-0.75 0.390625 -1.703125 0.390625zm0.1875 -0.765625q0.75 0 1.171875 -0.640625q0.4375 -0.640625 0.4375 -1.5q0 -1.015625 -0.5625 -1.640625q-0.5625 -0.625 -1.359375 -0.625q-0.8125 0 -1.25 0.640625q-0.421875 0.640625 -0.421875 1.515625q0 0.96875 0.5625 1.609375q0.5625 0.640625 1.421875 0.640625zm-2.53125 5.468752q0 0.828125 0.640625 1.359375q0.640625 0.546875 1.578125 0.546875q0.828125 0 1.453125 -0.328125q0.625 -0.328125 0.96875 -0.859375q0.359375 -0.53125 0.359375 -1.125q0 -0.8125 -0.453125 -1.1406269q-0.4375 -0.3125 -1.5625 -0.3125l-2.0 0q-0.0625 0 -0.09375 0q-0.5 0.296875 -0.703125 0.7500019q-0.1875 0.46875 -0.1875 1.109375zm12.359024 -1.8593769q-1.8125 0 -2.859375 -1.09375q-1.03125 -1.109375 -1.03125 -2.921875q0 -1.390625 0.546875 -2.46875q0.546875 -1.078125 1.453125 -1.671875q0.90625 -0.609375 1.96875 -0.609375q1.46875 0 2.3125 1.03125q0.859375 1.015625 0.859375 2.9375l-0.09375 0.09375l-5.578125 0q0.015625 0.859375 0.328125 1.625q0.328125 0.75 1.015625 1.21875q0.703125 0.453125 1.890625 0.453125q1.015625 0 2.40625 -0.734375l0.046875 0l0 0.1875q-0.421875 0.796875 -1.28125 1.375q-0.84375 0.578125 -1.984375 0.578125zm-0.21875 -7.953125q-0.890625 0 -1.46875 0.625q-0.5625 0.625 -0.703125 1.765625l4.21875 0q-0.203125 -1.265625 -0.71875 -1.828125q-0.515625 -0.5625 -1.328125 -0.5625zm5.3108826 7.765625l0 -0.296875l1.1875 -0.59375l0 -5.5625l-1.125 -0.96875l0 -0.140625l2.3125 -1.015625l0.109375 0l0.171875 1.375l0.09375 0q0.703125 -0.703125 1.359375 -1.03125q0.671875 -0.34375 1.46875 -0.34375q1.109375 0 1.796875 0.546875q0.703125 0.546875 0.703125 1.625l0 5.515625l1.1875 0.59375l0 0.296875l-4.0 0l0 -0.296875l1.328125 -0.59375l0 -4.625q0 -0.828125 -0.515625 -1.25q-0.515625 -0.4375 -1.328125 -0.4375q-0.515625 0 -1.125 0.171875q-0.59375 0.171875 -0.953125 0.484375l0 5.65625l1.328125 0.59375l0 0.296875l-4.0 0zm14.795441 0.1875q-1.8125 0 -2.859375 -1.09375q-1.03125 -1.109375 -1.03125 -2.921875q0 -1.390625 0.5625 -2.46875q0.578125 -1.078125 1.546875 -1.671875q0.96875 -0.609375 2.171875 -0.609375q0.75 0 1.453125 0.25q0.71875 0.25 1.09375 0.65625q0.296875 0.359375 0.296875 0.5625q0 0.265625 -0.25 0.453125l-0.703125 0.59375l-0.125 0l-0.640625 -0.859375q-0.28125 -0.375 -0.703125 -0.609375q-0.421875 -0.234375 -1.03125 -0.234375q-1.03125 0 -1.625 0.8125q-0.578125 0.8125 -0.578125 2.265625q0 0.90625 0.296875 1.703125q0.296875 0.78125 1.0 1.28125q0.703125 0.484375 1.9375 0.484375q1.015625 0 2.40625 -0.734375l0.046875 0l0 0.1875q-0.421875 0.796875 -1.28125 1.375q-0.84375 0.578125 -1.984375 0.578125zm8.93634 0q-1.8125 0 -2.859375 -1.09375q-1.03125 -1.109375 -1.03125 -2.921875q0 -1.390625 0.546875 -2.46875q0.546875 -1.078125 1.453125 -1.671875q0.90625 -0.609375 1.96875 -0.609375q1.46875 0 2.3125 1.03125q0.859375 1.015625 0.859375 2.9375l-0.09375 0.09375l-5.578125 0q0.015625 0.859375 0.328125 1.625q0.328125 0.75 1.015625 1.21875q0.703125 0.453125 1.890625 0.453125q1.015625 0 2.40625 -0.734375l0.046875 0l0 0.1875q-0.421875 0.796875 -1.28125 1.375q-0.84375 0.578125 -1.984375 0.578125zm-0.21875 -7.953125q-0.890625 0 -1.46875 0.625q-0.5625 0.625 -0.703125 1.765625l4.21875 0q-0.203125 -1.265625 -0.71875 -1.828125q-0.515625 -0.5625 -1.328125 -0.5625z" fill-rule="nonzero"/><path fill="#fcfcfc" d="m111.06109 58.193737q-0.71875 0 -1.515625 -0.1875q-0.78125 -0.1875 -1.796875 -0.75q-1.0 -0.5625 -2.375 -1.671875q-1.65625 -0.109375 -2.953125 -0.953125q-1.28125 -0.859375 -2.03125 -2.234375q-0.734375 -1.390625 -0.734375 -3.140625q0 -1.375 0.453125 -2.53125q0.46875 -1.15625 1.3125 -2.0q0.84375 -0.859375 1.96875 -1.328125q1.125 -0.484375 2.46875 -0.484375q1.34375 0 2.484375 0.484375q1.140625 0.46875 1.96875 1.328125q0.84375 0.84375 1.3125 2.0q0.46875 1.15625 0.46875 2.53125q0 1.515625 -0.5625 2.75q-0.5625 1.234375 -1.5625 2.109375q-0.984375 0.875 -2.3125 1.234375q1.0625 0.828125 1.84375 1.3125q0.78125 0.484375 1.4375 0.6875q0.65625 0.203125 1.265625 0.203125q0.390625 0 0.6875 -0.046875q0.296875 -0.046875 0.515625 -0.109375l0 0.296875q-0.4375 0.21875 -1.03125 0.359375q-0.59375 0.140625 -1.3125 0.140625zm-4.8125 -3.53125q1.203125 0 2.09375 -0.59375q0.90625 -0.59375 1.421875 -1.671875q0.515625 -1.09375 0.515625 -2.5625q0 -1.8125 -0.640625 -3.15625q-0.625 -1.359375 -1.703125 -2.09375q-1.0625 -0.75 -2.390625 -0.75q-1.203125 0 -2.125 0.59375q-0.921875 0.578125 -1.453125 1.65625q-0.515625 1.078125 -0.515625 2.5625q0 1.796875 0.640625 3.171875q0.65625 1.359375 1.734375 2.109375q1.078125 0.734375 2.421875 0.734375zm11.352478 0.9375q-1.109375 0 -1.8125 -0.546875q-0.6875 -0.5625 -0.6875 -1.640625l0 -5.515625l-1.1875 -0.578125l0 -0.296875l2.671875 0l0 5.515625q0 0.828125 0.515625 1.265625q0.515625 0.421875 1.328125 0.421875q0.515625 0 1.109375 -0.171875q0.609375 -0.171875 0.96875 -0.484375l0 -5.671875l-1.328125 -0.578125l0 -0.296875l2.8125 0l0 7.546875l1.328125 0.546875l0 0.296875l-2.8125 0l0 -1.171875l-0.09375 0q-0.703125 0.703125 -1.375 1.03125q-0.65625 0.328125 -1.4375 0.328125zm9.169281 0q-0.875 0 -1.453125 -0.515625q-0.578125 -0.515625 -0.578125 -1.421875q0 -0.921875 0.671875 -1.59375q0.6875 -0.671875 2.296875 -1.046875l1.7656326 -0.40625l0 -1.359375q0 -0.640625 -0.515625 -1.09375q-0.5 -0.453125 -1.1562576 -0.453125q-0.703125 0 -0.984375 0.390625q-0.28125 0.375 -0.28125 1.0l0 0.53125l-0.09375 0.09375l-0.96875 0q-0.28125 0 -0.390625 -0.09375q-0.09375 -0.09375 -0.09375 -0.4375q0 -0.40625 0.234375 -0.828125q0.25 -0.4375 0.75 -0.75q0.515625 -0.34375 1.078125 -0.5625q0.578125 -0.21875 1.2343826 -0.21875q0.65625 0 1.28125 0.1875q0.625 0.1875 1.015625 0.625q0.390625 0.4375 0.390625 1.21875l0 5.296875q0.125 0.125 0.359375 0.21875q0.25 0.09375 0.6875 0.09375l0.703125 0l0.0625 0.046875l0 0.046875q-0.234375 0.421875 -0.671875 0.734375q-0.4375 0.296875 -1.0625 0.296875q-0.578125 0 -0.953125 -0.296875q-0.359375 -0.3125 -0.5 -0.828125l-0.125 0q-0.484375 0.484375 -1.203125 0.8125q-0.7187576 0.3125 -1.5000076 0.3125zm-0.578125 -2.3125q0 1.15625 1.40625 1.15625q0.43750763 0 0.8750076 -0.09375q0.453125 -0.09375 1.0 -0.34375l0 -2.75q-1.4843826 0.28125 -2.1718826 0.59375q-0.6875 0.296875 -0.90625 0.65625q-0.203125 0.34375 -0.203125 0.78125zm7.529579 2.125l0 -0.296875l1.171875 -0.59375l0 -10.96875l-1.125 -0.96875l0 -0.140625l2.5 -1.03125l0.109375 0l0 13.109375l1.1875 0.59375l0 0.296875l-3.84375 0zm7.5318146 -10.84375q-0.484375 0 -0.8125 -0.328125q-0.3125 -0.328125 -0.3125 -0.78125q0 -0.484375 0.3125 -0.796875q0.328125 -0.328125 0.8125 -0.328125q0.484375 0 0.796875 0.328125q0.328125 0.3125 0.328125 0.796875q0 0.453125 -0.328125 0.78125q-0.3125 0.328125 -0.796875 0.328125zm-1.875 10.84375l0 -0.296875l1.1875 -0.59375l0 -5.5625l-1.125 -0.96875l0 -0.140625l2.5 -1.015625l0.109375 0l0 7.6875l1.171875 0.59375l0 0.296875l-3.84375 0zm8.714401 0.1875q-0.8125 0 -1.421875 -0.484375q-0.59375 -0.484375 -0.59375 -1.359375l0 -5.859375l-1.53125 0l0 -0.109375l1.59375 -0.765625l1.328125 -2.0625l0.109375 0l0 2.0625l2.46875 0l0 0.875l-2.46875 0l0 5.53125q0 0.484375 0.421875 0.71875q0.4375 0.21875 1.015625 0.21875q0.359375 0 0.65625 -0.03125q0.3125 -0.046875 0.53125 -0.09375l0.0625 0l0 0.1875q-0.1875 0.421875 -0.75 0.796875q-0.546875 0.375 -1.421875 0.375zm4.276184 4.3125q-0.421875 0 -0.53125 -0.125q-0.09375 -0.125 -0.09375 -0.421875l0 -0.9375l0.0625 -0.0625l0.859375 0q0.46875 0 0.703125 -0.09375q0.25 -0.078125 0.453125 -0.421875q0.203125 -0.34375 0.578125 -1.125l0.65625 -1.46875l-3.40625 -7.359375l-1.25 -0.578125l0 -0.296875l4.453125 0l0 0.296875l-1.53125 0.578125l0 0.09375l2.484375 5.40625l0.046875 0l2.09375 -5.296875l0 -0.109375l-1.390625 -0.671875l0 -0.296875l3.65625 0l0 0.296875l-1.40625 0.625l-3.671875 8.9375q-0.171875 0.4375 -0.296875 0.71875q-0.109375 0.296875 -0.265625 0.5625q-0.15625 0.265625 -0.421875 0.671875q-0.375 0.53125 -0.84375 0.796875q-0.46875 0.28125 -0.9375 0.28125zm19.54094 -4.3125q-1.90625 0 -3.296875 -0.78125q-1.375 -0.78125 -2.125 -2.125q-0.734375 -1.359375 -0.734375 -3.109375q0 -1.3125 0.5 -2.515625q0.515625 -1.203125 1.40625 -2.140625q0.890625 -0.9375 2.046875 -1.46875q1.171875 -0.546875 2.484375 -0.546875q0.921875 0 1.578125 0.125q0.65625 0.125 1.15625 0.328125q0.515625 0.1875 1.046875 0.4375l0.09375 3.265625l-0.34375 0l-1.125 -2.265625q-0.71875 -0.515625 -1.25 -0.734375q-0.53125 -0.21875 -1.203125 -0.21875q-1.34375 0 -2.40625 0.671875q-1.046875 0.671875 -1.65625 1.84375q-0.59375 1.15625 -0.59375 2.671875q0 1.765625 0.578125 3.03125q0.59375 1.25 1.59375 1.921875q1.0 0.65625 2.203125 0.65625q1.03125 0 1.71875 -0.28125q0.703125 -0.296875 1.25 -0.65625l1.125 -1.984375l0.3125 0l-0.203125 2.953125q-0.546875 0.28125 -1.125 0.5q-0.5625 0.203125 -1.296875 0.3125q-0.71875 0.109375 -1.734375 0.109375zm11.106934 0q-1.21875 0 -2.15625 -0.578125q-0.921875 -0.578125 -1.4375 -1.5625q-0.5 -1.0 -0.5 -2.25q0 -1.25 0.5 -2.234375q0.515625 -0.984375 1.4375 -1.5625q0.9375 -0.578125 2.15625 -0.578125q1.234375 0 2.15625 0.578125q0.921875 0.578125 1.4375 1.5625q0.515625 0.984375 0.515625 2.234375q0 1.25 -0.515625 2.25q-0.515625 0.984375 -1.4375 1.5625q-0.921875 0.578125 -2.15625 0.578125zm0.265625 -0.796875q0.75 0 1.234375 -0.46875q0.484375 -0.46875 0.703125 -1.203125q0.234375 -0.734375 0.234375 -1.546875q0 -0.984375 -0.28125 -1.890625q-0.265625 -0.921875 -0.859375 -1.5q-0.578125 -0.578125 -1.515625 -0.578125q-0.765625 0 -1.25 0.46875q-0.484375 0.46875 -0.71875 1.203125q-0.234375 0.71875 -0.234375 1.53125q0 1.0 0.28125 1.921875q0.28125 0.90625 0.875 1.484375q0.59375 0.578125 1.53125 0.578125zm5.6681213 0.609375l0 -0.296875l1.1875 -0.59375l0 -5.5625l-1.125 -0.96875l0 -0.140625l2.3125 -1.015625l0.109375 0l0.171875 1.375l0.09375 0q0.703125 -0.703125 1.359375 -1.03125q0.671875 -0.34375 1.46875 -0.34375q1.109375 0 1.796875 0.546875q0.703125 0.546875 0.703125 1.625l0 5.515625l1.1875 0.59375l0 0.296875l-4.0 0l0 -0.296875l1.328125 -0.59375l0 -4.625q0 -0.828125 -0.515625 -1.25q-0.515625 -0.4375 -1.328125 -0.4375q-0.515625 0 -1.125 0.171875q-0.59375 0.171875 -0.953125 0.484375l0 5.65625l1.328125 0.59375l0 0.296875l-4.0 0zm13.842316 0.1875q-0.8125 0 -1.421875 -0.484375q-0.59375 -0.484375 -0.59375 -1.359375l0 -5.859375l-1.53125 0l0 -0.109375l1.59375 -0.765625l1.328125 -2.0625l0.109375 0l0 2.0625l2.46875 0l0 0.875l-2.46875 0l0 5.53125q0 0.484375 0.421875 0.71875q0.4375 0.21875 1.015625 0.21875q0.359375 0 0.65625 -0.03125q0.3125 -0.046875 0.53125 -0.09375l0.0625 0l0 0.1875q-0.1875 0.421875 -0.75 0.796875q-0.546875 0.375 -1.421875 0.375zm3.8847198 -0.1875l0 -0.296875l1.171875 -0.59375l0 -5.5625l-1.109375 -0.96875l0 -0.140625l2.3125 -1.015625l0.109375 0l0.171875 1.578125l0.0625 0q0.4375 -0.6875 0.796875 -1.03125q0.359375 -0.34375 0.671875 -0.4375q0.328125 -0.109375 0.640625 -0.109375q0.15625 0 0.34375 0.0625q0.203125 0.046875 0.328125 0.109375q0.203125 0.078125 0.375 0.21875q0.1875 0.125 0.1875 0.296875q0 0.171875 -0.078125 0.328125l-0.375 0.921875l-0.125 0l-0.703125 -0.28125q-0.203125 -0.09375 -0.40625 -0.109375q-0.1875 -0.015625 -0.375 -0.015625q-0.796875 0 -1.328125 0.796875l0 5.359375l1.328125 0.59375l0 0.296875l-4.0 0zm11.46904 0.1875q-1.21875 0 -2.15625 -0.578125q-0.921875 -0.578125 -1.4375 -1.5625q-0.5 -1.0 -0.5 -2.25q0 -1.25 0.5 -2.234375q0.515625 -0.984375 1.4375 -1.5625q0.9375 -0.578125 2.15625 -0.578125q1.234375 0 2.15625 0.578125q0.921875 0.578125 1.4375 1.5625q0.515625 0.984375 0.515625 2.234375q0 1.25 -0.515625 2.25q-0.515625 0.984375 -1.4375 1.5625q-0.921875 0.578125 -2.15625 0.578125zm0.265625 -0.796875q0.75 0 1.234375 -0.46875q0.484375 -0.46875 0.703125 -1.203125q0.234375 -0.734375 0.234375 -1.546875q0 -0.984375 -0.28125 -1.890625q-0.265625 -0.921875 -0.859375 -1.5q-0.578125 -0.578125 -1.515625 -0.578125q-0.765625 0 -1.25 0.46875q-0.484375 0.46875 -0.71875 1.203125q-0.234375 0.71875 -0.234375 1.53125q0 1.0 0.28125 1.921875q0.28125 0.90625 0.875 1.484375q0.59375 0.578125 1.53125 0.578125zm5.6056213 0.609375l0 -0.296875l1.171875 -0.59375l0 -10.96875l-1.125 -0.96875l0 -0.140625l2.5 -1.03125l0.109375 0l0 13.109375l1.1875 0.59375l0 0.296875l-3.84375 0zm6.9849396 0.09375q-0.46875 0 -0.8125 -0.328125q-0.328125 -0.34375 -0.328125 -0.8125q0 -0.46875 0.328125 -0.796875q0.34375 -0.34375 0.8125 -0.34375q0.46875 0 0.796875 0.34375q0.34375 0.328125 0.34375 0.796875q0 0.46875 -0.34375 0.8125q-0.328125 0.328125 -0.796875 0.328125z" fill-rule="nonzero"/><defs><linearGradient id="p.1" gradientUnits="userSpaceOnUse" gradientTransform="matrix(7.479145576157432 0.0 0.0 7.479145576157432 0.0 0.0)" spreadMethod="pad" x1="10.963020024801072" y1="8.753806104163026" x2="10.963102274501129" y2="1.274660528457853"><stop offset="0.0" stop-color="#9f8937"/><stop offset="0.28" stop-color="#e3ce7a"/><stop offset="0.75" stop-color="#9f8937"/><stop offset="0.91" stop-color="#e3cd77"/><stop offset="1.0" stop-color="#e1ca6f"/></linearGradient></defs><path fill="url(#p.1)" d="m26.781424 14.244662l0 0c0 -2.6019735 2.1093178 -4.7112904 4.7112923 -4.7112904l45.790016 0c1.2495117 0 2.4478455 0.4963665 3.3313904 1.3799047c0.8835373 0.88353825 1.3798981 2.081874 1.3798981 3.3313856l0 46.514423c0 2.6019745 -2.109314 4.711296 -4.7112885 4.711296l-45.790016 0c-2.6019745 0 -4.7112923 -2.1093216 -4.7112923 -4.711296z" fill-rule="evenodd"/><defs><linearGradient id="p.2" gradientUnits="userSpaceOnUse" gradientTransform="matrix(7.123225355464931 0.0 0.0 7.123225355464931 0.0 0.0)" spreadMethod="pad" x1="4.1197076128655254" y1="1.7029912103618532" x2="4.119681705044997" y2="8.826216565779669"><stop offset="0.0" stop-color="#4d4d4d"/><stop offset="0.41" stop-color="#272727"/><stop offset="1.0" stop-color="#000000"/></linearGradient></defs><path fill="url(#p.2)" d="m29.345604 16.511358l0 0c0 -2.419221 1.9611664 -4.3803873 4.3803864 -4.3803873l41.31797 0c1.1617508 0 2.275917 0.46150398 3.0973969 1.2829857c0.8214874 0.82148266 1.2829895 1.9356508 1.2829895 3.0974016l0 41.979385c0 2.41922 -1.9611664 4.3803864 -4.3803864 4.3803864l-41.31797 0c-2.41922 0 -4.3803864 -1.9611664 -4.3803864 -4.3803864z" fill-rule="evenodd"/><path fill="#000000" fill-opacity="0.0" d="m28.09465 18.189693l55.086617 0l0 24.440945l-55.086617 0z" fill-rule="evenodd"/><path fill="#ffffff" d="m36.981705 35.002037l0 -12.421873l2.328125 0l0 -2.328125l2.34375 0l0 -2.328125l7.734375 0l0 2.328125l2.34375 0l0 2.328125l2.328125 0l0 12.421873l-5.421875 0l0 -4.671873l-6.234375 0l0 4.671873l-5.421875 0zm5.421875 -7.749998l6.234375 0l0 -3.921875l-2.328125 0l0 -2.328125l-1.578125 0l0 2.328125l-2.328125 0l0 3.921875zm15.5625 7.749998l0 -3.093748l4.671875 0l0 -10.90625l-4.671875 0l0 -3.078125l14.75 0l0 3.078125l-4.671875 0l0 10.90625l4.671875 0l0 3.093748l-14.75 0z" fill-rule="nonzero"/><path fill="#000000" fill-opacity="0.0" d="m28.144583 41.89105l55.086617 0l0 21.291336l-55.086617 0z" fill-rule="evenodd"/><path fill="#ffffff" d="m53.44565 42.37859l0 10.078125l-2.328125 0l0 2.328125l-2.34375 0l0 2.34375l-10.078125 0l0 -2.34375l-2.328125 0l0 -12.40625l2.328125 0l0 -2.328125l12.421875 0l0 2.328125l2.328125 0zm-5.421875 0.75l-6.234375 0l0 10.90625l3.90625 0l0 -1.578125l-2.328125 0l0 -3.078125l4.65625 0l0 -6.25zm2.34375 14.0l0 -3.09375l3.078125 0l0 3.09375l-3.078125 0z" fill-rule="nonzero"/><path fill="#ffffff" d="m61.02388 57.12859l0 -2.34375l-2.34375 0l0 -2.328125l-2.328125 0l0 -7.75l2.328125 0l0 -2.328125l2.34375 0l0 -2.328125l10.078125 0l0 2.328125l2.328125 0l0 3.078125l-5.421875 0l0 -2.328125l-3.90625 0l0 2.328125l-2.328125 0l0 6.25l2.328125 0l0 2.328125l3.90625 0l0 -2.328125l5.421875 0l0 3.078125l-2.328125 0l0 2.34375l-10.078125 0z" fill-rule="nonzero"/></g></svg>